<svg xmlns="http://www.w3.org/2000/svg" viewBox="0 0 450 121.73"><g id="Camada_2" data-name="Camada 2"><g id="Camada_1-2" data-name="Camada 1"><path d="M0,46.32H6.25v10H0ZM0,69.13H6.25v51.76H0Z" fill="#464664"/><path d="M27.6,46.53H54.37c7.29,0,11.25,1.25,14.89,4.48s5.63,8.54,5.63,14.47c0,7.92-3,13.23-9.48,16.56,4,2.09,4.89,2.71,6.35,4.48,2.92,3.44,4.58,8.65,4.58,14.58,0,6.77-2.29,12.4-6.45,15.84-3.44,2.91-7.29,4-14,4H27.6ZM54.06,79.86c4.89,0,7.7-.84,10.2-3.13s4.17-6.45,4.17-10.83c0-4.79-1.77-9-4.79-11.35-2.5-1.88-5-2.61-9.58-2.61h-20V79.86Zm1.45,35.62c4.9,0,7.71-.94,10.21-3.33s4.17-6.88,4.17-11.57c0-5.1-1.88-9.89-4.69-12.39-2.6-2.19-5.1-2.92-9.69-2.92H34.06v30.21Z" fill="#464664"/><path d="M100.51,46.53V93.71c0,8.12.73,12,3.12,15.41,3.23,4.9,7.92,7.09,14.79,7.09,8.23,0,13.13-2.5,16.36-8.23,1.77-3.13,2.39-7,2.39-14.27V46.53h6.46V93.71c0,10.42-1,14.89-4.48,19.37-4.48,6-10.83,8.65-20.31,8.65-10.1,0-17-3.23-21.25-9.9-2.71-4.16-3.54-8.64-3.54-18.12V46.53Z" fill="#464664"/><path d="M166.44,46.53h6.45v74.36h-6.45Z" fill="#464664"/><path d="M196,46.53h6.45v68.84h36.15v5.52H196Z" fill="#464664"/><path d="M251.11,46.53h23c17.6-.31,26.87,9.68,26.46,28.12V92.77c.41,18.44-8.86,28.33-26.46,28.12h-23Zm22.08,69q21.26.47,20.94-23.44V75.27c.21-15.83-6.77-23.64-20.94-23.33H257.57v63.54Z" fill="#464664"/><path d="M370.19,0h6.46L344.26,120.89H337.8Z" fill="#fa1e46"/><path d="M413.85,0h6.46l-32.4,120.89h-6.46Z" fill="#fa1e46"/><path d="M445,46.5h0c3.57,0,5.69,2.89,4.73,6.46L433.3,114.44a9,9,0,0,1-8.19,6.45h0Z" fill="#fa1e46"/></g></g></svg>