<svg xmlns="http://www.w3.org/2000/svg" viewBox="0 0 71.84 66.8"><g id="Camada_2" data-name="Camada 2"><g id="Camada_1-2" data-name="Camada 1"><path d="M26.71,58v4.13a4.17,4.17,0,0,1-4.15,4.15H17.89a4.17,4.17,0,0,1-4.15-4.15V54.31" fill="none" stroke="#5b13ce" stroke-linecap="round" stroke-linejoin="round"/><path d="M40.06,58v4.13a4.17,4.17,0,0,0,4.15,4.15h4.67A4.17,4.17,0,0,0,53,62.15V54.31" fill="none" stroke="#5b13ce" stroke-linecap="round" stroke-linejoin="round"/><path d="M7.7,17.9H3.77A3.28,3.28,0,0,1,.5,14.63V12.08A3.28,3.28,0,0,1,3.77,8.81H5.62" fill="none" stroke="#5b13ce" stroke-linecap="round" stroke-linejoin="round"/><path d="M44.84,9.43h0A9,9,0,0,1,53.77.5m0,0V12.65" fill="none" stroke="#5b13ce" stroke-linecap="round" stroke-linejoin="round"/><line x1="26.71" y1="14.97" x2="38.98" y2="14.97" fill="none" stroke="#5b13ce" stroke-linecap="round" stroke-linejoin="round"/><circle cx="50.72" cy="23.5" r="3.05" fill="none" stroke="#5b13ce" stroke-linecap="round" stroke-linejoin="round"/><path d="M65.47,24.28H63.06A24.55,24.55,0,0,0,40.4,9H26.66a24.57,24.57,0,0,0-24.5,24.5h0A24.58,24.58,0,0,0,26.66,58H40.4A24.55,24.55,0,0,0,63.24,42.26h2.23a5.89,5.89,0,0,0,5.87-5.87V30.12A5.86,5.86,0,0,0,65.47,24.28Z" fill="none" stroke="#5b13ce" stroke-linecap="round" stroke-linejoin="round"/></g></g></svg>