<svg xmlns="http://www.w3.org/2000/svg" viewBox="0 0 165.72 66.8"><g id="Camada_2" data-name="Camada 2"><g id="Camada_1-2" data-name="Camada 1"><path d="M26.71,58v4.13a4.17,4.17,0,0,1-4.15,4.15H17.89a4.17,4.17,0,0,1-4.15-4.15V54.31" fill="none" stroke="#5a14d2" stroke-linecap="round" stroke-linejoin="round"/><path d="M40.06,58v4.13a4.17,4.17,0,0,0,4.15,4.15h4.67A4.17,4.17,0,0,0,53,62.15V54.31" fill="none" stroke="#5a14d2" stroke-linecap="round" stroke-linejoin="round"/><path d="M7.7,17.9H3.77A3.28,3.28,0,0,1,.5,14.63V12.08A3.28,3.28,0,0,1,3.77,8.81H5.62" fill="none" stroke="#5a14d2" stroke-linecap="round" stroke-linejoin="round"/><path d="M44.84,9.43h0A9,9,0,0,1,53.77.5m0,0V12.65" fill="none" stroke="#5a14d2" stroke-linecap="round" stroke-linejoin="round"/><line x1="26.71" y1="14.97" x2="38.98" y2="14.97" fill="none" stroke="#5a14d2" stroke-linecap="round" stroke-linejoin="round"/><circle cx="50.72" cy="23.5" r="3.05" fill="none" stroke="#5a14d2" stroke-linecap="round" stroke-linejoin="round"/><path d="M65.47,24.28H63.06A24.55,24.55,0,0,0,40.4,9H26.66a24.57,24.57,0,0,0-24.5,24.5h0A24.58,24.58,0,0,0,26.66,58H40.4A24.55,24.55,0,0,0,63.24,42.26h2.23a5.89,5.89,0,0,0,5.87-5.87V30.12A5.86,5.86,0,0,0,65.47,24.28Z" fill="none" stroke="#5a14d2" stroke-linecap="round" stroke-linejoin="round"/><path d="M154,47a2.81,2.81,0,0,0-2-2.66,8.7,8.7,0,0,0-4.3,0,2.81,2.81,0,0,0-2,2.66,2.92,2.92,0,0,0,2,3l4.53,1.57a2.92,2.92,0,0,1,2,3,2.83,2.83,0,0,1-2,2.67,10.27,10.27,0,0,1-2.6.26,8.51,8.51,0,0,1-2.38-.26,2.83,2.83,0,0,1-2-2.67" fill="none" stroke="#5a14d2" stroke-linecap="round" stroke-linejoin="round"/><line x1="149.83" y1="60.58" x2="149.83" y2="57.55" fill="none" stroke="#5a14d2" stroke-linecap="round" stroke-linejoin="round"/><line x1="149.83" y1="44.04" x2="149.83" y2="41.01" fill="none" stroke="#5a14d2" stroke-linecap="round" stroke-linejoin="round"/><circle cx="149.72" cy="50.8" r="15.5" fill="none" stroke="#5a14d2" stroke-linecap="round" stroke-linejoin="round"/><polyline points="135.88 66.3 106.07 66.3 106.07 0.5 159.75 0.5 159.75 34.48" fill="none" stroke="#5a14d2" stroke-linecap="round" stroke-linejoin="round"/><line x1="117.68" y1="19.16" x2="137.03" y2="19.16" fill="none" stroke="#5a14d2" stroke-linecap="round" stroke-linejoin="round"/><line x1="117.68" y1="27.83" x2="137.03" y2="27.83" fill="none" stroke="#5a14d2" stroke-linecap="round" stroke-linejoin="round"/><line x1="117.68" y1="36.51" x2="136.35" y2="36.51" fill="none" stroke="#5a14d2" stroke-linecap="round" stroke-linejoin="round"/><line x1="117.68" y1="10.48" x2="137.03" y2="10.48" fill="none" stroke="#5a14d2" stroke-linecap="round" stroke-linejoin="round"/><line x1="117.68" y1="45.18" x2="130.98" y2="45.18" fill="none" stroke="#5a14d2" stroke-linecap="round" stroke-linejoin="round"/><line x1="142.76" y1="19.16" x2="148.37" y2="19.16" fill="none" stroke="#5a14d2" stroke-linecap="round" stroke-linejoin="round"/><line x1="142.76" y1="27.83" x2="148.37" y2="27.83" fill="none" stroke="#5a14d2" stroke-linecap="round" stroke-linejoin="round"/><line x1="142.76" y1="10.48" x2="148.37" y2="10.48" fill="none" stroke="#5a14d2" stroke-linecap="round" stroke-linejoin="round"/><line x1="117.68" y1="53.86" x2="130.24" y2="53.86" fill="none" stroke="#5a14d2" stroke-linecap="round" stroke-linejoin="round"/><circle cx="87.66" cy="33.4" r="9.32" fill="none" stroke="#5a14d2" stroke-miterlimit="10"/><path d="M83.75,32.71h3.16V29.46h1.51v3.25h3.16V34.1H88.42v3.24H86.91V34.1H83.75Z" fill="#5a14d2"/></g></g></svg>