<svg xmlns="http://www.w3.org/2000/svg" viewBox="0 0 72.02 66.5"><g id="Camada_2" data-name="Camada 2"><g id="Camada_1-2" data-name="Camada 1"><path d="M36.37,59.07c-.74,0-.27-1.35-.85-1.82s-1.2.32-1.78-.15,0-1.24-.53-1.7-1.2.31-1.78-.15.05-1.24-.52-1.7-1.21.31-1.78-.15.05-1.24-.53-1.71-1.21.32-1.78-.14,0-1.25-.53-1.71-1.21.31-1.79-.15S24.55,48.45,24,48s-1.21.32-1.79-.14,0-1.25-.53-1.71-1.2.31-1.78-.15.05-1.24-.53-1.71-1.2.32-1.78-.15,0-1.24-.53-1.71-1.21.32-1.79-.14.05-1.25-.52-1.71-1.21.32-1.78-.14,0-1.25-.54-1.71-1.2.31-1.78-.15,0-1.25-.53-1.71-1.2.31-1.78-.15,0-1.25-.54-1.71-1.2.31-1.78-.15,0-1.25-.54-1.71-1.2.31-1.78-.15,0-1.25-.54-1.72-1.21.32-1.79-.15S1,30.53,1,29.78s-.24-.85.34-1.31,1.21.31,1.78-.15,0-1.24.53-1.71,1.21.32,1.78-.14,0-1.25.53-1.71,1.2.32,1.78-.14,0-1.25.53-1.71,1.2.32,1.78-.15-.05-1.24.53-1.71,1.2.32,1.78-.14,0-1.25.53-1.71,1.2.32,1.78-.15-.05-1.24.53-1.71,1.21.32,1.79-.15,0-1.24.53-1.7,1.2.31,1.78-.15-.05-1.25.53-1.71,1.21.32,1.78-.15-.05-1.24.53-1.7,1.2.31,1.78-.15-.05-1.24.53-1.71,1.21.32,1.78-.15,0-1.24.53-1.71,1.21.32,1.79-.15-.05-1.24.53-1.71,1.21.32,1.79-.15-.05-1.24.53-1.71,1.21.32,1.79-.15,0-1.24.53-1.71,1.21.31,1.79-.16S35.62.5,36.36.5s.27,1.35.85,1.82S38.41,2,39,2.47s-.05,1.24.53,1.7,1.2-.31,1.78.15,0,1.24.53,1.7,1.2-.31,1.78.15,0,1.24.52,1.71,1.21-.32,1.79.14-.05,1.25.53,1.71,1.2-.31,1.78.15,0,1.24.53,1.71,1.2-.32,1.78.14,0,1.25.53,1.71,1.2-.31,1.78.15-.05,1.24.53,1.71,1.21-.32,1.79.15-.05,1.24.53,1.71,1.2-.32,1.78.14,0,1.25.53,1.71,1.2-.32,1.78.14,0,1.25.53,1.71,1.2-.31,1.78.15-.05,1.25.53,1.71,1.21-.31,1.79.15,0,1.25.53,1.71,1.21-.31,1.78.15,0,1.25.54,1.71,1.21-.31,1.79.15,0,1.25.53,1.72,1.21-.32,1.79.15.35.58.35,1.33.24.85-.34,1.31-1.2-.31-1.78.15,0,1.24-.53,1.71-1.2-.32-1.78.14,0,1.25-.53,1.71-1.2-.32-1.78.14.05,1.25-.53,1.71-1.2-.32-1.78.15,0,1.24-.53,1.71-1.2-.32-1.78.14.05,1.25-.53,1.71-1.2-.32-1.78.15,0,1.24-.53,1.71-1.21-.32-1.78.14,0,1.25-.53,1.71-1.21-.31-1.79.15,0,1.25-.53,1.71-1.2-.32-1.78.15.05,1.24-.53,1.7-1.2-.31-1.78.15,0,1.24-.53,1.71-1.2-.32-1.78.15,0,1.24-.53,1.7-1.21-.31-1.79.16,0,1.24-.53,1.71-1.21-.32-1.79.15,0,1.24-.53,1.71-1.21-.32-1.79.15.05,1.24-.53,1.71-1.48-.35-1.9.27C36.57,58.17,37.11,59.07,36.37,59.07Z" transform="translate(-0.36)" fill="none" stroke="#5a14d2" stroke-linecap="round" stroke-linejoin="round"/><line x1="36.01" y1="59.13" x2="36.01" y2="66" fill="none" stroke="#5a14d2" stroke-linecap="round" stroke-linejoin="round"/><path d="M71.87,29.78v6.38a3.21,3.21,0,0,1-1.16,2.48L38.41,65.27a3.22,3.22,0,0,1-4.08,0L2,38.64A3.22,3.22,0,0,1,.86,36.16V29.78" transform="translate(-0.36)" fill="none" stroke="#5a14d2" stroke-linecap="round" stroke-linejoin="round"/></g></g></svg>