<svg xmlns="http://www.w3.org/2000/svg" viewBox="0 0 90.29 88.5"><g id="Camada_2" data-name="Camada 2"><g id="Camada_1-2" data-name="Camada 1"><line x1="32.34" y1="85.18" x2="32.34" y2="67.7" fill="none" stroke="#5a14d2" stroke-linecap="round" stroke-linejoin="round"/><line x1="3.32" y1="54.09" x2="32.34" y2="54.09" fill="none" stroke="#5a14d2" stroke-linecap="round" stroke-linejoin="round"/><path d="M12.86,23H3.32V85.18H69.09V59a36,36,0,0,0-36-36H26.73" fill="none" stroke="#5a14d2" stroke-linecap="round" stroke-linejoin="round"/><line x1="0.5" y1="62.75" x2="6.13" y2="62.75" fill="none" stroke="#5a14d2" stroke-linecap="round" stroke-linejoin="round"/><line x1="0.5" y1="76.52" x2="6.13" y2="76.52" fill="none" stroke="#5a14d2" stroke-linecap="round" stroke-linejoin="round"/><line x1="43.83" y1="88" x2="43.83" y2="82.37" fill="none" stroke="#5a14d2" stroke-linecap="round" stroke-linejoin="round"/><line x1="57.6" y1="88" x2="57.6" y2="82.37" fill="none" stroke="#5a14d2" stroke-linecap="round" stroke-linejoin="round"/><polyline points="65.27 9.94 73.44 19.11 89.8 1.38" fill="none" stroke="#5b13ce" stroke-linecap="round" stroke-linejoin="round"/><path d="M86.6,10.73A13.26,13.26,0,0,1,87,14.08,13.58,13.58,0,1,1,82,3.57" fill="none" stroke="#5a14d2" stroke-linecap="round" stroke-linejoin="round"/></g></g></svg>