<svg xmlns="http://www.w3.org/2000/svg" viewBox="0 0 60.15 66.8"><g id="Camada_2" data-name="Camada 2"><g id="Camada_1-2" data-name="Camada 1"><path d="M48.42,47a2.81,2.81,0,0,0-2-2.66A6.55,6.55,0,0,0,44.26,44a6.58,6.58,0,0,0-2.15.27,2.81,2.81,0,0,0-2,2.66,2.92,2.92,0,0,0,2,3l4.53,1.57a2.92,2.92,0,0,1,2,3,2.83,2.83,0,0,1-2,2.67,10.27,10.27,0,0,1-2.6.26,8.51,8.51,0,0,1-2.38-.26,2.83,2.83,0,0,1-2-2.67" fill="none" stroke="#5a14d2" stroke-linecap="round" stroke-linejoin="round"/><line x1="44.26" y1="60.58" x2="44.26" y2="57.55" fill="none" stroke="#5a14d2" stroke-linecap="round" stroke-linejoin="round"/><line x1="44.26" y1="44.04" x2="44.26" y2="41.01" fill="none" stroke="#5a14d2" stroke-linecap="round" stroke-linejoin="round"/><circle cx="44.15" cy="50.8" r="15.5" fill="none" stroke="#5a14d2" stroke-linecap="round" stroke-linejoin="round"/><polyline points="30.31 66.3 0.5 66.3 0.5 0.5 54.18 0.5 54.18 34.48" fill="none" stroke="#5b13ce" stroke-linecap="round" stroke-linejoin="round"/><line x1="12.11" y1="19.16" x2="31.46" y2="19.16" fill="none" stroke="#5b13ce" stroke-linecap="round" stroke-linejoin="round"/><line x1="12.11" y1="27.83" x2="31.46" y2="27.83" fill="none" stroke="#5b13ce" stroke-linecap="round" stroke-linejoin="round"/><line x1="12.11" y1="36.51" x2="30.78" y2="36.51" fill="none" stroke="#5b13ce" stroke-linecap="round" stroke-linejoin="round"/><line x1="12.11" y1="10.48" x2="31.46" y2="10.48" fill="none" stroke="#5b13ce" stroke-linecap="round" stroke-linejoin="round"/><line x1="12.11" y1="45.18" x2="25.41" y2="45.18" fill="none" stroke="#5b13ce" stroke-linecap="round" stroke-linejoin="round"/><line x1="37.19" y1="19.16" x2="42.8" y2="19.16" fill="none" stroke="#5b13ce" stroke-linecap="round" stroke-linejoin="round"/><line x1="37.19" y1="27.83" x2="42.8" y2="27.83" fill="none" stroke="#5b13ce" stroke-linecap="round" stroke-linejoin="round"/><line x1="37.19" y1="10.48" x2="42.8" y2="10.48" fill="none" stroke="#5b13ce" stroke-linecap="round" stroke-linejoin="round"/><line x1="12.11" y1="53.86" x2="24.67" y2="53.86" fill="none" stroke="#5b13ce" stroke-linecap="round" stroke-linejoin="round"/></g></g></svg>