<svg xmlns="http://www.w3.org/2000/svg" viewBox="0 0 763.66 694.5"><g id="Camada_2" data-name="Camada 2"><g id="Camada_1-2" data-name="Camada 1"><g id="coins_ground" data-name="coins ground"><path d="M167,688.67h34.62a1,1,0,0,0,0-1.94H167a1,1,0,0,0,0,1.94Z" fill="#1e0a32"/><path d="M319.18,687.51h25.68a1,1,0,0,0,0-2H319.18a1,1,0,0,0,0,2Z" fill="#1e0a32"/><path d="M357.31,686.34h14.91a1,1,0,0,0,0-2H357.31a1,1,0,0,0,0,2Z" fill="#1e0a32"/><path d="M296.23,608.6H173.11a7.8,7.8,0,0,1-7.78-7.78v-4a7.8,7.8,0,0,1,7.78-7.78H296.23A7.8,7.8,0,0,1,304,596.8v4A7.8,7.8,0,0,1,296.23,608.6Z" fill="none" stroke="#1e0a32" stroke-miterlimit="10" stroke-width="2"/><path d="M308.29,629.22H185.17a7.81,7.81,0,0,1-7.79-7.78v-4a7.81,7.81,0,0,1,7.79-7.78H308.29a7.8,7.8,0,0,1,7.78,7.78v4A7.8,7.8,0,0,1,308.29,629.22Z" fill="none" stroke="#1e0a32" stroke-miterlimit="10" stroke-width="2"/><path d="M279.89,649.32H156.77a7.8,7.8,0,0,1-7.78-7.78v-4a7.8,7.8,0,0,1,7.78-7.78H279.89a7.8,7.8,0,0,1,7.78,7.78v4A7.8,7.8,0,0,1,279.89,649.32Z" fill="none" stroke="#1e0a32" stroke-miterlimit="10" stroke-width="2"/><path d="M294.93,668.25H171.87a7.8,7.8,0,0,1-7.78-7.78v-4a7.8,7.8,0,0,1,7.78-7.78H295a7.8,7.8,0,0,1,7.78,7.78v4A7.91,7.91,0,0,1,294.93,668.25Z" fill="none" stroke="#1e0a32" stroke-miterlimit="10" stroke-width="2"/><path d="M308.29,687.83H185.17a7.81,7.81,0,0,1-7.79-7.78v-4a7.81,7.81,0,0,1,7.79-7.78H308.29a7.8,7.8,0,0,1,7.78,7.78v4A7.8,7.8,0,0,1,308.29,687.83Z" fill="none" stroke="#1e0a32" stroke-miterlimit="10" stroke-width="2"/><path d="M260.25,597.45v8a.75.75,0,0,0,1.49,0v-8a.75.75,0,0,0-1.49,0Z" fill="#1e0a32"/><path d="M264.59,598.87v7.33a.75.75,0,0,0,1.49,0v-7.33a.75.75,0,0,0-1.49,0Z" fill="#1e0a32"/><path d="M279.24,594.85V605.1a.75.75,0,0,0,1.5,0V594.85a.75.75,0,0,0-1.5,0Z" fill="#1e0a32"/><path d="M282.16,600.69v4a.75.75,0,0,0,1.49,0v-4a.75.75,0,0,0-1.49,0Z" fill="#1e0a32"/><path d="M181.53,594.6v11.34a.75.75,0,0,0,1.5,0V594.6a.75.75,0,0,0-1.5,0Z" fill="#1e0a32"/><path d="M175.5,597.45v6.68c0,.9,1.5,1,1.5,0v-6.68a.75.75,0,0,0-1.5,0Z" fill="#1e0a32"/><path d="M199.75,595.05v9.08a.75.75,0,0,0,1.49,0v-9.08a.75.75,0,0,0-1.49,0Z" fill="#1e0a32"/><path d="M193.08,600.37v6a.75.75,0,0,0,1.49,0v-6a.75.75,0,0,0-1.49,0Z" fill="#1e0a32"/><path d="M227.05,595.24V607a.75.75,0,0,0,1.49,0v-11.8a.75.75,0,0,0-1.49,0Z" fill="#1e0a32"/><path d="M231.52,599.72v6a.75.75,0,0,0,1.5,0v-6a.75.75,0,0,0-1.5,0Z" fill="#1e0a32"/><path d="M238.14,594.34v11.8a.75.75,0,0,0,1.49,0v-11.8a.75.75,0,0,0-1.49,0Z" fill="#1e0a32"/><path d="M194.83,614.11v14a.75.75,0,0,0,1.49,0v-14a.75.75,0,0,0-1.49,0Z" fill="#1e0a32"/><path d="M202.87,618.78v10a.75.75,0,0,0,1.49,0v-10c-.07-.91-1.49-.91-1.49,0Z" fill="#1e0a32"/><path d="M228.87,616.12v10a.75.75,0,0,0,1.49,0v-10c-.07-.91-1.49-.91-1.49,0Z" fill="#1e0a32"/><path d="M245.72,612.56v16.2a.75.75,0,0,0,1.49,0v-16.2c-.06-.91-1.49-.91-1.49,0Z" fill="#1e0a32"/><path d="M261,619v5.32c0,.9,1.5,1,1.5,0V619a.75.75,0,0,0-1.5,0Z" fill="#1e0a32"/><path d="M164.16,635.25v12.9a.75.75,0,0,0,1.49,0v-12.9a.75.75,0,0,0-1.49,0Z" fill="#1e0a32"/><path d="M198.39,635.7v13.36a.75.75,0,0,0,1.49,0V635.7a.75.75,0,0,0-1.49,0Z" fill="#1e0a32"/><path d="M184.19,636.8v8.89a.75.75,0,0,0,1.49,0V636.8a.75.75,0,0,0-1.49,0Z" fill="#1e0a32"/><path d="M189.06,633.89v7.32a.75.75,0,0,0,1.49,0v-7.32a.75.75,0,0,0-1.49,0Z" fill="#1e0a32"/><path d="M236.19,634.15V647.7a.75.75,0,0,0,1.49,0V634.15a.75.75,0,0,0-1.49,0Z" fill="#1e0a32"/><path d="M223.94,633.89v3.3a.75.75,0,0,0,1.49,0v-3.3a.75.75,0,0,0-1.49,0Z" fill="#1e0a32"/><path d="M265.24,629.93v12.9a.75.75,0,0,0,1.49,0v-12.9a.75.75,0,0,0-1.49,0Z" fill="#1e0a32"/><path d="M271.72,639.2V647a.75.75,0,0,0,1.49,0V639.2c-.06-.9-1.49-.9-1.49,0Z" fill="#1e0a32"/><path d="M248.38,633.89v11.34a.75.75,0,0,0,1.49,0V633.89a.75.75,0,0,0-1.49,0Z" fill="#1e0a32"/><path d="M176.61,650.81v14.46a.75.75,0,0,0,1.49,0V650.81a.75.75,0,0,0-1.49,0Z" fill="#1e0a32"/><path d="M187.89,667.86V653.4a.75.75,0,0,0-1.49,0v14.46a.75.75,0,0,0,1.49,0Z" fill="#1e0a32"/><path d="M192.56,667.47V661.9a.75.75,0,0,0-1.49,0v5.57a.75.75,0,0,0,1.49,0Z" fill="#1e0a32"/><path d="M202.87,649.71v15.1a.75.75,0,0,0,1.49,0v-15.1a.75.75,0,0,0-1.49,0Z" fill="#1e0a32"/><path d="M206.63,656.77v7.14a.75.75,0,0,0,1.49,0v-7.14c-.07-.9-1.49-.9-1.49,0Z" fill="#1e0a32"/><path d="M211.75,654.12v7.78a.75.75,0,0,0,1.49,0v-7.78c-.07-.91-1.49-.91-1.49,0Z" fill="#1e0a32"/><path d="M228.41,649.71v15.75a.75.75,0,0,0,1.49,0V649.71a.75.75,0,0,0-1.49,0Z" fill="#1e0a32"/><path d="M245.27,655.48v8.69a.75.75,0,0,0,1.49,0v-8.69a.75.75,0,0,0-1.49,0Z" fill="#1e0a32"/><path d="M268.35,649.25v16.67a.75.75,0,0,0,1.49,0V649.25a.75.75,0,0,0-1.49,0Z" fill="#1e0a32"/><path d="M275.48,657.42v8a.75.75,0,0,0,1.49,0v-8a.75.75,0,0,0-1.49,0Z" fill="#1e0a32"/><path d="M287.74,650.1v12.44a.75.75,0,0,0,1.49,0V650.1c-.07-.91-1.49-.91-1.49,0Z" fill="#1e0a32"/><path d="M194.76,687.25V672.79a.75.75,0,0,0-1.49,0v14.46a.75.75,0,0,0,1.49,0Z" fill="#1e0a32"/><path d="M200.08,687v-7.33a.75.75,0,0,0-1.49,0V687a.75.75,0,0,0,1.49,0Z" fill="#1e0a32"/><path d="M215.06,670.13v16.66a.75.75,0,0,0,1.49,0V670.13a.75.75,0,0,0-1.49,0Z" fill="#1e0a32"/><path d="M228.41,672.79V683a.75.75,0,0,0,1.49,0V672.79a.75.75,0,0,0-1.49,0Z" fill="#1e0a32"/><path d="M223.74,674.8v4a.75.75,0,0,0,1.49,0v-4a.75.75,0,0,0-1.49,0Z" fill="#1e0a32"/><path d="M252.6,668.57v17.32a.75.75,0,0,0,1.49,0V668.57a.75.75,0,0,0-1.49,0Z" fill="#1e0a32"/><path d="M258.17,676.1v7.78a.75.75,0,0,0,1.49,0V676.1c-.06-.91-1.49-.91-1.49,0Z" fill="#1e0a32"/><path d="M272.37,669.42v16.21a.75.75,0,0,0,1.49,0V669.42a.75.75,0,0,0-1.49,0Z" fill="#1e0a32"/><path d="M298.18,670.78v14a.75.75,0,0,0,1.49,0v-14c-.07-.91-1.49-.91-1.49,0Z" fill="#1e0a32"/><path d="M302.13,676.81v6.68a.75.75,0,0,0,1.49,0v-6.68a.75.75,0,0,0-1.49,0Z" fill="#1e0a32"/><path d="M285.53,627.73V617.35a.75.75,0,0,0-1.49,0v10.38c.07.91,1.49,1,1.49,0Z" fill="#1e0a32"/><path d="M294.48,613.14v13.94a.75.75,0,0,0,1.49,0V613.14c-.06-.91-1.49-1-1.49,0Z" fill="#1e0a32"/><path d="M301.22,585.39a10.55,10.55,0,0,1,5.19,10.05c-.06.91,1.36.91,1.49,0a11.82,11.82,0,0,0-5.9-11.28.73.73,0,1,0-.78,1.23Z" fill="#1e0a32"/><path d="M152.75,633.56a10.57,10.57,0,0,0-.91,9.34c.32.84,1.75.52,1.43-.39a9.26,9.26,0,0,1,.77-8.23.74.74,0,0,0-1.29-.72Z" fill="#1e0a32"/><path d="M145.42,626.24a25.1,25.1,0,0,0-5.51,16.4.75.75,0,0,0,1.49,0,23.82,23.82,0,0,1,5.12-15.43c.52-.65-.52-1.69-1.1-1Z" fill="#1e0a32"/><path d="M300.58,646.92a7.75,7.75,0,0,1,4.21,6.94.75.75,0,0,0,1.49,0,9.13,9.13,0,0,0-4.93-8.17c-.84-.46-1.62.78-.77,1.23Z" fill="#1e0a32"/><path d="M233.34,590.58c3.95-.52,13.23-1.17,22,4.15a30.2,30.2,0,0,1,6.1,4.79c-.2,3-.46,6-.65,9-9.53.39-19,.78-28.53,1.1,1.3.07,11.67.65,17.31,9.08a19.3,19.3,0,0,1,3.18,9.6,25.48,25.48,0,0,1-5.12,12.12A26.09,26.09,0,0,1,235.22,649a15.56,15.56,0,0,1,7.65,9.28,15.25,15.25,0,0,1,0,8q-9.44,10.21-18.87,20.49l86.62,1a10.62,10.62,0,0,0,4.48-4.47,11.55,11.55,0,0,0-1.3-12.13c-4.54-5.77-14.85-3.76-16-3.5.32-.19,5.57-4.15,5.12-10.57a12,12,0,0,0-4.15-8l-13.75-1a12.13,12.13,0,0,0,3.18-9.6,11.82,11.82,0,0,0-7.33-9.27c6.16-.07,11.48-.2,15.7-.33,12.25-.32,15-.51,17.24-2.85,3-3.24,4-9.53,1-13.42a9.3,9.3,0,0,0-5.12-3.18c-4.8-.19-9.59-.45-14.39-.65a9.39,9.39,0,0,0,6.74-2.52c2.53-2.6,2.34-6,2.27-7.65-.06-1-.45-5.32-3.5-8s-7.26-2-14.72-1.62c-5.83.32-11.73-.26-17.57,0C256.29,589.54,244,590.12,233.34,590.58Z" fill="#464664" opacity="0.15" style="isolation:isolate"/></g><g id="ground"><path d="M323.27,670.58H495.54a1,1,0,0,0,0-1.94H323.27a1,1,0,0,0,0,1.94Z" fill="#e6e7e8"/><path d="M513.63,672.21c30-2.34,59.84-3,89.86-.46,1.24.13,1.24-1.81,0-1.94-30-2.53-59.84-1.88-89.86.45-1.23.07-1.23,2,0,2Z" fill="#e6e7e8"/><path d="M594.8,682.45C611,683.88,627,679.86,643,678.82a207.17,207.17,0,0,1,49.47,2.92c1.24.19,1.75-1.69.52-1.88a211.2,211.2,0,0,0-48.75-3.05c-16.47.91-32.94,5.19-49.47,3.69-1.24-.13-1.24,1.82,0,2Z" fill="#e6e7e8"/><path d="M604.92,669.35a128,128,0,0,1-18.61-17.44c-1.23-1.42-2.4-2.85-3.56-4.28a18.89,18.89,0,0,1-2.34-3.3c-.78-1.56-.45-2.66-.45-4.41,0-3-1.75-2.92-3.76-5-3.05-3.17-3.5-7.78-4.41-11.86a44.3,44.3,0,0,0-4.15-10.63c-4.09-8.24-6-17.64-8.43-26.46-.2.39-.45.78-.65,1.17,8.56-1.17,17.83,5.25,24.64,9.92a104.66,104.66,0,0,1,10,7.78c3.18,2.85,8,6.87,6.29,11.67a1,1,0,0,0,.91,1.23c5.32.2,9.34,5.51,12.19,9.47a52.28,52.28,0,0,1,6.74,12.25A53.31,53.31,0,0,1,622.23,667c-.19,1.23,1.69,1.75,1.88.52a55,55,0,0,0-3.82-30.74,56.74,56.74,0,0,0-8.11-13.22c-3-3.7-6.74-7.65-11.86-7.85.32.39.64.85.9,1.23,1.5-4-.84-7.71-3.56-10.56a76.33,76.33,0,0,0-11.74-9.79c-7.65-5.45-18.09-12.78-28-11.35a.93.93,0,0,0-.65,1.17c2.53,9,4.41,18.47,8.63,26.9a55.8,55.8,0,0,1,4.6,13.17c.71,3.5,1.75,7.13,4.35,9.79,1.1,1.16,3,1.81,3.24,3.5s-.39,2.66.19,4.34c1.23,3.44,4.41,6.55,6.74,9.21a133.11,133.11,0,0,0,19,17.76c.91.65,1.88-1,.91-1.75Z" fill="#e6e7e8"/><path d="M616,626.63c2.27-8.37,9-15.63,14.33-22.24,1.42-1.75,2.78-3.44,4.21-5.13,1.17-1.42,2.66-4.08,4.67-4.41.84-.12,1.23.39,2.14-.19s1.36-1.75,1.88-2.66c3.89-7.07,10.11-12.19,16.66-16.79C665,571.58,670.08,568,672.61,562c-.65-.19-1.23-.32-1.88-.52-2.66,9.86-2.66,19.65-1,29.7,1.75,10.44,2.14,20.55-.72,30.93-5.44,19.77-20.42,33.06-35.66,45.64-1,.78.39,2.14,1.36,1.36,14.92-12.32,29.63-25.35,35.54-44.41a65.36,65.36,0,0,0,2.26-28.07c-.77-5.58-2-11-2.2-16.73a60,60,0,0,1,2.2-18c.33-1.23-1.42-1.62-1.88-.52-3,7.13-10.3,10.76-16.14,15.24a61.39,61.39,0,0,0-8.3,7.58,36.27,36.27,0,0,0-3.05,4c-.71,1.1-1.81,4.08-3,4.47-.78.26-1.62-.19-2.53.2-1.29.51-2.14,2.07-3,3-2.85,3.44-5.71,6.81-8.43,10.31-4.73,6-10.11,12.32-12.19,19.78-.26,1.36,1.62,1.88,2,.65Z" fill="#e6e7e8"/><path d="M566.6,597.12c5.84,4.15,10.25,9.73,14.59,15.37,4.6,5.84,9.14,11.74,13.42,17.83C602.84,642,610,654.5,613.87,668.38a1,1,0,0,0,1.88-.52c-4-14.39-11.48-27.36-20.1-39.42-4.22-5.9-8.63-11.61-13.1-17.31s-9-11.41-15-15.63c-1-.77-2,.91-.91,1.62Z" fill="#e6e7e8"/><path d="M663.86,578.26c-10.31,27.1-34.11,47.33-40.92,76a1,1,0,0,0,1.88.51c6.75-28.65,30.61-48.88,40.92-76,.45-1.17-1.43-1.69-1.88-.52Z" fill="#e6e7e8"/><path d="M647.91,582.86a77.12,77.12,0,0,1-1.75,26.71,1,1,0,0,0,1.88.52,80.26,80.26,0,0,0,1.81-27.23c-.13-1.23-2.07-1.23-1.94,0Z" fill="#e6e7e8"/><path d="M653.81,601.21a140.44,140.44,0,0,0,17.31-12.84c1-.84-.46-2.2-1.36-1.36a132.31,132.31,0,0,1-16.93,12.51c-1.1.72-.13,2.4,1,1.69Z" fill="#e6e7e8"/><path d="M567.31,614.18c4.48-.13,10.77-1.43,14.85.71,1.1.58,2.08-1.1,1-1.69-4.6-2.46-10.82-1.16-15.82-1-1.29.07-1.29,2,0,1.95Z" fill="#e6e7e8"/><path d="M591.82,604.32a69.6,69.6,0,0,0,.26,18.74c.2,1.23,2.08.71,1.88-.52a68.2,68.2,0,0,1-.19-18.22c.19-1.23-1.75-1.23-1.95,0Z" fill="#e6e7e8"/><path d="M552,692.63c10.5.58,20.88-1.75,31.38-1.56,10,.2,19.84,2.86,29.89,1.23,1.23-.19.71-2.07-.52-1.88-10.24,1.69-20.36-1.29-30.6-1.29-10.05,0-20,2.14-30.15,1.55-1.23-.13-1.23,1.82,0,2Z" fill="#e6e7e8"/><path d="M673.45,668.25a126.65,126.65,0,0,1,22.7-1c7.45.33,14.84,1.23,22.36.59,7.33-.59,14.59-1.75,22-1.69A184.12,184.12,0,0,1,762.73,668c1.23.13,1.23-1.81,0-1.94a194.86,194.86,0,0,0-22.24-1.88c-7.78-.07-15.43,1.23-23.21,1.75-7.45.51-14.85-.46-22.3-.72a131,131,0,0,0-22,1.17c-1.3.19-.78,2.07.45,1.88Z" fill="#e6e7e8"/><path d="M.7,680.7c20.1,2.79,40-1.69,60-3.05,10.64-.71,21.08.07,31.71,1s21.27,1.43,32,1.49c12.19.07,24.45-.26,36.64-.65,1.23-.06,1.23-2,0-1.94-13.68.39-27.43.77-41.11.58-13.42-.19-26.65-1.69-40-2.53-26.33-1.75-52.46,6.81-78.72,3.18C0,678.69-.53,680.5.7,680.7Z" fill="#e6e7e8"/><path d="M114.23,691.66c7.59,0,15.11-1.82,22.63-2.4a191.09,191.09,0,0,1,22.95-.39c1.24.06,1.24-1.88,0-2a181.26,181.26,0,0,0-22.95.39c-7.52.59-15.11,2.4-22.63,2.4a1,1,0,0,0,0,1.95Z" fill="#e6e7e8"/></g><g id="buildings"><path d="M73.06,271.77V660.66a1,1,0,0,0,2,0V271.77a1,1,0,0,0-2,0Z" fill="#e6e7e8"/><path d="M236.32,248v334a1,1,0,0,0,2,0V248a1,1,0,0,0-2,0Z" fill="#e6e7e8"/><path d="M240.21,433.28q55.14,23,110.55,45.39c1.17.45,1.68-1.43.52-1.88q-55.44-22.38-110.55-45.39c-1.17-.45-1.62,1.43-.52,1.88Z" fill="#e6e7e8"/><path d="M343.17,477.37V665.14a1,1,0,0,0,1.95,0V477.37a1,1,0,0,0-1.95,0Z" fill="#e6e7e8"/><path d="M520.31,664.42V542a1,1,0,0,0-1.95,0V664.42a1,1,0,0,0,1.95,0Z" fill="#e6e7e8"/><path d="M502.22,546.36c39.61-17.06,79.36-34.17,117-55.31C630,485,640.64,478.6,651,471.79c1-.71.06-2.39-1-1.68-36.18,23.66-75.21,42.34-114.64,59.71-11.34,5-22.75,9.92-34.1,14.79-1.23.58-.19,2.2.91,1.75Z" fill="#e6e7e8"/><path d="M552.21,521.2V319.3a1,1,0,0,0-2,0V521.2a1,1,0,0,0,2,0Z" fill="#e6e7e8"/><path d="M540.86,323.25H727.14a1,1,0,0,0,0-1.94H540.86a1,1,0,1,0,0,1.94Z" fill="#e6e7e8"/><path d="M709.11,329.67V654.76a1,1,0,0,0,1.95,0V329.67a1,1,0,0,0-1.95,0Z" fill="#e6e7e8"/><path d="M64.76,273.91c45.32-14.59,93.69-17.76,140.7-23.14q20.61-2.34,41.24-4.74c1.23-.13,1.23-2.07,0-1.94-24.51,2.79-49.09,5.64-73.59,8.43-23.28,2.65-46.69,5.18-69.7,9.66A340.52,340.52,0,0,0,64.24,272c-1.16.39-.64,2.27.52,1.88Z" fill="#e6e7e8"/><path d="M87,321.11V288.7a1,1,0,0,0-1.94,0v32.41a1,1,0,0,0,1.94,0Z" fill="#e6e7e8"/><path d="M85.45,288.57h19.06a1,1,0,0,0,0-1.95H85.45a1,1,0,0,0,0,1.95Z" fill="#e6e7e8"/><path d="M103.6,288.11v33.78a1,1,0,0,0,2,0V288.11a1,1,0,0,0-2,0Z" fill="#e6e7e8"/><path d="M86.29,323.19h16.92a1,1,0,0,0,0-1.95H86.29a1,1,0,0,0,0,1.95Z" fill="#e6e7e8"/><path d="M141.72,320.85V288.44a1,1,0,0,0-1.94,0v32.41a1,1,0,0,0,1.94,0Z" fill="#e6e7e8"/><path d="M140.23,288.24H159.3a1,1,0,0,0,0-1.94H140.23a1,1,0,0,0,0,1.94Z" fill="#e6e7e8"/><path d="M158.32,287.85v33.78a1,1,0,0,0,2,0V287.85a1,1,0,0,0-2,0Z" fill="#e6e7e8"/><path d="M141,322.86h16.92a1,1,0,0,0,0-1.94H141a1,1,0,0,0,0,1.94Z" fill="#e6e7e8"/><path d="M197.94,319.62V287.2a1,1,0,0,0-1.95,0v32.42a1,1,0,0,0,1.95,0Z" fill="#e6e7e8"/><path d="M196.38,287h19.06a1,1,0,0,0,0-1.95H196.38a1,1,0,0,0,0,1.95Z" fill="#e6e7e8"/><path d="M214.54,286.62V320.4a1,1,0,0,0,1.94,0V286.62a1,1,0,1,0-1.94,0Z" fill="#e6e7e8"/><path d="M197.23,321.63h16.92a1,1,0,0,0,0-1.94H197.23a1,1,0,0,0,0,1.94Z" fill="#e6e7e8"/><path d="M67.16,412.27V540.39a1,1,0,0,0,2,0V412.27a1,1,0,0,0-2,0Z" fill="#e6e7e8"/><path d="M80.78,548.56V608a1,1,0,0,0,1.94,0V548.56a1,1,0,0,0-1.94,0Z" fill="#e6e7e8"/><path d="M58.6,268.34a528,528,0,0,1,63.67-17.83c1.24-.26.72-2.14-.52-1.88a524.29,524.29,0,0,0-63.66,17.83c-1.17.39-.65,2.27.51,1.88Z" fill="#e6e7e8"/><path d="M241.77,442.55c21.91,8.24,43.24,18,64.51,27.82,1.1.52,2.14-1.17,1-1.69-21.46-9.85-42.92-19.71-65-28-1.17-.45-1.69,1.43-.52,1.88Z" fill="#e6e7e8"/><path d="M254.48,511.09V478.67a1,1,0,0,0-1.95,0v32.42a1,1,0,0,0,1.95,0Z" fill="#e6e7e8"/><path d="M253,478.54h19.07a1,1,0,0,0,0-2H253a1,1,0,0,0,0,2Z" fill="#e6e7e8"/><path d="M271.07,478.15v33.78a1,1,0,0,0,1.95,0V478.15a1,1,0,1,0-1.95,0Z" fill="#e6e7e8"/><path d="M253.76,513.16h16.93a1,1,0,0,0,0-1.94H253.76a1,1,0,0,0,0,1.94Z" fill="#e6e7e8"/><path d="M528.93,544.09a659.94,659.94,0,0,0,121.12-60.3c1-.65.06-2.33-1-1.69a656.38,656.38,0,0,1-120.66,60.11c-1.17.45-.65,2.33.52,1.88Z" fill="#e6e7e8"/><path d="M715.08,334.28q.09,75.27.13,150.48a1,1,0,0,0,1.94,0q-.09-75.27-.13-150.48a1,1,0,0,0-1.94,0Z" fill="#e6e7e8"/><path d="M574.64,316.7H727.85a1,1,0,0,0,0-1.94H574.64a1,1,0,0,0,0,1.94Z" fill="#e6e7e8"/><path d="M571,381.15V348.73a1,1,0,0,0-2,0v32.42a1,1,0,0,0,2,0Z" fill="#e6e7e8"/><path d="M569.52,348.6h19.06a1,1,0,0,0,0-1.94H569.52a1,1,0,0,0,0,1.94Z" fill="#e6e7e8"/><path d="M587.61,348.22V382a1,1,0,0,0,1.94,0V348.22a1,1,0,1,0-1.94,0Z" fill="#e6e7e8"/><path d="M570.36,383.23h16.92a1,1,0,0,0,0-2H570.36a1,1,0,0,0,0,2Z" fill="#e6e7e8"/><path d="M661.07,381.15V348.73a1,1,0,0,0-2,0v32.42a1,1,0,1,0,2,0Z" fill="#e6e7e8"/><path d="M659.51,348.6h19.06a1,1,0,0,0,0-1.94H659.51a1,1,0,0,0,0,1.94Z" fill="#e6e7e8"/><path d="M677.67,348.22V382a1,1,0,0,0,1.94,0V348.22a1,1,0,1,0-1.94,0Z" fill="#e6e7e8"/><path d="M660.36,383.23h16.92a1,1,0,0,0,0-2H660.36a1,1,0,0,0,0,2Z" fill="#e6e7e8"/><ellipse cx="621.52" cy="88.41" rx="38.84" ry="39.49" fill="none" stroke="#e6e7e8" stroke-miterlimit="10" stroke-width="3"/><path d="M576.72,241c10.76-7.33,23.86-2.73,35,1a72.84,72.84,0,0,0,16.08,3.89,60.19,60.19,0,0,0,17.76-1.23c23.15-4.8,48.18-21.14,72-10,1.1.52,2.14-1.17,1-1.68-17.5-8.17-36.76-1.76-53.88,4.08-10,3.44-20.29,6.87-31,7.13-11,.26-20.55-4.21-30.86-7.07-8.95-2.52-19.06-3.24-27.1,2.21-1,.71,0,2.4,1,1.69Z" fill="#e6e7e8"/><path d="M92,205.64c18.74,5.38,37.16-3.44,54.73-8.95,9.59-3,19.71-5.38,29.82-4.08,10.31,1.36,19.71,6.29,29.18,10.37s19.58,7.59,30.21,5.9c1.23-.19.72-2.07-.52-1.88-20.29,3.24-37.28-12.64-56.47-16-18.74-3.31-36.57,5.64-54.07,10.82-10.57,3.12-21.53,5-32.36,1.88a1,1,0,0,0-.52,1.95Z" fill="#e6e7e8"/><path d="M259.79,233.78c6.94-.2,13-3.31,19.19-6.1,3.76-1.68,7.66-3.3,11.8-3.63,4.61-.39,8.63,1.23,12.58,3.44,7.26,4,14,7.71,22.37,9a52.31,52.31,0,0,0,23.67-1.62c1.16-.39.71-2.27-.52-1.88a50.6,50.6,0,0,1-26.39.84,49.11,49.11,0,0,1-11.93-4.54c-3.57-1.94-6.94-4.27-10.7-5.77-14.46-5.77-26.06,7.85-40.07,8.24-1.23.13-1.23,2.07,0,2Z" fill="#e6e7e8"/><path d="M458.78,173.35c18.67,8.69,39.61,8.3,59.45,4.47C540.67,173.48,561.8,163.56,585,164a101.69,101.69,0,0,1,38.13,8.3c1.17.52,2.14-1.17,1-1.69a102.73,102.73,0,0,0-61.85-6.35c-11.35,2.4-22.31,6.35-33.52,9.27a153.71,153.71,0,0,1-32.49,5.06c-12.51.39-25-1.49-36.44-6.81-1.16-.58-2.14,1.1-1,1.62Z" fill="#e6e7e8"/></g><g id="leg_r" data-name="leg r"><path d="M235.09,529.76c2,10.57,3.95,21.2,6,31.77-33.45,12.12-49.73,20.49-48.69,25.16q1.84,8.46,78.84.64-3.3-33.06-6.61-66.19C254.74,524.05,244.88,526.91,235.09,529.76Z" fill="#1e0a32" stroke="#1e0a32" stroke-miterlimit="10" stroke-width="3"/><path d="M391.67,397.3c-14,5.77-19.9,4.34-37.6,9.2-32.62,8.95-56.22,25.68-70.94,38.32q1.08,36.18,2.14,72.36c-1.49,1.75-17.83,20.29-42.59,17.77-17.06-1.75-27.69-12.52-30.54-15.63-.46-22.24-.07-46,1.42-70.93.91-14.46,2.08-28.47,3.57-41.89,2.2-3.11,5.58-7.58,9.92-12.77,34.1-40.59,74.95-58.61,97.19-68.08s36.05-15.36,56.73-17c5.51-.45,60.63-4.34,69.51,17.77C458.71,346.53,426.23,383.1,391.67,397.3Z" fill="#fff" stroke="#1e0a32" stroke-miterlimit="10" stroke-width="3"/><path d="M446.91,319.56c-12.32-8.5-39.48,27.68-93.56,61.79-52,32.74-79.23,32.22-94.92,64.06-4.8,9.66-9.79,25-12.84,40.52a185.59,185.59,0,0,0-2.91,48.17,69.45,69.45,0,0,0,14.58-2.2A71.12,71.12,0,0,0,285,517.31c-.71-24.57-1.49-49.15-2.2-73.65a203.11,203.11,0,0,1,43.05-27c36.5-16.92,50.19-9.66,80.27-27,6.94-3.95,46.16-26.58,45.26-56.15C451.13,328.83,451.06,322.41,446.91,319.56Z" fill="#464664" opacity="0.16" style="isolation:isolate"/><path d="M452,331.23c-2.72-2.21-13.29,12.58-38.64,30.67C381.82,384.33,366.64,384.07,332,405a314.09,314.09,0,0,0-50.64,37.93,171.19,171.19,0,0,0,17.5-8.76c14.92-8.68,18.55-14,29.89-19.71,4.09-2,11.74-4.08,27-8,26.64-6.93,30.47-6.61,40.13-10.95a98.18,98.18,0,0,0,25.55-16.8C442.5,360.08,455.41,334,452,331.23Z" fill="#464664" opacity="0.25" style="isolation:isolate"/><path d="M282,443.59q-12.45,44.84-24.83,89.73a61.82,61.82,0,0,0,13.16-5.12,59.12,59.12,0,0,0,15.3-11.67Q283.82,480.07,282,443.59Z" fill="#464664" opacity="0.2" style="isolation:isolate"/></g><g id="leg_l" data-name="leg l"><path d="M446,631c2,10.57,4,21.21,6,31.77-30.28,15.24-44.67,24.71-43.38,28.4q2.43,6.72,73.27-11.6c-2.14-19.07-4.22-38.13-6.36-57.19C465.65,625.33,455.86,628.18,446,631Z" fill="#1e0a32" stroke="#1e0a32" stroke-miterlimit="10" stroke-width="3"/><path d="M471.94,301.53c2.27,17.51,5.19,43.9,6.61,76.12,2.14,49.73-1,77.42-1.49,114.18a778.05,778.05,0,0,0,10.25,135.44,66.6,66.6,0,0,1-64.45,5.13c-1.43-27.62-4-57-8-87.86a1101.08,1101.08,0,0,0-31.45-152.95c-7.78-10.76-15.62-21.46-23.4-32.22q42.5-30.06,84.93-60C453.85,300.11,462.86,300.82,471.94,301.53Z" fill="#fff" stroke="#1e0a32" stroke-miterlimit="10" stroke-width="3"/><path d="M370.66,364.94c-2-2.78-4-5.64-6-8.43-.58,2.21-1.17,4.41-1.75,6.68,9.59-6,19-12.25,28-19.12,7.52-5.71,14.52-12,22.11-17.57,4.8-3.57,9.72-6.94,14.65-10.31,4.73-3.18,9.53-7.2,14.72-9.73,2.79-1.36,6.09-1.17,9.08-1.17,5.7,0,11.34.2,17,.52,6.23.33,6.23-9.4,0-9.72-5.64-.26-11.34-.52-17-.52-3.64,0-7.4,0-10.83,1.1-5.38,1.75-10.25,6-14.85,9.14-5.32,3.57-10.57,7.13-15.76,10.89-8,5.84-15.43,12.39-23.27,18.42a345.05,345.05,0,0,1-28.72,19.64c-2.08,1.3-3.31,4.48-1.76,6.68,2,2.79,4,5.64,6,8.43,3.57,5.06,12,.2,8.36-4.93Z" fill="#fff"/><path d="M407.49,309.31a806.88,806.88,0,0,1,26.26,97,808.32,808.32,0,0,1,13.16,229.78,38.2,38.2,0,0,0,11.67,2.21c14.59.38,25.09-8,28.47-11a556.32,556.32,0,0,1-8.76-62c-4.79-56.73,1.24-88.89,2.21-137.13a674.65,674.65,0,0,0-8.76-121.82Z" fill="#464664" opacity="0.14" style="isolation:isolate"/><path d="M473.88,336.35q-2.72,95.79-9.46,197-3.51,52.23-8,102.84A32.66,32.66,0,0,0,486.27,626a647.26,647.26,0,0,1-9.47-99.2c-.71-43.31,3.37-65.42,2.21-116C478.23,378.62,475.76,352.56,473.88,336.35Z" fill="#464664" opacity="0.2" style="isolation:isolate"/></g><g id="hand_r" data-name="hand r"><path d="M208.7,72.92c.84-2-7.46-6-6.61-8.24s11.15-2.91,18.09,2.21C227.44,72.2,227,80,231.13,90c4.74,11.22,12.19,17.31,23.54,26.65,6.81,5.64,33.39,26.78,71.71,25.61A104.32,104.32,0,0,0,369,131.47c-1.49,18.6-3,37.28-4.54,55.88a113.35,113.35,0,0,1-35.14,2.53c-51.61-4.47-84.74-44.28-95-56.53a176.89,176.89,0,0,1-22.5-34.56A69.19,69.19,0,0,1,185,101.51c-8-.78-17.63-3.24-17.57-5.51.06-3,16.6-5,16.47-6s-13.16,2.66-16.47-2.2c-2.59-3.83,1-12.45,7.13-16,1.88-1,4-1.69,9.34-1.63C198.26,70.19,207.92,74.67,208.7,72.92Z" fill="#fff" stroke="#1e0a32" stroke-miterlimit="10" stroke-width="3"/><path d="M167.21,84.07c3.3-.78,7.13.84,10.5,1a37.26,37.26,0,0,0,8.88-.71c1.23-.26.72-2.14-.52-1.88a33.92,33.92,0,0,1-11.15.39c-2.85-.39-5.38-1.3-8.23-.65-1.23.26-.72,2.14.52,1.88Z" fill="#1e0a32"/><path d="M169.93,77.65c3.89-.78,7.33.84,11.09,1a32.17,32.17,0,0,0,9.85-1.3,1,1,0,0,0-.52-1.88,26.9,26.9,0,0,1-12.64.71c-2.92-.58-5.38-1.1-8.36-.51-1.17.32-.65,2.2.58,1.94Z" fill="#1e0a32"/><path d="M205.78,79.6a16.46,16.46,0,0,0,12.58,5.18c1.23-.06,1.23-2,0-1.94a14,14,0,0,1-11.15-4.61,1,1,0,0,0-1.43,1.37Z" fill="#1e0a32"/><path d="M167.4,87.25c.19-1.75,14.33-2.21,27.3-.33,7,1,13.81,2,20.23,5,14,6.54,18.6,19.06,25.87,30.53,0,0,16.27,25.48,45.38,39.75,28.92,14.13,61.92,4.67,80.53-2.85q-1.06,14-2.14,28a116.68,116.68,0,0,1-39.75,1.43c-49.08-6.94-79.87-44.67-92.13-59.65a187.52,187.52,0,0,1-20.55-30.86,61.52,61.52,0,0,1-27.3,3.57c-7.84-.85-17.12-3.44-17.05-5.71.13-2.92,15.75-4.67,15.62-5.32-.06-.32-4.47.65-9.92-.71C171.36,89.58,167.34,88.22,167.4,87.25Z" fill="#464664" opacity="0.18" style="isolation:isolate"/><path d="M314.64,177.69c23.15.33,41.05-8.75,50.38-14.52-.32,8.3-.71,16.53-1,24.83a130.14,130.14,0,0,1-61-4.28c-46.48-14.84-69.31-51.8-75.21-62.11C229.64,125,260.18,177,314.64,177.69Z" fill="#464664" opacity="0.24" style="isolation:isolate"/><path d="M189.44,97.88c13.88.06,23.22-2,23.41-1,.13.78-5.64,3.11-11.73,4.28-17.71,3.37-33.91-4-33.72-5C167.59,95.42,174.86,97.82,189.44,97.88Z" fill="#464664" opacity="0.19" style="isolation:isolate"/></g><g id="coin"><circle cx="204.62" cy="26.43" r="18.28" fill="#fa1e46"/><ellipse cx="200.92" cy="25.07" rx="20.75" ry="20.81" fill="none" stroke="#1e0a32" stroke-miterlimit="10" stroke-width="2"/><path d="M203.77,13.66c-4.08-.26-14.58,3.69-10.69,9.59,2.26,3.44,6.67,1.17,9.85,2,4.09,1.1,3.63,6,1.1,8.43a6.51,6.51,0,0,1-8.94-.19c-.91-.85-2.34.52-1.37,1.36,5.13,4.67,14.27,2,14.27-5.58,0-3.43-2.34-5.64-5.58-6-2.4-.32-9.14,1.49-7.58-3.43,1-3.38,6-4.41,9-4.22,1.23.07,1.23-1.88-.07-1.94Z" fill="#1e0a32"/><path d="M201.57,14.56c.19-2.13.39-4.21.58-6.35.13-1.23-1.81-1.23-1.94,0-.2,2.14-.39,4.22-.59,6.35-.13,1.24,1.82,1.24,1.95,0Z" fill="#1e0a32"/><path d="M200.27,37.78c.2,1.49.39,3,.52,4.53.13,1.24,2.08,1.24,2,0-.2-1.49-.39-3-.52-4.53-.13-1.24-2.08-1.24-1.95,0Z" fill="#1e0a32"/></g><g id="torso"><path d="M388.62,126.86a98.71,98.71,0,0,0-18.54,2.73,87.23,87.23,0,0,0-11.8,3.76,122.79,122.79,0,0,0-12,39.68c-3,24.57,3,40.39,7.06,64.83a269.89,269.89,0,0,1,1.95,71.84,94.13,94.13,0,0,0,50.05,23.73c37.09,5.19,64.32-14.39,70-18.61q5.16-31.89,9.6-65.48c5-37.87,8.75-74.5,11.54-109.7-18-16.93-33.52-21.47-44.48-22.37C430.9,115.45,411.84,125.57,388.62,126.86Z" fill="#fa1e46"/><path d="M417.74,143.2a96,96,0,0,1,14.45,19c23.67,41.1,9,89.08,2.47,110.35a206,206,0,0,1-30.15,60.36,90.74,90.74,0,0,0,24,.85,93.93,93.93,0,0,0,46.29-18.22c6.1-34.63,11.28-71.45,15.3-110.35,2.34-22.83,4.09-45.07,5.38-66.53a72.41,72.41,0,0,0-11.6-9.07c-8.36-5.39-21.53-13.75-36.37-11.16C428.56,121.68,419,140.61,417.74,143.2Z" fill="#464664" opacity="0.17" style="isolation:isolate"/><path d="M492.56,153.51c-3.31,9.27-8.43,24.05-13.62,42.6-15.43,54.4-14.33,77.74-33.07,105.81a131,131,0,0,1-31.44,32.68,107.31,107.31,0,0,0,32.68-5.38A106,106,0,0,0,474.4,315.6c5.06-27.1,9.53-56.34,12.84-87.66C489.9,201.88,491.65,177,492.56,153.51Z" fill="#464664" opacity="0.11" style="isolation:isolate"/></g><g id="hand_l" data-name="hand l"><path d="M462.47,278.32c-1.36-2.53.07-6.29,2.21-8.3,3.95-3.76,11.15-2.33,14.39,1.75.45.59,2.66,3.31,1.75,5.64C478.88,282.15,465.26,283.38,462.47,278.32Z" fill="#fff" stroke="#1e0a32" stroke-miterlimit="10" stroke-width="3"/><path d="M480.76,128.61A169.4,169.4,0,0,1,540,200.84a171.63,171.63,0,0,1,9.14,27.43,138.69,138.69,0,0,1-36.56,50,132.84,132.84,0,0,1-20.88,14.78,114.67,114.67,0,0,1-14.59,13.68c-4.15,3.31-9.79,7.72-11.09,6.62-1-.91.78-5.38,3.57-8.5,3.31-3.63,7.39-4.73,7.33-4.92s-3.7.45-7.07,3c-3.89,3.05-3.7,5.9-5.64,6.36-4.09,1-13.49-8.88-12.06-18.87,1.17-8.36,9.4-12.84,12.19-14.39a28.55,28.55,0,0,1,17.83-3.05c9.72-15.11,19.45-30.15,29.18-45.26a109.13,109.13,0,0,1-10-9.14c-4.47-4.6-17.05-17.7-23.08-35.66C470.12,158.89,477.58,136.65,480.76,128.61Z" fill="#fff" stroke="#1e0a32" stroke-miterlimit="10" stroke-width="3"/><path d="M453.66,298.74a23,23,0,0,1,11.8-11.8c1.16-.51.12-2.2-1-1.68A24.55,24.55,0,0,0,452,297.77c-.52,1.1,1.17,2.08,1.69,1Z" fill="#1e0a32"/><path d="M460.79,307.76c-2-6.1,3.89-12.39,8.75-15.17a1,1,0,0,0-1-1.69c-5.64,3.24-12,10.37-9.66,17.38.39,1.16,2.27.64,1.88-.52Z" fill="#1e0a32"/><path d="M477.77,139.31a364.94,364.94,0,0,1,30.48,35.79c16.47,22,24.64,33,25.22,44.61,1,21.52-15.11,48.43-36.37,58.68-6.16,3-22.18,9-31.39,20.81-2.65,3.37-5.38,8-4.4,9.08.84.84,3.95-1.37,5-.33,1.23,1.23-1.75,5-.91,5.84,1,1,6.81-2.66,12.64-7.33a114.29,114.29,0,0,0,13.23-12.64,131.78,131.78,0,0,0,19.39-13.49,140.47,140.47,0,0,0,38.7-52.52,185.94,185.94,0,0,0-7.32-22.3A177.44,177.44,0,0,0,512.14,156a166.16,166.16,0,0,0-31.38-28.14C479.72,131.66,478.75,135.49,477.77,139.31Z" fill="#464664" opacity="0.18" style="isolation:isolate"/><path d="M540,237.28c-6.22,8-9.4,13.16-12,17-4.93,7.13-12.26,13.94-27,27.55-5.26,4.87-12.39,11.35-21.14,18.81-9.21,8-13.68,12.05-13.49,12.31s9.15-6.41,26.72-20.23a127.43,127.43,0,0,0,13.22-8.81c30.22-23.15,43.77-56.41,42.54-57.19C548.32,226.45,545.53,230,540,237.28Z" fill="#464664" opacity="0.21" style="isolation:isolate"/></g><g id="head"><path d="M375.07,20.53C356,36.16,356.79,67.86,364.24,88.35a73.07,73.07,0,0,0,17.32,26.78l-3.12,22.56a62.51,62.51,0,0,0,23.09,5.64c25.28,1.23,43.37-13.55,48.3-17.83q-6.7-22.47-13.42-45c-.59-4.21-1.56-10.69-2.6-18.6-2.78-20.62-2.65-21.72-3.89-25.1-.51-1.36-8.29-21.13-26.38-24.63C389,9.44,376.89,19,375.07,20.53Z" fill="#fff" stroke="#1e0a32" stroke-miterlimit="10" stroke-width="3"/><path d="M359.38,73.31a57,57,0,0,0-1.49,19.32c.52,5.44,1.43,14.91,8.24,24.05a43,43,0,0,0,21.39,15,25.15,25.15,0,0,1-.91-4.08,20.15,20.15,0,0,1,0-4.41c4.48,2.46,9,4.86,13.49,7.32,11.35-10.44,15.11-20,16.4-27,1-5.45,1.69-15.43,4.09-33.71.45-3.25,1.29-9.08,5-10.57a5.64,5.64,0,0,1,5.58.9c4.47,3.77-.07,14.66.9,15s8.82-10.63,6.16-23.14a26.71,26.71,0,0,0-7.32-13.17q-7.39,11.67-16.41,24.06c-3.82,5.25-7.65,10.18-11.41,15a10.92,10.92,0,0,1-6,1.42c-1.94-.19-2.59-.84-4-1.23-5.31-1.49-8.17,4.8-13.42,4-4.28-.72-4.67-5.32-9.4-5.45-2.27-.07-3.18,1-5.51.52A11,11,0,0,1,359.38,73.31Z" fill="#1e0a32" stroke="#1e0a32" stroke-miterlimit="10" stroke-width="3"/><path d="M381.43,54.89a151,151,0,0,0-3.12,22.76,1,1,0,0,0,1.5.84l8-4.15c1.1-.58.13-2.27-1-1.68-2.66,1.36-5.38,2.79-8,4.15.52.26,1,.58,1.49.84a143.17,143.17,0,0,1,3.05-22.24c.2-1.23-1.68-1.75-1.94-.52Z" fill="#1e0a32"/><ellipse cx="371.05" cy="58.91" rx="1.49" ry="3.76" fill="#1e0a32" stroke="#1e0a32" stroke-miterlimit="10" stroke-width="3"/><ellipse cx="396.21" cy="58.91" rx="2.01" ry="3.76" fill="#1e0a32" stroke="#1e0a32" stroke-miterlimit="10" stroke-width="3"/><path d="M367.42,51.59c1.23-2.27,4-1.75,6-1,1.16.39,1.68-1.49.52-1.88-2.86-1-6.49-1.1-8.17,1.94-.59,1,1.1,2.08,1.68,1Z" fill="#1e0a32"/><path d="M391.93,48.93a6.75,6.75,0,0,1,10.31.84c.71,1,2.4,0,1.69-1a8.75,8.75,0,0,0-13.36-1.23c-.91.84.45,2.2,1.36,1.36Z" fill="#1e0a32"/><path d="M344.34,39.66q40.95,2.43,81.63,6.87c3.7.39,3.7-5.45,0-5.84q-40.75-4.47-81.63-6.87c-3.76-.19-3.76,5.64,0,5.84Z" fill="#1e0a32"/><path d="M362,35.64c.45-4.22,2.14-15,10.43-23.86C383.24.3,403.28-4.5,418.84,5.23,431,12.88,437.58,27.66,435.37,42.7Q398.71,39.21,362,35.64Z" fill="#5a14d2"/><path d="M396.47,2.25c-3.18,2.65-3.18,8.29-2.08,14.26,1.24,6.55,4.41,14.52,9.15,22.76,10.63,1.23,21.26,2.53,31.9,3.76A33.78,33.78,0,0,0,436,33.3a38.85,38.85,0,0,0-4.6-14.07C423.57,5.88,403.21-3.46,396.47,2.25Z" fill="#5a14d2" opacity="0.69" style="isolation:isolate"/><path d="M429.8,78.36a8.33,8.33,0,0,1-5.65.78,53.39,53.39,0,0,1-10.69,64.06,80.89,80.89,0,0,0,14.2-4.28,79.8,79.8,0,0,0,22.23-13.68q-7.77-27.33-15.56-54.66C434.33,70.91,434.07,76.09,429.8,78.36Z" fill="#464664" opacity="0.24" style="isolation:isolate"/><path d="M405.81,44.39a39.76,39.76,0,0,1,.64,14.13,41.6,41.6,0,0,1-8.55,19.84c1.49-.45,3-1,4.47-1.42,3-3.63,6-7.52,9-11.48,4.93-6.55,9.47-13,13.62-19.25C418.58,45.62,412.22,45,405.81,44.39Z" fill="#464664" opacity="0.19" style="isolation:isolate"/></g></g></g></svg>