<svg xmlns="http://www.w3.org/2000/svg" viewBox="0 0 776.47 677.89"><g id="Camada_2" data-name="Camada 2"><g id="Camada_1-2" data-name="Camada 1"><g id="ground"><path d="M119.08,612.1c36,0,69.42,15.11,104.65,20,34.24,4.75,68.12-3.08,101.81-8.39,17-2.65,34.12-4.75,51.33-3.89,17.77.93,34.25,5.74,50.41,12.9,14.63,6.54,28.94,14.13,44.43,18.51,14.75,4.19,29.92,4.38,45,1.73,35.42-6.24,68-25.55,104.58-25.36a.93.93,0,0,0,0-1.85c-32-.19-61.2,14.43-91.56,22.39-15.8,4.14-32.27,6.36-48.44,3.4-16.35-3-31.4-10.49-46.33-17.4s-29.81-12.84-46.1-15.06c-16.78-2.28-33.75-1.29-50.47.93-33.93,4.38-67.69,13.63-102.11,11.54-39.8-2.47-76.89-21.29-117-21.29a.9.9,0,1,0-.13,1.79Z" fill="#161616"/><path d="M69.47,619.5a110.75,110.75,0,0,1,22.65-5.92c1.17-.19.68-2-.49-1.79A102.68,102.68,0,0,0,69,617.71c-1.11.43-.62,2.22.49,1.79Z" fill="#161616"/><path d="M56.27,635.54c41.34-18.2,85.95,2.35,126.37,12.78a184.68,184.68,0,0,0,36.22,6c1.17.07,1.17-1.79,0-1.85-44.55-2.4-85-27.27-130.13-25.79A89.48,89.48,0,0,0,55.41,634c-1.11.43-.19,2,.86,1.54Z" fill="#161616"/><path d="M247.67,669.48c9.5-1.42,18.51-4.57,27.58-7.65a236.46,236.46,0,0,1,27.33-7.53,214.45,214.45,0,0,1,91.69,1.24c1.18.24,1.67-1.55.5-1.79A217.64,217.64,0,0,0,279,658.62c-10.55,3.39-20.85,7.41-31.9,9.07-1.11.19-.61,2,.56,1.79Z" fill="#161616"/><path d="M468.75,672c12.83,6.6,27.52,6.73,41.52,4.81,16.23-2.16,32.15-6.48,47.88-11.17C589.44,656.34,620.6,645,653.48,643c18.08-1.11,36.28.8,53.25,7.28,1.11.43,1.61-1.36.5-1.79-62.14-23.82-125.07,12.65-185.42,24.5-17.09,3.33-36,5.61-52.08-2.66-1.11-.49-2,1.11-1,1.67Z" fill="#161616"/><path d="M658.11,628.45a92.68,92.68,0,0,1,40.72,8.14c1,.5,2-1.11.93-1.6a94.89,94.89,0,0,0-41.65-8.39c-1.23.06-1.23,1.91,0,1.85Z" fill="#161616"/></g><g id="background_grey" data-name="background grey"><path d="M221.94,629.68A50.86,50.86,0,0,1,211,612a52.36,52.36,0,0,1-2.35-9.07c-.31-1.86-1.54-7,2.72-5.87,1.66.5,3.58,3.09,4.5,4.45.68,1,2.28.06,1.61-.93a49.47,49.47,0,0,1-7.1-15.18,54.42,54.42,0,0,1-1.54-8.39c-.13-1.36-.19-2.71-.19-4.13,0-.68,0-1.36.06-2a3,3,0,0,1,2-3.15c.62-.18,1.17-.3,1.79-.49a42.47,42.47,0,0,1-2.22-7.77c-.25-1.48-.44-3-.56-4.57,0-.18.12-5.86,1.11-4.81a.93.93,0,0,0,1.54-.93,59.78,59.78,0,0,1-1.54-30.73c.43-2,.8-4.87,2.22-6.47,1.85-2.1,4.51-1,5.87,1a16.89,16.89,0,0,1,1.91,4.08c1.54,4.68,2.1,9.74,3,14.56,4,21,7.84,42.14,10.06,63.49a352.67,352.67,0,0,1,2,36,.93.93,0,0,0,1.85,0c0-25-3.2-49.85-7.4-74.47-2.1-12.16-4.2-24.44-6.79-36.53-.86-4-2.28-9.63-6.54-11.23-3.14-1.17-5.43,1.36-6.48,4.07-4.38,11.36-3.45,25.24.13,36.65.49-.3,1-.61,1.54-.92-2.28-2.35-4.13.68-4.32,2.84-.43,5.36.93,11.1,2.84,16,.43,1.11,2.16.68,1.79-.49a2.59,2.59,0,0,0-4.2-1.12c-2.47,2-1.54,7.78-1.29,10.43a51.12,51.12,0,0,0,8.88,25c.56-.31,1-.62,1.61-.92-1.61-2.29-5.37-7-8.7-5.74s-2.23,6.54-1.79,9.13a52,52,0,0,0,13.69,27,.88.88,0,1,0,1.3-1.18Z" fill="#e6e7e8"/><path d="M235.14,584.46a91.36,91.36,0,0,1,1.73-17.9c.5-2.28,3.46-17,6.11-16.6.43.07,1.05-.12,1.11-.61a120.74,120.74,0,0,1,5.25-19.19c2.22-5.93,4.69-13.58,9.81-17.65h-1.3c3.27,3.58,2.35,10.06,2.41,14.56,0,4.94-.13,9.87-.43,14.87a308.59,308.59,0,0,1-3.52,31c-3.21,20-8,39.86-12.9,59.6a.93.93,0,0,0,1.79.5c5.31-21.29,10.43-42.58,13.64-64.3a290.82,290.82,0,0,0,3-31c.25-5.55.31-11.11.12-16.66-.12-3.58-.3-7.16-2.83-9.87a1,1,0,0,0-1.3,0c-4.94,3.88-7.28,10.67-9.5,16.35a116,116,0,0,0-6,21.28c.37-.18.74-.43,1.11-.61-1.91-.31-2.9.8-3.7,2.47a62.55,62.55,0,0,0-3.64,11,89.68,89.68,0,0,0-2.84,22.89c.06,1,1.91,1,1.91-.18Z" fill="#e6e7e8"/><path d="M512.8,652.14a89.15,89.15,0,0,1-7.71-16,80.47,80.47,0,0,1-2.41-7.77c-.37-1.42-.68-2.84-1-4.26-.13-.68-.31-1.42-.44-2.16-.61-1.48,0-2.47,1.79-3,.62-.06,1.24-.19,1.79-.25a65.12,65.12,0,0,1-3.45-14.13,55.46,55.46,0,0,1-.5-7.16c0-1.17.87-6.84.19-7.58a1,1,0,0,0,1.6-.68,92.1,92.1,0,0,1,1.18-17.47c.43-2.65,1-5.24,1.72-7.83l1.11-3.89c.25-.74.5-1.48.74-2.16.25-1.6,1.24-2.28,3.09-2,.37.92,1.85.86,1.79-.25a48.86,48.86,0,0,1,3-17.83c.56-1.42,2.35-7.16,4.45-7.28,2.71-.13,2.77,7.22,2.9,8.7,1,12.15,1.85,24.37,2.28,36.59q1.38,37.29-.8,74.53c-.07,1.18,1.79,1.18,1.85,0q1.93-32.67,1.11-65.34c-.31-10.8-.8-21.6-1.54-32.33-.38-5.31-.75-10.55-1.3-15.86-.31-3.27-.93-6.29-3.76-8.27a1,1,0,0,0-.93,0c-4,1.92-5.55,6.85-6.79,10.86a52.06,52.06,0,0,0-2.34,16.29c.62-.06,1.23-.18,1.79-.24a2.89,2.89,0,0,0-4.07-1.61c-2.72,1.24-3.4,6.11-4.14,8.52a89.93,89.93,0,0,0-3.27,26.9c.56-.25,1.05-.43,1.61-.68l-.31-.31a.87.87,0,0,0-.93-.25c-1.36.5-1.66,1.36-1.91,2.72a42.31,42.31,0,0,0-.12,10.12,67.06,67.06,0,0,0,3.94,18.39c.31.92,1.92.86,1.79-.25a2.64,2.64,0,0,0-4-2c-2.9,1.55-1.29,6.3-.8,8.64A91.17,91.17,0,0,0,511.14,653c.68,1,2.28.12,1.66-.87Z" fill="#e6e7e8"/><path d="M527.67,605.87a44.3,44.3,0,0,1,.93-9.88,36.44,36.44,0,0,1,1.23-4.38c.19-.49,2.16-6.17,3.33-4.44a.94.94,0,0,0,1.73-.49,38.57,38.57,0,0,1,1.3-8c.31-1.11,3-8.83,4.26-8.09a.94.94,0,0,0,1.41-.8,45.69,45.69,0,0,1,3.83-15.67,41.21,41.21,0,0,1,3.83-6.91c1.17-1.79,3-4.81,4.81-6,4.81-3.08,3.95,4.45,3.89,6.67-.13,2.77-.31,5.55-.5,8.39-.43,6-1.05,11.91-1.85,17.83-3.21,24.13-8.88,47.82-14.5,71.45a.93.93,0,0,0,1.79.5c5.31-22.16,10.61-44.37,13.88-67a313.52,313.52,0,0,0,3.09-32.39c.12-2.6.49-6.79-2.35-8.21s-5.43,2.16-7,4.07A48.14,48.14,0,0,0,540,570c.5-.25.93-.56,1.42-.81-5.3-3.39-8.2,14.87-8.33,17.65.56-.19,1.18-.31,1.73-.49-2.1-3.09-4.75-.07-5.74,2.22a44.27,44.27,0,0,0-3.21,17.4c-.06,1.11,1.79,1.11,1.79-.06Z" fill="#e6e7e8"/><path d="M84.65,611.42a13.69,13.69,0,0,1-6.35-4.63,14.44,14.44,0,0,1-1.67-3.39c-.12-.25-1.29-4,.19-3.27a.93.93,0,0,0,1.11-1.48A36.08,36.08,0,0,1,71,584.21c-.31-1.42-1-3.46-.74-4.88.61-2.83,3.45-3.2,5.3-1.42a41,41,0,0,1,5.25,6.55,60.29,60.29,0,0,1,10.3,28c.13,1.17,2,1.17,1.85,0a63,63,0,0,0-5.3-19.75c-2.66-5.8-6.54-12.83-11.6-16.84-1.67-1.3-4-2.16-5.93-.93-2.22,1.36-1.72,4.38-1.48,6.54a37.75,37.75,0,0,0,8,18.58l1.11-1.49a2.36,2.36,0,0,0-3,.44c-1.3,1.42-.49,3.39.12,4.93a15.32,15.32,0,0,0,9.26,9.38c1.17.31,1.66-1.48.55-1.91Z" fill="#e6e7e8"/><path d="M86.69,591.43c-2.53-9.63-5-19-6.23-28.88-.31-2.34-.62-4.75-.8-7.09s-.81-5.93-.19-8.27c0-.37.06-.8.06-1.17,1.92-2.1,3.33-2.23,4.26-.25a17.88,17.88,0,0,1,1.48,2.65c1.17,2,2.22,4.14,3.21,6.29a118.13,118.13,0,0,1,11.29,55.72c-.06,1.17,1.79,1.17,1.85,0,1-22.27-4.19-45.66-15.79-64.79-1.42-2.34-4.88-5.55-7.28-2.34-1,1.36-.93,3.58-.93,5.18a61.86,61.86,0,0,0,.49,9.51,155.82,155.82,0,0,0,2.41,16.72c1.3,5.86,3,11.6,4.5,17.4.19.92,2,.43,1.67-.68Z" fill="#e6e7e8"/><path d="M48.43,446.8c40.79-1,80.53,9.32,119.21,21.22s77.07,25.73,117.17,32.34a255.11,255.11,0,0,0,60.9,3.08c22.4-1.67,44.43-6.23,66.15-11.78,22.15-5.68,44.05-12.28,66.2-18.14s44.55-11.3,67.07-15.92c45.48-9.38,91.69-15.68,138.22-16.79,5.61-.12,11.29-.18,16.9-.18a.93.93,0,0,0,0-1.85c-45.59-.13-91.07,4.93-135.93,13.2-45.22,8.39-89.4,20.55-133.7,32.77-22,6.1-44.12,11.72-66.7,14.93a253.66,253.66,0,0,1-64.85.86c-40.6-4.69-79.54-18-118.28-30.29-38.26-12.1-77.32-23.64-117.61-25.18-4.93-.18-9.87-.18-14.81-.06a.9.9,0,1,0,.06,1.79Z" fill="#e6e7e8"/><path d="M450.11,456.3c42.15-11.6,83.24-26.47,124.95-39.55s84-24.5,127.54-28.94a339.24,339.24,0,0,1,73,0c1.17.12,1.17-1.73,0-1.85-43.07-4.87-86.57-.12-128.71,9.19-42.76,9.44-84.22,23.57-125.75,37.27-23.69,7.84-47.38,15.49-71.45,22.09a.92.92,0,1,0,.43,1.79Z" fill="#e6e7e8"/><path d="M314.43,554.28c15.8,3.64,32.09,2,47.88-.92,16.54-3,32.77-7.34,49-11.91,32.71-9.13,65.22-18.45,99.22-21a320.66,320.66,0,0,1,57.63,1c1.17.12,1.17-1.73,0-1.86a317,317,0,0,0-99.46,5c-32.52,6.85-64,18-96.44,24.93-18.7,4-38.32,7.4-57.26,3-1.24-.24-1.73,1.55-.56,1.79Z" fill="#e6e7e8"/><path d="M621.15,566.25c41.34-2.22,79.6,16.23,119.27,24.62a176.24,176.24,0,0,0,33.69,4.07.93.93,0,0,0,0-1.85c-41.28-.68-79.1-19.62-119.33-26.47a150.35,150.35,0,0,0-33.63-2.22c-1.17.13-1.23,2,0,1.85Z" fill="#e6e7e8"/><path d="M19,375.84a333.23,333.23,0,0,1,125.26,22.89,335.82,335.82,0,0,1,33.44,15.43c1.05.55,2-1.05.93-1.61a332.53,332.53,0,0,0-122.42-37A327.9,327.9,0,0,0,19,374a.93.93,0,0,0,0,1.85Z" fill="#e6e7e8"/><path d="M62.07,303.47c33.75,8.45,64.54,25,96.44,38.56a393.71,393.71,0,0,0,100.64,27.76,390.78,390.78,0,0,0,58.92,3.52.93.93,0,0,0,0-1.85,390.9,390.9,0,0,1-105.32-12.77A388,388,0,0,1,163.32,342c-16-6.6-31.65-14.13-47.45-21.1C98.54,313.28,81,306.24,62.56,301.68a.93.93,0,0,0-.49,1.79Z" fill="#e6e7e8"/><path d="M292,410c32,12.34,67.2,5.62,98.6-5.24,16.91-5.86,33.32-12.9,50.11-19q24.7-9,50.16-15.55a544.76,544.76,0,0,1,59.6-11.85c1.17-.19.68-2-.49-1.79A547.11,547.11,0,0,0,448,381.27c-32.57,11.29-64.1,27.27-98.6,32.15-19.06,2.71-38.74,1.79-56.82-5.19-1.11-.43-1.61,1.36-.5,1.79Z" fill="#e6e7e8"/></g><g id="details"><ellipse cx="175.17" cy="294.21" rx="6.29" ry="6.17" fill="#5a14d2"/><ellipse cx="415.75" cy="377.08" rx="4.81" ry="4.69" fill="#5a14d2"/><ellipse cx="525.02" cy="40.8" rx="3.21" ry="3.15" fill="#5a14d2"/><ellipse cx="179.8" cy="466.91" rx="4.63" ry="4.5" fill="#5a14d2"/><circle cx="578.95" cy="257.44" r="1.11" fill="#5a14d2"/><ellipse cx="162.71" cy="284.89" rx="6.11" ry="5.99" fill="#fa1e46"/><path d="M168.81,270.7v0Z" fill="#fa1e46"/><ellipse cx="186.52" cy="449.51" rx="2.1" ry="2.04" fill="#fa1e46"/><ellipse cx="73.98" cy="113.36" rx="4.57" ry="4.44" fill="#fa1e46"/><path d="M513.23,18.46v0Z" fill="#fa1e46"/><ellipse cx="540.32" cy="214.24" rx="4.57" ry="4.44" fill="#fa1e46"/><ellipse cx="558.77" cy="198.39" rx="3.83" ry="3.7" fill="#fa1e46"/><path d="M142.28,381c-5.67.13-8.08,8-6.23,12.71.87,2.16,2.78,2.72,4.94,2.35a13.1,13.1,0,0,1,2.28-.56c2.9.19,2.84,2,2,3.7a16.14,16.14,0,0,0-1.6,3.58c-.37,1.73-.06,3.64,1.73,4.38,1,.44,2.16-.3,3,0,3.09,1,.62,4.88.37,6.79-.24,2.1.31,4.51,2.35,5.49a3.61,3.61,0,0,0,4.87-1.48c.56-1.05-1-2-1.6-.92-2.1,1.66-3.34,1.05-3.83-2a8.21,8.21,0,0,1,.37-2.47,28.46,28.46,0,0,0,1.05-4,3.44,3.44,0,0,0-.74-2.77c-1.48-1.36-5.06.61-5.86-1.79-.5-1.48,1.73-4,2.16-5.31.86-2.65-.19-5.31-3.33-5.24-2.6.06-5.68,2.71-6.61-1.92-.67-3.2.87-8.7,4.82-8.76a.9.9,0,0,0-.13-1.79Z" fill="#fa1e46"/><path d="M486.15,319.88a14.25,14.25,0,0,0-13.52,10.61c-1.29,5.37,2,11.79,8.15,8.45,2.16-1.17,4.32-3.27,4.69-5.86a3,3,0,0,0-3.21-3.58c-3,.25-5.8,3.83-7.4,6.05-1.85,2.53-3.77,6.05-3.46,9.32.62,5.61,8.7,6.72,11.54,2.28.49-.74-.49-1.85-1.3-1.3-4.25,3.27-8.7,8.64-7,14.44,1.3,4.57,6.23,7.84,10.86,6.23,1.11-.37.62-2.16-.49-1.78-4.14,1.41-8.46-2-8.83-6.24-.37-4.5,3-8.45,6.42-11l-1.3-1.3a4.67,4.67,0,0,1-6,1.36c-2.9-1.54-2.1-4.87-1-7.34a20.84,20.84,0,0,1,3.82-5.68c.62-.68,2.23-2.53,3.09-2.65.8.18,1.67.43,2.47.61a4.47,4.47,0,0,1-.74,2.16c-1.67,2.72-5.86,4.88-8.15,1.73-1.54-2-.55-5.86.5-7.9A12.39,12.39,0,0,1,486,321.73c1.3-.06,1.3-1.91.13-1.85Z" fill="#fa1e46"/><path d="M1.54,226.4a3.63,3.63,0,0,1,6.36,1.17c.61,1.67.55,3.09,2.09,4.26,2.78,2.1,6.48.49,9.44-.12,7.72-1.55,5.19,6.17,9.57,9.19,1.91,1.36,4.81,1,5.8-1.23.49-1-1.11-2-1.61-.93-1.6,3.58-4.56-1.05-5.06-2.47-.3-.86-.49-1.73-.86-2.53a7.05,7.05,0,0,0-2.53-3.33c-3.45-2.16-7.28.49-10.8.56-3.76.12-3.39-2.47-4.69-5a5,5,0,0,0-2.65-2.41A5.48,5.48,0,0,0,.25,225.1c-.81.93.55,2.22,1.29,1.3Z" fill="#fa1e46"/><path d="M8.14,243.86c3.89-4.19,9.51-2.22,11.79,2.35,1.42,2.83,2.4,5.92,5.49,7.34,4.69,2.16,10.8-.25,12.4-5.12.37-1.11-1.42-1.61-1.79-.5-1.17,3.58-5.49,5.31-8.94,4.26-4.26-1.23-4.57-6.11-6.91-9.19-3.21-4.26-9.75-4.32-13.33-.43-.8.86.49,2.15,1.29,1.29Z" fill="#fa1e46"/><path d="M446,514.79c2.28-2.65,5.37-2.59,8.15-.74.92.62,1.85,1.24,3,.81,1.48-.56,1.73-2.53,2.78-3.52a6.16,6.16,0,0,1,8-.19c.92.74,2.22-.55,1.29-1.29-3.33-2.78-8.82-2.53-11.48,1.17-.24.37-.55,1.36-.86,1.54-1.42.93-2-.49-2.9-.86a10.47,10.47,0,0,0-3-.87,7.6,7.6,0,0,0-6.36,2.66c-.67.86.62,2.16,1.36,1.29Z" fill="#5a14d2"/><path d="M464.12,517.94c4.2-6.23,19.37,2.22,20.92-7.77.18-1.18-1.61-1.67-1.79-.5-.8,5.25-8.09,4-11.79,3.89-3.45-.06-6.91.43-8.94,3.46-.68,1,.92,1.91,1.6.92Z" fill="#5a14d2"/><path d="M137.1,543.86a31.17,31.17,0,0,1,9.56-10.25c1-.68.07-2.28-.92-1.6a34.57,34.57,0,0,0-10.24,10.92c-.62,1,1,1.91,1.6.93Z" fill="#5a14d2"/><path d="M145.86,540.89c3.27-2.22,6.54-4.5,9.81-6.72,1-.68.06-2.28-.92-1.61-3.27,2.23-6.54,4.51-9.81,6.73-1,.68-.07,2.28.92,1.6Z" fill="#5a14d2"/></g><g id="gifts"><g id="lines"><path d="M143.7,14.89a299.28,299.28,0,0,1-35.54,137.59,297.36,297.36,0,0,1-21.47,34.25c-.68,1,.93,1.91,1.6.92a302.91,302.91,0,0,0,54.05-132.6,301.18,301.18,0,0,0,3.21-40.23c.07-1.11-1.79-1.11-1.85.07Z" fill="#e6e7e8"/><path d="M151.42,16.92c30.11,18.45,67.37,24.13,101.74,16.41a132.57,132.57,0,0,0,28.14-9.74c1.05-.5.12-2.1-.93-1.61C249.09,36.91,212.13,38.76,179.3,27.9a130.33,130.33,0,0,1-27-12.52c-1-.68-1.91.92-.92,1.54Z" fill="#e6e7e8"/><path d="M296.6,23.15a103.32,103.32,0,0,0,57.63,43.32c28.44,8.51,59.11,2.9,87.12-4.63,15.61-4.2,30.85-9.93,44.43-18.7,1-.61.06-2.22-.93-1.6-12,7.65-25.11,13-38.69,17A276.39,276.39,0,0,1,402.6,67.7c-14.13,1.73-28.5,1.73-42.39-1.54a103,103,0,0,1-33-14.38,99.63,99.63,0,0,1-29-29.55c-.61-1-2.22-.06-1.6.92Z" fill="#e6e7e8"/><path d="M493.06,44.38c-4.32,23.57-7.65,48.25-6.48,72.25.93,19.68,6.29,40.23,22.34,52.94,9.56,7.59,21.22,11.79,32.64,15.86,1.11.43,1.6-1.36.49-1.79-10.06-3.64-20.36-7.28-29.19-13.45a52.53,52.53,0,0,1-18.57-23.57c-7.59-18.63-6.6-39.8-5.06-59.48a424.75,424.75,0,0,1,5.56-42.33c.24-1.11-1.55-1.6-1.73-.43Z" fill="#e6e7e8"/><path d="M91.44,198.2A177.36,177.36,0,0,1,207,269.71a163.58,163.58,0,0,1,18.76,34.37c.43,1.11,2.22.62,1.79-.49-17.28-43.56-53.38-78.36-96.51-96.19a172.92,172.92,0,0,0-39.12-11c-1.17-.18-1.66,1.61-.49,1.79Z" fill="#e6e7e8"/><path d="M237.67,305.62c21.78-16.9,50.66-21.1,77.38-17.15,28.5,4.2,54.36,17.9,77.68,34.31,14.07,9.87,27.33,20.79,40.6,31.71.93.74,2.22-.55,1.3-1.29-23.94-19.75-48.25-39.74-76.45-53.13-25.18-12-53.56-17.95-81.33-13.2a91.42,91.42,0,0,0-40.47,17.4c-.93.8.37,2.1,1.29,1.35Z" fill="#e6e7e8"/><path d="M432.53,343.08c10.61-45.85,39.55-86.57,78.3-113A188.52,188.52,0,0,1,546.31,211c1.11-.43.61-2.22-.5-1.79A196,196,0,0,0,444,304.82a182.93,182.93,0,0,0-13.27,37.76c-.25,1.18,1.54,1.67,1.79.5Z" fill="#e6e7e8"/><path d="M154.19,233.37c9.26,3.95,16.23,11.79,22.83,19.13A231.29,231.29,0,0,1,196,276.62a220.72,220.72,0,0,1,26.6,53.25c.37,1.11,2.16.62,1.79-.49A226.23,226.23,0,0,0,197,274.84a230.41,230.41,0,0,0-18.63-23.64c-6.73-7.4-13.82-15.42-23.2-19.37-1.05-.56-2,1-.93,1.54Z" fill="#161616"/><path d="M294.63,33a80.23,80.23,0,0,0,44.54,34.12c1.18.37,1.61-1.42.5-1.79A77.8,77.8,0,0,1,296.23,32.1a.93.93,0,0,0-1.6.93Z" fill="#161616"/><path d="M144.81,1.74A86,86,0,0,0,212.68,13.9a.93.93,0,0,0-.49-1.79,84,84,0,0,1-66.45-12c-1-.62-1.91,1-.93,1.6Z" fill="#161616"/><path d="M79.41,174.63A189.45,189.45,0,0,0,105,138.84c.56-1-1-2-1.6-.92a188.38,188.38,0,0,1-25.24,35.42c-.8.86.5,2.16,1.3,1.29Z" fill="#161616"/><path d="M139.32,102.32c-.86,8.76-5.49,17-9.07,24.92-3.7,8.09-7.53,16-11.41,24-.56,1.05,1,2,1.6.92,4.32-8.64,8.45-17.4,12.46-26.22,3.46-7.59,7.53-15.3,8.33-23.69.07-1.12-1.79-1.12-1.91.06Z" fill="#161616"/><path d="M426.61,310.62a169.83,169.83,0,0,1,45.28-65.22c.87-.8-.43-2.09-1.29-1.29a172,172,0,0,0-45.78,66c-.44,1.11,1.35,1.54,1.79.49Z" fill="#161616"/><path d="M136.3,28c-1.05,6.6-2.16,13.2-3.21,19.8-.19,1.17,1.6,1.67,1.79.5,1.05-6.61,2.16-13.21,3.21-19.81.18-1.17-1.61-1.67-1.79-.49Z" fill="#fa1e46"/><path d="M294.13,6.93a148.52,148.52,0,0,0,48.5,38c1.05.5,2-1,.92-1.6a146.91,146.91,0,0,1-48.12-37.7c-.74-.93-2,.37-1.3,1.3Z" fill="#fa1e46"/><path d="M403.41,78.81a94.7,94.7,0,0,0,45.1-9c1.05-.49.12-2.1-.93-1.6A93.19,93.19,0,0,1,403.41,77c-1.24-.06-1.18,1.79,0,1.85Z" fill="#fa1e46"/><path d="M458.51,50.55a123,123,0,0,0,35.1-25.67c.81-.86-.49-2.16-1.29-1.29a121.45,121.45,0,0,1-34.74,25.35c-1.05.5-.12,2.1.93,1.61Z" fill="#fa1e46"/><path d="M241.44,293.78c15.55-16.35,39.24-23.88,61.45-19.93,1.18.18,1.67-1.61.5-1.79-22.89-4.07-47.21,3.52-63.25,20.42-.86.8.43,2.16,1.3,1.3Z" fill="#fa1e46"/><path d="M103.9,190.49a149.81,149.81,0,0,1,37.58,13.14c1.05.56,2-1,.93-1.6a151.22,151.22,0,0,0-38-13.33c-1.17-.25-1.67,1.54-.5,1.79Z" fill="#5a14d2"/><path d="M152.46,40.12a134.71,134.71,0,0,1,.44,21.72c-.07,1.17,1.79,1.17,1.85,0a143.09,143.09,0,0,0-.43-21.72c-.13-1.17-2-1.17-1.86,0Z" fill="#5a14d2"/><path d="M393.47,288.53a73.58,73.58,0,0,1,33.38-32.45c1-.5.13-2.1-.92-1.61a75,75,0,0,0-34.06,33.14c-.56,1.05,1.05,2,1.6.92Z" fill="#5a14d2"/><path d="M354.85,155.5a28.9,28.9,0,0,1,18.32-5.12c1.17.06,1.17-1.79,0-1.85A30.53,30.53,0,0,0,353.92,154c-1,.62-.06,2.22.93,1.54Z" fill="#fa1e46"/><path d="M369.84,138.84a92.36,92.36,0,0,1,15.61,4.69c1.11.44,1.6-1.35.49-1.79a91.42,91.42,0,0,0-15.61-4.68c-1.17-.25-1.66,1.54-.49,1.78Z" fill="#fa1e46"/><path d="M235.33,91.27a45.43,45.43,0,0,1,12.59-22.58.92.92,0,0,0-1.3-1.3,46.81,46.81,0,0,0-13.08,23.39.93.93,0,0,0,1.79.49Z" fill="#fa1e46"/><path d="M248.9,93.25a96,96,0,0,1,30.73-16c1.11-.37.68-2.16-.49-1.79a97.87,97.87,0,0,0-31.53,16.41c-.93.8.37,2.1,1.29,1.36Z" fill="#fa1e46"/><path d="M230.33,215.29a28.34,28.34,0,0,1,.8,18.21.93.93,0,0,0,1.79.49,30,30,0,0,0-.8-19.19c-.43-1.11-2.22-.62-1.79.49Z" fill="#5a14d2"/><path d="M246.13,217.33A36.78,36.78,0,0,0,258,226.77c1,.55,2-1.05.92-1.6a34.34,34.34,0,0,1-11.54-9.2c-.74-.86-2,.43-1.29,1.36Z" fill="#5a14d2"/><path d="M447.34,205.17a13.37,13.37,0,0,1,3.33,11.23c-.19,1.18,1.6,1.67,1.79.5a15.23,15.23,0,0,0-3.83-13c-.8-.93-2.1.37-1.29,1.29Z" fill="#5a14d2"/><path d="M462.7,202.34l6.79,7.71c.8.92,2.1-.43,1.29-1.3L464,201c-.74-.93-2,.37-1.3,1.3Z" fill="#5a14d2"/><path d="M373.17,224.42a63,63,0,0,1,16.72-19.12c.93-.74,0-2.35-.92-1.61a66.07,66.07,0,0,0-17.4,19.81c-.56,1.05,1.05,2,1.6.92Z" fill="#5a14d2"/><ellipse cx="597.03" cy="82.26" rx="9.01" ry="8.76" fill="#fa1e46"/><path d="M621.21,101.08v0Z" fill="#fa1e46"/><ellipse cx="613.62" cy="103.49" rx="7.59" ry="7.34" fill="#5a14d2"/></g></g><g id="girl"><g id="leg_right" data-name="leg right"><path d="M296.29,634.68c2.47-3.08,3.95-4.5,4.51-4.13q2.11,1.29-15.25,37.45-42.66,2-43.25-2.1c-.31-2.4,10.24-6.42,31.65-12L288,624.13C290.8,627.65,293.51,631.16,296.29,634.68Z"/><path d="M310.73,438c-2.35,16.59-5.06,33.5-8,50.65-8.76,50.35-19.44,98-31.35,142.9A28.78,28.78,0,0,0,285,639.86a31.07,31.07,0,0,0,19.25-1.11Q325.17,565.64,346,492.46c18.33-20,14.81-45.85.8-55.23C337.57,431.06,323.25,431.93,310.73,438Z" fill="#fa1e46"/><path d="M311.47,439c1.79.19.68,27.89-.74,52.82a632.82,632.82,0,0,1-26.29,147.65,25.18,25.18,0,0,1-4.56-1.72,25.69,25.69,0,0,1-8.15-6.42c3.77-13.45,9.2-33.69,14.81-58.49C304.13,495.17,308.94,438.84,311.47,439Z" fill="#1e0a32" opacity="0.15" style="isolation:isolate"/><path d="M301,503.75c-1.36,16.29-3.33,33.44-6.11,51.34A741.87,741.87,0,0,1,277.84,636a8.08,8.08,0,0,1-3.08-1.24,7.89,7.89,0,0,1-2.78-3.2c4.94-20.55,9.75-41.28,14.56-62.2Q294,536.26,301,503.75Z" fill="#1e0a32" opacity="0.13" style="isolation:isolate"/></g><g id="leg_left" data-name="leg left"><path d="M414.45,632.83c-2.71-3.09-4.38-4.5-5-4.13q-2.31,1.29,16.72,37.45c31.29,1.36,47.08.68,47.51-2.1q.56-3.62-34.8-12c-5.18-9.93-10.3-19.87-15.48-29.8C420.44,625.8,417.47,629.31,414.45,632.83Z"/><path d="M334.42,452.72c-2.28,11,2.9,20,4.82,23.08q30.54,81.63,61,163.32a40.31,40.31,0,0,0,18.88-1.91A37.93,37.93,0,0,0,436,625.49a513,513,0,0,1-24.49-62.38c-12.28-38.57-28.82-75.84-40.54-114.58-2-6.48-5.31-17.84-12.83-19.25C349.35,427.67,337.08,439.76,334.42,452.72Z" fill="#fa1e46"/><path d="M353.55,429.65c-4.26,3.08,3.64,19.55,7.4,27.76,9.07,19.81,13.76,41.34,22.46,61.33,9.38,21.54,23.14,56.4,42.58,114.89a24.87,24.87,0,0,0,4.81-3,23.64,23.64,0,0,0,4.81-5.25c-4.87-10.55-11.9-26.53-19.31-46.46-2.65-7.09-3-8.39-5.86-17.27-3.09-9.44-7.9-23.76-8.89-26.66-4.62-13.33-4.62-11.54-13.32-35.17-1.85-5-4.38-11.91-7.41-20.92-1.48-4.38-2.59-7.89-3.39-10.42-.12-.37-4.2-13-9.94-28-1.48-3.95-3.08-7.83-7.09-9.87C360.15,430.39,355.65,428.1,353.55,429.65Z" fill="#1e0a32" opacity="0.1" style="isolation:isolate"/><path d="M383.66,487.09c-.37.12,7.9,25.85,47.45,143.21,1.6-1.54,3.21-3.09,4.81-4.69-2.4-5.37-6.17-13.88-10.49-24.5-9.93-24.24-14.19-38.37-25.29-69.53C394,514.24,384,487,383.66,487.09Z" fill="#1e0a32" opacity="0.12" style="isolation:isolate"/></g><g id="hand_left" data-name="hand left"><path d="M401.12,257.31c-1.42.13-2.4-4.07-3.95-4-1.23.06-2.09,2.84-2.16,3.21-.74,2.53-.37,5.12,2.16,11.91.74,2,1.73,4.5,3,7.4a146.92,146.92,0,0,1-4.14,19.32c-2.77,9.68-7.46,25.6-19.87,42a111.26,111.26,0,0,1-17.89,18.7,37,37,0,0,0-3,15.67c.06,2,.31,11.23,3.7,12.1,2.28.55,5-2.78,6.36-4.45C379.16,361.71,386.13,353,388.91,348c6.47-11.6,11.72-21,16.16-35.23a151.06,151.06,0,0,0,5.68-26.1c1.42-2.34,3.39-5.68,5.67-9.75,6.24-11.1,8.46-16.1,9.82-21.66,1.41-5.73,1.66-10.67.24-11.23-1.05-.37-2.34,1.55-3.52,1.05-1.72-.74.13-5.86-1.72-7-.68-.43-2-.37-4.82,1.48-1.91-4-3.14-4.75-3.94-4.69-1.67.25-2.47,4.82-2.84,10-.5-2.53-1.73-7.84-3.27-7.84-1.3,0-2.66,3.89-3,7-.55,4.26.68,7.35-.86,11.67C402.17,256.26,401.74,257.19,401.12,257.31Z" fill="#fff"/><path d="M399,275c-.18,8.15-2.77,16-5.24,23.69a178.28,178.28,0,0,1-8.45,21.41c-6.18,12.84-14.5,24.56-25.43,33.76-.92.74.44,2.09,1.3,1.29,11.35-9.5,19.87-21.78,26.16-35.11a175.1,175.1,0,0,0,8.33-21.35c2.47-7.65,5-15.48,5.12-23.63.13-1.23-1.73-1.23-1.79-.06Z" fill="#161616"/><path d="M410,285.76c-1.67,19.49-10.19,37.82-18.82,55.1-7.9,15.79-17.46,31.16-31.72,41.95-.92.74,0,2.35.93,1.61,14.56-11.05,24.37-26.53,32.39-42.64,8.82-17.58,17.34-36.22,19.07-56,.06-1.18-1.79-1.18-1.85,0Z" fill="#161616"/><path d="M400.51,274c-2.1-4.5-4.08-9.75-4.39-14.74-.06-.68-.18-3.58.31-4,1.55-1.05,2,.74,2.35,1.48a6.14,6.14,0,0,0,2.47,3,.92.92,0,0,0,.92-1.6c-2.16-1.24-2-4.63-4.44-5.56-2.1-.8-2.84.93-3.27,2.72-1.48,6.35,1.73,13.94,4.32,19.62a1,1,0,0,0,1.73-.93Z" fill="#161616"/><path d="M402.6,259.22c2.1-4.81,1.61-9.74,1.79-14.87.06-1.17-.18-3.88.5-4.81,1.23-1.54,2.16,1.73,2.46,2.78a30.74,30.74,0,0,1,.81,10.06c-.13,1.17,1.72,1.17,1.85,0,.18-2.35-.06-18.7-5.31-16-2.16,1.11-2,5.49-2.1,7.41-.18,4.87.5,9.87-1.54,14.5-.49,1.11,1.11,2.1,1.54,1Z" fill="#161616"/><path d="M410.19,252.5c.37-2.22.68-4.44.87-6.73.18-2.53-.19-5.36.61-7.77.68-2.22,1.05-2.65,2-.68a14,14,0,0,1,1.11,4.38c.31,2.78.55,6.05-.31,8.76-.37,1.18,1.42,1.61,1.79.5,1-3.27.74-7.28.18-10.62-.3-1.79-1.29-6.47-3.7-6.47-2.1,0-3,3.51-3.14,5-.62,4.32-.5,8.76-1.18,13.08-.18,1.24,1.61,1.73,1.79.56Z" fill="#161616"/><path d="M416.92,250.9a47,47,0,0,0,.24-5.8c.07-1.67-.06-6.11,2-5.93,1.54.13,1.42,1.42,1.54,2.78.07.92.07,1.91.07,2.84a36.08,36.08,0,0,1-.56,6.78c-.25,1.18,1.54,1.67,1.79.5.62-3,2.71-15.43-2.84-15.55-5.12-.12-3.76,11.6-4.13,14.44-.13,1.11,1.72,1.11,1.85-.06Z" fill="#161616"/><path d="M423.52,245.47l2.16-.19A14.79,14.79,0,0,1,426,247a29.86,29.86,0,0,1,.18,3.27,24.34,24.34,0,0,1-.92,5.92,50.18,50.18,0,0,1-4.51,10.8c-3.39,6.42-7,12.77-10.55,19.13-.55,1.05,1.05,2,1.61.92,3-5.37,6-10.73,8.94-16.1,2.78-5,5.56-10.24,6.73-15.92.62-3.09,1.91-10.18-1.3-12.34-2-1.42-4.69.49-4.44,2.84.06,1.11,1.91,1.11,1.79-.06Z" fill="#161616"/><path d="M420.37,238.49c-.92.06-1.17,3.89-1.79,8.46-1,8-2.09,17-5.92,24.55a37.69,37.69,0,0,1-7.47,10.06,153.93,153.93,0,0,1-3.76,18.08c-3.45,13-8.51,31.34-22.83,48.56a98.27,98.27,0,0,1-18.69,17.28c-.25,6-.5,12-.81,18.07a99.72,99.72,0,0,0,15.12-14.13c7.53-8.7,12.4-18.57,21.84-37.94,7.53-15.49,9.57-21.47,10.8-25.79A121.58,121.58,0,0,0,411,286a151.3,151.3,0,0,0,9.45-17.09c3.76-8,9.81-21,6.1-24.19a4.78,4.78,0,0,0-3.76-.61C422.22,241.52,421.24,238.43,420.37,238.49Z" fill="#1e0a32" opacity="0.08" style="isolation:isolate"/><path d="M418,274.65c-3.27,3.46-6.54,7-9.81,10.43a92.21,92.21,0,0,1-2.16,12.59,93.36,93.36,0,0,1-7.47,19.68c-3.64,7.28-8.39,18.39-12.95,35,2-3.51,12.83-22.27,18.88-38.31,2.28-6.17,3.51-9.38,4.5-14.38,1.23-6,.93-8.76,2.53-13.57A35.5,35.5,0,0,1,418,274.65Z" fill="#1e0a32" opacity="0.1" style="isolation:isolate"/></g><g id="hand_right" data-name="hand right"><path d="M246.62,243.8c-2,.55-2,5.92-1.73,8.95a28.92,28.92,0,0,0,3.52,11.1c4,7.28,7.77,14.13,11.66,20.73a136.92,136.92,0,0,0,3.09,17.53c3,12.34,6.91,20.73,12.28,32.27C284,352.58,289,363,299.81,374.11a106.64,106.64,0,0,0,10.3,9.2c.93-1.05,6.6-7.59,5.49-16.91a21.77,21.77,0,0,0-7-13.45,88.41,88.41,0,0,1-12.09-12.16c-9.75-12.09-13.83-24.18-19.75-42.32-1.6-4.94-3.76-11.91-5.92-20.49,1.17-3.82,2.16-6.85,2.84-8.76,2-5.86,3.33-8.82,2.4-12.59-.24-1-.74-2.83-2-3.21-1.42-.37-3.58,1.36-5.25,4.51a105.25,105.25,0,0,1-1.54-12.4c-.25-4.57-.12-7.9-1.11-8.15s-2.65,3.46-2.84,3.83a16.67,16.67,0,0,0-1.29,8.76c.49-11.48-.81-14.38-2.22-14.75-1.18-.31-2.66,1.24-3.09,1.73-2.9,3.09-1.42,7.59-1.3,7.9-1.29-6.85-2.65-7.28-3.08-7.28-1.11-.06-2.22,2.4-2.65,3.82a8,8,0,0,0,0,4.08C248.72,244.54,247.55,243.55,246.62,243.8Z" fill="#fff"/><path d="M270.25,275.14c.19,7.9,2.47,15.55,4.82,23.08a182,182,0,0,0,8.26,21.9c6.11,13.27,14.38,25.55,25.42,35.11.93.81,2.23-.55,1.3-1.29-10.67-9.26-18.7-21-24.68-33.75a167.51,167.51,0,0,1-8.21-21.41c-2.46-7.72-4.93-15.55-5.12-23.7a.9.9,0,0,0-1.79.06Z" fill="#161616"/><path d="M259.64,285.94c1.6,19.5,9.75,37.82,18.14,55.29,7.77,16.22,17.34,32,31.65,43.25.93.74,2.22-.56,1.3-1.3-14-10.92-23.26-26.22-31-41.95C271.3,323.83,263,305.44,261.43,286c-.06-1.23-1.91-1.23-1.79-.06Z" fill="#161616"/><path d="M272.17,275.14c2.59-5.8,5.86-13.63,4.07-20.11-.43-1.61-1.24-2.9-3.09-2.16-2.4.93-2.16,4.32-4.32,5.55a.93.93,0,0,0,.93,1.61,5.41,5.41,0,0,0,2.1-2.29c.24-.49.49-1.6.92-2,2.41-1.79,2,2.1,2,3.21-.13,5.18-2.16,10.61-4.26,15.3-.43,1,1.17,1.91,1.67.86Z" fill="#161616"/><path d="M270.07,258.42c-1.92-4.44-1.36-9.25-1.48-13.94-.06-2,.18-6.79-2.1-8-5.12-2.65-5.43,13.76-5.25,16,.13,1.17,2,1.17,1.86,0a31,31,0,0,1,.61-9.56c.19-.8.87-4.51,2.41-3.83.68.31.62,4.57.62,5.31.12,5.12-.31,10.06,1.72,14.87.5,1.11,2.1.18,1.61-.93Z" fill="#161616"/><path d="M262.91,252.13c-.68-4.32-.56-8.7-1.17-13-.19-1.54-1-5.06-3.15-5.12s-3.21,4.38-3.52,6a25,25,0,0,0,.07,11.1.93.93,0,0,0,1.79-.49c-.75-2.47-.56-5.31-.38-7.9a17.63,17.63,0,0,1,.93-4.63c.93-2.34,1.3-2.84,2.16,0,.68,2.29.37,4.94.56,7.28a70.89,70.89,0,0,0,.92,7.22c.19,1.18,2,.68,1.79-.49Z" fill="#161616"/><path d="M256.43,251c-.37-2.78,1-14.62-4.07-14.44-5.43.19-3.33,12.59-2.78,15.55.25,1.17,2,.68,1.79-.49a35.84,35.84,0,0,1-.55-6.79c0-1.67-.5-5.43,1.48-5.62s1.91,4.32,2,5.93c.06,2,0,3.88.25,5.8.18,1.23,2.1,1.29,1.91.06Z" fill="#161616"/><path d="M250.08,245.59c.24-2.28-2.29-4.26-4.32-2.84-3,2.1-1.92,8.82-1.36,11.79,1,5.49,3.46,10.55,6.11,15.48,3,5.74,6.17,11.42,9.19,17.09.56,1.05,2.16.13,1.61-.92-3.52-6.54-7.16-13-10.55-19.62a46.73,46.73,0,0,1-4.08-10.31,26.93,26.93,0,0,1-.86-5.92c0-.74,0-1.48.06-2.28a9.52,9.52,0,0,1,.31-2.35c.06-.92.8-1,2.1-.18-.19,1.23,1.66,1.23,1.79.06Z" fill="#161616"/><path d="M252.85,238.12c1.73.62.5,8,.19,10.8-.68,6.36.74,16,10.8,29.68a186,186,0,0,0,18.07,50.72,183.59,183.59,0,0,0,27,38.13c.62,5.43,1.17,10.86,1.79,16.35a76.13,76.13,0,0,1-14.38-13c-4.56-5.36-7.28-10-11.23-17.52-10.18-19.31-15.3-29-18.88-40.72a154.87,154.87,0,0,1-5.68-27.15,100.75,100.75,0,0,1-10.42-16.54c-4.32-8.57-5.43-14-5.31-18.88.12-5.55,1.11-6.29,1.54-6.48.93-.37,2.16.37,3,1a6,6,0,0,1,1.18-5.12C250.76,239.17,252,237.81,252.85,238.12Z" fill="#1e0a32" opacity="0.09" style="isolation:isolate"/><path d="M247.92,260.15c.61-.31,4.38,5,7.09,9.44a90.58,90.58,0,0,1,9.63,22c4.07,14.13,9.31,26.1,19.87,50,3.2,7.22,8.08,17.71,14.93,30.11a90.66,90.66,0,0,1-7.84-8.27c-2.65-3.15-11.35-13.82-20.42-38.32a234.9,234.9,0,0,1-10.61-38.31c-2.1-3.58-5-8.7-8.09-15.12C251.13,268.79,247.24,260.52,247.92,260.15Z" fill="#1e0a32" opacity="0.09" style="isolation:isolate"/></g><g id="torso"><path d="M335.53,347.58a57.86,57.86,0,0,0-11,0c-5.8.62-11,1.11-14.87,4.51-2.9,2.53-3.76,5.67-5.37,11.9a54,54,0,0,0-2,15.24c.24,12.35,4.93,13.95,7.4,28.88,1.23,7.22,1.11,12.84,1.05,19.56a145.82,145.82,0,0,1-2,22.4A49.48,49.48,0,0,0,321,457.23a46.38,46.38,0,0,0,25.36,2.83,44,44,0,0,0,23.57-12.15,66.62,66.62,0,0,1-4.38-27.4c.49-7.71,2.1-9.38,4.38-26,1.73-12.34,1.67-17.46,1.54-20.24-.43-11.11-.67-16.72-4.38-20.49S354.11,349.25,335.53,347.58Z" fill="#fff"/><path d="M332.45,347.15a56.16,56.16,0,0,0-13.64.74c-3.82.68-7.77,1.36-10.3,4.5-4.63,5.68-6.6,13.52-7,20.67-.93,18.27,8.14,34.93,11.23,52.57.18,1.18,2,.68,1.78-.49-2.77-15.92-10.42-30.79-11.16-47.08-.31-7.46.8-15.11,4.62-21.65,1.3-2.23,2.72-4.39,5.25-5.31a40.68,40.68,0,0,1,5.43-1.36,56.65,56.65,0,0,1,13.7-.8c1.23.12,1.23-1.73.06-1.79Z" fill="#161616"/><path d="M308.51,407.86a139.07,139.07,0,0,1-.62,40.79c-.18,1.17,1.61,1.67,1.79.49a138.33,138.33,0,0,0,.68-41.28c-.19-1.17-2-1.17-1.85,0Z" fill="#161616"/><path d="M340,348.82c8.27-.5,18.45.49,25.48,5.43,4.26,3,4.44,8.08,4.87,12.83a73.22,73.22,0,0,1,.31,12.83c-1.23,16.85-8,32.83-8,49.86a.93.93,0,0,0,1.85,0c-.06-19.19,8.7-37.27,8.09-56.52-.25-7.34,0-16.78-7-21.1-7.34-4.51-17.15-5.68-25.6-5.19-1.24.07-1.24,1.92,0,1.86Z" fill="#161616"/><path d="M364.66,411.26A139.39,139.39,0,0,0,369,447.05a.93.93,0,0,0,1.79-.5,138.55,138.55,0,0,1-4.26-35.29.93.93,0,0,0-1.85,0Z" fill="#161616"/><path d="M308,450.38a47.89,47.89,0,0,0,30.05,11.23c12.41.06,22.77-6,32.33-13.33.93-.74,0-2.35-.92-1.6-9.07,6.91-18.76,12.83-30.42,13A45.73,45.73,0,0,1,309.37,449c-1-.74-2.28.56-1.36,1.36Z" fill="#161616"/><path d="M354.72,348.38a83.76,83.76,0,0,1,5.62,20.3c2.4,17.47-1.67,30.85-6.54,46.34a209.63,209.63,0,0,1-20.49,45.29,45.24,45.24,0,0,0,12.28-.55,48.11,48.11,0,0,0,24-12.28c-.43-3.09-1.17-7.9-2.22-13.7-1.66-9.07-2.22-9.75-2.4-13-.25-4,.43-3.52,4.07-20.48a147.45,147.45,0,0,0,3.08-20.61c.06-.68.06-1.36.13-2,.3-10.18.43-16.41-3.89-21.72C364.22,350.85,358.24,349.06,354.72,348.38Z" fill="#1e0a32" opacity="0.11" style="isolation:isolate"/><path d="M372.55,377.94c-.43-.12-2.59,3.27-7.65,16.78a394.85,394.85,0,0,0-17.71,64,39,39,0,0,0,10.62-3,35.42,35.42,0,0,0,11.35-8.2,99.35,99.35,0,0,1-3.89-27.83C365.34,396.57,373.54,378.25,372.55,377.94Z" fill="#1e0a32" opacity="0.08" style="isolation:isolate"/></g><g id="head"><path d="M313.26,302.66a18.69,18.69,0,0,0-1.17,12.28c-.25,0-3.15-.12-4.69,2-1.85,2.46-.13,5.55.18,6a3.81,3.81,0,0,0,2.16,2.1c1.85.56,3.58-1.05,3.7-1.17a33.28,33.28,0,0,0,4.88,8.33,35.49,35.49,0,0,0,10.61,9c.12,3,.25,5.86.31,8.82a8.44,8.44,0,0,0,4.2,2.1,9.38,9.38,0,0,0,7.71-2.29c-.06-3.7-.13-7.4-.19-11.1a29.76,29.76,0,0,0,5.25-5.25,28.44,28.44,0,0,0,5.37-12.27,9.81,9.81,0,0,0,3.2.49c1.36,0,3.09-.06,3.89-1.17s-.06-3-1-4.94-1.6-2-1.85-2.1a3,3,0,0,0-2.34.5,21,21,0,0,0-1.17-9.81c-.44-1.18-2.9-7.47-8.89-10.8C333.62,288.1,318.2,292.61,313.26,302.66Z" fill="#fff"/><path d="M312.15,302.79c-3.64,16,2.28,36.59,20.42,40,1.17.25,1.67-1.54.5-1.79-17.16-3.27-22.53-22.7-19.13-37.76.24-1.17-1.54-1.67-1.79-.49Z" fill="#161616"/><path d="M332.82,342.77c2.53.74,6-1.67,8-3a27.1,27.1,0,0,0,7-6.73,31.89,31.89,0,0,0,5.8-22.15c-.12-1.17-2-1.17-1.85,0a30.21,30.21,0,0,1-4.19,19.31A28.22,28.22,0,0,1,342,336.6c-1.79,1.48-6.17,5.06-8.64,4.38a.93.93,0,0,0-.49,1.79Z" fill="#161616"/><path d="M327.39,341.29a15.47,15.47,0,0,1,.74,7.83c-.19,1.18,1.6,1.67,1.79.5a17.22,17.22,0,0,0-.74-8.83c-.37-1.11-2.16-.67-1.79.5Z" fill="#161616"/><path d="M340.16,339.19a26.43,26.43,0,0,0,.74,9.32.93.93,0,0,0,1.79-.5,26.75,26.75,0,0,1-.68-8.82c.13-1.17-1.73-1.17-1.85,0Z" fill="#161616"/><path d="M328.19,350.3c4.26,4.75,13.14,4.62,14.69-2.59.24-1.18-1.55-1.67-1.79-.5-1.3,5.86-8.21,5.49-11.6,1.79-.81-.86-2.1.43-1.3,1.3Z" fill="#161616"/><path d="M328.56,342.52A7.26,7.26,0,0,0,340,340.67c.55-1.05-1.05-2-1.61-.92a5.39,5.39,0,0,1-8.57,1.48c-.87-.81-2.16.49-1.3,1.29Z" fill="#161616"/><path d="M332.26,343.88a6.57,6.57,0,0,1,2.47.25.93.93,0,0,0,.49-1.79,9.6,9.6,0,0,0-3-.31c-1.17.06-1.17,1.91,0,1.85Z" fill="#161616"/><path d="M312.33,324.07c-2.53,2-4.75-.8-5-3.21s1.72-5.24,4.31-3.64c1,.62,1.92-1,.93-1.6-3.83-2.41-7.53,1.67-7.1,5.49.5,4.07,4.51,7.22,8.15,4.26.92-.74-.37-2-1.3-1.3Z" fill="#161616"/><path d="M354,315.07c2-1.86,3.89,1.66,3.83,3.27a3,3,0,0,1-1.36,2.52c-.68.44-2.28,1-2.84.13s-2.22-.06-1.6.92c.92,1.55,3,1.61,4.56,1a4.84,4.84,0,0,0,3-4.32c.18-3.39-3.7-7.9-7-4.81-.8.8.5,2.16,1.36,1.3Z" fill="#161616"/><path d="M329.18,302.6a58.72,58.72,0,0,1-.19,12.71c-.24,2.9,1.3,4.14,3.58,6,.93.74,2.22-.56,1.3-1.3-1.61-1.36-3-2.28-3-4.75a34.71,34.71,0,0,1,.43-3.64,44.41,44.41,0,0,0-.25-9c-.18-1.17-2-1.17-1.91,0Z" fill="#161616"/><path d="M318.87,311.36c-.06-1.35,1.92-2.22,3-2.16,1.29,0,2,1.05,2.65,2s2.28.06,1.6-.93c-1.23-1.79-2.65-3.27-5-2.9-2,.37-4.26,1.79-4.2,4a1,1,0,0,0,1.91-.06Z" fill="#161616"/><path d="M340,309.7a3.71,3.71,0,0,1,7,.86c.25,1.17,2,.68,1.79-.49a5.59,5.59,0,0,0-10.37-1.36c-.49,1.05,1.05,2,1.61,1Z" fill="#161616"/><path d="M317.08,304.82a6.75,6.75,0,0,1,4.76-2.9c1.17-.12,1.17-2,0-1.85a8.6,8.6,0,0,0-6.36,3.83c-.68,1,.93,1.91,1.6.92Z" fill="#161616"/><path d="M340,301.37a7.76,7.76,0,0,1,5.86,2c.86.81,2.22-.49,1.29-1.29a9.9,9.9,0,0,0-7.21-2.59.93.93,0,0,0,.06,1.85Z" fill="#161616"/><path d="M319.37,316.11V316a.93.93,0,0,0-1.85,0v.12a1,1,0,0,0,.92.93.91.91,0,0,0,.93-.93Z" fill="#161616"/><path d="M322.21,315.68h.12a.93.93,0,0,0,0-1.85h-.12a1,1,0,0,0-.93.93,1,1,0,0,0,.93.92Z" fill="#161616"/><path d="M322.08,319.75h.13a.93.93,0,0,0,0-1.85h-.13a.93.93,0,0,0,0,1.85Z" fill="#161616"/><path d="M342.07,314.32h.13a.93.93,0,0,0,0-1.85h-.13a1,1,0,0,0-.92.93,1,1,0,0,0,.92.92Z" fill="#161616"/><path d="M347.5,314.2a.93.93,0,0,0,0-1.85.93.93,0,0,0,0,1.85Z" fill="#161616"/><path d="M345.47,317.16a.93.93,0,0,0,0-1.85.93.93,0,1,0,0,1.85Z" fill="#161616"/><path d="M325,325.25a8.77,8.77,0,0,0,16-1.55c.37-1.11-1.42-1.6-1.79-.49a6.88,6.88,0,0,1-12.65,1.11c-.56-1.05-2.16-.12-1.61.93Z" fill="#161616"/><path d="M303,310.13a43.21,43.21,0,0,0-6.85,17.09c-.93,5.62-2.53,15.43,3.64,23.2,1.66,2.1,7.77,8.95,16.16,7.84,5.62-.74,11.6-4.94,12.71-10.8a11.24,11.24,0,0,0-.61-6.42A28.66,28.66,0,0,1,317,331.72a25.57,25.57,0,0,1-3.58-7.09,3.79,3.79,0,0,1-5.49-.56c-1.91-2.16-1.73-6.6.8-8.08a5,5,0,0,1,3.58-.31,20.25,20.25,0,0,1,1.85-12.28c1.73-3.45,4.38-6,10.49-9.81,5.06-3.14,7.28-2.9,8.09-2.77,2.71.49,4.38,2.65,5.24,3.76,3.89,4.94,8.95,11.29,15,19.13a4.38,4.38,0,0,1,3.58-.19,4.59,4.59,0,0,1,2.1,2.41,4.47,4.47,0,0,1,.56,2.84,4.35,4.35,0,0,1-3,3.33,4.44,4.44,0,0,1-3.82-.62,29.58,29.58,0,0,1-3.83,9.63,30.56,30.56,0,0,1-7.09,7.83,13.71,13.71,0,0,0,.61,7.28c1.85,5.06,6.67,8.27,11.11,9.26,8.33,1.79,15.05-4.44,16.78-6.11,5.92-5.55,9.5-14.87,6.48-23.82a23.13,23.13,0,0,0-9.32-11.6A90.09,90.09,0,0,0,360.21,301c-5.55-8.7-9.37-14.56-16.35-16.72a20.39,20.39,0,0,0-10.73-.19,21.08,21.08,0,0,0-9.69,0C313.2,286.62,305.42,296.86,303,310.13Z" fill="#5a14d2"/><path d="M345.34,303.28c-.49.19.5,3.39,1,6.6a35.36,35.36,0,0,1-1.85,16c-3.33,8.52-10.24,13.08-13.27,14.81,1.92.43,3.89.87,5.8,1.36.56,3.33,1.05,6.72,1.61,10.06,1.23-1.48,2.53-3,3.76-4.45a15,15,0,0,0,3.09,4,16.1,16.1,0,0,0,9.38,4.14c5.92.55,10.3-2.65,12.77-4.44a23.15,23.15,0,0,0,8.2-28,32.9,32.9,0,0,1-6,12.22c-.87,1.11-8.64,10.8-13.45,9.13-4.14-1.42-5.56-11.16-3.52-23.94a3,3,0,0,0,5.24-.8c.87-1.85-.18-3.89-1.23-5a5.52,5.52,0,0,0-3.76-1.72,37.19,37.19,0,0,1-3.21-3.64C346.89,306,345.78,303.16,345.34,303.28Z" fill="#1e0a32" opacity="0.08" style="isolation:isolate"/><path d="M330.41,317c.5-.8,3.21-1,4,.68.62,1.29-.18,3-1.05,3.2C332,321.24,329.73,318,330.41,317Z" fill="#1e0a32" opacity="0.09" style="isolation:isolate"/><path d="M316.16,343.08c-1.3,2.22-3.89,4.26-6.48,4-1.54-.13-3.27-1-9.26-10.61-2-3.15-3.51-5.87-4.56-7.66a24.5,24.5,0,0,0,1.85,18,21.45,21.45,0,0,0,8.76,9.38,15.86,15.86,0,0,0,7.9,2.28,15.49,15.49,0,0,0,10.86-5,11.16,11.16,0,0,0,3.76-7,9.85,9.85,0,0,0-1.6-6.29c-1.85-2.84-3.83-2.53-7-5.25-4-3.45-5.12-7.71-5.62-7.52C314.06,327.84,319.68,337,316.16,343.08Z" fill="#1e0a32" opacity="0.09" style="isolation:isolate"/><path d="M352.56,317.1c-.37-.12-1.48,3.76-4.69,9a53.28,53.28,0,0,1-14.25,15.3,25.77,25.77,0,0,0,12.09-7.22C352.38,327,353.12,317.29,352.56,317.1Z" fill="#1e0a32" opacity="0.13" style="isolation:isolate"/></g></g><polyline points="281.11 172.1 278.26 157.64 221.77 168.76 224.23 181.25" fill="none" stroke="#464664" stroke-linecap="round" stroke-linejoin="round"/><rect x="231.41" y="180.57" width="45.45" height="7.07" transform="translate(539.06 315.63) rotate(168.86)" fill="none" stroke="#464664" stroke-linecap="round" stroke-linejoin="round"/><rect x="233.56" y="187.43" width="45.45" height="15.15" transform="translate(545.42 336.81) rotate(168.86)" fill="none" stroke="#464664" stroke-linecap="round" stroke-linejoin="round"/><rect x="220.81" y="180.99" width="12.12" height="27.27" transform="translate(-33.33 47.51) rotate(-11.14)" fill="none" stroke="#464664" stroke-linecap="round" stroke-linejoin="round"/><rect x="277.49" y="171.86" width="12.12" height="25.25" transform="translate(-30.31 58.27) rotate(-11.14)" fill="none" stroke="#464664" stroke-linecap="round" stroke-linejoin="round"/><rect x="298.4" y="167.66" width="20.2" height="15.15" transform="translate(-28.05 62.92) rotate(-11.14)" fill="none" stroke="#464664" stroke-linecap="round" stroke-linejoin="round"/><line x1="311.97" y1="174.55" x2="305.03" y2="175.91" fill="none" stroke="#464664" stroke-linecap="round" stroke-linejoin="round"/><line x1="320.32" y1="190.12" x2="313.98" y2="181.87" fill="none" stroke="#464664" stroke-linecap="round" stroke-linejoin="round"/><line x1="302.23" y1="193.68" x2="304.97" y2="183.65" fill="none" stroke="#464664" stroke-linecap="round" stroke-linejoin="round"/><path d="M302.68,154.22c.18-1.36-.59-5.68-4.76-5.94a15.75,15.75,0,0,0-5.33.67,12.32,12.32,0,0,0,2.8,4.77A5.66,5.66,0,0,0,302.68,154.22Z" fill="none" stroke="#464664" stroke-linecap="round" stroke-miterlimit="10"/><path d="M306.29,154.57a3.18,3.18,0,0,1,1.51-4.28,26,26,0,0,1,3.18-.76s.45,1.16-.57,3.32A3.4,3.4,0,0,1,306.29,154.57Z" fill="none" stroke="#464664" stroke-linecap="round" stroke-miterlimit="10"/><path d="M305.75,160.8c-1.59-6.23,3-9.07,3-9.07" fill="none" stroke="#464664" stroke-linecap="round" stroke-miterlimit="10"/><path d="M298.48,151s5.5,1.84,7.25,9.7" fill="none" stroke="#464664" stroke-linecap="round" stroke-miterlimit="10"/><polygon points="300.59 161.82 310.72 159.82 309.86 167.24 304.21 168.35 300.59 161.82" fill="none" stroke="#464664" stroke-linecap="round" stroke-linejoin="round"/><line x1="310.48" y1="161.9" x2="301.61" y2="163.65" fill="none" stroke="#464664" stroke-linecap="round" stroke-miterlimit="10"/><rect x="214.77" y="106.48" width="30.3" height="50.51" transform="translate(480.97 216.56) rotate(168.86)" fill="none" stroke="#464664" stroke-linecap="round" stroke-linejoin="round"/><rect x="217.8" y="109.51" width="24.24" height="44.44" transform="translate(480.97 216.56) rotate(168.86)" fill="none" stroke="#464664" stroke-linecap="round" stroke-linejoin="round"/><polygon points="298.74 132.08 271.33 137.48 275.02 117.14 287.61 114.66 298.74 132.08" fill="none" stroke="#464664" stroke-linecap="round" stroke-linejoin="round"/><line x1="285.11" y1="134.91" x2="296.5" y2="192.75" fill="none" stroke="#464664" stroke-linecap="round" stroke-linejoin="round"/><polyline points="294.37 195.23 293.98 193.25 298.93 192.27 299.32 194.25" fill="none" stroke="#464664" stroke-linecap="round" stroke-linejoin="round"/><circle cx="258.1" cy="111.54" r="10.88" fill="none" stroke="#464664" stroke-linecap="round" stroke-miterlimit="10"/><line x1="257.23" y1="107.12" x2="258.1" y2="111.54" fill="none" stroke="#464664" stroke-linecap="round" stroke-miterlimit="10"/><line x1="264.08" y1="116.98" x2="258.1" y2="111.54" fill="none" stroke="#464664" stroke-linecap="round" stroke-miterlimit="10"/><polygon points="407.66 109.86 407.66 104.11 396.15 104.11 396.15 109.86 384.64 121.37 419.16 121.37 407.66 109.86" fill="none" stroke="#464664" stroke-linecap="round" stroke-linejoin="round"/><rect x="384.64" y="121.37" width="34.53" height="4.41" fill="none" stroke="#464664" stroke-linecap="round" stroke-linejoin="round"/><rect x="422.45" y="165.15" width="40.69" height="20.34" fill="none" stroke="#464664" stroke-linecap="round" stroke-linejoin="round"/><line x1="427.6" y1="181.42" x2="427.6" y2="169.21" fill="none" stroke="#464664" stroke-linecap="round" stroke-linejoin="round"/><path d="M439.1,145.14a3.7,3.7,0,0,1,3.7-3.71h0a3.71,3.71,0,0,1,3.7,3.71v7.8" fill="none" stroke="#464664" stroke-linecap="round" stroke-linejoin="round"/><rect x="422.45" y="152.94" width="40.69" height="12.21" fill="none" stroke="#464664" stroke-linecap="round" stroke-linejoin="round"/><line x1="436.69" y1="159.04" x2="448.9" y2="159.04" fill="none" stroke="#464664" stroke-linecap="round" stroke-linejoin="round"/><rect x="381.76" y="152.94" width="40.69" height="32.55" fill="none" stroke="#464664" stroke-linecap="round" stroke-linejoin="round"/><rect x="389.9" y="161.08" width="24.41" height="16.27" fill="none" stroke="#464664" stroke-linecap="round" stroke-linejoin="round"/><path d="M416.58,152.94v-1.27a1.34,1.34,0,0,0-1.33-1.33H389a1.33,1.33,0,0,0-1.32,1.33v1.27" fill="none" stroke="#464664" stroke-linecap="round" stroke-linejoin="round"/><line x1="410.25" y1="157.82" x2="410.25" y2="156.2" fill="none" stroke="#464664" stroke-linecap="round" stroke-linejoin="round"/><line x1="406.18" y1="157.82" x2="406.18" y2="156.2" fill="none" stroke="#464664" stroke-linecap="round" stroke-linejoin="round"/><line x1="402.11" y1="157.82" x2="402.11" y2="156.2" fill="none" stroke="#464664" stroke-linecap="round" stroke-linejoin="round"/><line x1="398.04" y1="157.82" x2="398.04" y2="156.2" fill="none" stroke="#464664" stroke-linecap="round" stroke-linejoin="round"/><line x1="393.97" y1="157.82" x2="393.97" y2="156.2" fill="none" stroke="#464664" stroke-linecap="round" stroke-linejoin="round"/><line x1="389.9" y1="157.82" x2="389.9" y2="156.2" fill="none" stroke="#464664" stroke-linecap="round" stroke-linejoin="round"/><line x1="414.31" y1="157.82" x2="414.31" y2="156.2" fill="none" stroke="#464664" stroke-linecap="round" stroke-linejoin="round"/><line x1="463.14" y1="130.3" x2="422.45" y2="130.3" fill="none" stroke="#464664" stroke-linecap="round" stroke-linejoin="round"/><rect x="447.54" y="117.96" width="8.73" height="12.35" fill="none" stroke="#464664" stroke-linecap="round" stroke-linejoin="round"/><rect x="456.27" y="124.14" width="4.36" height="6.17" fill="none" stroke="#464664" stroke-linecap="round" stroke-linejoin="round"/><rect x="426.5" y="126.28" width="8.22" height="4.03" rx="1.46" fill="none" stroke="#464664" stroke-linecap="round" stroke-linejoin="round"/><rect x="426.5" y="122.25" width="7.09" height="4.03" rx="1.46" fill="none" stroke="#464664" stroke-linecap="round" stroke-linejoin="round"/><path d="M440.39,119.72H442a2,2,0,0,1,2,2v8.6a0,0,0,0,1,0,0h-5.62a0,0,0,0,1,0,0v-8.6A2,2,0,0,1,440.39,119.72Z" fill="none" stroke="#464664" stroke-linecap="round" stroke-linejoin="round"/><path d="M440,116.05h2.51a0,0,0,0,1,0,0v2.59a1.08,1.08,0,0,1-1.08,1.08H441a1.08,1.08,0,0,1-1.08-1.08v-2.59A0,0,0,0,1,440,116.05Z" transform="translate(882.43 235.78) rotate(-180)" fill="none" stroke="#464664" stroke-linecap="round" stroke-linejoin="round"/><circle cx="459.77" cy="140.57" r="3.38" fill="none" stroke="#464664" stroke-linecap="round" stroke-linejoin="round"/><line x1="459.77" y1="132.72" x2="459.77" y2="137.19" fill="none" stroke="#464664" stroke-linecap="round" stroke-linejoin="round"/><circle cx="452.28" cy="139.46" r="2.26" fill="none" stroke="#464664" stroke-linecap="round" stroke-linejoin="round"/><line x1="452.28" y1="132.72" x2="452.28" y2="137.19" fill="none" stroke="#464664" stroke-linecap="round" stroke-linejoin="round"/></g></g></svg>