<svg xmlns="http://www.w3.org/2000/svg" viewBox="0 0 745.69 649.7"><g id="Camada_2" data-name="Camada 2"><g id="Camada_1-2" data-name="Camada 1"><g id="ground"><path d="M.89,615.07H67.63a.94.94,0,0,0,0-1.88H.89a.94.94,0,0,0,0,1.88Z" fill="#1e0a32"/><path d="M71.64,633.24h141.5a.94.94,0,0,0,0-1.88H71.64a.94.94,0,0,0,0,1.88Z" fill="#1e0a32"/><path d="M251.55,616.07H605.3a.94.94,0,0,0,0-1.88H251.55a.94.94,0,0,0,0,1.88Z" fill="#1e0a32"/><path d="M455.72,602.91H661.89a.94.94,0,0,0,0-1.88H455.72a.94.94,0,0,0,0,1.88Z" fill="#1e0a32"/><path d="M561.87,636.25H744.8a.94.94,0,0,0,0-1.88H561.87a.94.94,0,0,0,0,1.88Z" fill="#1e0a32"/></g><g id="background"><path d="M572.59,33.41c12.72,6.2,16.73,20.87,18.17,33.84,2,17.42,1.51,35.41,1.38,52.89-.25,38.23-2.5,76.45-4.57,114.61q-6.12,114.4-12.29,228.8-3.46,64.38-6.89,128.77c-.06,1.19,1.82,1.19,1.88,0q6.3-116.93,12.53-233.8,3.11-58.18,6.27-116.31c2.07-38.6,4.45-77.2,4.95-115.87.13-10.77.13-21.55-.12-32.39-.19-9.22-.25-18.49-1.32-27.64-1.63-13.35-6-28.26-19-34.59-1.12-.44-2.06,1.19-1,1.69Z" fill="#e6e7e8"/><path d="M539.69,21a96.55,96.55,0,0,1,39.54,16.17c1,.69,1.95-.94.94-1.63a99.09,99.09,0,0,0-40-16.35c-1.19-.25-1.69,1.56-.5,1.81Z" fill="#e6e7e8"/><path d="M484.23,2.7c19.49,2,40.48,4.58,55.46,18.55.88.82,2.19-.5,1.32-1.31C525.65,5.59,504.28,2.89,484.23.82,483,.7,483,2.58,484.23,2.7Z" fill="#e6e7e8"/><path d="M539.25,21.32A74.16,74.16,0,0,1,509,71.57c-1,.69-.06,2.32.94,1.63a76.22,76.22,0,0,0,31.21-51.88c.19-1.19-1.69-1.19-1.88,0Z" fill="#e6e7e8"/><path d="M483,1.64a109.15,109.15,0,0,1,24.75,71.25.94.94,0,0,0,1.88,0A111.65,111.65,0,0,0,484.36.32c-.75-.94-2.07.38-1.32,1.32Z" fill="#e6e7e8"/><path d="M492.88,23.51c-7.52-.5-14.48,9-10.84,16,2.69,5.2,12.91,8,16.48,2.32.63-1-1-1.94-1.63-.94-2.82,4.51-11.59,1.44-13.28-2.63-2.51-5.89,3.25-13.29,9.33-12.85,1.13.06,1.13-1.82-.06-1.88Z" fill="#e6e7e8"/><path d="M482.54,1.26a158.43,158.43,0,0,0,4.2,26,.94.94,0,0,0,1.82-.5,160.13,160.13,0,0,1-4.14-25.51c-.13-1.19-2-1.19-1.88,0Z" fill="#e6e7e8"/><path d="M494.26,45.19c4.13,9.4,8.27,18.8,12.34,28.2.5,1.13,2.13.13,1.63-.94-4.13-9.4-8.27-18.8-12.34-28.2-.44-1.06-2.07-.12-1.63.94Z" fill="#e6e7e8"/><path d="M494.76,44.38c2.44,7,4.95,14,8.77,20.49a.94.94,0,0,0,1.63-.94A78.58,78.58,0,0,1,497.77,44c-.5.31-1.07.63-1.57.94l.13.13a6.32,6.32,0,0,1-.13-1.13c-.06.06-.06.12-.12.19l1.5-.19c-.06-.13,5.51-5.2,5.89-5.52A16,16,0,0,1,501.9,38a132.68,132.68,0,0,1,2.76,17.29c.63-.06,1.25-.19,1.82-.25a92.19,92.19,0,0,0-4.07-12,1,1,0,0,0-1.82.5c1.06,5.08,2.07,10.15,3.13,15.29.63-.19,1.19-.31,1.82-.5-1.38-4.26-2.88-8.4-4.58-12.53a.94.94,0,0,0-1.81.5c1.25,4.7,2.5,9.46,3.76,14.16l1.69-.75c-1.76-4.07-3.45-8.15-5.2-12.28-.44-.94-2.07-.25-1.69.75,2.5,6.77,5,13.54,7.39,20.37a1,1,0,0,0,1.82-.51A56.34,56.34,0,0,1,505,57.91c-.62.07-1.25.19-1.81.25q1.68,5.84,3.38,11.66a.94.94,0,0,0,1.82-.5A106.63,106.63,0,0,1,506.23,56c-.63.06-1.26.19-1.82.25.81,4.58,1.57,9.15,2.69,13.66.26,1,1.95.82,1.82-.25A108.05,108.05,0,0,0,506.1,52.9a.94.94,0,0,0-1.82.5,16.52,16.52,0,0,1,.19,5.83c.57-.19,1.19-.31,1.76-.5a22,22,0,0,1-3-8.52,1,1,0,0,0-1.75-.51c-.44.63-.82,1.26-1.26,1.88h1.63a12.76,12.76,0,0,1-1.06-5.7H499c-.13.44-.25.88-.38,1.32a13.16,13.16,0,0,1,1.57.44,15.58,15.58,0,0,1-.19-4.45c-.63.06-1.25.18-1.82.25-.12.69-.18,1.38-.31,2.07h1.63c.25-.88.56-1.76.81-2.64-.43-.18-.94-.37-1.37-.56l-.94,3c.5.31,1.06.62,1.56.94a9.05,9.05,0,0,1,2.82-4.89,15.17,15.17,0,0,1-1.56-.44,9.22,9.22,0,0,1-.51,4.7c.63.06,1.26.19,1.82.25a10.36,10.36,0,0,1,.69-3.88c-.63-.07-1.25-.19-1.82-.25,0,1.12.07,2.25.07,3.38s1.69,1.32,1.81.25l.57-3.38h-1.82c0,.62-.06,1.25-.06,1.94-.5,1.13,1.13,2.07,1.63.94a4,4,0,0,0,.25-3.39c-.25-.81-1.63-.94-1.82,0-.19,1.13-.38,2.26-.56,3.39.62.06,1.25.19,1.81.25,0-1.13-.06-2.26-.06-3.38a.93.93,0,0,0-1.82-.26,11.87,11.87,0,0,0-.75,4.39.93.93,0,0,0,1.82.25,11,11,0,0,0,.5-5.7c-.12-.75-1.13-.82-1.57-.44a11.32,11.32,0,0,0-3.32,5.7,1,1,0,0,0,1.57.94,5.08,5.08,0,0,0,1.38-4.82,1,1,0,0,0-1.38-.57,4,4,0,0,0-1.5,5.21c.31.68,1.25.5,1.62,0a3.58,3.58,0,0,0,.51-3.51.93.93,0,0,0-1.82.25,16.49,16.49,0,0,0,.25,5,1,1,0,0,0,1.57.44,3,3,0,0,0,.94-2.64.94.94,0,0,0-1.88,0,15.09,15.09,0,0,0,1.31,6.65c.32.69,1.26.5,1.63,0s.82-1.26,1.25-1.88c-.56-.19-1.19-.32-1.75-.5a23.88,23.88,0,0,0,3.2,9.46c.5.87,1.62.37,1.75-.5a18,18,0,0,0-.25-6.33c-.63.19-1.19.31-1.82.5A101.75,101.75,0,0,1,507,69.57c.63-.06,1.25-.19,1.82-.25-1.07-4.51-1.88-9.09-2.7-13.66a.93.93,0,0,0-1.82.25,102.38,102.38,0,0,0,2.2,13.85c.62-.19,1.19-.32,1.82-.5L504.91,57.6c-.31-1-1.94-.81-1.82.25a62.12,62.12,0,0,0,2,10.65c.63-.18,1.19-.31,1.82-.5-2.45-6.83-4.89-13.6-7.4-20.36l-1.69.75c1.76,4.07,3.45,8.14,5.2,12.28.44,1,2,.25,1.69-.75-1.25-4.7-2.5-9.46-3.76-14.16-.62.18-1.19.31-1.81.5,1.63,4.13,3.13,8.33,4.57,12.53a.94.94,0,0,0,1.82-.5c-1.07-5.08-2.07-10.15-3.13-15.29-.63.19-1.2.31-1.82.5a89.27,89.27,0,0,1,4.07,12c.25,1,1.94.81,1.82-.25a144.26,144.26,0,0,0-2.82-17.8,1,1,0,0,0-1.57-.44c-1.75,1.63-4.82,3.57-6,5.71-.57,1.06-.57,1.62.12,2.44a1,1,0,0,0,1.51-.19c.06-.06.06-.12.12-.19a.93.93,0,0,0-.12-1.12l-.13-.13a1,1,0,0,0-1.57.94,76.25,76.25,0,0,0,7.59,20.37c.56-.32,1.06-.63,1.62-.94-3.69-6.33-6.2-13.16-8.58-20.06-.5-1.06-2.32-.56-1.88.57Z" fill="#e6e7e8"/><path d="M483.54,4a149.29,149.29,0,0,1,4,20.3,1,1,0,0,0,1.44.82,25.86,25.86,0,0,1,6.46-2.51,1,1,0,0,0,.56-1.38c-2.88-4.32-5.57-8.77-8.08-13.28-.56-1.07-2.13-.13-1.63.94a74.44,74.44,0,0,1,4.07,11.4l1.7-.75A32.23,32.23,0,0,1,489,10.85l-1.69.75a21.07,21.07,0,0,1,3.76,11.16c.57-.25,1.07-.44,1.63-.69a8.53,8.53,0,0,1-2.69-4.7c-.44.37-.94.69-1.38,1.06a3.18,3.18,0,0,1,1.44,3.45c.56-.19,1.19-.31,1.75-.5a38.85,38.85,0,0,1-3.94-6.58l-1.32,1.32c1.76,1.12,4.07,12.34,8.52,7.26,1.63-1.88.69-4.26-.37-6.2A65.12,65.12,0,0,0,488.49,8c-.69-.88-2,.25-1.5,1.13a51.27,51.27,0,0,1,5.45,13.28l1.69-.75c-.25-.56-.5-1.06-.75-1.63l-1.31,1.32v-.13a13.08,13.08,0,0,1-1.2.88l2.51.94c1.13.44,1.63-1.38.5-1.82-.81-.31-1.69-.62-2.5-.94-.57-.25-1.19.38-1.19.88-.07,4.95,6.95,1,2.82-1.5A1,1,0,0,0,491.69,21c.25.57.5,1.07.75,1.63.44,1,1.94.25,1.69-.75a51.29,51.29,0,0,0-5.64-13.72L487,9.28c1.38,1.82,2.69,3.64,3.95,5.52.5.75,1,1.5,1.44,2.32a10.11,10.11,0,0,1,.94,1.82c1,1.31.25,2.06-2.32,2.19-.88-.69-1-3-1.38-4a5.18,5.18,0,0,0-2.25-2.76c-.88-.5-1.63.5-1.32,1.32A36.67,36.67,0,0,0,490,22.26a1,1,0,0,0,1.75-.51,5,5,0,0,0-2.38-5.07c-.69-.5-1.57.31-1.38,1.06a10.5,10.5,0,0,0,3.2,5.52,1,1,0,0,0,1.63-.69,23,23,0,0,0-4-12.09.94.94,0,0,0-1.7.75,35.94,35.94,0,0,0,3.26,9.08.94.94,0,0,0,1.7-.75A72.09,72.09,0,0,0,487.8,7.72c-.56.31-1.06.62-1.63.94,2.51,4.57,5.21,9,8.09,13.28.19-.44.37-.94.56-1.38a25.34,25.34,0,0,0-6.89,2.7c.5.25.94.56,1.44.81a147.57,147.57,0,0,0-4.07-20.8c-.25-1-2.07-.5-1.76.69Z" fill="#e6e7e8"/><path d="M483.61,35.92c-1.45-3.57,2-6.9,4.76-8.53a15,15,0,0,1,8.83-2c.88.06,1.13-1,.69-1.63s-1.06-1.38-1.63-2.07a1,1,0,0,0-1.63.69c-.18-1.25-1.94-.5-2.75-.5-3-.06-1.82-.63-1.95-2.32-.25-2.07-1.44-4.2-1.94-6.2a53.82,53.82,0,0,1-1.38-8.9c-.06-1.19-1.94-1.19-1.88,0A54.28,54.28,0,0,0,486.43,15c.43,1.5,1.5,3.38,1.31,5-.06.69-.56,1.19-.56,1.88A2.68,2.68,0,0,0,490,24.14c1.44,0,2.88-.32,4.38-.25.82.06.94.25,1.7-.26a.88.88,0,0,0,.43-.81c0-.13-.06-.31-.06-.44-.56.25-1.06.44-1.63.69.57.69,1.07,1.38,1.63,2.07.25-.57.44-1.07.69-1.63-6.14-.38-18.74,4.7-15.41,12.91.5,1.13,2.31.63,1.88-.5Z" fill="#e6e7e8"/><path d="M487.18,25.39a14.22,14.22,0,0,0-5.33,9.09c-.38,3.19,1.57,6,3.95,8C492.19,48,499,41.87,503,36.73c.75-.94-.56-2.25-1.31-1.31-3.26,4.19-9,10.34-14.54,5.76-2.45-2-3.95-4.76-3.14-8a12.5,12.5,0,0,1,4.52-6.51c.94-.76-.44-2.07-1.38-1.32Z" fill="#e6e7e8"/><path d="M505.91,48.58a.23.23,0,0,0-.06-.19c-.12.37-.31.69-.44,1.06.07-.06.13-.06.19-.12a10.56,10.56,0,0,0-1.32-.32c.88,1.38.88,3.89,1.13,5.46.32,2.06.63,4.19.88,6.26.38,3.57.56,7.15.69,10.78a.94.94,0,0,0,1.88,0c-.13-4.39-.38-8.77-.94-13.16-.19-1.69-.44-3.32-.75-5s-.32-3.89-1.26-5.33a1,1,0,0,0-1.31-.31c-.06.06-.13.06-.19.12a.93.93,0,0,0-.44,1.07.25.25,0,0,0,.06.19,1,1,0,0,0,1.88-.5Z" fill="#e6e7e8"/><path d="M484.17,4.33a28.5,28.5,0,0,1,4.89,9.22c.37,1.12,2.19.62,1.81-.51a30.57,30.57,0,0,0-5.38-10c-.69-1-2.07.37-1.32,1.31Z" fill="#e6e7e8"/><path d="M433.6,14c8.58,2.45,17.23,4.58,26,6.33,1.2.25,1.7-1.56.51-1.81-8.78-1.76-17.43-3.89-26-6.33-1.13-.38-1.63,1.44-.5,1.81Z" fill="#e6e7e8"/><path d="M411.67,43.25a233.83,233.83,0,0,0,48.5-9.15c1.13-.38.69-2.19-.5-1.82a228.15,228.15,0,0,1-48,9c-1.2.12-1.2,2,0,1.94Z" fill="#e6e7e8"/><path d="M471.32,44.19A81.35,81.35,0,0,0,460.73,52c-.94.82.44,2.13,1.32,1.32a84.39,84.39,0,0,1,10.21-7.52.94.94,0,0,0-.94-1.63Z" fill="#e6e7e8"/><path d="M472.51,64.3Q452.4,81.7,432.22,99.08c-.94.82.44,2.13,1.32,1.32Q453.66,83,473.83,65.62c.94-.75-.38-2.13-1.32-1.32Z" fill="#e6e7e8"/><path d="M477.59,78.59c-4.07,7.77-8.21,15.61-12.28,23.38-.57,1.06,1.06,2,1.63.94,4.07-7.77,8.21-15.61,12.28-23.38.56-1.06-1.07-2-1.63-.94Z" fill="#e6e7e8"/><path d="M488.62,83a291.5,291.5,0,0,0-3.82,37c-.07,1.19,1.81,1.19,1.88,0a294.77,294.77,0,0,1,3.76-36.47c.18-1.19-1.63-1.69-1.82-.5Z" fill="#e6e7e8"/><path d="M544.77,22.88c16-2.13,30.51,8.34,38.41,21.62,9.34,15.67,9.65,35,9.21,52.77-.94,40.17-2.63,80.27-4.26,120.38Q583.24,338.81,576,460,572,528,567.2,596c-.19,2.45,3.57,2.38,3.76,0q8.74-124.17,15-248.4c4.2-82.66,7.9-165.38,10.15-248.1.5-19.36.38-40.6-10.15-57.65C577.42,28,561.81,16.93,544.83,19.19c-2.44.25-2.44,4-.06,3.69Z" fill="#e6e7e8"/><path d="M541.38,22.07a68.2,68.2,0,0,1,13.41,1.19c4.58,1.06,8.09,3.63,12.16,5.7,1.07.57,2-1.06.94-1.63-4.26-2.13-7.9-4.76-12.6-5.89a69.22,69.22,0,0,0-13.91-1.31,1,1,0,0,0,0,1.94Z" fill="#e6e7e8"/><path d="M541.38,23.32a75.3,75.3,0,0,1,37,14.16c1,.69,1.94-.94.94-1.63a78.22,78.22,0,0,0-38-14.41c-1.19-.12-1.19,1.76,0,1.88Z" fill="#e6e7e8"/><path d="M538.69,18.94A157.9,157.9,0,0,1,556,23.32c1.13.38,1.63-1.44.51-1.82a154.28,154.28,0,0,0-17.3-4.38c-1.19-.25-1.69,1.56-.5,1.82Z" fill="#e6e7e8"/><path d="M540.07,18.75a108.13,108.13,0,0,1,21.43,4.63c1.13.38,1.63-1.44.5-1.81a109.07,109.07,0,0,0-21.93-4.7c-1.19-.13-1.19,1.75,0,1.88Z" fill="#e6e7e8"/><path d="M517,7.91a157.43,157.43,0,0,1,27.63,12.78.94.94,0,0,0,.94-1.63,156.45,156.45,0,0,0-28.14-13c-1.06-.38-1.56,1.44-.43,1.82Z" fill="#e6e7e8"/><path d="M514.37,7.28A187.77,187.77,0,0,1,542.76,20.5a.94.94,0,0,0,.94-1.63A195.23,195.23,0,0,0,514.81,5.46c-1.06-.37-1.56,1.44-.44,1.82Z" fill="#e6e7e8"/><path d="M528.91,54a235.27,235.27,0,0,0,14.85-31.21c.44-1.13-1.37-1.63-1.81-.5A235.54,235.54,0,0,1,527.28,53c-.56,1,1.07,1.94,1.63.94Z" fill="#e6e7e8"/><path d="M541.19,22a22.76,22.76,0,0,0-2.5,5.95.94.94,0,0,0,1.82.5A20.28,20.28,0,0,1,542.82,23a.94.94,0,0,0-1.63-.94Z" fill="#e6e7e8"/><path d="M54.66,344.36v9a.94.94,0,0,0,1.88,0v-9a.94.94,0,0,0-1.88,0Z" fill="#e6e7e8"/><path d="M55.6,354.7H187.39a.94.94,0,0,0,0-1.88H55.6a.94.94,0,0,0,0,1.88Z" fill="#e6e7e8"/><path d="M56.6,345H186.76a.94.94,0,0,0,0-1.88H56.6a.94.94,0,0,0,0,1.88Z" fill="#e6e7e8"/><path d="M185.76,344.73a54.56,54.56,0,0,1-.32,9c-.12,1.19,1.76,1.19,1.88,0a48.73,48.73,0,0,0,.32-9c-.07-1.25-1.95-1.25-1.88,0Z" fill="#e6e7e8"/><path d="M130.23,302.5c-3.57,13.53-1.56,27.51,1.7,40.85a.94.94,0,0,0,1.81-.5c-3.19-13.09-5.2-26.63-1.69-39.85a.94.94,0,0,0-1.82-.5Z" fill="#e6e7e8"/><path d="M160.13,305c.43,2.82.87,5.58,1.31,8.4.19,1.19,2,.69,1.82-.5-.44-2.82-.88-5.58-1.32-8.4-.18-1.19-2-.69-1.81.5Z" fill="#e6e7e8"/><path d="M162.51,313.71c5.07-3.82,8,3.64,8,7.52.06,4.89-2.26,9.28-7.58,9.65-1.19.07-1.19,1.95,0,1.88,7.27-.43,10-6.83,9.33-13.34-.5-5-5.32-11.35-10.71-7.27-1,.69-.07,2.32.94,1.56Z" fill="#e6e7e8"/><path d="M162.13,331.51a82.23,82.23,0,0,1-1.94,11.09.94.94,0,0,0,1.82.5,88.1,88.1,0,0,0,2.06-11.59c.07-1.25-1.81-1.19-1.94,0Z" fill="#e6e7e8"/><path d="M163.82,316.66c2-1.63,2.82,3.51,2.89,4.2a8.86,8.86,0,0,1-.25,2.5,9.08,9.08,0,0,1-3.08,4.77c-.94.75.38,2.06,1.32,1.31a10.67,10.67,0,0,0,3.76-9.9c-.44-2.76-2.88-6.77-6-4.2-.94.75.37,2.07,1.31,1.32Z" fill="#e6e7e8"/><path d="M162.26,315.09a104.23,104.23,0,0,0,.12,13.22c.06,1.2,1.94,1.2,1.88,0a104,104,0,0,1-.12-13.22c.06-1.25-1.82-1.25-1.88,0Z" fill="#e6e7e8"/><path d="M133.37,304.63a51,51,0,0,0,23.37,1.88c1.19-.19.69-2-.5-1.82a48.33,48.33,0,0,1-22.37-1.88c-1.13-.38-1.63,1.44-.5,1.82Z" fill="#e6e7e8"/><path d="M137.69,299.86c-3.7-2.31.63-7.39,1.26-10.34s-1.07-4.38-2.2-6.89c-1.63-3.63,2.13-6.33,2.7-9.84.5-3.07-2-5.64,1.38-8.14.94-.69.06-2.32-.94-1.63a6.57,6.57,0,0,0-2.89,6.45c.32,1.94.82,2.95-.12,4.95-.44,1-1.07,1.88-1.57,2.88a8.19,8.19,0,0,0-1,4.39c.12,1.57.94,2.26,1.69,3.51,2.19,3.7.19,5.58-1.07,9.09-.94,2.63-.68,5.51,1.82,7.08,1,.75,1.94-.88.94-1.51Z" fill="#e6e7e8"/><path d="M148.85,254.93c-.94,2.45-2.13,5.2-2.32,7.84-.19,2.38,1.56,3.69,2.13,5.82.69,2.57-1.76,4.7-2,7.21-.31,3.26,2.57,5.39-.25,8.52-.81.88.5,2.26,1.32,1.32a6.87,6.87,0,0,0,1.94-5.58c-.19-1.56-1.32-2.88-1.06-4.57.18-1.32,1.19-2.51,1.62-3.76a5.86,5.86,0,0,0-.56-5.39c-2-3.76-.38-7.21,1-10.91.44-1.12-1.38-1.62-1.81-.5Z" fill="#e6e7e8"/><path d="M158.12,273.61a13,13,0,0,0-3.51,11.53c.25,1.38.94,2.76,1,4.2.13,1.81-1,2.69-1.5,4.26-.69,2,1.75,4.89.25,6.45-.81.88.5,2.2,1.32,1.32a3.76,3.76,0,0,0,.94-3.51c-.25-1.5-1.13-2.57-.5-4.14.37-.94,1.12-1.44,1.37-2.5.51-2.38-.75-4.64-1.12-7a11,11,0,0,1,3.07-9.34c.87-.87-.5-2.19-1.32-1.31Z" fill="#e6e7e8"/><path d="M66,343.1a70.52,70.52,0,0,1-.19-7.27l-.94.94c10.09-1,20.25-1.5,30.4-1.62,4.89-.07,9.77,0,14.6.18,1.19.07,2.44.07,3.63.13.82.06,2.89-.25,3.64.19,1.81,1.06,1.06,6.83,1.13,8.64.06,1.19,1.94,1.19,1.88,0-.07-2.56.37-6-.32-8.39a2.65,2.65,0,0,0-1.82-2.07c-2.25-.82-5.82-.38-8.2-.44-2.82-.12-5.71-.19-8.53-.19a339.12,339.12,0,0,0-36.47,1.63,1,1,0,0,0-.94.94,47.7,47.7,0,0,0,.19,7.27c.13,1.25,2,1.25,1.94.06Z" fill="#e6e7e8"/><path d="M81.67,334.08c0-1.13-.44-3.51.06-4.51.82-1.82,4.2-1.32,5.83-1.38,3.57-.13,7.08-.31,10.65-.44l10-.38c2.13-.06,4.51-.68,5.39,1.7.5,1.38.31,3.51.44,4.95.12,1.19,2,1.19,1.88,0-.25-2.51.5-7.77-2.76-8.65-1.82-.5-4.32.06-6.27.12l-8.77.38c-5.14.19-10.78-.25-15.79.69-3.57.63-2.57,4.83-2.63,7.52a1,1,0,0,0,1.94,0Z" fill="#e6e7e8"/><path d="M102.1,335.27a18.28,18.28,0,0,1,1.06,8.77c-.12,1.19,1.76,1.19,1.88,0a18,18,0,0,0-1.12-9.27c-.44-1.13-2.26-.63-1.82.5Z" fill="#e6e7e8"/><path d="M102.22,327.12a13.56,13.56,0,0,1,.88,8c-.25,1.19,1.57,1.69,1.82.5a15.9,15.9,0,0,0-1.07-9.47c-.5-1.12-2.07-.18-1.63.94Z" fill="#e6e7e8"/><path d="M109.3,326.56c.44,2.26.88,4.57,1.13,6.83.13,1.19,2,1.19,1.88,0-.31-2.44-.69-4.95-1.19-7.33-.25-1.19-2.07-.69-1.82.5Z" fill="#e6e7e8"/><path d="M112.5,335.58a13.07,13.07,0,0,1,.56,7.59.94.94,0,0,0,1.82.5,14.41,14.41,0,0,0-.56-8.59c-.44-1.13-2.26-.62-1.82.5Z" fill="#e6e7e8"/><path d="M44.57,174.09c0,2.57.13,5.14.31,7.65.13,1.19,2,1.19,1.88,0a63.14,63.14,0,0,1-.31-7.65.94.94,0,0,0-1.88,0Z" fill="#e6e7e8"/><path d="M46.33,183.81H181.81a.94.94,0,0,0,0-1.88H46.33a.94.94,0,0,0,0,1.88Z" fill="#e6e7e8"/><path d="M46.07,174.78H181.56a.94.94,0,0,0,0-1.88H46.07a.94.94,0,0,0,0,1.88Z" fill="#e6e7e8"/><path d="M181.18,174.09v8.78a.94.94,0,0,0,1.88,0v-8.78a.94.94,0,0,0-1.88,0Z" fill="#e6e7e8"/><path d="M51.46,147c2.07,8.78,4.14,17.55,6.33,26.26a.94.94,0,0,0,1.82-.5c-2.19-8.71-4.26-17.48-6.33-26.26-.25-1.19-2.07-.69-1.82.5Z" fill="#e6e7e8"/><path d="M52.34,146.9c4.64-.13,9.21-.32,13.79-.63,2.19-.12,4.38-.31,6.58-.5,2.5-.25,5.26-.81,7.64.31,1.07.5,2.07-1.12.94-1.63-3.88-1.88-8.71-.56-12.84-.25-5.39.38-10.78.69-16.23.82-1.13,0-1.13,1.88.12,1.88Z" fill="#e6e7e8"/><path d="M79.73,145.39A158,158,0,0,1,75,172.84a.94.94,0,0,0,1.82.5,157.15,157.15,0,0,0,4.83-28c.06-1.19-1.82-1.19-1.88,0Z" fill="#e6e7e8"/><path d="M58,144.64a43.18,43.18,0,0,1-8.33-14.16,97.93,97.93,0,0,1-3.32-14.1l-1.13,1.13c11.53,3.95,17.3,15.16,19.55,26.44.25,1.19,2.07.69,1.82-.5-2.38-12-8.71-23.56-20.87-27.7-.75-.25-1.25.5-1.13,1.13,1,5.45,2,10.9,4,16a46.52,46.52,0,0,0,8.09,13c.75,1,2.07-.32,1.31-1.26Z" fill="#e6e7e8"/><path d="M63.62,132.74c-1.63-5.83,3.82-10.09,7-14.23A62.49,62.49,0,0,0,78,105.66a14.36,14.36,0,0,1-1.69-.25c3.07,12.6,6,27.7-3.76,38.23-.81.88.5,2.19,1.32,1.32,10.21-11.1,7.46-26.76,4.2-40.05-.19-.75-1.38-1-1.7-.25a62.54,62.54,0,0,1-10,16c-3.07,3.58-5.89,7.59-4.51,12.54.25,1.12,2.06.69,1.75-.5Z" fill="#e6e7e8"/><path d="M107.74,173.28V162.63a.94.94,0,0,0-1.88,0v10.65a.94.94,0,0,0,1.88,0Z" fill="#e6e7e8"/><path d="M106.8,163.32H175a.94.94,0,0,0,0-1.88H106.8a.94.94,0,0,0,0,1.88Z" fill="#e6e7e8"/><path d="M174.29,163.19v10.4a.94.94,0,0,0,1.88,0v-10.4a.94.94,0,0,0-1.88,0Z" fill="#e6e7e8"/><path d="M120.33,162.06V155.8a.94.94,0,0,0-1.88,0v6.26a.94.94,0,1,0,1.88,0Z" fill="#e6e7e8"/><path d="M119.39,155.92H173a.94.94,0,0,0,0-1.88H119.39a.94.94,0,0,0,0,1.88Z" fill="#e6e7e8"/><path d="M172.41,155v7.15a.94.94,0,0,0,1.88,0V155a.94.94,0,0,0-1.88,0Z" fill="#e6e7e8"/><path d="M134.87,154.17v-9.84a.94.94,0,0,0-1.88,0v9.84a.94.94,0,0,0,1.88,0Z" fill="#e6e7e8"/><path d="M134.75,144.7h35.84a.94.94,0,0,0,0-1.88H134.75a.94.94,0,0,0,0,1.88Z" fill="#e6e7e8"/><path d="M170.22,143.45V154.1a.94.94,0,0,0,1.88,0V143.45a.94.94,0,0,0-1.88,0Z" fill="#e6e7e8"/><path d="M157.68,144.27a29,29,0,0,1,.75,10.15c-.12,1.19,1.76,1.19,1.88,0a29,29,0,0,0-.81-10.66,1,1,0,0,0-1.82.51Z" fill="#e6e7e8"/><path d="M163.32,144.83a51.26,51.26,0,0,1,.32,8.21c-.07,1.19,1.81,1.19,1.88,0a45.13,45.13,0,0,0-.32-8.21c-.12-1.19-2-1.19-1.88,0Z" fill="#e6e7e8"/><path d="M155.68,155.48a24,24,0,0,1,0,6.33c-.13,1.19,1.75,1.19,1.88,0a24.83,24.83,0,0,0-.07-6.83c-.18-1.19-2-.69-1.81.5Z" fill="#e6e7e8"/><path d="M160.44,155.17a9.13,9.13,0,0,1-.31,5c-.38,1.13,1.44,1.63,1.81.5a10.85,10.85,0,0,0,.32-6c-.25-1.13-2.07-.63-1.82.5Z" fill="#e6e7e8"/><path d="M146.28,162.38a66.63,66.63,0,0,1,.18,11.21c-.06,1.19,1.82,1.19,1.88,0a66.63,66.63,0,0,0-.18-11.21c-.13-1.19-2-1.19-1.88,0Z" fill="#e6e7e8"/><path d="M165.58,162.63a36.31,36.31,0,0,1-.13,10.46c-.19,1.19,1.63,1.69,1.82.5a38,38,0,0,0,.19-11c-.13-1.19-2-1.19-1.88,0Z" fill="#e6e7e8"/><path d="M233.44,59.29V92a.94.94,0,0,0,1.88,0V59.29a.94.94,0,0,0-1.88,0Z" fill="#e6e7e8"/><path d="M207.13,93.38h51.76a.94.94,0,0,0,0-1.88H207.13a.94.94,0,0,0,0,1.88Z" fill="#e6e7e8"/><path d="M249.8,93.76V126a.94.94,0,0,0,1.88,0V93.76a.94.94,0,0,0-1.88,0Z" fill="#e6e7e8"/></g><g id="cat"><g id="paw_front_right" data-name="paw front right"><path d="M528.1,586.43c-1.63,2.7.69,5.83,6,17.61,8.15,18,7.77,22.12,6.46,24.88-2.2,4.51-6.89,5.08-6.46,7.27.63,3.2,11,5.64,14.6,1.69,1.63-1.75,1.38-4.2.88-9-2.25-20-2.69-21.43-3.44-27.51-1.32-10.78-.63-13.54-3.45-15.92C538.5,582.11,530.35,582.8,528.1,586.43Z" fill="#1e0a32" stroke="#1e0a32" stroke-miterlimit="10" stroke-width="1.88"/></g><g id="leg_back_right" data-name="leg back right"><path d="M625.61,583.68c4.7-3.32,12.9.18,17.17,4.32,3.57,3.38,2.75,5.64,6.89,8.59A17.32,17.32,0,0,0,660.38,600c4.2-.25,5-2.32,8.15-1.69,2.19.38,3.13,1.63,7.33,5.58,6.58,6.26,9,7.71,8.59,8.58s-2.51.38-11.59-.87c-6.65-.94-10.09-1.38-12.48-1.51-5.45-.25-5.7.44-13.72.63-8.27.25-12.47.25-15.48-1.32-6.7-3.51-8.46-11.28-8.58-12C622.41,596.4,620.59,587.19,625.61,583.68Z" fill="#1e0a32" stroke="#1e0a32" stroke-miterlimit="10" stroke-width="1.88"/></g><g id="body"><path d="M534.55,559.8c4.08.13,5.83,4.89,9.46,9,9.47,10.91,26,11.28,39.48,11.6,25.57.56,32.46-9.15,44.68-2.57,6.71,3.63,13,11.09,12.91,19.3-.18,10.72-11.4,18.3-19.3,21.06-7,2.44-10.84.94-30.08-2.57-31-5.71-37.09-4.83-48.94-11.6-6.77-3.88-12.84-8.83-16.73-16.29-1.63-3.13-4.2-8.33-3-14.6C524.21,566.57,529.48,559.61,534.55,559.8Z" fill="#1e0a32" stroke="#1e0a32" stroke-miterlimit="10" stroke-width="1.88"/></g><g id="tail"><path d="M624.73,578.29c1.31-1.82,6.52,2.75,12,.44,4.7-2,6.83-7.84,8.15-11.6,2.44-6.7.81-9.08,3.44-11.59s4.7-.88,12-3c5-1.44,9-2.57,11.16-6,1.75-2.76.5-4.14,1.69-11.16.38-2.13,1.82-10.65,3.89-10.71,1.5-.07,3.32,4.44,3.44,8.58.07,1.69-.19,2.88-2.57,10.72-1.5,4.88-2.25,7.33-2.57,7.7-3.07,3.83-7.14,2-15,5.58-3.82,1.76-7.52,3.45-9.46,7.27-1.75,3.51-.25,5.08-2.13,10.28a22.47,22.47,0,0,1-5.14,8.14c-2.07,2.07-6.26,6.15-11.15,5.14C627,587.06,623.41,580.1,624.73,578.29Z" fill="#1e0a32" stroke="#1e0a32" stroke-miterlimit="10" stroke-width="1.88"/></g><g id="_eg_back_left" data-name=";eg back left"><path d="M610.13,607.93A19,19,0,0,0,608,619.08c.75,5.45,4.13,10.15,6.45,13.29,3.2,4.45,5.08,5.39,4.7,7.27-.69,4.13-10,4.45-9.9,6.45s9.52,3,16.73,2.57c5.39-.31,6.64-1.25,7.33-2.13,1.51-2.13-.18-4.64-.87-10.28-.51-4-.13-6.83.43-11.59.94-7.83,2.45-8.33,3-14.16.44-4.64,1.19-12.35-2.57-15C628.17,591.82,615.08,598.15,610.13,607.93Z" fill="#1e0a32" stroke="#1e0a32" stroke-miterlimit="10" stroke-width="1.88"/></g><g id="paw_front_left" data-name="paw front left"><path d="M482.6,568.39c1,5.07,6.52,8.27,14.6,11.59,8.59,3.57,32.9,13.6,37.35,6.89,1.13-1.69.75-4.07,0-5.57-1.88-3.58-7-3.2-15.91-4.7-7.78-1.32-15-2.51-22.31-6.46-6.77-3.57-10.78-7.9-12.91-6.45C481.91,564.75,482.54,568.07,482.6,568.39Z" fill="#1e0a32" stroke="#1e0a32" stroke-miterlimit="10" stroke-width="1.88"/><path d="M472.83,546.27A40.22,40.22,0,0,0,480,555.1c.88.82,2.19-.5,1.32-1.31a38.55,38.55,0,0,1-6.83-8.46.94.94,0,0,0-1.63.94Z" fill="#1e0a32"/><path d="M464.74,551A16.37,16.37,0,0,0,472,556c1.13.44,1.63-1.38.5-1.82a14.83,14.83,0,0,1-6.45-4.57c-.75-.94-2.07.38-1.32,1.32Z" fill="#1e0a32"/><path d="M465.06,563.31c1.75.19,3.51.31,5.32.5,1.19.13,1.19-1.75,0-1.88-1.75-.19-3.51-.31-5.32-.5-1.19-.13-1.19,1.75,0,1.88Z" fill="#1e0a32"/></g><g id="head"><path d="M516.5,550.78a29.59,29.59,0,0,0-9,5.57c-2.88,2.64-5.64,5.14-6,8.59-.68,6.27,7,12.22,12.91,14.6,1.07.44,13.67,5.2,20.62-2.13,4.7-5,3.64-12.16,3.45-13.29C537,554.79,528.6,550.4,527.72,550c-2.13-2.88-4.32-5.7-6.45-8.58C519.7,544.51,518.13,547.64,516.5,550.78Z" fill="#1e0a32" stroke="#1e0a32" stroke-miterlimit="10" stroke-width="1.88"/><path d="M510.68,559.24a6.55,6.55,0,0,0,6.33,4.45c1.19-.07,1.19-2,0-1.88a4.63,4.63,0,0,1-4.52-3.07c-.43-1.13-2.25-.63-1.81.5Z" fill="#fff"/><path d="M501.53,563.69c.56,0,.81.18.87.62-.18.19-.31.44-.5.63-.37.12-.44-.06-.56-.19s0-.12-.06-.06-.07.25-.13.37c.38-.18.75-.43,1.13-.62h0a.06.06,0,0,1,.06.06c.06.06,0,.06,0-.06h0a.91.91,0,1,0-1.75.5,1.76,1.76,0,0,0,1.25,1.32.94.94,0,0,0,1.13-.63,1.8,1.8,0,0,0,0-1.69,1.42,1.42,0,0,0-1.63-.69,1.28,1.28,0,0,0-.82,1.5,1.21,1.21,0,0,0,1.45.88.85.85,0,0,0,.62-1.13.84.84,0,0,0-1.06-.81Z" fill="#fff"/><path d="M501.15,565.32a5.41,5.41,0,0,0,7.58,3.25c1.07-.56.13-2.19-.94-1.63a3.51,3.51,0,0,1-4.82-2.13,1,1,0,0,0-1.82.51Z" fill="#fff"/></g></g><g id="books"><path d="M78.72,512.43c1.38.25,3.39.62,5.89.94,12,1.75,20.5,1.69,31,1.81,6.33.07,15.67.25,27.39.69,12.47-.87,25-1.75,37.47-2.69-17.23-1.76-34.46-3.57-51.7-5.33Q103.7,510.12,78.72,512.43Z" fill="#5a14d2"/><path d="M115.57,551.34l10.72,2.26a208.62,208.62,0,0,0,40.35-6.39c2.76-.69,5.46-1.45,8-2.26Z" fill="#5a14d2"/><path d="M79.54,600.78c.06,5.27.12,10.59.19,15.86l86.91,11.09V611.88c17.74-7.9,35.41-15.8,53.14-23.69l-14.85-2.26c-.56.88-1.13,1.76-1.63,2.7q-32.24,10-64.48,20C119.08,606,99.28,603.35,79.54,600.78Z" fill="#5a14d2"/><path d="M47.33,529.16l65.11,7.89q36.28-2.53,72.56-5.14c-5.26-1.69-10.52-3.32-15.79-5l-32.77,2.45c-20.62-1.45-41.17-3-61.79-4.39C65.56,526.34,56.41,527.72,47.33,529.16Z" fill="#fa1e46"/><path d="M128.73,567.57l20.18,3c18.55-4.83,37-9.59,55.58-14.41-6.14-.94-12.22-1.82-18.36-2.76Q157.38,560.55,128.73,567.57Z" fill="#fa1e46"/><path d="M51.59,583.49q42.85,6.1,85.66,12.28c8.84-1.88,18.05-4.07,27.64-6.7,13.16-3.58,25.38-7.52,36.72-11.53l-12.78-2.26-40.11,11.09c-23.69-3.26-47.37-6.45-71.06-9.71C69,579,60.3,581.23,51.59,583.49Z" fill="#fa1e46"/><path d="M74.78,514.24v11.35a.94.94,0,0,0,1.88,0V514.24a.94.94,0,0,0-1.88,0Z" fill="#1e0a32"/><path d="M76,514.62c22.18.75,44.43,1.44,66.61,2.19,1.19.07,1.19-1.81,0-1.88-22.18-.75-44.43-1.44-66.61-2.19-1.25-.06-1.25,1.82,0,1.88Z" fill="#1e0a32"/><path d="M76,527q30.27.56,60.47,2.82c1.19.06,1.19-1.82,0-1.88q-30.16-2.16-60.47-2.82A.94.94,0,0,0,76,527Z" fill="#1e0a32"/><path d="M143.27,517.06c12.85-1.12,25.75-1.88,38.6-2.32,1.19-.06,1.19-1.94,0-1.88-12.91.38-25.75,1.2-38.6,2.32-1.19.07-1.25,2,0,1.88Z" fill="#1e0a32"/><path d="M136.81,529.91c15.11-1.5,30.27-2.95,45.37-4.45,1.19-.13,1.19-2,0-1.88-15.1,1.5-30.26,2.95-45.37,4.45-1.19.12-1.19,2,0,1.88Z" fill="#1e0a32"/><path d="M142.33,516.81a5.63,5.63,0,0,0-.88,2.2c-.19,1.37.38,2.44-.31,3.82a7.92,7.92,0,0,0-1,5.07c.18,1.19,2,.69,1.81-.5-.31-2.07.76-3,1.38-4.7s-.5-3.26.63-5a.94.94,0,0,0-1.63-.94Z" fill="#1e0a32"/><path d="M76.28,514.06c16.92-2.32,33.9-3.95,51-5,1.19-.06,1.19-1.94,0-1.88q-25.85,1.6-51.45,5.08c-1.25.19-.75,1.94.44,1.82Z" fill="#1e0a32"/><path d="M126,509.1A329.57,329.57,0,0,1,180.37,514c1.19.19,1.69-1.63.5-1.81a328.66,328.66,0,0,0-54.83-5,1,1,0,0,0,0,1.94Z" fill="#1e0a32"/><path d="M79.73,520.45c5.39,1.25,11-.07,16.54,0a165.67,165.67,0,0,1,18.42,1.5c1.19.13,1.19-1.75,0-1.88-5.7-.63-11.46-1.31-17.23-1.44-5.58-.13-11.72,1.32-17.23.06a.91.91,0,1,0-.5,1.76Z" fill="#1e0a32"/><path d="M104.54,524.52c9.59.31,19.24.75,28.83,1.32,1.19.06,1.19-1.82,0-1.88-9.59-.57-19.24-1-28.83-1.32-1.19-.06-1.19,1.82,0,1.88Z" fill="#1e0a32"/><path d="M120.21,521.2c5.51.44,11.09,1,16.6,1.69,1.2.13,1.2-1.75,0-1.88-5.51-.69-11-1.25-16.6-1.69-1.26-.13-1.19,1.75,0,1.88Z" fill="#1e0a32"/><path d="M147,522.14c4.38.63,8.64-.44,13-1.07,5.14-.81,10.34-1.44,15.54-1.75,1.19-.06,1.19-1.94,0-1.88-4.2.25-8.4.75-12.53,1.32-5,.68-10.34,2.31-15.42,1.62-1.25-.25-1.75,1.57-.56,1.76Z" fill="#1e0a32"/><path d="M154.86,525.4c3.89.44,7.46-.94,11.22-1.69a68.28,68.28,0,0,1,13.35-1.38.94.94,0,0,0,0-1.88,77.9,77.9,0,0,0-11.53,1c-4.26.75-8.65,2.63-13,2.13-1.19-.19-1.19,1.69,0,1.82Z" fill="#1e0a32"/><path d="M180.24,515.5c.06,3.19.13,6.33.25,9.52a.94.94,0,0,0,1.88,0c-.06-3.19-.12-6.33-.25-9.52a.94.94,0,1,0-1.88,0Z" fill="#1e0a32"/><path d="M46,529.6q.09,6.28-.38,12.59c-.06,1.19,1.82,1.19,1.88,0q.48-6.3.38-12.59c-.06-1.26-1.94-1.26-1.88,0Z" fill="#1e0a32"/><path d="M46.89,544c21.93,2.76,43.93,5.14,66,7.27,1.19.12,1.19-1.76,0-1.88-22.06-2.13-44.06-4.51-66-7.27-1.25-.13-1.19,1.75,0,1.88Z" fill="#1e0a32"/><path d="M112.5,537.87c-.19,4-.44,8-.63,12-.06,1.19,1.82,1.19,1.88,0,.19-4,.44-8,.63-12,.06-1.19-1.82-1.19-1.88,0Z" fill="#1e0a32"/><path d="M113.44,538.24c24.19-.94,48.38-2.75,72.44-5.32,1.19-.13,1.19-2,0-1.88-24.06,2.57-48.25,4.32-72.44,5.32-1.19.07-1.19,1.95,0,1.88Z" fill="#1e0a32"/><path d="M113.75,551.78c23.88-2.82,47.82-5.26,71.82-7.46,1.19-.12,1.19-2,0-1.88q-35.91,3.3-71.82,7.46c-1.19.13-1.19,2,0,1.88Z" fill="#1e0a32"/><path d="M185.07,532.67c0,3.38.06,6.76.06,10.15a.94.94,0,0,0,1.88,0c0-3.39-.06-6.77-.06-10.15a.94.94,0,1,0-1.88,0Z" fill="#1e0a32"/><path d="M47.14,529.47c9.4-1.25,18.8-2.38,28.26-3.26,1.19-.12,1.19-2,0-1.88-9.59.88-19.17,2-28.76,3.32-1.19.13-.69,2,.5,1.82Z" fill="#1e0a32"/><path d="M48.08,530.72q32.52,2.35,64.86,6.77c1.19.19,1.69-1.63.5-1.82-21.68-2.94-43.49-5.26-65.36-6.83-1.19-.06-1.19,1.82,0,1.88Z" fill="#1e0a32"/><path d="M168.84,527.53a118.21,118.21,0,0,1,16.67,4.38c1.12.38,1.62-1.44.5-1.81a126.11,126.11,0,0,0-16.67-4.39c-1.19-.25-1.69,1.57-.5,1.82Z" fill="#1e0a32"/><path d="M57.35,539.37c11.28-.56,22.06,3.39,33.28,3.57a.94.94,0,0,0,0-1.88c-11.22-.18-22.06-4.13-33.28-3.57-1.19.06-1.19,1.94,0,1.88Z" fill="#1e0a32"/><path d="M78.91,536.93c8.27,3.07,17.23,1.19,25.76,3.07,1.19.25,1.69-1.57.5-1.82-8.52-1.88-17.49,0-25.76-3.07-1.13-.44-1.63,1.38-.5,1.82Z" fill="#1e0a32"/><path d="M117.45,545.14c20.81-4.7,42.43-5.2,63.61-6.46,1.19-.06,1.19-1.94,0-1.88-21.44,1.32-43.12,1.76-64.11,6.52-1.19.25-.69,2.07.5,1.82Z" fill="#1e0a32"/><path d="M152.23,543.57a92.33,92.33,0,0,0,22-2.07c1.19-.25.69-2.07-.51-1.81a91.94,91.94,0,0,1-21.49,2c-1.19-.06-1.19,1.82,0,1.88Z" fill="#1e0a32"/><path d="M59.23,545v14a.94.94,0,0,0,1.88,0V545a.94.94,0,0,0-1.88,0Z" fill="#1e0a32"/><path d="M59.92,560.24c10.16,3,21.37,3.07,31.9,4.07,11.16,1.07,22.37,2.2,33.53,3.26,1.19.13,1.19-1.75,0-1.88-10.78-1.06-21.56-2.07-32.34-3.13s-22.24-1.07-32.58-4.14a1,1,0,0,0-.51,1.82Z" fill="#1e0a32"/><path d="M125.28,553c.07,4.33.07,8.59-.06,12.91a.94.94,0,0,0,1.88,0c.13-4.32.13-8.58.06-12.91a.94.94,0,0,0-1.88,0Z" fill="#1e0a32"/><path d="M115.26,552.72a71.87,71.87,0,0,1,10.27,1.69,1,1,0,0,0,.51-1.82,71,71,0,0,0-10.78-1.75c-1.26-.06-1.26,1.82,0,1.88Z" fill="#1e0a32"/><path d="M126.47,554a369.49,369.49,0,0,0,52.2-8c1.2-.25.69-2.06-.5-1.81a371.07,371.07,0,0,1-51.7,8c-1.19.06-1.19,1.94,0,1.88Z" fill="#1e0a32"/><path d="M126.47,567.82c19.93-3.82,39.73-8.52,59.22-14.1a.94.94,0,0,0-.5-1.81C165.64,557.48,145.9,562.24,126,566c-1.12.26-.62,2.07.5,1.82Z" fill="#1e0a32"/><path d="M184.75,543.63a90.5,90.5,0,0,1-.25,9.34c-.12,1.19,1.76,1.19,1.88,0a91.48,91.48,0,0,0,.25-9.34.94.94,0,0,0-1.88,0Z" fill="#1e0a32"/><path d="M178.68,546a26.9,26.9,0,0,0,6.32-.81.94.94,0,0,0-.5-1.82,22.89,22.89,0,0,1-5.82.75.94.94,0,0,0,0,1.88Z" fill="#1e0a32"/><path d="M70.45,556c15.17,1.82,30.27,3.57,45.43,5.14,1.19.12,1.19-1.76,0-1.88q-22.74-2.36-45.43-5.14c-1.19-.13-1.19,1.75,0,1.88Z" fill="#1e0a32"/><path d="M64.62,550.78c6.4.62,12.79,1.13,19.18,1.44,1.19.06,1.19-1.82,0-1.88-6.39-.31-12.78-.82-19.18-1.44-1.19-.07-1.19,1.81,0,1.88Z" fill="#1e0a32"/><path d="M91.82,554.22A156.26,156.26,0,0,1,116,556c1.19.19,1.69-1.63.5-1.82a162.23,162.23,0,0,0-24.63-1.88.94.94,0,0,0,0,1.88Z" fill="#1e0a32"/><path d="M129.55,560.3c9-1.44,18-3.07,26.94-4.89,1.19-.25.69-2.06-.5-1.81-9,1.81-17.92,3.44-27,4.88-1.19.19-.69,2,.51,1.82Z" fill="#1e0a32"/><path d="M146.59,561.05a191,191,0,0,1,33.28-7.95c1.19-.19.68-2-.51-1.82a183.58,183.58,0,0,0-33.27,8c-1.13.44-.63,2.25.5,1.81Z" fill="#1e0a32"/><path d="M174,551.4a43,43,0,0,1,9.33-1.75c1.2-.06,1.2-1.94,0-1.88a43.35,43.35,0,0,0-9.83,1.82c-1.13.37-.63,2.19.5,1.81Z" fill="#1e0a32"/><path d="M73.52,562.68c-.06,4.45-.19,8.9-.25,13.35a.94.94,0,0,0,1.88,0c.06-4.45.19-8.9.25-13.35.06-1.19-1.82-1.19-1.88,0Z" fill="#1e0a32"/><path d="M74.4,577.28c24.31,3.26,48.69,6.52,73,9.72,1.2.19,1.2-1.69,0-1.88-24.31-3.26-48.69-6.52-73-9.72-1.19-.18-1.19,1.7,0,1.88Z" fill="#1e0a32"/><path d="M128,568.2c7.27,1.13,14.54,2.07,21.87,2.76,1.19.12,1.19-1.76,0-1.88-7.14-.69-14.29-1.57-21.37-2.7-1.19-.19-1.69,1.63-.5,1.82Z" fill="#1e0a32"/><path d="M150.1,570.77c18.67-1.76,35.78-10.28,54.14-13.41,1.19-.19.69-2-.5-1.82-18.23,3.07-35.15,11.53-53.64,13.28-1.19.19-1.19,2.07,0,1.95Z" fill="#1e0a32"/><path d="M185.57,554c6.33.94,12.72,1.63,19.11,2,1.19.06,1.19-1.82,0-1.88-6.27-.37-12.47-1-18.61-1.94-1.19-.19-1.69,1.63-.5,1.82Z" fill="#1e0a32"/><path d="M147.91,570.58c-.19,4.89-.32,9.84-.51,14.73-.06,1.19,1.82,1.19,1.88,0,.19-4.89.32-9.84.51-14.73.06-1.25-1.82-1.25-1.88,0Z" fill="#1e0a32"/><path d="M148.41,587.06q28.1-6.76,55.52-15.92c1.13-.37.63-2.19-.5-1.81q-27.45,9.1-55.52,15.91c-1.19.25-.69,2.07.5,1.82Z" fill="#1e0a32"/><path d="M203.43,556.48a83.89,83.89,0,0,1,.37,13.72c-.06,1.19,1.82,1.19,1.88,0a99.82,99.82,0,0,0-.37-13.72c-.13-1.19-2-1.19-1.88,0Z" fill="#1e0a32"/><path d="M79.22,572a8.68,8.68,0,0,1-1.25.13A.94.94,0,0,0,78,574c15.92,1.69,31.71,4.26,47.56,6.76,1.2.19,1.7-1.63.51-1.81-16-2.57-32-5.14-48.07-6.83V574a7.69,7.69,0,0,1,1.25-.13c1.2-.12,1.2-2,0-1.88Z" fill="#1e0a32"/><path d="M84.11,569.26c4.77,1.19,9.53,2.32,14.35,3.26,1.19.25,1.7-1.56.5-1.82-4.82-.94-9.58-2-14.35-3.25-1.12-.25-1.63,1.56-.5,1.81Z" fill="#1e0a32"/><path d="M104,571.71l37.72,5.83c1.19.18,1.69-1.63.5-1.82l-37.72-5.83c-1.19-.13-1.69,1.69-.5,1.82Z" fill="#1e0a32"/><path d="M158.31,574.53c10.46-.25,19.93-5.33,30.2-6.9,1.19-.18.69-2-.5-1.81-10.09,1.56-19.36,6.58-29.7,6.83-1.19.06-1.19,1.94,0,1.88Z" fill="#1e0a32"/><path d="M154.92,580.86c4.58-1.13,9.15-2.26,13.73-3.45a.94.94,0,0,0-.5-1.82c-4.58,1.13-9.15,2.26-13.73,3.45-1.19.25-.69,2.07.5,1.82Z" fill="#1e0a32"/><path d="M186.07,572.46c5.39-1.44,10.78-2.88,16.17-4.39a.94.94,0,0,0-.5-1.81c-5.39,1.44-10.78,2.88-16.17,4.38a.94.94,0,0,0,.5,1.82Z" fill="#1e0a32"/><path d="M49.4,584.12a142.65,142.65,0,0,0,29.32-6.27c1.13-.38.63-2.19-.5-1.82a142,142,0,0,1-28.82,6.21c-1.19.12-1.19,2,0,1.88Z" fill="#1e0a32"/><path d="M48.64,583.93c.19,4.26.44,8.46.63,12.72.06,1.19,1.94,1.19,1.88,0-.19-4.26-.44-8.46-.63-12.72-.06-1.19-1.94-1.19-1.88,0Z" fill="#1e0a32"/><path d="M50.34,597.9q43.43,5.73,86.79,11.41c1.19.18,1.19-1.76,0-1.88Q93.71,601.69,50.34,596c-1.19-.19-1.13,1.69,0,1.88Z" fill="#1e0a32"/><path d="M49.77,584.93q41.92,5.93,83.91,10.78c1.19.12,1.19-1.76,0-1.88Q91.95,589,50.27,583.11c-1.12-.12-1.69,1.69-.5,1.82Z" fill="#1e0a32"/><path d="M137.19,609.68q33.56-9.67,66.68-20.74c1.12-.38.62-2.19-.5-1.82q-33.19,11-66.68,20.75a.94.94,0,0,0,.5,1.81Z" fill="#1e0a32"/><path d="M144.65,595a488.39,488.39,0,0,0,58.59-17c1.13-.37.63-2.19-.5-1.81a490.19,490.19,0,0,1-58.59,17c-1.19.25-.69,2.07.5,1.82Z" fill="#1e0a32"/><path d="M202.11,577.41c.06,3.57.13,7.08.19,10.65a.94.94,0,0,0,1.88,0c-.06-3.57-.13-7.08-.19-10.65-.06-1.19-1.94-1.19-1.88,0Z" fill="#1e0a32"/><path d="M187.89,576.34c4.82.51,9.58,1,14.41,1.45,1.19.12,1.19-1.76,0-1.88-4.83-.51-9.59-1-14.41-1.45-1.19-.12-1.19,1.76,0,1.88Z" fill="#1e0a32"/><path d="M56.6,594.33a350.75,350.75,0,0,1,41.24,4.95c1.19.19,1.69-1.63.5-1.82a359.9,359.9,0,0,0-41.74-5c-1.25-.06-1.19,1.82,0,1.88Z" fill="#1e0a32"/><path d="M93,594.14q16.63,2.45,33.21,5.58c1.19.25,1.7-1.57.51-1.82-11-2.07-22.13-3.95-33.22-5.58-1.19-.18-1.69,1.63-.5,1.82Z" fill="#1e0a32"/><path d="M136.25,598.65c.13,2.76.31,5.52.44,8.21.06,1.19,1.94,1.19,1.88,0-.13-2.75-.31-5.51-.44-8.21-.06-1.19-1.94-1.19-1.88,0Z" fill="#1e0a32"/><path d="M146.72,599.22c9.27-2.07,18.48-4.39,27.69-6.9a.94.94,0,0,0-.5-1.81c-9.15,2.5-18.42,4.82-27.7,6.89-1.19.25-.69,2.07.51,1.82Z" fill="#1e0a32"/><path d="M146.4,602.66a38.69,38.69,0,0,0,7.15-1.31,1,1,0,0,0-.51-1.82,39.46,39.46,0,0,1-6.64,1.25c-1.19.13-1.19,2,0,1.88Z" fill="#1e0a32"/><path d="M180.24,592.7c5.83-1.88,11.66-3.76,17.42-5.58,1.13-.37.63-2.19-.5-1.81-5.83,1.88-11.65,3.76-17.42,5.57-1.13.38-.63,2.2.5,1.82Z" fill="#1e0a32"/><path d="M191.52,586.12c2.51-.75,5.08-1.44,7.58-2.19a.94.94,0,0,0-.5-1.82c-2.5.75-5.07,1.44-7.58,2.19a.94.94,0,0,0,.5,1.82Z" fill="#1e0a32"/><path d="M78.22,601.41a88.34,88.34,0,0,1,.69,14.73c-.06,1.19,1.82,1.19,1.88,0a88.34,88.34,0,0,0-.69-14.73c-.12-1.19-2-1.19-1.88,0Z" fill="#1e0a32"/><path d="M80.54,617.45q43.42,5.64,86.79,11.22c1.19.13,1.19-1.75,0-1.88q-43.43-5.64-86.79-11.22c-1.19-.18-1.19,1.7,0,1.88Z" fill="#1e0a32"/><path d="M165.89,612.75c.31,4.89.57,9.84.88,14.73.06,1.19,1.94,1.19,1.88,0-.31-4.89-.57-9.84-.88-14.73-.06-1.19-1.94-1.25-1.88,0Z" fill="#1e0a32"/><path d="M167.08,628.55c18.11-8.78,36.29-17.49,54.4-26.26,1.06-.5.12-2.13-.94-1.63-18.11,8.77-36.29,17.48-54.4,26.26-1.13.56-.12,2.19.94,1.63Z" fill="#1e0a32"/><path d="M166.83,612.5a427.76,427.76,0,0,0,54.08-23.68c1.07-.57.13-2.2-.94-1.63a436.11,436.11,0,0,1-53.64,23.5c-1.13.43-.63,2.25.5,1.81Z" fill="#1e0a32"/><path d="M219.22,588.06c.12,4.7.25,9.4.38,14,.06,1.19,1.94,1.19,1.88,0-.13-4.7-.26-9.4-.38-14a.94.94,0,0,0-1.88,0Z" fill="#1e0a32"/><path d="M204,587.06a117,117,0,0,1,15.54,1.19c1.19.19,1.69-1.63.5-1.82a124.57,124.57,0,0,0-16-1.25.94.94,0,0,0,0,1.88Z" fill="#1e0a32"/><path d="M138.19,609.87a139.73,139.73,0,0,0,19.18,2.07c1.19.06,1.19-1.82,0-1.88a133.66,133.66,0,0,1-18.68-2c-1.19-.25-1.69,1.57-.5,1.82Z" fill="#1e0a32"/><path d="M172.35,615.32a101.43,101.43,0,0,0,19.86-7.14c1.07-.5.13-2.13-.94-1.63a100.9,100.9,0,0,1-19.36,7c-1.26.25-.75,2.06.44,1.81Z" fill="#1e0a32"/><path d="M173.1,620.21a123.4,123.4,0,0,0,16-7.33c1.06-.57.12-2.19-.94-1.63a115.52,115.52,0,0,1-15.54,7.14c-1.13.44-.69,2.26.5,1.82Z" fill="#1e0a32"/><path d="M195.59,604.54c7-2.44,13.85-5.26,20.62-8.33,1.13-.5.13-2.13-.94-1.63-6.58,3-13.28,5.7-20.18,8.08-1.12.44-.62,2.26.5,1.88Z" fill="#1e0a32"/><path d="M198.29,608.68a130.76,130.76,0,0,0,19.61-10.53c1-.69.07-2.25-.94-1.63a127,127,0,0,1-19.61,10.53c-1.13.5-.19,2.07.94,1.63Z" fill="#1e0a32"/></g><g id="chair"><path d="M429.59,435.6q19.26,71.06,38.47,142.12c3.64,13.54,7.34,27,11,40.55.63,2.32,4.26,1.31,3.64-1Q463.4,546.2,444.19,475.14c-3.64-13.54-7.33-27-11-40.54-.62-2.32-4.26-1.32-3.63,1Z" fill="#1e0a32"/><path d="M392.55,437.6q.85,78.21,1.63,156.48c.13,14.73.31,29.51.44,44.24a1.88,1.88,0,0,0,3.76,0q-.84-78.21-1.63-156.47c-.12-14.73-.31-29.52-.44-44.25,0-2.38-3.76-2.38-3.76,0Z" fill="#1e0a32"/><path d="M340.1,430.9Q323.38,507.33,307.77,584q-4.42,21.72-8.71,43.36c-.51,2.39,3.13,3.39,3.63,1Q318,551.65,334.4,475.14q4.61-21.61,9.4-43.24c.44-2.38-3.2-3.38-3.7-1Z" fill="#1e0a32"/><path d="M314,565.13q40.71.38,81.28,1.94c2.44.13,2.44-3.63,0-3.76-27.07-1.07-54.21-1.69-81.28-1.94-2.38,0-2.38,3.76,0,3.76Z" fill="#1e0a32"/><path d="M396.69,566.26c2.5.37,4.45-.63,6.77-1.57,2.82-1.13,5.64-2.32,8.46-3.51,5-2.13,10-4.26,15-6.45q16.26-7.15,32.14-14.79c2.2-1.07.25-4.27-1.88-3.26q-14.57,7.05-29.39,13.6c-4.95,2.19-9.9,4.32-14.91,6.45l-7.65,3.2c-2,.81-5.45,3-7.64,2.69s-3.39,3.32-.94,3.64Z" fill="#1e0a32"/><path d="M378.7,438.67q-7.51,66.74-15,133.54c-1.44,12.59-2.82,25.25-4.26,37.85-.25,2.38,3.51,2.38,3.76,0q7.53-66.73,15-133.54c1.44-12.6,2.82-25.26,4.26-37.85.32-2.38-3.44-2.38-3.76,0Z" fill="#1e0a32"/><path d="M368.36,544.76c29.77-.69,59.41-2.57,89.11-4.51,2.39-.13,2.45-4,0-3.76-29.7,1.94-59.34,3.76-89.11,4.51-2.44.06-2.44,3.82,0,3.76Z" fill="#1e0a32"/><path d="M314.72,564.94c18.74-5.45,36.79-12.85,54.9-20.12,2.19-.87,1.25-4.51-1-3.63-18.11,7.27-36.15,14.66-54.89,20.11-2.32.63-1.32,4.27,1,3.64Z" fill="#1e0a32"/><path d="M407.72,387.72a150,150,0,0,1,39.66,11c.19,11.34.32,22.62.51,34a160.36,160.36,0,0,1-118.57,4.83c-.56-12.72-1.06-25.44-1.63-38.17C342.48,392.92,371.62,383,407.72,387.72Z" fill="#fff" stroke="#1e0a32" stroke-miterlimit="10" stroke-width="1.88"/><path d="M332.83,402.26c4.89,5.45,11.91,7.39,19,8.27,9.15,1.19,18.55,1.57,27.82,1.88,19.05.63,38.35-.44,56.46-7,1.13-.38.63-2.2-.5-1.82-17.23,6.2-35.53,7.46-53.64,6.95q-13-.37-25.94-1.5c-7.83-.69-16.29-2-21.81-8.15-.88-.94-2.19.44-1.38,1.32Z" fill="#1e0a32"/></g><g id="guy_sitting_reading" data-name="guy sitting reading"><g id="hand_right" data-name="hand right"><path d="M323.56,185.56c-4.26.44-6.9,3.7-12.1,10.47-14,18.17-24.19,34.15-25.06,35.53-1.82,2.82-8,11.34-20.49,28.39-23,31.52-28.33,37.35-26.32,45.55,2.31,9.59,12.78,18.11,20.49,16.74,4.51-.82,7.2-4.89,11.28-11.72,5.26-8.9,12-20.93,19.24-35.91a174,174,0,0,0,38.85-35.91c15.66-19.74,15.16-28.26,14.6-31.77C342.29,195.78,332.14,184.75,323.56,185.56Z" fill="#fff" stroke="#1e0a32" stroke-miterlimit="10" stroke-width="1.88"/><path d="M336.72,193.46c-3.07.37-3.76,9.27-5,14.79-4.14,19.05-19.12,21-43.93,49.25-10.4,11.91-17.8,22.94-24.63,33.28-6.64,10-11.84,18.8-15.6,25.44a10.77,10.77,0,0,0,5.32,4.95c4.14,1.63,8.15-.19,9.47-.81,5-2.32,5.82-5.89,14-19.68,5.2-8.84,5.14-7.9,7.39-12.35,4.14-8.21,3.83-10.65,7.4-14.79,3.13-3.69,5.39-3.5,11.47-8.2a147.57,147.57,0,0,0,14.79-12.73,135.28,135.28,0,0,0,16.85-20.55c6.08-9,7.52-13.22,8.21-15.6,2.51-8.65.94-13.73.44-15.17C341.79,198.1,339.1,193.15,336.72,193.46Z" fill="#1e0a32" opacity="0.09" style="isolation:isolate"/><path d="M291.16,272.67c-.82-.5-4.07,4.7-11.47,13.16-18.48,21-32.4,27.51-30.39,32.83,1.19,3.07,6.95,4.14,11.09,3.26,5.89-1.25,9-7,15.17-18.48C290.6,275.3,291.66,273,291.16,272.67Z" fill="#1e0a32" opacity="0.18" style="isolation:isolate"/></g><g id="leg_right" data-name="leg right"><path d="M237,550.09c1.76,19.55,3.45,39.1,5.21,58.65-27.26,13.66-40.3,22.31-39,26q2.34,6.76,69.81-9.28-1.32-40.79-2.57-81.65Q253.68,546.92,237,550.09Z" fill="#1e0a32" stroke="#1e0a32" stroke-miterlimit="10" stroke-width="1.88"/><path d="M326.38,326.37c-9.59,7.08-23.06,17.05-39.11,29.2-50.5,38.29-56.83,44.12-62.41,54.84-5.52,10.52-7.4,28.26-11.22,63.79A450.91,450.91,0,0,0,211,528.09c.12,12,.75,22.19,1.38,30.08a48.71,48.71,0,0,0,31,12.16c20,.31,32.77-12.1,35-14.35-1.95-11.53-3.51-24-4.52-37.29a405.37,405.37,0,0,1,.44-65.61c13.41-10.59,32.21-25.88,53.89-45.37,46.31-41.61,49.39-51.45,47.63-58.4C371.81,333.77,342.11,328.31,326.38,326.37Z" fill="#fff" stroke="#1e0a32" stroke-miterlimit="10" stroke-width="1.88"/><path d="M347.25,331.13c-6.71,2.26-3.14,17.43-7.65,31.53-5.14,16.1-17,20.42-46.31,42.73A398.44,398.44,0,0,0,254.63,439c.25,28.14-.63,58-3.08,89.55-1.12,14.29-2.5,28.26-4.07,41.74a66.88,66.88,0,0,0,15.29-4.08,66.15,66.15,0,0,0,15.29-8.65c-2-11.9-3.57-24.81-4.57-38.66a418.65,418.65,0,0,1,.5-65.67c11.15-9.4,20.24-16.8,26.44-21.87,8.4-6.83,12.66-10.16,19.87-16.3,4.13-3.51,8.33-7.2,18.8-16.79C366,373.68,373.44,365.91,375.26,355c.87-5.58-.25-8.59-1-10.15-2.31-4.58-7.14-6.64-16.79-10.72C351.69,331.82,348.81,330.57,347.25,331.13Z" fill="#1e0a32" opacity="0.12" style="isolation:isolate"/><path d="M273.43,452.77q-4.33,18.71-7.65,39.67a571.06,571.06,0,0,0-6.64,74.32c6.45-3.2,12.91-6.46,19.36-9.65-2.32-15.42-4.13-32.46-5.07-50.89C272.49,486.86,272.61,469,273.43,452.77Z" fill="#1e0a32" opacity="0.15" style="isolation:isolate"/><path d="M370.12,341.29c-4.45-.38-8.46,9.83-11.22,15.79-5.95,13-22.12,30.08-54.46,64.1-7.77,8.21-18.23,18.87-31,31,3.38-2.44,7.95-5.7,13.22-9.65,11.9-9,19-15,41.73-34.59,0,0,8.21-7.08,41.74-42.23,1.75-1.82,6-6.46,6.08-12.73C376.32,347.74,373.44,341.6,370.12,341.29Z" fill="#1e0a32" opacity="0.09" style="isolation:isolate"/></g><g id="torso"><path d="M346.24,179.11c-.25,0-1.25.06-2.63.19a74.71,74.71,0,0,0-12.53,2.13,72.73,72.73,0,0,0-9.65,3.13,103,103,0,0,0-9.78,33c-2.44,20.43,2.45,33.59,5.77,54A229.4,229.4,0,0,1,319,331.39a76,76,0,0,0,40.86,19.73c30.27,4.33,52.51-12,57.09-15.47,1.38-8.65,2.69-17.42,4-26.32,0,0,1.94-13.41,3.82-28.14,4.45-34.28,9-80.46,9.59-86.23-16.1-16.29-29.45-20.05-38.73-20.36C383.59,174.16,356,178.61,346.24,179.11Z" fill="#fa1e46"/><path d="M369.93,192.71a77.65,77.65,0,0,1,11.78,15.85c19.3,34.22,7.33,74.13,2,91.87a171.58,171.58,0,0,1-24.63,50.26,72,72,0,0,0,19.55.69,75.84,75.84,0,0,0,37.79-15.17q6.76-44.83,12.47-91.87c1.94-16.16,3.7-32.08,5.39-47.94a57.33,57.33,0,0,0-14.42-12.91c-5.51-3.44-13.47-8.46-23.37-8C381,176.41,371.37,190.58,369.93,192.71Z" fill="#1e0a32" opacity="0.17" style="isolation:isolate"/></g><g id="book"><path d="M227.74,228.05h1.94c.19-.69.38-1.44.57-2.13.75,1.57,2,4.14,3.57,7.33,6.89,14,8.27,16.29,9.53,20.49a66.35,66.35,0,0,1,2.57,14.73c1.19-.82,2.94-1.94,5.2-3.2,12.15-6.64,22.31-6.7,31.45-8.33a82.35,82.35,0,0,0,27.64-10.72c-.69.94-1.38,1.95-2.07,2.89,1.07.37,2.2.81,3.26,1.19a16.71,16.71,0,0,1,2.13,3.82c3.64,9-1.75,18.8-6.95,27.82-21.25,37.35-23.44,39.29-27.26,41.17-1.57.82-17.36,8.53-28.58,1.38-2.32-1.44-6.52-4.89-11.91-29.26-3.69-16.61-4.13-25.88-7.64-47.69C229.81,239.27,228.56,232.5,227.74,228.05Z" fill="#fff" stroke="#200c34" stroke-miterlimit="10" stroke-width="1.25"/><path d="M231.31,231.5c5.33,11.4,10.59,23,12.22,35.53.07.31.51.31.51,0-1.63-12.66-6.9-24.32-12.29-35.78a.25.25,0,0,0-.44.25Z" fill="#200c34"/><path d="M229.25,229.49A150.12,150.12,0,0,1,237.08,250c.06.32.56.19.44-.12a151.32,151.32,0,0,0-7.9-20.62c-.06-.25-.5-.06-.37.25Z" fill="#200c34"/><path d="M237.83,249.61A82.71,82.71,0,0,1,242.09,267c.07.31.5.31.5,0a83.88,83.88,0,0,0-4.26-17.55.26.26,0,0,0-.5.13Z" fill="#200c34"/><path d="M232.44,240.65a203.32,203.32,0,0,1,7.46,21.74c.06.31.56.19.44-.12a202.73,202.73,0,0,0-7.46-21.75c-.12-.25-.56-.13-.44.13Z" fill="#200c34"/><path d="M247,270a62.43,62.43,0,0,1,25.94-9.91c.32-.06.19-.5-.12-.43a63,63,0,0,0-26.07,9.9c-.19.19,0,.62.25.44Z" fill="#200c34"/><path d="M250.93,269.22c8.14-5,17.36-6.83,26.51-8.9a179.27,179.27,0,0,0,28.38-8.9c.25-.12.13-.56-.12-.43a178.69,178.69,0,0,1-29.45,9.14c-8.84,2-17.74,3.95-25.57,8.72-.25.12,0,.56.25.37Z" fill="#200c34"/><path d="M249.42,271.48c9.65-4.58,19.49-7.4,29.83-9.9,10.15-2.51,20-6.4,29.89-9.78.32-.13.19-.56-.12-.44-10.22,3.51-20.43,7.58-31,10a147.65,147.65,0,0,0-28.89,9.71c-.31.06-.06.5.25.38Z" fill="#200c34"/><path d="M227.37,227.92c4.57,14.48,9.21,28.89,13.78,43.37l6.77,2.25c21.43-7.08,42.8-14.09,64.23-21.18.75.63,1.51,1.26,2.26,1.95q3.66,44.64,7.39,89.23c-.87.57-1.69,1.07-2.57,1.63l-65.17,10-9.34-2.26c-2.75-12.22-5.57-24.38-8.33-36.6q-6.1-43.33-12.22-86.66C225.24,229,226.3,228.43,227.37,227.92Z" fill="#fff" stroke="#200c34" stroke-miterlimit="10" stroke-width="1.25"/><path d="M240.15,271.66c1,27.14,2.95,54.34,4.45,81.47.06.88,1.44.88,1.44,0-1.5-27.13-3.45-54.27-4.45-81.47-.06-.94-1.5-.94-1.44,0Z" fill="#200c34"/><path d="M246.67,273.36a206,206,0,0,1,1.25,23.18c0,.88,1.38.88,1.44,0a203.71,203.71,0,0,0-1.25-23.18c-.19-.88-1.57-.88-1.44,0Z" fill="#200c34"/><path d="M285.64,261.76a69.1,69.1,0,0,1-34.34,62.86c-.25-5.14-.56-10.28-.81-15.36-2.13,3.58-4.2,7.15-6.33,10.72.44,11.15.94,22.31,1.38,33.53,3,.62,6,1.25,9.09,1.94,21.11-3.39,42.29-6.77,63.41-10.15,1.13-.44,2.2-.94,3.32-1.38q-3.57-45.21-7.14-90.37C304.7,256.25,295.17,259,285.64,261.76Z" fill="#6d6e70" opacity="0.16" style="isolation:isolate"/><path d="M247,274c-.44,0-.94,11.6-.63,24.19.38,17.92,2.07,25.76,1.57,42.87-.19,5.57-.5,10.15-.75,13.09l7,.94c-.44-3.07-1.07-7.52-1.7-12.84C247.54,302.37,247.67,274,247,274Z" fill="#6d6e70" opacity="0.1" style="isolation:isolate"/><path d="M263.84,277.49a384.48,384.48,0,0,0,44-13.16c1.13-.44.63-2.25-.5-1.81a415.55,415.55,0,0,1-44,13.16.94.94,0,0,0,.5,1.81Z" fill="#200c34"/></g><g id="fingers_right" data-name="fingers right"><path d="M230,279.37c-.69.25-.63,1.51-1.19,7.33-.38,3.95-.5,4-.38,5,.31,2.63,1.25,3.13,1.57,6.14.19,1.94-.19,2.19.12,3.82a11,11,0,0,0,1.95,4.45,6.75,6.75,0,0,0,.62,2.76c1,1.94,3.32,3.63,4.58,3,.69-.31.87-1.63,1.19-4.2.31-2.38.12-2.5.37-5.26.25-2.25.44-2.69.25-3.82-.18-1.38-.68-1.82-1.19-3.26-.69-2-.37-2.76-.81-4.83a18.82,18.82,0,0,0-3.13-7.2C233.07,281.88,231.19,279,230,279.37Z" fill="#fff"/><path d="M229.56,278.81A13.13,13.13,0,0,0,237.2,297c.88.32,1.26-1.06.38-1.37a11.64,11.64,0,0,1-6.77-16.17c.32-.82-.87-1.51-1.25-.69Z" fill="#200c34"/><path d="M229.81,279.94a23.34,23.34,0,0,1,7.52,15.85c.06.88,1.44.88,1.44,0a24.49,24.49,0,0,0-8-16.86c-.69-.62-1.69.38-1,1Z" fill="#200c34"/><path d="M227.93,287.58a13,13,0,0,0,10.15,15.86c.88.18,1.26-1.19.38-1.38a11.56,11.56,0,0,1-9.15-14.16c.19-.88-1.19-1.26-1.38-.32Z" fill="#200c34"/><path d="M229.31,296.79a9.7,9.7,0,0,0,7.71,12c.87.19,1.25-1.19.37-1.38a8.27,8.27,0,0,1-6.77-10.21.68.68,0,1,0-1.31-.38Z" fill="#200c34"/><path d="M231.13,305.76a6.32,6.32,0,0,0,3.82,6.39,2.84,2.84,0,0,0,3.26-.44c.87-1,.5-2.51,0-3.57-.32-.82-1.69-.44-1.38.37s.94,2.07-.06,2.51c-.76.31-2-.44-2.51-.88a4.88,4.88,0,0,1-1.76-4.39c.13-.93-1.31-.87-1.37,0Z" fill="#200c34"/><path d="M237.58,308.7c1.38,0,1.94-1.38,2.13-2.57a6.16,6.16,0,0,0-.75-4.2c-.44-.81-1.69-.06-1.19.69a4.74,4.74,0,0,1,.69,2.38c0,.44-.13,2.26-.88,2.26a.72.72,0,0,0,0,1.44Z" fill="#200c34"/><path d="M239.34,302.94c.87-.82.87-2.39.68-3.51a6.56,6.56,0,0,0-1.81-3.76c-.63-.69-1.63.31-1,1a5.08,5.08,0,0,1,1.32,2.51c.13.68.31,2.19-.25,2.75s.38,1.63,1.07,1Z" fill="#200c34"/></g><g id="leg_left" data-name="leg left"><path d="M304.57,504.78c2.32,14,4.57,28.14,6.89,42.17-25.75,18.3-37.72,29.08-35.9,32.47q3.19,5.91,63.16-19c-1.44-22.94-2.88-45.81-4.38-68.75C324.43,496.07,314.47,500.39,304.57,504.78Z" fill="#1e0a32" stroke="#1e0a32" stroke-miterlimit="10" stroke-width="1.88"/><path d="M417.24,335.21a85,85,0,0,1-3.57,36.72c-2.13,6.39-5.7,16.86-15.1,26.7-6,6.26-16.55,17.29-31.9,16.85-12.41-.37-21.18-8-24.38-11-.94,11.78-1.44,24.57-1.19,38.29a391.37,391.37,0,0,0,5.21,56.9c-7.52,13.91-21.94,22.5-37.17,22.06-19.55-.56-30.64-15.67-31.89-17.42a760.37,760.37,0,0,1-4.08-103.9c.69-21.37,2.2-39,15.11-53.39,12.59-14,29.26-17.23,33.65-18,32.08-5.7,56.33,16.92,59.22,19.74a46,46,0,0,0,36.09-13.53Z" fill="#fff" stroke="#1e0a32" stroke-miterlimit="10" stroke-width="1.88"/><path d="M343.3,386.22A121.55,121.55,0,0,0,340.41,410a.94.94,0,0,0,1.88,0,121.1,121.1,0,0,1,2.76-23.31c.32-1.19-1.5-1.69-1.75-.5Z" fill="#1e0a32"/><path d="M343.74,396.24c.87-1.94,1.69-3.88,2.57-5.89.5-1.12-1.13-2.06-1.63-.94-.88,1.95-1.7,3.89-2.57,5.89-.5,1.07,1.12,2,1.63.94Z" fill="#1e0a32"/><path d="M378.83,347.8c4.2,4,7.08,9.78,10.21,14.67.63,1,2.26.06,1.63-.94-3.26-5-6.2-10.84-10.53-15a.93.93,0,1,0-1.31,1.31Z" fill="#1e0a32"/><path d="M397.25,346.49a84.35,84.35,0,0,1-.37,12.09c-1.19,11.6-2.2,21.43-8.59,25.69-7.46,5-18.8.26-23-1.56-14.54-6.14-16.23-16.42-24.56-17.17-9.84-.88-20.05,12.28-24.94,22.62-12.1,25.38,1.63,45.24,3.13,90.8a248.39,248.39,0,0,1-2.32,42.11,37.91,37.91,0,0,0,12.1-3.51A40.57,40.57,0,0,0,346.62,500c-.44-3.45-1.07-8.78-1.94-15.23-2.13-15.73-2.82-17.42-3.51-24.19-.32-3.07-.57-6.52,0-28.82.18-6.58.37-15.67.75-26.51a61.6,61.6,0,0,0,7,4.26c2.07,1.06,9.33,4.89,16,5.83,10.59,1.5,19.61-4.45,24.19-7.4,12.47-8.21,17.86-19.74,21.43-27.7a90.22,90.22,0,0,0,7.39-44.43,33,33,0,0,1-12.47,8.59A31.42,31.42,0,0,1,397.25,346.49Z" fill="#1e0a32" opacity="0.09" style="isolation:isolate"/><path d="M415.55,348.81c-1.44-.51-5.76,7.95-6.27,9-4.07,8.08-3.94,13.28-5.45,18.3-2.94,10-12.47,20.11-22.18,22.62-16.36,4.2-30.08-13.91-37.41-8.21-3.45,2.69-3.26,8.83-1.95,12.47,3.76,10.46,20.81,11.22,23,11.28,14.85.5,25.76-8.71,29.2-11.72C416.55,383.46,418.18,349.75,415.55,348.81Z" fill="#1e0a32" opacity="0.11" style="isolation:isolate"/><path d="M343.42,389.73c-1.06-.19-4.38,10.34-6.64,20.68a184.46,184.46,0,0,0-3.89,45.18c.19,14.66-1.06,35.65-7.39,62.35A28.47,28.47,0,0,0,336,512.86a29.43,29.43,0,0,0,9.71-13.22c-1.25-13.72-2.13-25.38-2.76-34.28-1.5-21.49-2.25-32.46-1.94-42.48C341.73,402.89,344.61,390,343.42,389.73Z" fill="#1e0a32" opacity="0.11" style="isolation:isolate"/></g><g id="hand_left" data-name="hand left"><path d="M315.22,287.21c.57-1.63,4.33-1.63,5.33-1.63a10.31,10.31,0,0,1,9,5.32,3.8,3.8,0,0,1,.38,1.57,4.76,4.76,0,0,1-1.76,3.95C324.94,298.49,314.1,290.4,315.22,287.21Z" fill="#fff" stroke="#1e0a32" stroke-miterlimit="10" stroke-width="1.88"/><path d="M429.52,190.7c10,6.14,8.78,23.5,7.27,45.25a174.47,174.47,0,0,1-9.65,47,160.71,160.71,0,0,1-11.78,25.32,134.84,134.84,0,0,1-58.9,10.91A133,133,0,0,1,332,315.72c-8.46,5.83-15.29,5.76-18.23,5.45-4.58-.44-10.59-2.51-10.53-4.51,0-1.38,2.95-2.51,4.26-3a23.11,23.11,0,0,1,6-1.25c0-.13-2.32,0-4.76-.25a21.44,21.44,0,0,1-7.59-1.88c-1-.5-5.95-2.95-6.89-7.71-.88-4.32,1.75-9.21,6.58-12.1a50.19,50.19,0,0,1,21.74-.94,52.42,52.42,0,0,1,16,5.71c16.86-4.14,33.72-8.34,50.51-12.47.32-3.51.88-8.65,1.57-15,2.19-20,3.26-30,4.95-38.48,4.14-20.8,6.83-34.4,17.36-39.16C417.62,188.07,424.45,187.57,429.52,190.7Z" fill="#fff" stroke="#1e0a32" stroke-miterlimit="10" stroke-width="1.88"/><path d="M419.69,189.26a236.3,236.3,0,0,1,2.25,54.64C420.06,269,419,281.57,410.1,292c-13.35,15.6-42.11,23.44-64.48,17.11-8.65-2.45-21.12-8-36.41-4.89-4.39.88-11.09,2.94-11,4.57.13,1.26,4.64,2.51,7.83,2.89,2.45.25,4,.06,4.14.56.38,1.19-6.71,3.2-6.52,5.26.13,1.76,5.71,3.14,10.28,3.26,3.51.13,9.71-.31,17.23-4.64a132.58,132.58,0,0,0,22.56,3.39,135.65,135.65,0,0,0,62-11.22A174.86,174.86,0,0,0,437.3,233a156.66,156.66,0,0,0-2.89-36.66,13.39,13.39,0,0,0-6.64-6.39A13.21,13.21,0,0,0,419.69,189.26Z" fill="#1e0a32" opacity="0.18" style="isolation:isolate"/><path d="M403,308.57c-9.71,1.51-15.35,3.08-19.73,3.95A112,112,0,0,1,345.93,314a121.3,121.3,0,0,1-12.41-2.06,59.47,59.47,0,0,1-15.54,4c-8.52.94-14.6-.32-14.79.75s5,3.63,10.53,4.26c8.4.94,15.23-3.13,18.3-5.26a110.16,110.16,0,0,0,16.29,3.25c36.28,4.45,68.18-10.59,67.8-12C416.05,306.51,411.67,307.2,403,308.57Z" fill="#1e0a32" opacity="0.21" style="isolation:isolate"/><path d="M298,308.7a29.71,29.71,0,0,1,18.49-1.57c1.19.25,1.69-1.56.5-1.81a31.51,31.51,0,0,0-19.93,1.75c-1.13.5-.13,2.13.94,1.63Z" fill="#1e0a32"/><path d="M294.67,302.68a46,46,0,0,1,21.56-2.38c1.19.13,1.19-1.75,0-1.88a47.18,47.18,0,0,0-22.06,2.45c-1.13.44-.63,2.25.5,1.81Z" fill="#1e0a32"/><path d="M296.42,296.29A60,60,0,0,1,317.48,294c1.19.06,1.19-1.82,0-1.88a62.61,62.61,0,0,0-21.56,2.32.94.94,0,0,0,.5,1.81Z" fill="#1e0a32"/></g><g id="head-2" data-name="head"><path d="M329.57,90.5c-17.48,14.16-16.79,43-9.9,61.6a66.62,66.62,0,0,0,15.86,24.31c1.12,4.77,2.19,9.59,3.32,14.35a70.7,70.7,0,0,0,21.24,1.38,72.26,72.26,0,0,0,38.42-15.85q-6.3-15.6-12.6-31.27c-.56-3.82-1.38-9.72-2.38-16.86-2.57-18.74-2.45-19.74-3.57-22.75-.5-1.25-7.59-19.17-24.19-22.37C342.29,80.47,331.2,89.12,329.57,90.5Z" fill="#fff" stroke="#1e0a32" stroke-miterlimit="10" stroke-width="1.88"/><path d="M315.16,138.44A50.71,50.71,0,0,0,313.84,156c.51,5,1.32,13.54,7.52,21.81A39.63,39.63,0,0,0,341,191.39a22.44,22.44,0,0,1-.82-3.7,17.77,17.77,0,0,1,0-4c4.14,2.2,8.28,4.45,12.35,6.65,10.4-9.53,13.85-18.18,15-24.51.94-4.95,1.5-14,3.76-30.58.37-2.94,1.19-8.27,4.57-9.59a5.33,5.33,0,0,1,5.14.82c4.14,3.45-.06,13.28.82,13.6s8.08-9.65,5.64-21.06a24.44,24.44,0,0,0-6.71-12q-6.76,10.62-15,21.81c-3.51,4.76-7,9.27-10.46,13.6a10.11,10.11,0,0,1-5.52,1.31c-1.75-.12-2.38-.75-3.7-1.12-4.88-1.38-7.52,4.32-12.28,3.57-3.95-.63-4.32-4.83-8.65-5-2.06-.06-2.94.88-5.07.44A9.16,9.16,0,0,1,315.16,138.44Z" fill="#1e0a32" stroke="#1e0a32" stroke-miterlimit="10" stroke-width="1.88"/><path d="M335.34,121.71a126.8,126.8,0,0,0-2.82,20.68,1,1,0,0,0,1.44.81c2.44-1.25,4.89-2.51,7.39-3.76,1.07-.56.13-2.19-.94-1.63-2.44,1.25-4.88,2.51-7.39,3.76.5.25.94.57,1.44.82a136.23,136.23,0,0,1,2.76-20.18c.19-1.19-1.63-1.69-1.88-.5Z" fill="#1e0a32"/><path d="M325.5,125.53c.69,1.06.81,2.69.25,3s-2.63-1.07-2.88-2.7c-.06-.5,0-1.38.44-1.63C323.93,123.9,325,124.71,325.5,125.53Z" fill="#1e0a32" stroke="#1e0a32" stroke-miterlimit="10" stroke-width="1.88"/><path d="M322.24,119.07a6.32,6.32,0,0,1,6.83.63c.94.75,2.26-.56,1.32-1.31a8.16,8.16,0,0,0-9.09-.94c-1.06.56-.12,2.19.94,1.62Z" fill="#1e0a32"/><path d="M344.11,120a6.91,6.91,0,0,1,9.53,1.76c.69,1,2.32.06,1.63-.94a8.87,8.87,0,0,0-12.1-2.44c-1,.68-.06,2.31.94,1.62Z" fill="#1e0a32"/><path d="M301.37,108.05q37.51,2.16,74.89,6.26c3.63.38,3.57-5.26,0-5.64q-37.32-4-74.89-6.26c-3.63-.19-3.63,5.45,0,5.64Z" fill="#1e0a32"/><path d="M317.6,104.22c.38-3.82,1.95-13.66,9.59-21.62,10-10.4,28.33-14.79,42.61-5.95C381,83.61,387,97,385,110.68,362.47,108.55,340,106.35,317.6,104.22Z" fill="#5a14d2"/><path d="M349.19,73.89c-2.95,2.45-2.95,7.52-1.88,13,1.13,6,4,13.23,8.4,20.62l29.2,3.39a29,29,0,0,0,.44-8.84,34.75,34.75,0,0,0-4.2-12.78C374,77.21,355.33,68.75,349.19,73.89Z" fill="#5a14d2" opacity="0.69" style="isolation:isolate"/><path d="M379.71,143a8,8,0,0,1-5.14.75,51.35,51.35,0,0,1,4.26,11.16c1.25,5.14,3.07,12.16.69,20.24a30.85,30.85,0,0,1-9.72,14.6,53.87,53.87,0,0,0,27.95-14.47c-4.63-13.1-9.21-26.2-13.85-39.3C383.9,136.24,383.65,140.94,379.71,143Z" fill="#1e0a32" opacity="0.24" style="isolation:isolate"/><path d="M357.77,112.18a35.46,35.46,0,0,1,.57,12.85,36.6,36.6,0,0,1-7.9,18l4.14-1.31c2.75-3.32,5.51-6.83,8.27-10.47,4.51-5.95,8.71-11.78,12.47-17.48C369.49,113.31,363.6,112.75,357.77,112.18Z" fill="#1e0a32" opacity="0.19" style="isolation:isolate"/><path d="M349.25,126.09c.69,1.07.82,2.7.25,3s-2.63-1.06-2.88-2.69c-.06-.5,0-1.38.44-1.63C347.68,124.46,348.69,125.28,349.25,126.09Z" fill="#1e0a32" stroke="#1e0a32" stroke-miterlimit="10" stroke-width="1.88"/><circle cx="321.8" cy="130.42" r="11.34" fill="none" stroke="#1e0a32" stroke-miterlimit="10" stroke-width="1.25"/><circle cx="348.19" cy="130.42" r="11.34" fill="none" stroke="#1e0a32" stroke-miterlimit="10" stroke-width="1.25"/><path d="M334.46,130.79a.8.8,0,0,1,1.07-.19.93.93,0,0,0,1.31-1.31,2.58,2.58,0,0,0-3.69.19,1,1,0,0,0,0,1.31.9.9,0,0,0,1.31,0Z" fill="#1e0a32"/><path d="M311.4,131.17c1.19-.63,2.38-1.32,3.51-2.07s.06-2.25-.94-1.63-2.32,1.44-3.51,2.07-.12,2.19.94,1.63Z" fill="#1e0a32"/><path d="M360.22,131c5.2-1.32,10.46-2.57,15.66-3.88a.94.94,0,0,0-.5-1.82c-5.2,1.31-10.46,2.57-15.66,3.88a.94.94,0,0,0,.5,1.82Z" fill="#1e0a32"/></g></g></g></g></svg>