<svg xmlns="http://www.w3.org/2000/svg" viewBox="0 0 743.2 737.92"><g id="Camada_2" data-name="Camada 2"><g id="Camada_1-2" data-name="Camada 1"><g id="background"><path d="M68.87,628.22H323.68a1,1,0,0,0,0-2.06H68.87a1,1,0,0,0,0,2.06Z" fill="#e6e7e8"/><path d="M337,628.22H597.39a1,1,0,0,0,0-2.06H337a1,1,0,0,0,0,2.06Z" fill="#e6e7e8"/><path d="M386,647.12H545.15a1,1,0,0,0,0-2.06H386a1,1,0,0,0,0,2.06Z" fill="#e6e7e8"/><path d="M222.43,651.59h92.38a1,1,0,0,0,0-2.06H222.43a1,1,0,0,0,0,2.06Z" fill="#e6e7e8"/><path d="M633,627.12H706.4a1,1,0,0,0,0-2.06H633a1,1,0,0,0,0,2.06Z" fill="#e6e7e8"/><path d="M97.81,497.14A62.67,62.67,0,0,1,103,547.73a1,1,0,0,0,.69,1.24,13.06,13.06,0,0,1,5.64,3.16c1.85,2.06,2.27,6.19-.9,7.42-.62.28-1.17,1.17-.48,1.72,5.36,4.19,6,11.21,6.39,17.53a105.1,105.1,0,0,0,2.55,18.49c3,11.68,8.73,22.54,18.42,29.9,1,.82,2.06-1,1-1.79-10.72-8.11-16.22-20.82-18.56-33.75-1.85-10,.62-24.74-8.45-31.82-.14.55-.28,1.17-.48,1.72a6.25,6.25,0,0,0,3.71-7.22c-.83-4.06-4.88-6.19-8.53-7.36.21.42.49.83.69,1.24A64.47,64.47,0,0,0,99.32,496c-.41-1.1-2.2-.07-1.51,1.1Z" fill="#e6e7e8"/><path d="M98.43,495.49c14,8.59,25.22,20.69,34.43,34.16a231.56,231.56,0,0,1,12.31,20.14c3.16,5.78,10.38,16.09,4.4,22.2a1,1,0,0,0,.48,1.72c4.67,1.24,6.6,6.53,8.31,10.59a88.54,88.54,0,0,1,4.34,13.13,99,99,0,0,1,2.88,28.38c-.07,1.31,2,1.31,2.06,0a100.37,100.37,0,0,0-4-32.58,91.52,91.52,0,0,0-5.36-14c-1.65-3.37-3.92-6.46-7.7-7.49a15.78,15.78,0,0,0,.48,1.72c5.09-5.16,2.27-12.72-.62-18.29a241.82,241.82,0,0,0-13.88-23.78c-9.83-14.85-21.79-28.32-37.12-37.67-1.1-.68-2.13,1.1-1,1.79Z" fill="#e6e7e8"/><path d="M99.39,496.11A240.63,240.63,0,0,1,156,625.75c.14,1.3,2.2,1.3,2.06,0A243.21,243.21,0,0,0,119.94,520a243.41,243.41,0,0,0-19.18-25.36c-.82-1-2.26.48-1.37,1.44Z" fill="#e6e7e8"/><path d="M105.3,544.91A91.52,91.52,0,0,1,146.89,581c.68,1.1,2.47.07,1.78-1a93.11,93.11,0,0,0-42.34-36.85c-1.17-.48-2.2,1.24-1,1.79Z" fill="#e6e7e8"/><path d="M132.45,528.07a210.49,210.49,0,0,0,2.68,21.65c.21,1.31,2.2.76,2-.55-1.24-7-2.07-14-2.62-21.1-.13-1.3-2.2-1.3-2.06,0Z" fill="#e6e7e8"/><path d="M114.58,582.72a103.12,103.12,0,0,1,40.21,32.17c.76,1,2.54,0,1.79-1a105.33,105.33,0,0,0-41-32.92c-1.17-.48-2.2,1.24-1,1.79Z" fill="#e6e7e8"/><path d="M142,539.76a150.65,150.65,0,0,1,7.83-49.7c-.48.21-1,.41-1.51.62,1.24.62,2.41,1.24,3.64,1.79a1.08,1.08,0,0,0,1.58-.9,56.51,56.51,0,0,1,8.94-29.21,17.05,17.05,0,0,1-1.86-.28c4.68,13.34,9.35,26.6,14,39.94,2.26,6.46,4.53,12.85,6.8,19.31,1.72,4.89,8.8,18.84-.21,20.35a1,1,0,0,0-.48,1.72c4.75,5.09,6.53,11.89,7.43,18.63a124.79,124.79,0,0,1,.75,20.89,134.4,134.4,0,0,1-8.86,42.48c-.49,1.24,1.51,1.79,2,.55a135.53,135.53,0,0,0,9-45.5c.28-12.58.35-28.66-8.86-38.43-.14.55-.28,1.17-.48,1.72,5.29-.89,6.59-6.53,5.63-11.13-1.72-7.91-5.36-15.74-8-23.37-5.57-15.88-11.2-31.76-16.77-47.71a1,1,0,0,0-1.86-.27,57.69,57.69,0,0,0-9.21,30.24c.55-.27,1-.62,1.58-.89-1.24-.62-2.4-1.24-3.64-1.79a1,1,0,0,0-1.51.62A152.35,152.35,0,0,0,140,539.69a1,1,0,1,0,2,.07Z" fill="#e6e7e8"/><path d="M158.64,464.21c10.79,53.55,3.44,108.61,12.3,162.36.21,1.31,2.2.76,2-.55-8.8-53.75-1.45-108.88-12.31-162.36-.27-1.3-2.27-.75-2,.55Z" fill="#e6e7e8"/><path d="M143.11,508c4,19.66,13.06,37.67,22,55.54.62,1.17,2.41.14,1.79-1-8.87-17.67-17.74-35.54-21.79-55-.28-1.38-2.27-.83-2,.48Z" fill="#e6e7e8"/><path d="M177.61,508.27A171.85,171.85,0,0,0,165.38,538c-.42,1.24,1.58,1.79,2,.55a171.1,171.1,0,0,1,12-29.21c.62-1.17-1.17-2.2-1.79-1Z" fill="#e6e7e8"/><path d="M481.84,625.4q3-25.87,6-51.76l-1,1a7.33,7.33,0,0,1,5.36,1.59,1.08,1.08,0,0,0,1.79-.76c.2-3.78.34-7.49.55-11.27-.41.34-.9.68-1.31,1,5,.89,7.7-3.78,9.56-7.63a78,78,0,0,1,10.51-16.09c7.5-9.07,16-17.94,18.84-29.76h-2c3.85,12.17,7.84,24.54,8.46,37.39.48,9.9-.62,24.27-11.48,28.53a1.06,1.06,0,0,0-.62,1.51c6,11.14-9.62,18.7-16.43,24.2a75,75,0,0,0-18.56,22.48c-.62,1.16,1.17,2.19,1.79,1,6-10.93,14.3-19.53,24.47-26.61,7-4.88,15.47-12.85,10.52-22.13-.21.48-.41,1-.62,1.51,10-4,12.78-15.6,13.06-25.36.34-14.78-4.19-29.14-8.59-43.1a1,1,0,0,0-2,0c-2.54,10.79-10.1,19-17,27.29a101.62,101.62,0,0,0-9,12c-2.13,3.57-5,13.68-10.38,12.72a1,1,0,0,0-1.3,1c-.21,3.78-.35,7.49-.55,11.27.62-.27,1.17-.48,1.78-.76a9.55,9.55,0,0,0-6.87-2.19,1,1,0,0,0-1,1q-3,25.88-6,51.76a1.07,1.07,0,0,0,2.13.13Z" fill="#e6e7e8"/><path d="M530,514.46c-1.17,19.52-4.82,39.39-15.26,56.23-5.09,8.25-11.83,15.46-17.26,23.51a94,94,0,0,0-11.89,25c-.41,1.23,1.58,1.78,2,.55a94.67,94.67,0,0,1,13.41-27c5.77-8,12.44-15.39,17.32-24.06,9.21-16.49,12.58-35.53,13.68-54.23.14-1.3-1.93-1.3-2,0Z" fill="#e6e7e8"/><path d="M507.27,547.39a101.5,101.5,0,0,0,4.4,28.32c.41,1.23,2.41.75,2-.55a99.44,99.44,0,0,1-4.33-27.77c-.07-1.31-2.14-1.38-2.07,0Z" fill="#e6e7e8"/><path d="M524.8,554.12a47.76,47.76,0,0,0,14.37-10.38c.89-1-.55-2.4-1.45-1.44a47,47,0,0,1-14,10c-1.24.55-.14,2.33,1,1.78Z" fill="#e6e7e8"/><path d="M517.31,626c-.62-7.56-1.44-15.12-2.41-22.61-.13-1.31-2.27-1.31-2.06,0,1,7.49,1.79,15,2.41,22.61.07,1.31,2.13,1.31,2.06,0Z" fill="#e6e7e8"/><path d="M541.09,541.27a309.76,309.76,0,0,0,19.11-44.13h-2c3.92,16,7.76,32,11.68,48.05.21-.42.48-.83.69-1.24l-8.25,2.47a1,1,0,0,0-.75,1c-.14,1.65.75,2.61,2,3.57,2.89,2.41,3.64,4.33,3.44,8.11-.21,3.44-.55,6.81-.83,10.17-.21,2.62-.07,9.35-4.12,9.15a1,1,0,0,0-1,1.3c3.1,8.59-.34,17.46-4.4,25.09a108.22,108.22,0,0,1-14.5,20.83c-.89,1,.55,2.47,1.44,1.44a110.28,110.28,0,0,0,16-23.37c3.78-7.56,6.53-16.22,3.58-24.54-.35.42-.69.9-1,1.31,6.47.34,6-9.62,6.4-13.75.27-3.78,1.1-7.9.48-11.68a7.3,7.3,0,0,0-1.38-3.37c-1-1.31-4-2.48-3.85-4.26-.27.34-.48.68-.75,1l8.25-2.48a1,1,0,0,0,.68-1.23c-3.91-16-7.76-32-11.68-48.05a1.05,1.05,0,0,0-2,0,298.71,298.71,0,0,1-18.9,43.65,1,1,0,1,0,1.65,1Z" fill="#e6e7e8"/><path d="M557.52,501.61c6.46,41.17-22.41,76.57-29.83,115.48-.28,1.3,1.72,1.85,2,.55,7.49-39.39,36.36-74.86,29.83-116.58-.2-1.31-2.2-.76-2,.55Z" fill="#e6e7e8"/><path d="M543.5,531.23c1.58,8.18,3.09,16.36,4.67,24.61.28,1.31,2.27.76,2-.55-1.58-8.18-3.09-16.36-4.67-24.61-.27-1.3-2.2-.75-2,.55Z" fill="#e6e7e8"/><path d="M556,541.75a94.24,94.24,0,0,1,10.65-12.85c1-1-.55-2.41-1.44-1.45a97.37,97.37,0,0,0-11,13.27c-.76,1.1,1,2.13,1.79,1Z" fill="#e6e7e8"/><path d="M1.23,433.42a321,321,0,0,1,153.63,3.92c25.5,7,49.56,17.94,74.17,27.56a611.21,611.21,0,0,0,74.37,23.72,628.27,628.27,0,0,0,86,15.26c1.31.13,1.31-1.93,0-2.07a623,623,0,0,1-153.76-36.63c-25-9.42-49.15-20.76-74.72-28.32a320.14,320.14,0,0,0-74.72-12.58A324.25,324.25,0,0,0,.75,431.43c-1.3.27-.75,2.27.48,2Z" fill="#e6e7e8"/><path d="M276.18,464c54.16,13.33,110.46,7.77,164.56-3.09C496.48,449.71,551,432.6,607.22,423.8c31.89-5,64.33-7.15,96.57-3.92,1.31.14,1.31-1.93,0-2.06-56.36-5.64-112.45,5.29-167,18.35-55,13.2-109.7,28.73-166.34,32.79-31.41,2.2-63,.68-93.69-6.88a1,1,0,1,0-.55,1.93Z" fill="#e6e7e8"/><path d="M112.52,375.34c32.58-6.53,64.88,4.05,96.16,12,31.69,8.11,63.93,11.82,96.58,8.59,32.44-3.23,63.78-12.44,95.54-19.45A720.75,720.75,0,0,1,612,361.45c1.3.07,1.3-2,0-2.06a726.54,726.54,0,0,0-197.48,12.17c-32.65,6.6-64.68,16.36-97.75,21a267.26,267.26,0,0,1-100.7-5.36c-34-8.32-68.8-20.9-104.2-13.82-1.24.14-.69,2.13.62,1.93Z" fill="#e6e7e8"/><path d="M455.17,333c36.71,3.78,73-4.33,108.54-12.51,18.14-4.2,36.36-8.39,54.78-11.14a296.47,296.47,0,0,1,121.87,7.15,1,1,0,0,0,.55-2,299.11,299.11,0,0,0-113.14-8.46c-36.91,4.33-72.52,15.54-109.09,21.72-21,3.58-42.2,5.29-63.44,3.1-1.38-.07-1.38,2-.07,2.13Z" fill="#e6e7e8"/><path d="M12,335.54c27.7,4.81,55-4.88,82.56-6.39,29.07-1.65,58,3.09,86.54,7.83,1.3.21,1.85-1.78.55-2-27.91-4.61-56.09-9.21-84.48-8-28.18,1.17-56.37,11.54-84.68,6.6-1.24-.21-1.79,1.78-.49,2Z" fill="#e6e7e8"/><path d="M140.42,724.86h98.64a1,1,0,0,0,0-2.06H140.42a1,1,0,0,0,0,2.06Z" fill="#1e0a32"/><path d="M216.93,737.92h91.56a1,1,0,0,0,0-2.06H216.93a1,1,0,0,0,0,2.06Z" fill="#1e0a32"/><path d="M61,721.84H9.62a1,1,0,0,0,0,2.06H61a1,1,0,0,0,0-2.06Z" fill="#1e0a32"/><path d="M287.38,686.65h161a1,1,0,0,0,0-2.06h-161a1,1,0,0,0,0,2.06Z" fill="#1e0a32"/><path d="M545,671.53h60.35a1,1,0,0,0,0-2.07H545a1,1,0,0,0,0,2.07Z" fill="#1e0a32"/><path d="M649.63,678.6h92.59a1,1,0,0,0,0-2.06H649.63a1,1,0,0,0,0,2.06Z" fill="#1e0a32"/></g><g id="coins"><path d="M45.09,660.39c-.28,3.92-.48,7.77-.76,11.68-1.72.49-3.37,1-5.09,1.52-.06,2.88-.13,5.77-.27,8.66H31.06c.49,4,1,8,1.52,12,4.46.07,9,.14,13.47.27.48,3.23,1,6.46,1.51,9.69-3.16,0-6.46-.06-9.9-.27-4-.21-7.83-.55-11.41-1-.13,4.26-.34,8.45-.48,12.72,11.27-.14,22.55-.35,33.82-.49.34,3,.69,5.92,1,8.87a352.3,352.3,0,0,0,71.21.76c7.22-.69,14.16-1.51,20.83-2.55V712a50.3,50.3,0,0,1-22.89,3.3L131,707.2a26.61,26.61,0,0,0,1.23-6.6,33.52,33.52,0,0,0,0-4.6c-6.53.06-13.06.13-19.59.27-.13-4.47-.34-9-.48-13.47,6-.48,12-1,18.08-1.51.14-2.41.35-4.75.48-7.15-3-.42-6.12-.83-9.14-1.24-.14-4.61-.34-9.14-.48-13.75Z" fill="#5a14d2"/><path d="M596.56,573.58c-.07,2.81-.14,5.63-.2,8.38,6.25.41,12.51.83,18.76,1.17V591c-2.34.55-4.67,1.1-6.94,1.65-.14,3-.34,6.12-.48,9.15l-21.86.2c-.21,3-.48,6.12-.69,9.14,8.59.14,17.19.35,25.71.49v11.06c-8.73.21-17.46.48-26.19.69-.14,3.5-.34,7.08-.48,10.58,2.82.21,5.64.49,8.39.69.06,3.1.13,6.26.2,9.35-3.78.34-7.56.62-11.27,1,.14,4.06.34,8.18.48,12.24l13.68-.21v13c10.24.55,20.89.9,32,1,17.32.06,33.75-.55,49.08-1.65a107.78,107.78,0,0,0,1.92-10.8,124,124,0,0,0,1-13.47c1.92-.34,3.85-.62,5.77-1l.21-8.87-14.44-.2c.21-3.92.48-7.84.69-11.76,7.29-.2,14.57-.48,21.86-.69q.1-5.15.2-10.31H675.61c.21-2.81.48-5.63.69-8.38,6.66-.41,13.33-.83,19.93-1.17l.21-10.31h8.86c-.13-3.09-.34-6.26-.48-9.35-7.28.14-14.57.34-21.86.48.21-3.78.49-7.56.69-11.27a183.54,183.54,0,0,0-87.09,1.31Z" fill="#fa1e46"/><path d="M59.38,715.17c.07,2.89.21,5.85.28,8.73a1.06,1.06,0,0,0,1,1,598.84,598.84,0,0,0,90.94-.68c.41-.07.89-.28,1-.76a32.89,32.89,0,0,0,.69-11.27c-.14-1.31-2.2-1.31-2.06,0a31.43,31.43,0,0,1-.62,10.72,11.09,11.09,0,0,0,1-.76,608.09,608.09,0,0,1-90.94.69l1,1c-.07-2.88-.2-5.84-.27-8.73,0-1.3-2.07-1.3-2,0Z" fill="#1e0a32"/><path d="M25.08,702.59v12.17a1,1,0,0,0,2.07,0V702.59a1,1,0,0,0-2.07,0Z" fill="#1e0a32"/><path d="M27.35,716.62H129.43a1,1,0,0,0,0-2.07H27.35a1,1,0,0,0,0,2.07Z" fill="#1e0a32"/><path d="M66.46,716.82a36.18,36.18,0,0,1,.21,6.74c-.07,1.3,2,1.3,2.06,0a31.68,31.68,0,0,0-.2-6.74c-.14-1.3-2.2-1.3-2.07,0Z" fill="#1e0a32"/><path d="M73,717.1a18.69,18.69,0,0,1,.42,5.15c-.07,1.31,2,1.31,2.06,0a17.6,17.6,0,0,0-.48-5.7c-.28-1.24-2.27-.69-2,.55Z" fill="#1e0a32"/><path d="M130.8,715.45a30,30,0,0,0,1-8.25,1,1,0,0,0-2.06,0,26.43,26.43,0,0,1-.89,7.7,1,1,0,0,0,2,.55Z" fill="#1e0a32"/><path d="M27.49,703.9a455.71,455.71,0,0,0,102.42,2.68c1.3-.14,1.3-2.2,0-2.06A451.4,451.4,0,0,1,28,701.91c-1.31-.21-1.86,1.78-.55,2Z" fill="#1e0a32"/><path d="M131.56,715.93a51,51,0,0,0,20.07-2.27c1.24-.41.69-2.41-.55-2a48.26,48.26,0,0,1-19.52,2.2c-1.31-.07-1.31,2,0,2.06Z" fill="#1e0a32"/><path d="M118.77,716.82V724a1,1,0,0,0,2.06,0v-7.15a1,1,0,0,0-2.06,0Z" fill="#1e0a32"/><path d="M134.31,715.45c.41,2.54.75,5.08,1.17,7.56.2,1.3,2.2.76,2-.55-.41-2.54-.76-5.09-1.17-7.56-.21-1.31-2.13-.76-2,.55Z" fill="#1e0a32"/><path d="M143.79,715a10,10,0,0,1-.27,4.05,1,1,0,0,0,2,.55,12,12,0,0,0,.28-5.15c-.21-1.31-2.2-.76-2,.55Z" fill="#1e0a32"/><path d="M35.05,704.24q.21,5.47.41,10.93c.07,1.31,2.13,1.31,2.07,0l-.42-10.93c-.07-1.3-2.13-1.3-2.06,0Z" fill="#1e0a32"/><path d="M48.73,705.48c.27,2.82.55,5.64.82,8.39.14,1.3,2.2,1.3,2.07,0-.28-2.82-.55-5.64-.83-8.39-.14-1.3-2.2-1.3-2.06,0Z" fill="#1e0a32"/><path d="M56.63,707.2a11.83,11.83,0,0,0,.42,4.88,1,1,0,0,0,2-.55,11.57,11.57,0,0,1-.34-4.33c.13-1.31-1.93-1.31-2.07,0Z" fill="#1e0a32"/><path d="M45.64,695a61.77,61.77,0,0,0,.89,9.49c.21,1.3,2.2.75,2-.55A49.15,49.15,0,0,1,47.7,695a1,1,0,0,0-2.06,0Z" fill="#1e0a32"/><path d="M48,695.17q42.07.83,84.14,1.72a10.06,10.06,0,0,1-1-.76,30.25,30.25,0,0,1,.13,8.66c-.13,1.31,1.93,1.31,2.06,0a34.25,34.25,0,0,0-.2-9.21,1,1,0,0,0-1-.75Q90.1,694,48,693.11a1,1,0,0,0-.07,2.06Z" fill="#1e0a32"/><path d="M29.69,683.07c.69,3.65,1.17,7.36,1.58,11.07.14,1.31,2.2,1.31,2.06,0-.41-3.92-1-7.77-1.65-11.62-.2-1.3-2.2-.75-2,.55Z" fill="#1e0a32"/><path d="M32,683.07c13.33.83,26.74.28,40.07.14s27-.21,40.42-.27l-1-1c.14,3.51.27,7,.34,10.52.07,1.31,2.13,1.31,2.06,0-.13-3.5-.27-7-.34-10.52a1.06,1.06,0,0,0-1-1c-13.47.07-26.95.21-40.42.28S45.29,681.77,32,681c-1.31-.07-1.31,2,0,2.06Z" fill="#1e0a32"/><path d="M32.85,695.51l14.71-.41c1.31-.07,1.31-2.13,0-2.06l-14.71.41a1,1,0,0,0,0,2.06Z" fill="#1e0a32"/><path d="M36.36,673.86c.41,2.82.82,5.57,1.3,8.39.21,1.3,2.2.75,2-.55-.42-2.82-.83-5.57-1.31-8.39-.21-1.3-2.2-.75-2,.55Z" fill="#1e0a32"/><path d="M38.21,674.41a291,291,0,0,1,92.66.76c1.31.2,1.86-1.79.55-2a296.09,296.09,0,0,0-93.76-.75c-1.3.2-.75,2.2.55,2Z" fill="#1e0a32"/><path d="M111.9,683.69c4.26-.2,8.45-.41,12.72-.55,2.06-.07,4.53.35,5.91-1.44.82-1-1-2.06-1.79-1s-6.94.55-8.11.62l-8.66.41a1,1,0,1,0-.07,2Z" fill="#1e0a32"/><path d="M129.56,672.83a38.46,38.46,0,0,0-.75,6.19c-.07,1.3,2,1.3,2.06,0a31.17,31.17,0,0,1,.69-5.64c.27-1.31-1.72-1.85-2-.55Z" fill="#1e0a32"/><path d="M45.5,671.87V660.18a1,1,0,0,0-2.06,0v11.69a1,1,0,0,0,2.06,0Z" fill="#1e0a32"/><path d="M46.12,661.15q37.64-1.86,75.33-1.52a1,1,0,0,0,0-2.06q-37.64-.3-75.33,1.51c-1.31.07-1.31,2.13,0,2.07Z" fill="#1e0a32"/><path d="M120.42,659.43c.28,3.92.55,7.76.83,11.68.07,1.31,2.13,1.31,2.06,0-.28-3.92-.55-7.76-.83-11.68-.06-1.38-2.13-1.38-2.06,0Z" fill="#1e0a32"/><path d="M47.84,673.52c.27,2.54.48,5.08.75,7.7.14,1.3,2.2,1.3,2.06,0-.27-2.55-.48-5.09-.75-7.7-.07-1.31-2.2-1.31-2.06,0Z" fill="#1e0a32"/><path d="M56.36,672.28a28.14,28.14,0,0,0,.55,6.32c.21,1.31,2.2.76,2-.55a33,33,0,0,1-.48-5.77,1,1,0,0,0-2.06,0Z" fill="#1e0a32"/><path d="M70.73,684.38c.27,2.82.48,5.64.75,8.45.14,1.31,2.2,1.31,2.06,0-.27-2.81-.48-5.63-.75-8.45-.07-1.31-2.13-1.31-2.06,0Z" fill="#1e0a32"/><path d="M79.45,683.55c.28,2.82.49,5.64.76,8.46.14,1.3,2.2,1.3,2.06,0-.27-2.82-.48-5.64-.75-8.46-.14-1.3-2.2-1.3-2.07,0Z" fill="#1e0a32"/><path d="M93.82,683.21c.28,3.23.55,6.46.83,9.69.13,1.31,2.2,1.31,2.06,0-.28-3.23-.55-6.46-.83-9.69-.07-1.37-2.13-1.37-2.06,0Z" fill="#1e0a32"/><path d="M97.81,696.06c.34,3.23.62,6.47,1,9.7.14,1.3,2.2,1.3,2.06,0-.34-3.23-.62-6.47-1-9.7-.14-1.3-2.2-1.3-2.06,0Z" fill="#1e0a32"/><path d="M106.74,696.34a44.28,44.28,0,0,1,.42,9c-.07,1.31,2,1.31,2.06,0a40.64,40.64,0,0,0-.48-9.55c-.21-1.31-2.2-.76-2,.55Z" fill="#1e0a32"/><path d="M117.6,695.65a41.74,41.74,0,0,1-.13,9.28c-.14,1.31,1.92,1.31,2.06,0a47.19,47.19,0,0,0,.14-9.28c-.07-1.3-2.13-1.3-2.07,0Z" fill="#1e0a32"/><path d="M85.85,707.75c-.21,2-.35,4-.55,6-.14,1.3,1.92,1.3,2.06,0,.21-2,.34-4.06.55-6,.14-1.31-1.93-1.31-2.06,0Z" fill="#1e0a32"/><path d="M91.07,708.85a9.41,9.41,0,0,1,.69,4.95c-.14,1.3,1.92,1.3,2.06,0a11.34,11.34,0,0,0-.76-5.5c-.48-1.24-2.47-.69-2,.55Z" fill="#1e0a32"/><path d="M86.88,670.29c.27,3.23.34,6.46.41,9.69a1,1,0,0,0,2.06,0c0-3.23-.13-6.46-.41-9.69-.07-1.31-2.13-1.31-2.06,0Z" fill="#1e0a32"/><path d="M95.06,671.39a26.45,26.45,0,0,1,.41,6.6c-.07,1.3,2,1.3,2.06,0a25,25,0,0,0-.48-7.15c-.27-1.31-2.27-.76-2,.55Z" fill="#1e0a32"/><path d="M64.4,659.29a31.18,31.18,0,0,1,.83,9.76c-.14,1.31,1.92,1.31,2.06,0a30.53,30.53,0,0,0-.9-10.31,1,1,0,0,0-2,.55Z" fill="#1e0a32"/><path d="M72.86,659.29c.48,2.68.89,5.36,1.37,8,.21,1.31,2.2.76,2-.55-.48-2.68-.89-5.36-1.37-8-.21-1.31-2.2-.76-2,.55Z" fill="#1e0a32"/><path d="M102.69,659.7a40.55,40.55,0,0,1,.41,8.18c-.07,1.31,2,1.31,2.06,0a36.94,36.94,0,0,0-.48-8.73c-.2-1.3-2.2-.75-2,.55Z" fill="#1e0a32"/><path d="M594.5,659c.07,4,.14,8,.21,11.9a1.06,1.06,0,0,0,1,1c17.18.13,34.3,0,51.48-.48,8.32-.21,16.7-.55,25-.9,2-.07,5.29.42,6.46-1.78a7.25,7.25,0,0,0,.42-3.17c.13-2.06.2-4.19.27-6.32.07-1.31-2-1.31-2.06,0-.07,1.65-.14,3.37-.21,5-.14,2.4-.34,3.57-2.88,4.05-3.65.69-7.77.35-11.48.48-7.43.28-14.92.49-22.34.69-14.92.35-29.84.41-44.68.28l1,1c-.07-4-.14-8-.21-11.89-.07-1.24-2.13-1.24-2.06.06Z" fill="#1e0a32"/><path d="M580.2,645.89c.14,3.71.28,7.42.42,11.2.06,1.31,2.13,1.31,2.06,0-.14-3.71-.28-7.42-.41-11.2a1,1,0,0,0-2.07,0Z" fill="#1e0a32"/><path d="M582.13,658.53h97.12a1,1,0,0,0,0-2.06H582.13a1,1,0,0,0,0,2.06Z" fill="#1e0a32"/><path d="M582.88,645.82h97.47a1,1,0,0,0,0-2.06H582.88a1,1,0,0,0,0,2.06Z" fill="#1e0a32"/><path d="M678.57,645.13v12.3a1,1,0,0,0,2.06,0v-12.3a1,1,0,0,0-2.06,0Z" fill="#1e0a32"/><path d="M593.54,644.37v-9.28a1,1,0,0,0-2.06,0v9.28a1,1,0,0,0,2.06,0Z" fill="#1e0a32"/><path d="M593.26,636.13h93.62a1,1,0,0,0,0-2.07H593.26a1,1,0,0,0,0,2.07Z" fill="#1e0a32"/><path d="M684.34,635.09V644a1,1,0,0,0,2.06,0v-8.87a1,1,0,0,0-2.06,0Z" fill="#1e0a32"/><path d="M679.25,645.41H685a1,1,0,0,0,0-2.07h-5.78a1,1,0,0,0,0,2.07Z" fill="#1e0a32"/><path d="M583,624.3v8.46a1,1,0,0,0,2.06,0V624.3a1,1,0,0,0-2.06,0Z" fill="#1e0a32"/><path d="M584.46,624.58H672a1,1,0,0,0,0-2.06H584.46a1,1,0,0,0,0,2.06Z" fill="#1e0a32"/><path d="M670.45,624v9.28a1,1,0,0,0,2.07,0V624a1,1,0,0,0-2.07,0Z" fill="#1e0a32"/><path d="M584.46,635h85.93a1,1,0,0,0,0-2.07H584.46a1,1,0,0,0,0,2.07Z" fill="#1e0a32"/><path d="M611.68,622.38v-8.87a1,1,0,0,0-2.06,0v8.87a1,1,0,0,0,2.06,0Z" fill="#1e0a32"/><path d="M611,613.79h82.82a1,1,0,0,0,0-2.07H611a1,1,0,0,0,0,2.07Z" fill="#1e0a32"/><path d="M671.14,623.82h20.42a1,1,0,0,0,0-2.06H671.14a1,1,0,0,0,0,2.06Z" fill="#1e0a32"/><path d="M692.86,613.17V622a1,1,0,0,0,2.06,0v-8.86a1,1,0,0,0-2.06,0Z" fill="#1e0a32"/><path d="M586.39,612.62h89.43a1,1,0,0,0,0-2.06H586.39a1,1,0,1,0,0,2.06Z" fill="#1e0a32"/><path d="M586.6,611.24v-8.11a1,1,0,0,0-2.07,0v8.11a1,1,0,0,0,2.07,0Z" fill="#1e0a32"/><path d="M586,603.82h90.18a1,1,0,0,0,0-2.06H586a1,1,0,0,0,0,2.06Z" fill="#1e0a32"/><path d="M675.47,602.79v7.35a1,1,0,0,0,2.06,0v-7.35a1,1,0,1,0-2.06,0Z" fill="#1e0a32"/><path d="M609,602V593.1a1,1,0,0,0-2.06,0V602a1,1,0,1,0,2.06,0Z" fill="#1e0a32"/><path d="M608.73,593.37h87.5a1,1,0,0,0,0-2.06h-87.5a1,1,0,1,0,0,2.06Z" fill="#1e0a32"/><path d="M695.13,592.75V597a1,1,0,0,0,2.06,0v-4.26a1,1,0,0,0-2.06,0Z" fill="#1e0a32"/><path d="M675.75,603.82h20.41a1,1,0,0,0,0-2.06H675.75a1,1,0,0,0,0,2.06Z" fill="#1e0a32"/><path d="M695.13,593.92v7.7a1,1,0,0,0,2.06,0v-7.7a1,1,0,0,0-2.06,0Z" fill="#1e0a32"/><path d="M615.88,590.83v-7.36a1,1,0,0,0-2.06,0v7.36a1,1,0,0,0,2.06,0Z" fill="#1e0a32"/><path d="M614.5,584.16h89.77a1,1,0,0,0,0-2.06H614.5a1,1,0,0,0,0,2.06Z" fill="#1e0a32"/><path d="M704.27,584.16a1,1,0,0,0,0-2.06,1,1,0,0,0,0,2.06Z" fill="#1e0a32"/><path d="M704,583.13v7.35a1,1,0,0,0,2.06,0v-7.35a1,1,0,1,0-2.06,0Z" fill="#1e0a32"/><path d="M695.82,593h9.28a1,1,0,0,0,0-2.06h-9.28a1,1,0,1,0,0,2.06Z" fill="#1e0a32"/><path d="M595.33,574.26v8.11a1,1,0,0,0,2.06,0v-8.11a1,1,0,0,0-2.06,0Z" fill="#1e0a32"/><path d="M596.36,583.34h22a1,1,0,0,0,0-2.07h-22a1,1,0,0,0,0,2.07Z" fill="#1e0a32"/><path d="M596.56,574.06a226.1,226.1,0,0,1,86.75-1.38c1.3.21,1.85-1.79.55-2A229,229,0,0,0,596,572.06c-1.3.28-.75,2.27.55,2Z" fill="#1e0a32"/><path d="M682.83,572.34v8.11a1,1,0,0,0,2.06,0v-8.11a1,1,0,1,0-2.06,0Z" fill="#1e0a32"/><path d="M602.2,574.61c4.88,1.51,10.24.89,15.26.82,5.63-.07,11.27-.21,16.91-.27,11.48-.21,23-.42,34.43-.55a1,1,0,0,0,0-2.07c-11.06.21-22.06.35-33.13.55-5.43.07-10.79.21-16.22.28s-11.48,1-16.77-.69c-1.24-.41-1.79,1.58-.48,1.93Z" fill="#1e0a32"/><path d="M611.89,575.36v6.94a1,1,0,0,0,2.06,0v-6.94a1,1,0,0,0-2.06,0Z" fill="#1e0a32"/><path d="M618.9,575.77c.21,1.65.41,3.37.62,5,.14,1.31,2.2,1.31,2.06,0-.2-1.65-.41-3.37-.62-5-.13-1.3-2.2-1.3-2.06,0Z" fill="#1e0a32"/><path d="M645.37,575.43c.2,2.06.41,4.13.68,6.19.14,1.3,2.2,1.3,2.06,0-.2-2.06-.41-4.13-.68-6.19-.14-1.31-2.2-1.37-2.06,0Z" fill="#1e0a32"/><path d="M653.55,576.19v4.6a1,1,0,0,0,2.06,0v-4.6a1,1,0,1,0-2.06,0Z" fill="#1e0a32"/><path d="M648.18,584.23a28.9,28.9,0,0,0,.28,6.87c.2,1.31,2.2.76,2-.55a27.74,27.74,0,0,1-.2-6.32c.06-1.31-2-1.31-2.07,0Z" fill="#1e0a32"/><path d="M655.81,584.23a18.39,18.39,0,0,1-.2,5.5c-.21,1.3,1.72,1.85,2,.55a22.79,22.79,0,0,0,.28-6c-.14-1.31-2.2-1.31-2.07,0Z" fill="#1e0a32"/><path d="M613.47,593.51V602a1,1,0,0,0,2.06,0v-8.45a1,1,0,0,0-2.06,0Z" fill="#1e0a32"/><path d="M620.76,593.92a40.93,40.93,0,0,0,.55,6.46c.2,1.31,2.2.76,2-.55a42.72,42.72,0,0,1-.41-5.91,1.07,1.07,0,0,0-2.13,0Z" fill="#1e0a32"/><path d="M630.31,584.3c.14,2.4.35,4.88.48,7.28.07,1.31,2.13,1.31,2.07,0-.14-2.4-.35-4.88-.49-7.28-.06-1.38-2.13-1.38-2.06,0Z" fill="#1e0a32"/><path d="M669.49,583.47c.28,2.34.48,4.61.76,6.95.14,1.3,2.2,1.3,2.06,0-.27-2.34-.48-4.61-.76-6.95-.13-1.3-2.2-1.3-2.06,0Z" fill="#1e0a32"/><path d="M687.29,583.89c.07,1.78.14,3.57.21,5.43.07,1.3,2.13,1.3,2.06,0-.07-1.79-.13-3.58-.2-5.43-.07-1.38-2.13-1.38-2.07,0Z" fill="#1e0a32"/><path d="M655.81,593.1v8.11a1,1,0,0,0,2.07,0V593.1a1,1,0,0,0-2.07,0Z" fill="#1e0a32"/><path d="M636.22,592v6.53a1,1,0,0,0,2.07,0V592a1,1,0,0,0-2.07,0Z" fill="#1e0a32"/><path d="M596.15,603.54a34.51,34.51,0,0,0,.48,8c.21,1.3,2.2.75,2-.55a33.71,33.71,0,0,1-.41-7.43c.07-1.37-2-1.37-2.06,0Z" fill="#1e0a32"/><path d="M610.38,603.89v6.94a1,1,0,0,0,2.06,0v-6.94a1,1,0,0,0-2.06,0Z" fill="#1e0a32"/><path d="M627.43,604.92a21.15,21.15,0,0,1,.27,5.5c-.14,1.3,1.92,1.3,2.06,0a19.76,19.76,0,0,0-.34-6c-.28-1.31-2.27-.76-2,.55Z" fill="#1e0a32"/><path d="M645.85,603.89a19.86,19.86,0,0,0,.27,5.7c.28,1.31,2.27.76,2-.55a15.93,15.93,0,0,1-.21-5.15c.14-1.31-1.93-1.31-2.06,0Z" fill="#1e0a32"/><path d="M663.58,603.54v5a1,1,0,0,0,2.06,0v-5a1,1,0,0,0-2.06,0Z" fill="#1e0a32"/><path d="M618.42,613.92a58,58,0,0,1-.14,8.53c-.13,1.3,1.93,1.3,2.07,0a50.52,50.52,0,0,0,.13-8.53c-.07-1.3-2.13-1.3-2.06,0Z" fill="#1e0a32"/><path d="M623,613.92a77.22,77.22,0,0,1,.13,8.87c-.06,1.31,2,1.31,2.07,0a77.23,77.23,0,0,0-.14-8.87c-.14-1.3-2.2-1.3-2.06,0Z" fill="#1e0a32"/><path d="M636.64,612.76c-.14,3.43-.35,6.94-.49,10.37-.06,1.31,2,1.31,2.07,0,.13-3.43.34-6.94.48-10.37.07-1.31-2-1.31-2.06,0Z" fill="#1e0a32"/><path d="M640.14,613.51a47.86,47.86,0,0,1,.28,8.87c-.07,1.3,2,1.3,2.06,0a47.86,47.86,0,0,0-.28-8.87c-.13-1.3-2.2-1.3-2.06,0Z" fill="#1e0a32"/><path d="M655.88,613.17a44.11,44.11,0,0,0,.41,9.48c.21,1.31,2.2.76,2-.55a50,50,0,0,1-.35-9c.07-1.24-2-1.24-2.06.07Z" fill="#1e0a32"/><path d="M673.48,613.17c.27,2.68.55,5.36.82,8.11.14,1.3,2.2,1.3,2.07,0-.28-2.68-.55-5.36-.83-8.11-.14-1.31-2.2-1.31-2.06,0Z" fill="#1e0a32"/><path d="M680.08,614.34a23.92,23.92,0,0,1-.14,5.49c-.21,1.31,1.79,1.86,2,.55a21.86,21.86,0,0,0,.21-6c-.14-1.31-2.2-1.38-2.06,0Z" fill="#1e0a32"/><path d="M587.63,625.13v8.11a1,1,0,0,0,2.06,0v-8.11a1,1,0,1,0-2.06,0Z" fill="#1e0a32"/><path d="M592.23,624.72c.28,2.81.48,5.63.76,8.45.14,1.31,2.2,1.31,2.06,0-.27-2.82-.48-5.64-.76-8.45-.06-1.31-2.13-1.31-2.06,0Z" fill="#1e0a32"/><path d="M602.82,624c.2,2.47.41,4.88.62,7.35.13,1.31,2.2,1.31,2.06,0-.21-2.47-.41-4.88-.62-7.35-.14-1.31-2.2-1.38-2.06,0Z" fill="#1e0a32"/><path d="M612.78,624.37c.35,2.82.76,5.64,1.1,8.46.21,1.3,2.27,1.3,2.07,0-.35-2.82-.76-5.64-1.1-8.46-.14-1.3-2.2-1.3-2.07,0Z" fill="#1e0a32"/><path d="M645.85,624.72v10a1,1,0,0,0,2.06,0v-10a1,1,0,0,0-2.06,0Z" fill="#1e0a32"/><path d="M662,624v8.45a1,1,0,0,0,2.06,0V624a1,1,0,0,0-2.06,0Z" fill="#1e0a32"/><path d="M600,636.19a21.24,21.24,0,0,1-.07,7.5c-.21,1.3,1.72,1.85,2,.55a24.13,24.13,0,0,0,.07-8.6c-.27-1.3-2.2-.75-2,.55Z" fill="#1e0a32"/><path d="M605,637c.13,2.34.34,4.6.48,6.94.07,1.31,2.13,1.31,2.06,0-.14-2.34-.34-4.6-.48-6.94-.14-1.31-2.2-1.31-2.06,0Z" fill="#1e0a32"/><path d="M624.68,636.26a38.15,38.15,0,0,0,.48,8.39c.2,1.3,2.2.75,2-.55a37.26,37.26,0,0,1-.41-7.84c.07-1.3-2-1.3-2.06,0Z" fill="#1e0a32"/><path d="M630.31,636.68c.14,2.33.28,4.6.48,6.94.07,1.3,2.13,1.3,2.07,0-.14-2.34-.28-4.61-.49-6.94-.06-1.31-2.13-1.31-2.06,0Z" fill="#1e0a32"/><path d="M634.78,637c.14,1.65.27,3.37.48,5,.14,1.3,2.2,1.3,2.06,0-.13-1.65-.27-3.37-.48-5-.07-1.31-2.13-1.31-2.06,0Z" fill="#1e0a32"/><path d="M653.2,635.51c.21,2.82.41,5.63.62,8.52.07,1.31,2.13,1.31,2.06,0-.2-2.82-.41-5.64-.62-8.52-.13-1.31-2.2-1.31-2.06,0Z" fill="#1e0a32"/><path d="M666.12,635.92c.14,2.34.28,4.6.49,6.94.06,1.31,2.13,1.31,2.06,0-.14-2.34-.28-4.6-.48-6.94-.07-1.31-2.13-1.38-2.07,0Z" fill="#1e0a32"/><path d="M676.57,636a31.74,31.74,0,0,0-.27,7.22c.13,1.3,2.2,1.3,2.06,0a26.52,26.52,0,0,1,.21-6.67c.2-1.31-1.79-1.86-2-.55Z" fill="#1e0a32"/><path d="M586.87,645.82a110.62,110.62,0,0,1,1,11.68c.07,1.31,2.13,1.31,2.06,0a101.77,101.77,0,0,0-1.1-12.23c-.13-1.31-2.13-.76-2,.55Z" fill="#1e0a32"/><path d="M593.13,645.89a32.48,32.48,0,0,0,.61,10.31c.28,1.3,2.27.75,2-.55a30.76,30.76,0,0,1-.55-9.76c.14-1.31-1.93-1.31-2.06,0Z" fill="#1e0a32"/><path d="M609.14,645.54a98.26,98.26,0,0,1,.48,10,1,1,0,0,0,2.06,0,96.4,96.4,0,0,0-.48-10c-.13-1.3-2.2-1.3-2.06,0Z" fill="#1e0a32"/><path d="M637.67,644.79a92.81,92.81,0,0,1,.48,11.54,1,1,0,0,0,2.06,0,92.81,92.81,0,0,0-.48-11.54c-.14-1.31-2.2-1.38-2.06,0Z" fill="#1e0a32"/><path d="M643.17,646.71a31.22,31.22,0,0,0,.75,9.14c.28,1.31,2.27.76,2-.55a29.88,29.88,0,0,1-.69-8.59c.07-1.37-2-1.37-2.06,0Z" fill="#1e0a32"/><path d="M649.35,645.89a58,58,0,0,0,.35,10.38c.13,1.3,2.2,1.3,2.06,0a53.06,53.06,0,0,1-.35-10.38c.07-1.31-2-1.31-2.06,0Z" fill="#1e0a32"/><path d="M668.46,646.3c.14,3,.34,5.91.48,8.87.07,1.3,2.13,1.3,2.06,0-.13-3-.34-5.92-.48-8.87-.07-1.31-2.13-1.31-2.06,0Z" fill="#1e0a32"/><path d="M602.27,659v10.38a1,1,0,0,0,2.06,0V659a1,1,0,0,0-2.06,0Z" fill="#1e0a32"/><path d="M617.8,658.6a70.73,70.73,0,0,1,.21,10.79c-.07,1.31,2,1.31,2.06,0a69.47,69.47,0,0,0-.21-10.79c-.13-1.3-2.2-1.3-2.06,0Z" fill="#1e0a32"/><path d="M627.36,659a56.14,56.14,0,0,0,.27,9.63c.14,1.3,2.2,1.3,2.06,0a56.34,56.34,0,0,1-.27-9.63c.07-1.3-2-1.3-2.06,0Z" fill="#1e0a32"/><path d="M655.74,659c.14,3.37.35,6.67.49,10,.06,1.31,2.13,1.31,2.06,0-.14-3.37-.35-6.67-.48-10-.07-1.3-2.13-1.3-2.07,0Z" fill="#1e0a32"/><path d="M662.55,660.46a24.22,24.22,0,0,1-.07,8.32c-.27,1.3,1.72,1.85,2,.55a25.5,25.5,0,0,0,.07-9.42c-.27-1.31-2.27-.76-2,.55Z" fill="#1e0a32"/></g><g id="flying_coins" data-name="flying coins"><path d="M114.85,48.22c-1.3,8,2.27,15.6,7,21.86s11.34,11.48,19.38,12.65c1.31.2,1.86-1.79.55-2-6.94-1-12.72-5.08-17.12-10.38-4.88-5.91-9.14-13.61-7.83-21.51.2-1.38-1.79-1.93-2-.62Z" fill="#1e0a32"/><path d="M116.64,48.22a16.3,16.3,0,0,1,6.74-3c1.3-.27.75-2.26-.55-2a18.43,18.43,0,0,0-7.63,3.51c-1,.89.41,2.33,1.44,1.51Z" fill="#1e0a32"/><path d="M123.72,45.33c6.12,1.65,11.69,8.8,15.19,13.75a59.79,59.79,0,0,1,8.25,16.84c.41,1.24,2.41.76,2-.55a60.69,60.69,0,0,0-9.76-19.11c-3.71-4.88-9-11.27-15.12-12.92a1,1,0,0,0-.55,2Z" fill="#1e0a32"/><path d="M141.66,82.86a20.19,20.19,0,0,0,6.81-5.5c.82-1-.62-2.47-1.45-1.44a18.45,18.45,0,0,1-6.32,5.16c-1.31.61-.21,2.33,1,1.78Z" fill="#1e0a32"/><path d="M119.87,45.47c-.2,7.9,4.2,15.81,8.87,21.93,4.4,5.77,10.58,10.17,18.15,10a1,1,0,0,0,0-2.06c-7.63.14-13.55-4.81-17.67-10.79-3.78-5.57-7.42-12.17-7.29-19.11a1,1,0,0,0-2.06,0Z" fill="#1e0a32"/><path d="M117.67,57.64a12,12,0,0,1,3.71-3c1.17-.55.14-2.34-1-1.79a11.92,11.92,0,0,0-4.12,3.23c-.83,1,.62,2.55,1.44,1.52Z" fill="#1e0a32"/><path d="M116.57,53a11.94,11.94,0,0,1,4.2-2.06,1,1,0,0,0-.55-2,15.57,15.57,0,0,0-4.68,2.26c-1,.76-.07,2.55,1,1.79Z" fill="#1e0a32"/><path d="M123.86,70.35c1.44-1.17,3-2.33,4.4-3.5,1-.83-.41-2.27-1.45-1.45-1.44,1.17-3,2.34-4.39,3.51-1.1.82.41,2.27,1.44,1.44Z" fill="#1e0a32"/><path d="M128,74.89l3.51-2.68a1.05,1.05,0,0,0-1.1-1.79l-3.51,2.68a1.1,1.1,0,0,0-.34,1.45,1.08,1.08,0,0,0,1.44.34Z" fill="#1e0a32"/><path d="M135.27,80c1.17-1.16,2.41-2.26,3.57-3.43,1-.9-.48-2.41-1.44-1.45-1.17,1.17-2.41,2.27-3.57,3.44-1,.89.48,2.41,1.44,1.44Z" fill="#1e0a32"/><path d="M124.07,49.73c1.3,1.17,2.54,2.41,3.84,3.58a8.85,8.85,0,0,1-.13-1.24c-1.38,2.2-2.13,5-.28,7.22a4.73,4.73,0,0,0,2.61,1.58,9.08,9.08,0,0,0,1.38,0c.34-.07.62-.21,1-.28,3.78-.62,4.47.83,2,4.26-1.23.48-.68,2.48.55,2,2.55-1,4.33-3.78,2.82-6.4a4.47,4.47,0,0,0-3.5-2.2,11.73,11.73,0,0,0-1.45.07c-1.65.9-3.09.21-4.33-1.92a5.49,5.49,0,0,1,1.1-3.09,1.16,1.16,0,0,0-.13-1.24c-1.31-1.17-2.55-2.41-3.85-3.58-1.1-1.1-2.55.35-1.58,1.24Z" fill="#1e0a32"/><path d="M136.09,66.3l3.44,4c.83,1,2.34-.48,1.44-1.44l-3.43-4.06c-.83-1-2.27.48-1.45,1.45Z" fill="#1e0a32"/><path d="M182,34.27c-6-4.75-9.76-18.22-4.67-24.61,6-7.36,17.87-10.52,24.54-2.68,5.56,6.53,5.91,16.77,1.71,24.12a12.33,12.33,0,0,1-11.41,6.67,15.73,15.73,0,0,1-11.82-5c-.89-1-2.34.48-1.44,1.45,5,5.36,14,7.35,20.69,3.91,6.94-3.64,9.55-13.54,8.73-20.75S203,2.3,195.48.38c-7.28-1.86-18.08,3.37-21.31,10.17-2,4.19-1.23,9.21-.2,13.61s2.82,8.59,6.46,11.41c1.1,1,2.61-.48,1.58-1.3Z" fill="#1e0a32"/><path d="M187.78,8.42c0-.07-.06-.21-.06-.27-.14.41-.35.75-.49,1.16-.61-.2-.68-.13-.27.42a11.37,11.37,0,0,1,1,2.13c.21-.42.48-.83.69-1.24-2.68.82-6.05,2.68-5.09,6.05a3.18,3.18,0,0,0,2,2.27c.82.34,1.3,0,2.13-.07a3.22,3.22,0,0,1,3.78.69c1,3,.2,4.53-2.55,4.74a1.07,1.07,0,0,0-.89,1.58,23.14,23.14,0,0,1,1.51,3.57c.42,1.24,2.41.76,2-.55a18.07,18.07,0,0,0-1.72-4c-.28.55-.62,1-.9,1.58,3.3-.07,6.47-3.16,5.09-6.6a5.21,5.21,0,0,0-3.71-3.16c-1-.21-1.79.21-2.68.21-1.72,0-2.2-.35-1.31-2s1.31-1.72,2.89-2.2a1,1,0,0,0,.69-1.24c-.48-1.37-1-3.29-2.34-4a1.07,1.07,0,0,0-1,0c-.07.07-.21.14-.28.2a1.12,1.12,0,0,0-.48,1.17c0,.07.07.21.07.28.28,1.1,2.27.55,2-.69Z" fill="#1e0a32"/><path d="M194.25,2.58c10.44-2.68,15.87,8.59,16.08,17.18.07,3.92-.28,8.32-2.61,11.62-2.55,3.57-7.08,4.67-10.86,6.32-1.24.55-.14,2.34,1,1.79,4.54-2,9.48-3.3,12.16-7.91,2.55-4.39,2.75-10.24,2.14-15.19C211.09,7.32,203.87-2,193.76.58a1,1,0,0,0,.49,2Z" fill="#1e0a32"/><path d="M205.72,30.42l2.89-.62c1.31-.28.76-2.27-.55-2l-2.89.62c-1.3.28-.75,2.27.55,2Z" fill="#1e0a32"/><path d="M208.2,22.51c1.1-.34,2.2-.69,3.23-1.1,1.24-.41.69-2.4-.55-2s-2.2.69-3.23,1.1c-1.24.41-.69,2.4.55,2Z" fill="#1e0a32"/><path d="M207.51,16.39l2.13-.41a1,1,0,1,0-.55-1.92l-2.13.41a1,1,0,0,0-.69,1.24,1,1,0,0,0,1.24.68Z" fill="#1e0a32"/><path d="M203.39,7.73a7.8,7.8,0,0,0,3.78-.27c1.24-.41.69-2.41-.55-2a5.89,5.89,0,0,1-2.68.28,1,1,0,0,0-1.24.69,1,1,0,0,0,.69,1.3Z" fill="#1e0a32"/><path d="M192,137.78c-9-2.61-14.85-11.41-15-20.62-.2-10.51,8.94-19.52,19.39-14.84,8.79,3.91,12.16,14.22,12.44,23.23.14,4.33-.62,9.55-4.54,12.1s-9.35,1.65-13.68.27c-1.23-.41-1.78,1.58-.55,2,7,2.27,15.88,2.41,19.39-5.43,3.36-7.49,1.23-18.21-2.62-25.09s-12.09-12.3-20.27-9.89c-8.53,2.54-12.38,11.82-11.41,20.07,1,9.28,7.28,17.66,16.36,20.28,1.23.34,1.78-1.65.48-2.07Z" fill="#1e0a32"/><path d="M187.44,107.33a18.37,18.37,0,0,1,3.85,6.12l1.24-1.24c-3.3-.68-5,2.13-4.81,5.16a3.17,3.17,0,0,0,1.3,2.82c.76.41,1.86.13,2.61.13a14.93,14.93,0,0,1,2.41-.06c3.64.27,4.12,1.85,1.51,4.74a1.06,1.06,0,0,0-.89,1.58,51.73,51.73,0,0,1,3.37,6c.55,1.17,2.33.14,1.78-1a64.6,64.6,0,0,0-3.36-6c-.28.55-.62,1-.9,1.58,2.89-.34,5.29-3,3.78-6a5.5,5.5,0,0,0-3.3-2.54,9.33,9.33,0,0,0-3.09-.35l-2.41.21c-1.3-1.58-.82-3,1.52-4.13.68.14,1.58-.48,1.23-1.23a20.05,20.05,0,0,0-4.4-7c-.89-1.17-2.33.27-1.44,1.23Z" fill="#1e0a32"/><path d="M180.29,102.73c-8.87,7.63-11.61,20.76-4.95,30.72a21.32,21.32,0,0,0,29.28,6.19c1.1-.69.07-2.48-1-1.79a19.25,19.25,0,0,1-27-6.32c-5.5-9.21-2.68-20.55,5.22-27.36,1-.82-.48-2.27-1.51-1.44Z" fill="#1e0a32"/><path d="M185.79,101.83a30,30,0,0,0-2.61,13.34c.07,1.79.55,11.75,7.77,18.49,5,4.6,10.17,4.88,10,6.46s-6.73,3.09-12.58,1.65a21.54,21.54,0,0,1-14.57-13.33,21.17,21.17,0,0,1,.35-16.09A20.59,20.59,0,0,1,185.79,101.83Z" fill="#464664" opacity="0.14" style="isolation:isolate"/><path d="M121,45.26a44.33,44.33,0,0,0,2.75,11.28c1.79,4.4,4.88,12.3,12.92,16.84a25.66,25.66,0,0,0,11.28,3.16,11.26,11.26,0,0,1-3.85,4.26,11.65,11.65,0,0,1-3.71,1.51,37.1,37.1,0,0,1-11.48-5.7c-2.82-2.13-9.35-7.15-12.17-16.29A29.65,29.65,0,0,1,115.82,47C117.47,46.36,119.18,45.81,121,45.26Z" fill="#464664" opacity="0.15" style="isolation:isolate"/><path d="M195.41,1.07a20.24,20.24,0,0,1,8.11,7.76c3.51,6,2.75,11.89,2.41,14.78a19.41,19.41,0,0,1-3.71,10.17,16.38,16.38,0,0,1-4.47,4.06,13.64,13.64,0,0,0,8.52-3.51c2.48-2.33,3.24-5,4.06-8a25.53,25.53,0,0,0,.76-9.76A22.8,22.8,0,0,0,208.68,9c-1.31-2.48-3-5.64-6.67-7.22A11.93,11.93,0,0,0,195.41,1.07Z" fill="#464664" opacity="0.14" style="isolation:isolate"/></g><g id="girl_and_the_piggie" data-name="girl and the piggie"><g id="leg_right" data-name="leg right"><path d="M253.63,562.58q-3,22.89-6,45.84-57.42,12.58-56.84,17.4.83,5.86,86.13.48c2.47-20.49,4.88-41,7.35-61.39C274.05,564.16,263.88,563.33,253.63,562.58Z" fill="#1e0a32"/><path d="M336.81,297.73a163.88,163.88,0,0,1,.13,31.35,168.9,168.9,0,0,1-8.86,40.42c-14.64,42.89-21.72,99.18-25,125.85a582.82,582.82,0,0,0-4.33,82.35,51.95,51.95,0,0,1-61.94-8.46,660.64,660.64,0,0,1,7.43-124.82c4.95-31.76,12-63.93,20.14-96.37Q271.58,319,278.86,290C298.11,292.51,317.49,295.12,336.81,297.73Z" fill="#fa1e46"/><path d="M336.12,318.42c-2.27,9-5.91,22.48-10.86,38.57-16.36,52.65-31.07,80-42.14,109.29-9.9,26.12-20.89,64.47-24.06,115.61a47.38,47.38,0,0,0,15,2.27,48.9,48.9,0,0,0,24.06-6.8c.48-33.82,2.68-62.21,5-83.86C305,476,306.84,459,311.3,436.38c5.37-27.22,8.05-40.83,13.61-56.71,3.78-10.59,8.32-21.38,10.45-38.08A161,161,0,0,0,336.12,318.42Z" fill="#464664" opacity="0.13" style="isolation:isolate"/><path d="M309.38,445.86q-7.53,18.47-14.5,38.56a849.6,849.6,0,0,0-28.12,99.74,52.62,52.62,0,0,0,13.61-.48,56.56,56.56,0,0,0,18.15-6.32c-.34-13.68-.21-28.05.48-43.1A597.58,597.58,0,0,1,309.38,445.86Z" fill="#464664" opacity="0.19" style="isolation:isolate"/></g><g id="leg_left" data-name="leg left"><path d="M379.63,559.42c3.5,11.47,7,22.88,10.52,34.36-27.43,19.39-40.28,30.73-38.5,33.89q3.41,6.09,76.51-26.6c-7-19.52-14-39.11-21.11-58.63C398,548.07,388.77,553.71,379.63,559.42Z" fill="#1e0a32"/><path d="M364.44,283.3a169.51,169.51,0,0,1,10.86,29.42,167.21,167.21,0,0,1,5.43,41c.82,45.36,13.4,100.7,19.31,126.82a576.24,576.24,0,0,0,24,78.91,53.26,53.26,0,0,1-29.42,17,51.9,51.9,0,0,1-31.68-3.85,671.85,671.85,0,0,1-35.61-119.87c-6.19-31.55-10.45-64.2-13.95-97.47q-3.11-29.81-6.19-59.53Q335.85,289.46,364.44,283.3Z" fill="#fa1e46"/><path d="M329.73,291.2q13.92,58.26,27.63,116.51,19.8,84,39,168.2a45.76,45.76,0,0,0,10.86-3.64,48.22,48.22,0,0,0,16.29-12.72C418.74,547,413,530.34,407.19,510.61a671,671,0,0,1-18.56-81.18c-3.78-23.23-6.05-37.18-6.8-57.12-.48-13.47.14-20.14-1.79-34a210.66,210.66,0,0,0-9.55-39c-2.34-6.73-4.61-12.3-6.33-16.29Q347,287.15,329.73,291.2Z" fill="#464664" opacity="0.17" style="isolation:isolate"/><path d="M379.15,358.36a900.38,900.38,0,0,0,15.39,170q4.33,23,9.56,44.41a35,35,0,0,0,6.8-2.75,39.68,39.68,0,0,0,12.72-10.45c-7.08-19.86-13.88-41.17-19.93-63.92A823,823,0,0,1,379.15,358.36Z" fill="#464664" opacity="0.15" style="isolation:isolate"/></g><g id="torso"><path d="M286.9,139.71c-9.55,7.7-13.74,17.25-16.22,23-7.77,17.8-6.12,34.09-5.15,42.75,2.47,22.2,10.1,25.85,13.88,46.74,2,11.21,2.75,26-1.58,44.41,3,2.61,25.71,22.06,55.88,16.22a64,64,0,0,0,33.68-18.63,730.14,730.14,0,0,0-4-107.78c-3.51-31.27-7.15-44.68-18.63-52.45C328.69,123.07,302.71,127,286.9,139.71Z" fill="#fff" stroke="#1e0a32" stroke-miterlimit="10" stroke-width="2"/><path d="M319.35,126.65a215.19,215.19,0,0,1,14,35.81,213.29,213.29,0,0,1,7.7,80.7,207.52,207.52,0,0,1-20.42,70.73,60.91,60.91,0,0,0,18.15-2.27,62.19,62.19,0,0,0,28.11-17.25c.62-23.72.41-43.65,0-58.5,0,0-.55-21.79-4.53-57.6-2.75-24.88-4.68-33-11.35-39.94C341.27,128.3,327.11,126.79,319.35,126.65Z" fill="#464664" opacity="0.14" style="isolation:isolate"/><path d="M358.8,159.3c-1.17.07.28,17.59-1.37,50.31-2.13,42.35-7,59.74-8.6,65.3a185.23,185.23,0,0,1-15,36.3,47.24,47.24,0,0,0,14-3.17,48.45,48.45,0,0,0,19.52-14.5c.42-13.68.62-33.75-.48-58C365.13,196.21,360.45,159.16,358.8,159.3Z" fill="#464664" opacity="0.17" style="isolation:isolate"/></g><g id="piggie"><path d="M272.81,188.17a40.76,40.76,0,0,0-9.14,13.54,42.63,42.63,0,0,0-3.16,17.11c0,9.08,2.47,15.61,5.15,22.89a99.17,99.17,0,0,0,10.18,19.87,18.23,18.23,0,0,0,4.74.82,15.89,15.89,0,0,0,4.6-.62c-.68-4.33-1.3-8.59-2-12.92,1.17.28,3,.62,5.16,1a79.72,79.72,0,0,0,23.85-.2c2.33-.35,5.63-.83,9.55-1.79-.34,2.61-.69,5.16-1,7.77,3.78,2.13,5.43,1.3,6,1,1.1-.69,1.24-1.92,2.61-6.19.62-2,1.24-3.57,1.58-4.6,1.52-.62,3-1.17,4.61-1.79-.41,1.45-.83,2.89-1.17,4.4a12.93,12.93,0,0,0,8.52-.76c.9-3.23,1.86-6.46,2.75-9.76a16.82,16.82,0,0,1,6.95-4.74c2.06-.75,2.74-.48,4.39-1.37a10.89,10.89,0,0,0,4.75-6.4,10.77,10.77,0,0,0-.42-7.56c-.89-1.85-1.51-1.58-3.36-4.4-1.58-2.33-1.52-3.16-3-5.77a33.62,33.62,0,0,0-3.78-5.16c1.31-3.84,2.47-5.63,3.37-6.53a2.44,2.44,0,0,0,.82-1.58c0-.68-.62-1.3-1.58-2-2.33-1.65-3.78-2.61-5.77-2.41a7.12,7.12,0,0,0-4.4,2.75,40.07,40.07,0,0,0-4.74-6.53A40.71,40.71,0,0,0,320,174.63c-13.81-3.85-25.63,1.23-32.78,4.4A42.68,42.68,0,0,0,272.81,188.17Z" fill="#fff"/><path d="M266.08,240.61c-4.13-11.13-5.78-23.44-2.34-35a38.46,38.46,0,0,1,21-24.34c10.45-4.81,23.1-8.31,34.44-5.43a37.66,37.66,0,0,1,23.44,17.94c.62,1.17,2.4.14,1.79-1a39.59,39.59,0,0,0-42.62-19.11c-9.49,1.93-19.8,5.3-27.29,11.55a42.32,42.32,0,0,0-13.47,22.48c-2.61,11.2-1,22.82,3,33.47.48,1.17,2.48.69,2-.55Z" fill="#1e0a32"/><path d="M325.19,214.08c-.28-2.82-.14-9.9,3.64-10.45,2.34-.34,3.85,2.68,6.46,2.48,1.31-.14,1.31-2.2,0-2.06-1.78.2-3-1.65-4.6-2.34a3.89,3.89,0,0,0-4.19.69c-3.17,2.61-3.65,7.9-3.3,11.68.06,1.31,2.13,1.31,2,0Z" fill="#1e0a32"/><path d="M333.78,204.39c3.92-1.65,6.46,2.61,2.75,4.67a26.79,26.79,0,0,1-4.12,1.58c-2.75,1-5.57,1.93-8.32,2.89-1.24.41-.69,2.41.55,2,3.57-1.23,7.22-2.4,10.79-3.78,1.86-.68,4.06-1.65,4.88-3.64,2-4.88-3.85-7.08-7.49-5.5-1.24.48-.21,2.27,1,1.79Z" fill="#1e0a32"/><path d="M345.47,190.37c-1.86,1.1-4,2.82-3.44,5.29a3.24,3.24,0,0,0,1.86,2.27,27.78,27.78,0,0,1,4.26,2.2c1,.82,2.47-.62,1.44-1.45a18.36,18.36,0,0,0-3.92-2.26c-1-.49-1.92-1-1.37-2.27a5,5,0,0,1,2.27-2,1,1,0,0,0-1.1-1.78Z" fill="#1e0a32"/><path d="M344,197.31c-.55,3.5,1.79,7.56,5.85,6.74a5,5,0,0,0,3.36-3c.76-1.72.9-4.12,2.62-5.15,1.1-.69.06-2.48-1-1.79-1.78,1.1-2.33,2.89-2.95,4.74-.41,1.24-.89,2.75-2.27,3.16-2.47.76-3.92-2.06-3.57-4.12.13-1.31-1.86-1.93-2-.55Z" fill="#1e0a32"/><path d="M345.54,192.84c2.95-3.23,6.94.07,9.07,2.41.89,1,2.34-.48,1.44-1.45-2.95-3.23-8.25-6.53-12-2.4-.89,1,.55,2.4,1.45,1.44Z" fill="#1e0a32"/><path d="M342.24,215.11h0a.15.15,0,0,1-.14-.14h0c-.07-.06-.07-.13,0-.06v-.07h0v-.21h0c-.14.07.14,0-.07.07h.14c.07,0,.07,0,.13.07s-.06,0,0,0,.14.07,0,0c.07.07.07.14,0,.07v-.07c-.06.14,0,.14,0,0-.06.07-.06.14,0,0l-.13.14c.13-.14-.14.06,0,0-.07,0-.14.06-.21.06h0c.07.07.07,0,0,0a1,1,0,0,0-1,1.79,2.29,2.29,0,0,0,3.16-.89,2.1,2.1,0,0,0-1.37-3,2.25,2.25,0,0,0-2.82,1.52,2.37,2.37,0,0,0,1.65,2.81c1.44.28,2-1.71.69-2.06Z" fill="#1e0a32"/><path d="M351.79,209.2a.64.64,0,0,1,.34.28c-.06-.14.07.2,0,.06v.07c0-.2-.06.28,0,0s-.13.21,0,0-.13.14-.06.07a.43.43,0,0,1-.49.14,1.05,1.05,0,0,1-.27-.21h0c0-.07-.07-.07-.07-.13.07.2,0-.28,0-.07s.07-.21,0,0,.07-.14,0-.07,0,0,.07-.07h0a.26.26,0,0,1,.21-.07c-.14.07.2,0,.27,0a1,1,0,1,0-.55,1.93,1.75,1.75,0,0,0,.89-3.37,1.65,1.65,0,0,0-2,1.23,1.74,1.74,0,0,0,1.1,2.14,1.05,1.05,0,0,0,1.24-.69,1,1,0,0,0-.69-1.24Z" fill="#1e0a32"/><path d="M350.69,203a18.81,18.81,0,0,1,4.33,9.14c.28,1.3,2.27.75,2-.55a21.06,21.06,0,0,0-4.88-10c-.89-1-2.33.48-1.44,1.45Z" fill="#1e0a32"/><path d="M355.71,213.39a6.9,6.9,0,0,0,3.23,1.72c1.31.28,1.85-1.72.55-2a5.09,5.09,0,0,1-2.34-1.17,1,1,0,1,0-1.44,1.44Z" fill="#1e0a32"/><path d="M359.15,213.74a12.38,12.38,0,0,0-10.8,8c-1.44,4.06-.89,10,3.92,11.48,4.19,1.24,8-1.79,9.56-5.57s2-11.27-2.13-13.68a1,1,0,0,0-1,1.79c2.82,1.65,2.27,7.9,1.45,10.52-1,3.09-3.78,6.05-7.29,4.88-4.05-1.38-3.57-6.88-2-10a10.45,10.45,0,0,1,8.25-5.36c1.37-.21,1.44-2.27.07-2.13Z" fill="#1e0a32"/><path d="M354.06,224.87v-.41a1,1,0,0,0-2.06,0v.41a1.06,1.06,0,0,0,1,1,1,1,0,0,0,1-1Z" fill="#1e0a32"/><path d="M359.56,221.09a1.82,1.82,0,0,1-.35-.41,1,1,0,0,0-1.44,1.44,1.57,1.57,0,0,1,.34.42,1,1,0,0,0,1.45,0,1.08,1.08,0,0,0,0-1.45Z" fill="#1e0a32"/><path d="M336.32,223.43a3.12,3.12,0,0,0,4.75-.41,1.09,1.09,0,0,0-.35-1.45,1.15,1.15,0,0,0-1.44.35,1,1,0,0,1-1.51-.07c-.83-.9-2.34.62-1.45,1.58Z" fill="#1e0a32"/><path d="M338.59,223.64a7.89,7.89,0,0,0,10.79,4.53c1.17-.55.14-2.33-1-1.78a5.87,5.87,0,0,1-7.76-3.3c-.48-1.24-2.48-.76-2,.55Z" fill="#1e0a32"/><path d="M352,231.61c-2.34,1.86-4.75,3.71-7.08,5.57-1,.82.41,2.27,1.44,1.44,2.34-1.86,4.74-3.71,7.08-5.57,1.1-.75-.41-2.2-1.44-1.44Z" fill="#1e0a32"/><path d="M344.57,238.07a60.17,60.17,0,0,0-2.88,9.69c-.28,1.31,1.71,1.86,2,.55a60.21,60.21,0,0,1,2.89-9.69c.48-1.24-1.52-1.79-2-.55Z" fill="#1e0a32"/><path d="M263.53,238.76A57,57,0,0,0,272,258.07c1.17,1.72,2.54,4.13,4.53,4.95,2.55,1.1,6.05.21,8.66-.2a1,1,0,0,0,.76-1A116.28,116.28,0,0,0,284,249c-.28-1.31-2.27-.76-2,.55a104.5,104.5,0,0,1,1.93,12.3c.27-.34.48-.68.75-1-2.95.48-6.32,1.24-8.73-1-1.85-1.72-3.43-4.68-4.67-6.87a55,55,0,0,1-5.77-14.85c-.28-1.31-2.27-.76-1.93.55Z" fill="#1e0a32"/><path d="M283.74,249.82a83.59,83.59,0,0,0,19.87,2c5.63-.14,13.06-.28,18-3.16a1,1,0,0,0-1-1.79c-5,2.89-12.64,2.82-18.28,2.89a80.71,80.71,0,0,1-18.08-1.93c-1.24-.27-1.79,1.72-.48,2Z" fill="#1e0a32"/><path d="M320.93,244.6a65.8,65.8,0,0,0-1.31,9.69c-.07,2.06,1,3.16,3.09,3.23,1.72.07,5.16-.07,6.19-1.58.83-1.3,1-3.57,1.44-5,.49-1.65,1-3.36,1.52-5,.41-1.31-1.58-1.79-2-.55-1,3.36-2,6.66-2.95,10l.68-.69a11.67,11.67,0,0,1-3.78.76c-2.06-.07-2.2-1.17-2-2.89.28-2.47.62-4.95,1.1-7.42.21-1.31-1.79-1.86-2-.55Z" fill="#1e0a32"/><path d="M330.55,246.73a18.64,18.64,0,0,0,8.94-5.29c.89-1-.55-2.41-1.45-1.45a16.59,16.59,0,0,1-8,4.75,1,1,0,0,0,.55,2Z" fill="#1e0a32"/><path d="M333.92,243.91a13.82,13.82,0,0,0-.83,5.23,1.06,1.06,0,0,0,1,1,38.36,38.36,0,0,0,6.81-.69c1.31-.27.76-2.2-.55-2a38.15,38.15,0,0,1-6.25.62l1,1a11.91,11.91,0,0,1,.68-4.68c.55-1.23-1.44-1.78-1.92-.55Z" fill="#1e0a32"/><path d="M282.78,189.34a86.13,86.13,0,0,1,27.84-5.85c1.3-.07,1.3-2.13,0-2.06a85.49,85.49,0,0,0-28.39,5.91c-1.24.48-.69,2.48.55,2Z" fill="#1e0a32"/><path d="M283.26,186.86l-.14-.14a7.6,7.6,0,0,1,.14,1.24c.82-1.92,5.09-2.34,6.87-2.68q3.51-.72,7-1.24c5.23-.82,10.52-1.37,15.75-1.72,1.3-.06,1.3-2.13,0-2.06a182.8,182.8,0,0,0-18.22,2.13c-3.16.55-11.69,1-13.2,4.54a1.06,1.06,0,0,0,.14,1.24l.14.13c1,.9,2.47-.55,1.51-1.44Z" fill="#1e0a32"/><path d="M342.1,190.64c-.28,7.49-2.61,11.41-4.81,13.54-1.17,1.17-1.65,1.17-6.12,4.81-6.32,5.09-6.74,6.19-6.94,6.95-.76,3.64,3.16,5.29,3.43,9.55.35,4.88-4.4,9-6.94,11.14-12.72,10.93-38.56,8.66-42.82,8.25,1,5.77,1.92,11.54,3,17.25,1.24.34,3,.62,3.72-.28s.27-2.2-.28-5c-.76-4-1.1-6-.55-6.95,1.51-2.33,8-.13,13.54.83,5.29.89,13.06,1.1,23.17-2.13.2,2.33.34,4.6.55,6.94h6.94c.82-3,1.58-6.05,2.4-9.07,1.59-.9,3.17-1.79,4.82-2.68-.35,1.78-.69,3.57-1,5.29,2.47-.07,4.94-.21,7.42-.28a19,19,0,0,1,3.44-10.1,14.09,14.09,0,0,1,6.11-5.29c2.07-.83,2.68-.35,4.81-1.31a12,12,0,0,0,5.3-4.81c1.65-2.82,2.61-7.36.55-10.38-1.1-1.58-1.79-1-3.71-3-2.14-2.2-1.65-3.36-4.27-8.24-1.78-3.37-2.4-3.51-2.4-4.82.14-3.3,4.33-4.33,4-6.66-.34-2.82-6.8-3.92-7.14-4A17.93,17.93,0,0,0,342.1,190.64Z" fill="#464664" opacity="0.12" style="isolation:isolate"/><path d="M340.24,206.59a13.51,13.51,0,0,1-2.95,6.39c-1.1,1.31-2.48,2.89-4.81,3.16a6.72,6.72,0,0,1-5-1.58C331.79,211.88,336,209.27,340.24,206.59Z" fill="#464664" opacity="0.14" style="isolation:isolate"/></g><g id="hand_left" data-name="hand left"><path d="M328.56,243.64a4.73,4.73,0,0,0-2.41,4.12c.35,3.23,6.6,4.75,6.39,5.43s-4.67-1.3-9.41.41c-.76.28-3.23,1.17-3.44,2.75-.14,1.24,1.24,1.59,1.58,3.58.28,1.37-.34,1.51-.41,4-.07,1.65-.07,2.68.55,3.71.82,1.3,1.79,1,2.54,2.27.9,1.44-.27,2.33.41,4.12a6.28,6.28,0,0,0,4.27,3.44c1.78.48,2.75-.14,3.3.55.82,1-1.1,2.81-.42,4.53.62,1.52,2.89,1.93,3.71,2,5.71.41,10.73-12.65,11-13.41a30.5,30.5,0,0,0,7.43-.89c6.39-1.65,10.44-5.29,15.39-9.69a58.27,58.27,0,0,0,9-9.69c4.47-6.19,6.46-11.69,8.25-16.57a72.78,72.78,0,0,0,4.4-19.38c.61-8.94-.76-15.61-2-21.45a90.45,90.45,0,0,0-10-26.39c-.21-.35-4.34-5.71-12.58-16.43-4.2-5.43-8-10.18-12.44-10a4.57,4.57,0,0,0-2.41.69c-3.23,1.85-3.51,7.21-3.3,12.16a82.6,82.6,0,0,0,6.74,29.42c4.88,10,8.79,12.65,10.58,22a48.88,48.88,0,0,1,.9,10.31,41.93,41.93,0,0,1-2,13.82,32.46,32.46,0,0,1-9.69,15c-3.85,3.23-6.6,5.57-10.1,5.16-4.88-.55-8.94-6.05-13.68-6.12A4.29,4.29,0,0,0,328.56,243.64Z" fill="#fff"/><path d="M351.1,140.74a81.29,81.29,0,0,1,35.54,47.7A75.12,75.12,0,0,1,375.37,252c-6.53,9.21-16.09,18.14-28.12,17.66-1.3-.07-1.3,2,0,2.06,10.25.42,18.84-5.56,25.37-12.92a76.48,76.48,0,0,0,16.22-29.56c6.19-22.2,1.37-46.88-11.41-65.92A83.3,83.3,0,0,0,352.2,139a1,1,0,1,0-1.1,1.72Z" fill="#1e0a32"/><path d="M363.61,228.17c-3.71,8.87-9.55,18.15-19.79,19.87-1.31.2-.76,2.2.55,2,10.93-1.86,17.18-11.82,21.17-21.31.55-1.17-1.45-1.72-1.93-.55Z" fill="#1e0a32"/><path d="M344.23,247.9c-4.67-.83-12.79-9.28-17.53-4.61-1.72,1.72-1.51,4.61-.48,6.6,1.51,3,4.81,4,7.77,4.75a1,1,0,0,0,.55-2c-2.61-.62-5.78-1.44-6.74-4.33a2.06,2.06,0,0,1,.55-2.75c.41-1.44,1.38-1.92,2.89-1.3a11.4,11.4,0,0,1,3.09,1.17c3.16,1.58,5.78,3.84,9.35,4.46,1.31.28,1.86-1.72.55-2Z" fill="#1e0a32"/><path d="M346.15,270c-2.26,3.3-4.46,6.67-6.73,10a17,17,0,0,1-1.72,2.2,5.33,5.33,0,0,1-2.41,1.65c-1-1.44-1.85-2.89-2.81-4.33.41-1.24,3.29-2.89,4.26-3.78s-.48-2.34-1.45-1.45c-2,1.79-5.63,3.79-5.77,6.81a4.88,4.88,0,0,0,4,4.88c2.81.41,5.08-1.51,6.66-3.57,2.82-3.58,5.16-7.57,7.77-11.35.76-1.1-1-2.13-1.79-1Z" fill="#1e0a32"/><path d="M334.06,252.57c-4,1.17-8.05.21-12,.9-2.06.34-3.85,1.44-3.65,3.78.69,6.6,9.76,5.57,14.1,4.6,1.3-.27.75-2.26-.55-2a20.8,20.8,0,0,1-6.12.76c-2.61-.21-8.25-3.51-2.82-5.23,1.86-.55,4.33-.07,6.19-.14a18.21,18.21,0,0,0,5.43-.75,1,1,0,1,0-.55-1.93Z" fill="#1e0a32"/><path d="M321.89,260.2a6,6,0,0,0-.41,9.28c3.43,2.82,8.66,1,12.16-.68,1.17-.62.14-2.41-1-1.79-2.27,1.17-5.29,2.34-7.9,1.72-3-.62-4.54-4.81-1.72-6.74,1-.76,0-2.54-1.1-1.79Z" fill="#1e0a32"/><path d="M323.13,270a6.82,6.82,0,0,0,2.61,7.5c2.95,2.06,6.67,1,9.35-1,1-.82,0-2.61-1-1.78-1.93,1.44-4.54,2.68-6.81,1.3a4.68,4.68,0,0,1-2.06-5.43c.34-1.23-1.65-1.78-2.06-.55Z" fill="#1e0a32"/><path d="M352.2,137.92c-8.8,12.51-5.77,28.53-.13,41.59,7.08,16.42,19,32.92,15.39,51.76-.27,1.3,1.72,1.85,2,.55,3.16-16.43-5-31.42-12-45.65S343.68,153.59,354,139c.76-1.1-1-2.13-1.79-1Z" fill="#1e0a32"/><path d="M365.54,208.65a147.33,147.33,0,0,1-2.68,21.86c-.28,1.31,1.72,1.86,2,.55a153.45,153.45,0,0,0,2.75-22.41c.07-1.31-2-1.31-2.06,0Z" fill="#1e0a32"/><path d="M364.23,149.61A114.64,114.64,0,0,1,374.4,178.2a112,112,0,0,1,1.86,35.06c-1.44,13.47-2.68,25.09-11.41,36.56-3.64,4.88-11.07,14.65-23.37,17.88-8.39,2.13-16.84.68-17.87,4-.48,1.72,1.1,3.92,2.75,4.95a7.19,7.19,0,0,0,7.7-.62c-2.48,1.72-3.65,4.13-3.1,5.85a4.12,4.12,0,0,0,3.37,2.47c5.64.76,11.27-12.23,11.69-13.2a27.93,27.93,0,0,0,9.21-1.23c7.7-2.34,12.37-7.5,17.53-13.2a68.51,68.51,0,0,0,9.55-13.2c9.14-16.7,8.39-33.47,8-39.66a78.8,78.8,0,0,0-12-37.81A68.4,68.4,0,0,0,364.23,149.61Z" fill="#464664" opacity="0.12" style="isolation:isolate"/><path d="M390.7,208.31a124.16,124.16,0,0,1-12.31,26.74,125.51,125.51,0,0,1-31.69,34.78,32.08,32.08,0,0,0,9.56-.9c13.06-3.43,20-14.84,22.75-19.38,3.57-5.91,4.95-10.86,7.35-19.38A137.79,137.79,0,0,0,390.7,208.31Z" fill="#464664" opacity="0.11" style="isolation:isolate"/></g><g id="hand_right" data-name="hand right"><path d="M281.75,143.35c-1.1-1.31-10.11,4.54-16.22,9.14-7.43,5.57-13.82,10.38-19.94,19.11A69.28,69.28,0,0,0,234.18,199a72.21,72.21,0,0,0,1.72,31.34c3.57,12.86,9.62,20.62,17.12,30.25,4.81,6.25,8.52,9.69,13.67,12a29.16,29.16,0,0,0,12,2.54q2.28,3.3,5.16,7.42a28.2,28.2,0,0,0,4.26,5.16c1.58,1.44,4.06,3.57,6,2.82,1-.35,1.58-1.45,2.54-3.16s.76-2.13,1.45-2.82c1.44-1.51,2.95-.55,4.88-1.72s1-2.89,3.44-6.26c1.85-2.61,2.88-2.4,3.43-4.26.55-2.06-.69-2.75-.27-5.43s1.92-3.57,1.44-4.53-2.68-.62-5.7-.55c-5.5.06-10.25-1.31-10.25-2s4.88-.07,7.43-3.16c1.44-1.79,2.06-4.81.82-6.25-1.44-1.79-5.22-.9-10,.27-6.4,1.58-6.74,2.89-9.42,3.16-8.25.76-15.67-11.06-18.22-15.12A51.3,51.3,0,0,1,258.51,219c-1.51-10.38.49-19,2-25.36.41-1.86.27-1,3.16-10.86,5.09-17.6,4.74-17.53,6-20.56C274.74,150,282.85,144.59,281.75,143.35Z" fill="#fff"/><path d="M279.89,142.66c-20.76,9.15-37.87,26.54-44.61,48.46-7.35,23.72-1.37,48.39,14,67.57,7.43,9.21,17.39,16.84,29.56,17.53,1.31.07,1.31-2,0-2.06-10.86-.62-19.86-7.29-26.74-15.33-7.42-8.73-13.4-19.45-16.08-30.59-5.5-22.34,1.3-46.26,16.49-63.31a83.19,83.19,0,0,1,28.53-20.55c1.1-.48.07-2.2-1.17-1.72Z" fill="#1e0a32"/><path d="M260.3,231.33c4.26,10.59,11.14,20.69,22.82,23.58a1,1,0,0,0,.55-2c-10.93-2.68-17.39-12.24-21.38-22.14-.48-1.16-2.47-.68-2,.55Z" fill="#1e0a32"/><path d="M283.53,254.77c4.13-.27,7.43-2.33,11.28-3.57,2.54-.83,6.87-1.72,7.35,1.79.62,4.26-4.81,5.15-7.9,5.5-1.31.13-1.31,2.19,0,2.06,3.09-.35,6.53-.83,8.66-3.3,1.65-2,2.2-5.09.41-7.15-4.74-5.5-14.5,2.27-19.8,2.61-1.3.14-1.3,2.2,0,2.06Z" fill="#1e0a32"/><path d="M278.1,275.67c2.69,4,5.16,8.25,8.12,12,1.78,2.34,4.19,4.54,7.35,4.33a4.76,4.76,0,0,0,4.54-4.47c.07-3.23-4.06-5.7-6.12-7.56-1-.89-2.48.55-1.44,1.44s4.05,2.89,4.6,4.27c.07,1.16.07,2.26.14,3.43-2.13,1-3.92.9-5.29-.41a12.28,12.28,0,0,1-2.68-3c-2.62-3.64-4.95-7.42-7.43-11.13-.75-1.17-2.54-.14-1.79,1Z" fill="#1e0a32"/><path d="M293.91,260.41c3.92,1.44,8,1.24,12.1,1.92a10.61,10.61,0,0,1,2.06.42c.35,1,.69,2.06,1,3.09-.28,1.24-4.13,1.58-5,1.58a26.42,26.42,0,0,1-7.63-1.44,1,1,0,0,0-.55,2c4,1.17,15.6,3.78,16-3.5.14-2.55-2.33-3.51-4.4-3.92-4.33-.9-8.86-.55-13.06-2.06-1.23-.49-1.78,1.51-.55,1.92Z" fill="#1e0a32"/><path d="M306.77,269.21a3.58,3.58,0,0,1,1,4.6c-.89,1.52-2.61,1.93-4.26,1.93-2.82-.07-5.64-1.38-8.11-2.68-1.17-.62-2.2,1.17-1,1.78,3.78,2.07,9.76,4.68,13.81,1.72,3.16-2.33,2.61-6.94-.34-9.14-1.17-.82-2.2,1-1.1,1.79Z" fill="#1e0a32"/><path d="M303.88,277.66a4.4,4.4,0,0,1-3.23,5.36c-2.54.69-5.09-.61-7-2.13-1-.82-2.48.62-1.44,1.45,2.74,2.2,6.39,3.78,9.89,2.33a6.33,6.33,0,0,0,3.85-7.56,1.07,1.07,0,0,0-2.06.55Z" fill="#1e0a32"/><path d="M268.28,150.5a118.59,118.59,0,0,0-13.2,24.61,115.29,115.29,0,0,0-8,37.18c-.61,15.19-1,24.06,4.33,33.55,6.74,12.1,18.77,18.08,33.82,25.5A144.72,144.72,0,0,0,304,279c0,.41,0,3.37-2.13,4.95-2.34,1.65-6.4,1-8.94-2.13,3.3,2.13,4.81,5,4,6.73s-3.37,2.41-5.57,1.86c-4.26-1.17-3.85-7.15-10.17-12.92a21.94,21.94,0,0,0-3.71-2.75,39.13,39.13,0,0,1-17.88-6.47c-1.23-.82-5.91-4.19-12.3-13.81-4.06-6.12-9.07-13.75-12-25.23a72.94,72.94,0,0,1,3.37-44.88,70.75,70.75,0,0,1,7.35-13.2A74.33,74.33,0,0,1,268.28,150.5Z" fill="#464664" opacity="0.11" style="isolation:isolate"/></g><g id="head"><path d="M272.67,39.49c-7.56,5.36-10,13-14.64,28-5.91,19-10.17,32.65-2.88,43.31,7.21,10.45,23.09,14.16,39.52,11.48a8.18,8.18,0,0,1,3.51,2.54c1.37,1.86,1.16,3.71,1.58,6.67.55,3.92,1,7.22,2.88,8.59,3.17,2.34,9.83-.89,13.68-3.85a30.59,30.59,0,0,0,9.56-13.06c10.65-26.33,15.94-39.45,13.06-51.9a47.29,47.29,0,0,0-13.06-23.57C311.92,34.54,287.52,29,272.67,39.49Z" fill="#fff"/><path d="M262.23,55.23c-8.39,17.6-5.37,43.58,9.07,57.46,12.37,11.83,33.27,10.73,44.68-1.78.89-1-.55-2.48-1.45-1.45-11,12-31.06,12.79-42.54,1-13.06-13.33-15.88-37.66-8.05-54.16.62-1.24-1.16-2.27-1.71-1.1Z" fill="#1e0a32"/><path d="M297.08,119.77a48.37,48.37,0,0,0,4.39,20.56c.55,1.23,2.34.13,1.79-1a45.48,45.48,0,0,1-4.12-19.53,1,1,0,0,0-2.06,0Z" fill="#1e0a32"/><path d="M301.41,140.81c6.87,4,15.6-2.13,20.55-6.74,1-.89-.48-2.34-1.44-1.44-4.13,3.85-12.24,9.83-18,6.46-1.24-.69-2.27,1.1-1.1,1.72Z" fill="#1e0a32"/><path d="M273.5,90.84c10.58,6.73,24.88-2.48,30.11-12,.61-1.17-1.17-2.2-1.79-1-4.68,8.53-17.67,17.33-27.29,11.21-1.1-.69-2.13,1.1-1,1.79Z" fill="#1e0a32"/><path d="M299.34,77.09a6.92,6.92,0,0,1,3.72,4.26c.41,1.24,2.4.76,2-.55a9.09,9.09,0,0,0-4.67-5.5c-1.17-.55-2.2,1.24-1,1.79Z" fill="#1e0a32"/><path d="M280.17,52.55a134.11,134.11,0,0,1-9.35,20.69,1,1,0,0,0,1.79,1A139.65,139.65,0,0,0,282.16,53c.41-1.17-1.58-1.72-2-.48Z" fill="#1e0a32"/><path d="M271.09,75.1a10.29,10.29,0,0,0,9.15,4.39c1.3-.06,1.3-2.13,0-2.06a8.31,8.31,0,0,1-7.36-3.37c-.76-1.1-2.54-.06-1.79,1Z" fill="#1e0a32"/><path d="M270.89,64.3a8.69,8.69,0,0,1,.62-4.6h-2a6.43,6.43,0,0,1-.75,5.36c.61.07,1.23.14,1.85.27a7.65,7.65,0,0,1,.21-3.91c.41-1.24-1.58-1.79-2-.55a9,9,0,0,0-.2,5,1,1,0,0,0,1.85.28,8.53,8.53,0,0,0,1-6.94,1.05,1.05,0,0,0-2,0,10.92,10.92,0,0,0-.62,5.7c.28,1.24,2.2.69,2.07-.62Z" fill="#1e0a32"/><path d="M297.21,60a4.18,4.18,0,0,1,.9-4.74,15.78,15.78,0,0,1-1.72-.48,7.54,7.54,0,0,1-.83,5.7,17.05,17.05,0,0,1,1.86.28,6.78,6.78,0,0,1,.27-3.71c.42-1.24-1.58-1.79-2-.55a8.74,8.74,0,0,0-.27,4.81,1,1,0,0,0,1.85.27,9.65,9.65,0,0,0,1-7.28,1.07,1.07,0,0,0-1.72-.48,6.28,6.28,0,0,0-1.44,6.8c.62,1.17,2.61.62,2.06-.62Z" fill="#1e0a32"/><path d="M267.38,53.37a4.42,4.42,0,0,1,6.6-1.78c1.1.75,2.13-1,1-1.79a6.43,6.43,0,0,0-9.42,2.54c-.55,1.24,1.24,2.27,1.79,1Z" fill="#1e0a32"/><path d="M262.57,69.94l-.41.41a1,1,0,0,0,0,1.45,1,1,0,0,0,1.44,0l.41-.42a1,1,0,0,0,0-1.44,1,1,0,0,0-1.44,0Z" fill="#1e0a32"/><path d="M268.62,69.67h0a1.83,1.83,0,0,0,.14.48v-.07c-.07.2-.07.34-.14.55a.83.83,0,0,1-1.44,0c-.07-.21-.07-.35-.14-.55v.07c.07-.21.07-.35.14-.55v.07a1.17,1.17,0,0,0,.34,1.44,1.09,1.09,0,0,0,1.44-.35,1.23,1.23,0,0,0-.14-1.37,1.26,1.26,0,0,0-.89-.34,1.27,1.27,0,0,0-.89.34,1.13,1.13,0,0,0-.14,1.37,1.06,1.06,0,0,0,1.44.35,1.25,1.25,0,0,0,.28-1.44Z" fill="#1e0a32"/><path d="M265,76.88h.28a1,1,0,0,0,0-2.06H265a1,1,0,0,0,0,2.06h.28a1,1,0,0,0,0-2.06H265a1,1,0,0,0,0,2.06Z" fill="#1e0a32"/><path d="M294.74,66.71a.83.83,0,0,0-.07-.41,1.06,1.06,0,0,0-1-1c-.48,0-1.1.48-1,1a.87.87,0,0,0,.07.41,1.06,1.06,0,0,0,1,1,1,1,0,0,0,1-1Z" fill="#1e0a32"/><path d="M299.41,65.61h.42a1,1,0,1,0,0-2.06h-.42a1.06,1.06,0,0,0-1,1,1,1,0,0,0,1,1Z" fill="#1e0a32"/><path d="M297.08,69.32v.41a1,1,0,1,0,2.06,0v-.41a1.06,1.06,0,0,0-1-1,1.11,1.11,0,0,0-1,1Z" fill="#1e0a32"/><path d="M292.81,49a9.08,9.08,0,0,1,9.7,1.17c1,.83,2.47-.62,1.44-1.44a11.1,11.1,0,0,0-12.17-1.44c-1.23.55-.13,2.33,1,1.71Z" fill="#1e0a32"/><path d="M323.33,59.84c.83-.83,1.65-1.59,2.55-2.41l1.65.21a7,7,0,0,1,3.09,1.65,9.85,9.85,0,0,1,3.23,6.8c.41,4.33-1.31,10.11-6.53,10a1,1,0,0,0,0,2.06c8.66.21,10.38-11.27,7.08-17.32a9.9,9.9,0,0,0-8.59-5.43c-2.82.07-5.71,1.92-4.54,5,.55,1.16,2.54.68,2.06-.55Z" fill="#1e0a32"/><path d="M275.42,29a31.22,31.22,0,0,0-12,6.19c-12.44,10-16.08,25.84-17.25,31.07-2.27,10.31.14,10.65-2.47,19C240.09,96.88,235,98,231.09,108.09c-1.31,3.3-7,18-.28,30.17,6.88,12.38,23.17,16,34.44,14.78,13-1.3,27.84-9.83,31.34-23.09a24.64,24.64,0,0,0,.62-9.28,36.27,36.27,0,0,1-15.67-2.41,35.64,35.64,0,0,1-13.81-10.17c-4.82-5.71-6.53-11.27-7.77-15.33a46.71,46.71,0,0,1-1.17-24.4,44.6,44.6,0,0,1,8.87-18.15,41.18,41.18,0,0,1,18.21-12.3,69.85,69.85,0,0,0,8.94,9.55c5.22,4.61,10.79,9.49,19,11.07a26.24,26.24,0,0,0,7.28.48A7.07,7.07,0,0,1,325,56.19c3.65-1,6.74,1.72,7.29,2.2A10.6,10.6,0,0,1,335.36,64a12.57,12.57,0,0,1-.55,8.25A8.26,8.26,0,0,1,326,77.5a47.66,47.66,0,0,0-12.44,35.4c.48,6.19,1.31,17.6,10.45,25.23,11.48,9.62,26.81,5.43,28.6,5,17.73-5.09,23.5-23.17,24-24.89,4.88-16.29-3.57-30.58-7.69-37.53-5.71-9.69-8.53-8.59-21.24-22.75-18.63-20.76-18.77-30-29.84-34.16-5.91-2.2-15.81-3.37-31.68,4.95A28.87,28.87,0,0,0,275.42,29Z" fill="#5a14d2"/><path d="M298.45,121.91c4.06-.49,8.32-3.3,11.55-5.71,1-.76,0-2.54-1-1.79a32.4,32.4,0,0,1-4.88,3c-1.79,1-3.65,2.13-5.71,2.4-1.24.14-1.24,2.2.07,2.07Z" fill="#1e0a32"/><path d="M299.07,122.8c2.61-.41,4.95-1.93,7.22-3.23a27.83,27.83,0,0,0,6-4.61c.89-1-.55-2.4-1.45-1.44-2.95,3.16-8,6.6-12.3,7.35-1.31.21-.76,2.2.55,1.93Z" fill="#1e0a32"/><path d="M341.69,52.34A148.69,148.69,0,0,1,355.5,82.93c5.29,16.43,8.46,26,3.23,33.48s-16.91,10.38-26.74,7.08a25.88,25.88,0,0,1-17.39-23.17,46,46,0,0,0-.34,18.63c1,5.29,2.34,12,8,17.66,6.81,6.74,15.47,7.43,18.63,7.7a33.53,33.53,0,0,0,20.28-4.81,34,34,0,0,0,13.19-15.74,38.65,38.65,0,0,0,2.89-19.93A47.77,47.77,0,0,0,369.59,82c-.89-1.44-2.95-4.61-12.85-14.78C350.62,60.8,345.4,55.71,341.69,52.34Z" fill="#464664" opacity="0.25" style="isolation:isolate"/><path d="M232.33,106a25,25,0,0,0,.34,15.46c3.92,10.79,16.15,18.56,28.66,16.71a27.29,27.29,0,0,0,21.86-19.66c4.81.62,9.62,1.3,14.5,1.92a27.63,27.63,0,0,1-1.3,10,30.11,30.11,0,0,1-9,13.54c-9.14,8.18-20.14,8.8-24.47,9-5.7.28-15,.83-23.5-5.49a29.62,29.62,0,0,1-10.59-14.78C224.42,119.36,231.23,107.88,232.33,106Z" fill="#464664" opacity="0.15" style="isolation:isolate"/><path d="M317.9,77.43c-2.61,9.35-6.11,21.93-14.16,29.28-3.43,3.17-11.61,8.87-28.66,7.7a27.71,27.71,0,0,0,27,2.55c2.55,7.63,5.16,15.26,7.7,22.82,3.65-2.07,7.29-4.06,10.93-6.12a46.31,46.31,0,0,1-7.42-23.78C312.89,91,324.64,78.6,327.11,76.13a10.17,10.17,0,0,0,6.47-3.85c2.81-4,1.64-9.76-1.59-12.86-.61-.62-3.36-3.23-6.11-2.54C321.48,57.84,320.93,66.43,317.9,77.43Z" fill="#464664" opacity="0.15" style="isolation:isolate"/></g></g></g></g></svg>