<svg xmlns="http://www.w3.org/2000/svg" viewBox="0 0 727.16 766.36"><g id="Camada_2" data-name="Camada 2"><g id="Camada_1-2" data-name="Camada 1"><g id="background"><path d="M321.73,72.51a1,1,0,0,0-2,0V263.46a1,1,0,0,0,2,0V72.51Z" fill="#e6e7e8"/><path d="M321.73,71.77a1,1,0,0,0,0-2Q241.86,71.07,162,74.2c-1.28.06-1.28,2.08,0,2q79.89-3.14,159.77-4.45Z" fill="#e6e7e8"/><path d="M320.05,264.67c1.28-.06,1.28-2.08,0-2-50,3.71-99.78,10.71-149.47,17.78-1.28.2-.74,2.15.54,1.95,49.48-7.07,99-14.07,148.93-17.71Z" fill="#e6e7e8"/><path d="M163,76.62a1,1,0,0,0-2,0v206.5a1,1,0,0,0,2,0V76.62Z" fill="#e6e7e8"/><path d="M172.33,282.25c1.28-.21.74-2.09-.54-2-3.3.48-6.53,1-9.83,1.69-1.28.27-.74,2.22.54,1.95,3.23-.61,6.53-1.21,9.83-1.68Z" fill="#e6e7e8"/><path d="M319.78,160.78a1,1,0,0,0,0-2.08c-26.39.33-52.58,3-78.71,6.46-13.33,1.82-26.66,3.84-40,5.92-12.93,2-26.19,5-39.39,4-1.28-.14-1.28,1.88,0,2,12.73,1.07,25.45-1.75,38-3.71,13.07-2,26.2-4,39.33-5.85,26.79-3.71,53.72-6.4,80.79-6.74Z" fill="#e6e7e8"/><path d="M309.35,161.52c.06-1.28-2-1.28-2,0q-1.72,45.36-3.51,90.7c-.06,1.28,2,1.28,2,0q1.73-45.34,3.51-90.7Z" fill="#e6e7e8"/><path d="M303.42,253.36c1.28-.13,1.28-2.15,0-2-45.92,5.52-91.9,10.37-137.89,15.22-1.28.13-1.28,2.15,0,2,46-4.78,92-9.63,137.89-15.22Z" fill="#e6e7e8"/><path d="M318.77,262.92a1,1,0,0,0,1-1.75c-5-3-10-5.86-15.08-8.75a1,1,0,0,0-1,1.75c5.05,3,10,5.86,15.08,8.75Z" fill="#e6e7e8"/><path d="M305.24,149.74c1.28-.13,1.28-2.15,0-2q-61.41,4.75-122.88,9.43c-1.28.07-1.28,2.08,0,2q61.41-4.75,122.88-9.43Z" fill="#e6e7e8"/><path d="M310,135.33a1,1,0,1,0,0-2q-67,.21-133.72,3.84c-1.28.07-1.28,2.09,0,2q66.87-3.54,133.72-3.84Z" fill="#e6e7e8"/><path d="M302,114.53a1,1,0,0,0,0-2l-92.11.2a1,1,0,0,0,0,2l92.11-.2Z" fill="#e6e7e8"/><path d="M309,94.46a1,1,0,1,0,0-2q-62.71-.8-125.3,3.37c-1.28.07-1.28,2.09,0,2q62.61-4.14,125.3-3.37Z" fill="#e6e7e8"/><path d="M205.32,260.57c-1.21-.61-2.22,1.14-.94,1.61a3.19,3.19,0,0,0,4.31-4c-1.75-5.32-11.92-2.15-10.57-9.36a11.23,11.23,0,0,1-1,.74c3.37.27,6.8-2.49,6.33-6.13s-4.37-5.31-7.54-4.3c.34.53.67,1.14,1,1.68,5.05-5.39,11.52-14.61,9-22.49-1.75-5.45-8.69-7.94-12.53-3.16-1.75,2.15-4.78,10.84-8.55,5.52-1.82-2.56-.33-6.26.07-9a17.13,17.13,0,0,0,.13-5.25c-.87-5.85-7.27-10.9-12.59-6.46.54.34,1.15.67,1.69,1,1.07-3.5,1-8.21-2.49-10.37a5.73,5.73,0,0,0-8.08,1.89c-.61,1.14,1.14,2.15,1.75,1,1.48-2.83,5-2,6.53.33,1.28,2.09,1,4.45.33,6.67a1,1,0,0,0,1.69,1,5.36,5.36,0,0,1,7.07.67c1.75,1.75,2.22,4.38,2.22,6.73,0,3.37-1.62,6.74-1.08,10.1.61,3.64,4.31,7,7.95,4.58,1.61-1.08,2.42-3,3.36-4.64a9,9,0,0,1,2.76-3.71c2.09-1.34,4.85-.27,6.4,1.42,5.86,6.39-2.69,18-7.14,22.82-.6.68,0,2,1,1.69,5.73-1.76,6.2,7,.61,6.53a.92.92,0,0,0-.94.74,6.44,6.44,0,0,0,4.84,7.87c.61.14,1.28.27,2,.41a7.54,7.54,0,0,1,1.61.47c1.42.34,1.69,1.41.81,3.37Z" fill="#e6e7e8"/><path d="M209,309.85a1,1,0,0,0-2,0V371.8a1,1,0,0,0,2,0V309.85Z" fill="#e6e7e8"/><path d="M207.74,309.78c1.28-.27.75-2.22-.53-1.95-25.39,5.59-50.7,11.25-76.09,16.9-1.28.27-.74,2.22.54,1.95q38.09-8.37,76.08-16.9Z" fill="#e6e7e8"/><path d="M206.87,373.55c1.21-.41.67-2.36-.54-2q-33.22,10.82-66.66,21c-1.21.4-.74,2.36.54,1.95q33.43-10.2,66.66-21Z" fill="#e6e7e8"/><path d="M132,325.81a1,1,0,1,0-2,0v69a1,1,0,0,0,2,0v-69Z" fill="#e6e7e8"/><path d="M141.42,394.62c1.28-.13.75-2.09-.53-1.95-3.51.47-7.07,1-10.64,1.48-1.28.2-.74,2.15.54,2,3.5-.47,7.07-1,10.63-1.48Z" fill="#e6e7e8"/><path d="M202,317.8c-.06-1.28-2.08-1.28-2,0q1.51,24.13.68,48.27c-.07,1.28,1.95,1.28,2,0q.81-24.13-.68-48.27Z" fill="#e6e7e8"/><path d="M201.82,368.9c1.21-.34.67-2.29-.47-1.95-21.14,5.59-43,10.16-63.09,19-1.21.54-.2,2.29,1,1.75,19.86-8.75,41.61-13.19,62.55-18.78Z" fill="#e6e7e8"/><path d="M201.55,317.8c1.28-.21.74-2.16-.54-2q-32.62,5.57-65,12.19c-1.28.27-.74,2.22.54,2,21.61-4.37,43.29-8.48,65-12.18Z" fill="#e6e7e8"/><path d="M137.52,328.43c-.07-1.27-2.09-1.27-2,0q2.33,28.69,2.15,57.5a1,1,0,0,0,2,0c.07-19.18-.6-38.37-2.15-57.5Z" fill="#e6e7e8"/><path d="M200.41,342.37c1.14-.54.13-2.29-1-1.75a141.9,141.9,0,0,1-23.64,9.09,1,1,0,0,0,.54,2,153.71,153.71,0,0,0,24.11-9.29Z" fill="#e6e7e8"/><path d="M170.24,323.38c-.4-1.21-2.35-.74-2,.54a237.61,237.61,0,0,1,7.94,27.88c.27,1.28,2.23.74,2-.54a232.54,232.54,0,0,0-7.95-27.88Z" fill="#e6e7e8"/><path d="M172.4,335c1.28.26,1.81-1.69.54-1.89-6.54-1.21-12.06,4.51-13.87,10.3-2.29,7.14.8,14.07,6.39,18.79a14.73,14.73,0,0,0,18.72.6c5.18-4.1,6.4-11.38,3.84-17.3-.54-1.21-2.29-.2-1.75,1,2.35,5.45.67,12.52-4.72,15.62s-11.24,1.82-15.55-2.16c-4-3.77-6.53-8.82-5.45-14.34,1-5.18,5.79-11.78,11.85-10.63Z" fill="#e6e7e8"/><path d="M160.68,369.1c1.08-.67.07-2.42-1-1.75a38.26,38.26,0,0,0-7.27,5.93c-.94.94.54,2.35,1.41,1.41a34.91,34.91,0,0,1,6.87-5.59Z" fill="#e6e7e8"/><path d="M154.22,358.94a1,1,0,0,0-.54-2c-2.22.54-4.38,1-6.6,1.55-1.28.27-.74,2.22.54,2,2.22-.54,4.38-1,6.6-1.54Z" fill="#e6e7e8"/><path d="M156.17,337.25a1,1,0,1,0,0-1.95,10.49,10.49,0,0,1-5.93-2.22c-1-.81-2.42.61-1.41,1.41a12.58,12.58,0,0,0,7.34,2.76Z" fill="#e6e7e8"/><path d="M169,315.31c0,1.27,2,1.27,2.09,0,.06-1.89.06-4-1.35-5.46a3.53,3.53,0,0,0-4.38-.74c-3,1.89-.4,6.06-1.41,8.69-.47,1.21,1.48,1.75,2,.54.68-1.89.07-3.78,0-5.73-.06-1.08.34-2.56,1.82-1.75s1.35,3,1.28,4.45Z" fill="#e6e7e8"/><path d="M627,1a1,1,0,1,0-2,0V112.64a1,1,0,0,0,2,0V1Z" fill="#e6e7e8"/><path d="M627.41,113.25c-1.14-.54-2.15,1.21-1,1.75a121.9,121.9,0,0,1,55.08,56.89c.54,1.21,2.29.14,1.75-1a123.23,123.23,0,0,0-55.82-57.63Z" fill="#e6e7e8"/><path d="M626.13,114.46c1.21-.47.68-2.42-.54-1.95a98.78,98.78,0,0,0-53.79,54.8c-.47,1.22,1.48,1.76,2,.54a96.8,96.8,0,0,1,52.38-53.39Z" fill="#e6e7e8"/><path d="M678,173.1c1.14.54,2.15-1.21,1.07-1.75-33.06-14.94-69.75-9.49-104.29-3.83-1.28.2-.74,2.15.54,1.95,33.86-5.59,70.22-11.11,102.68,3.63Z" fill="#e6e7e8"/><path d="M638.39,164.49c-.54-1.22-2.29-.21-1.75.87,1.61,3.57,2.28,7.74.74,11.45-1.69,4.11-6.13,6.06-10.37,6.39s-8.69-.87-11-4.44c-2.22-3.3-2.28-7.88.48-10.84.87-.94-.54-2.36-1.42-1.41a10.76,10.76,0,0,0-1.28,12.59c2.43,4.37,7.48,6.39,12.26,6.26,5.11-.14,10.77-2.29,13.06-7.14,2.09-4.37,1.28-9.49-.67-13.73Z" fill="#e6e7e8"/><path d="M725.65,228.32c1.14.74,2.15-1,1-1.76-13.07-8.28-26.2-16.63-39.26-25-1.08-.68-2.09,1.07-1,1.75,13.06,8.28,26.19,16.63,39.26,25Z" fill="#e6e7e8"/><path d="M718.51,268.24c.94.88,2.35-.54,1.41-1.41a444.9,444.9,0,0,1-31.71-32.12c-.88-1-2.29.47-1.41,1.42a444.76,444.76,0,0,0,31.71,32.11Z" fill="#e6e7e8"/><path d="M665.52,261.78c-.47-1.15-2.42-.68-1.95.54q15.15,39.07,28.21,78.84c.4,1.21,2.35.67,2-.54q-13-39.8-28.21-78.84Z" fill="#e6e7e8"/><path d="M623.57,243.4c.47-1.21-1.48-1.75-2-.54Q609.8,274,597.92,305.21c-.47,1.21,1.48,1.75,2,.53,7.88-20.73,15.83-41.54,23.7-62.34Z" fill="#e6e7e8"/><path d="M586.47,214.51c.95-.87-.47-2.29-1.41-1.41A325.15,325.15,0,0,0,552,245.28c-.87.94.54,2.36,1.42,1.42a316.88,316.88,0,0,1,33.05-32.19Z" fill="#e6e7e8"/><path d="M568.36,186.91c1.15-.61.14-2.29-1-1.75-9.15,4.51-18.38,9-27.54,13.46-1.21.61-.13,2.29,1,1.75,9.16-4.51,18.39-9,27.54-13.46Z" fill="#e6e7e8"/><path d="M625.66,503.69c1,.81,2.42-.6,1.35-1.41-14.28-12.32-32.52-17.71-50.43-22.35-9.7-2.49-19.39-4.85-28.89-8-11.38-3.83-22.42-8.61-33.46-13.39-1.14-.48-2.22,1.21-1,1.75,10.37,4.51,20.8,9,31.51,12.72,9.29,3.23,18.72,5.66,28.21,8.08,18.65,4.71,37.84,9.83,52.72,22.62Z" fill="#e6e7e8"/><path d="M496.86,157.82a1,1,0,0,0-.07-2.09A957.15,957.15,0,0,0,365.63,173.1c-1.28.27-.74,2.23.54,2a948.44,948.44,0,0,1,130.69-17.24Z" fill="#e6e7e8"/><path d="M496.79,156.27c.2,1.28,2.16.74,1.95-.47a32.69,32.69,0,0,1-.33-8.08c.06-1.28-2-1.28-2,0a36.61,36.61,0,0,0,.4,8.55Z" fill="#e6e7e8"/><path d="M497,149.67c1.28-.13,1.28-2.15,0-2-44.1,4.52-88.33,8.56-131.76,17.85-1.28.27-.74,2.22.54,1.95C409,158.16,453.09,154.19,497,149.67Z" fill="#e6e7e8"/><path d="M366.64,166.1c-.13-1.28-2.15-1.28-2,0a25.45,25.45,0,0,1-.33,7.14c-.27,1.28,1.68,1.82,1.95.54a26.82,26.82,0,0,0,.4-7.68Z" fill="#e6e7e8"/><path d="M493.63,126.51c-.14-1.28-2.16-1.34-2,0A48.51,48.51,0,0,1,489,148.87c-.47,1.21,1.48,1.75,1.95.53a50,50,0,0,0,2.7-22.89Z" fill="#e6e7e8"/><path d="M494,126.71a1,1,0,0,0-.54-1.95,83.37,83.37,0,0,1-25.18,2.83c-1.28-.07-1.28,1.95,0,2a83.08,83.08,0,0,0,25.72-2.9Z" fill="#e6e7e8"/><path d="M469.93,129.54c.2-1.28-1.75-1.82-2-.54a37.83,37.83,0,0,0,2.9,21.62c.54,1.21,2.29.13,1.75-1a34.78,34.78,0,0,1-2.69-20.07Z" fill="#e6e7e8"/><path d="M486.22,125.91c-.74,1,1,2,1.75,1.07a31.41,31.41,0,0,0,5.52-25.65,1,1,0,0,0-1.68-.47,43.34,43.34,0,0,0-13.06,26.6c-.14,1.27,1.88,1.27,2,0a41.88,41.88,0,0,1,12.45-25.19c-.54-.2-1.14-.33-1.68-.47a29.22,29.22,0,0,1-5.32,24.11Z" fill="#e6e7e8"/><path d="M481,118c.2,1.28,2.15.74,1.95-.54a53.22,53.22,0,0,0-7.14-18.11c-1.41-2.15-4.91-7.67-6.39-2.49-3.17,11,.33,23.57,7.27,32.39.81,1,2.22-.41,1.41-1.42a36,36,0,0,1-7.54-26.05,19.79,19.79,0,0,1,.68-3.91c.6-1.48.6-.67,1.54.61a43.18,43.18,0,0,1,3.57,5.85A51.24,51.24,0,0,1,481,118Z" fill="#e6e7e8"/><path d="M450.81,153.92c.33,1.28,2.28.74,1.95-.61-.54-2.22,1.21-4.65.13-6.8-.81-1.55-2.35-1.82-3.9-1.75-6.94.2-14.07,1.68-20.94,2.62q-22.43,3-44.71,7.07c-.47.07-.67.54-.74,1-.2,1.41-.34,2.82-.54,4.24s1.89,1.28,2,0,.34-2.83.54-4.24a11,11,0,0,0-.74.94c12.66-2.22,25.38-4.31,38.18-6.13,6.59-.94,13.19-1.82,19.86-2.62,1.88-.21,8.21-2.23,9.22.54.27.67-.47,2.35-.54,3.16a7,7,0,0,0,.21,2.63Z" fill="#e6e7e8"/><path d="M430.07,146.37c-.74,1.08,1,2.09,1.61,1.08,2.63-4-1.07-8.28-5.18-8.89-3.7-.6-7.68.48-11.31,1-4.11.54-8.15,1.15-12.26,1.76-8.28,1.21-16.49,2.55-24.64,4.37-3.9.88-13.13,2.22-10.3,8.35.54,1.21,2.29.14,1.75-1-1.75-3.77,6.46-4.78,8.48-5.25,2.36-.54,4.65-1,6.94-1.48,5-.95,10.17-1.82,15.22-2.56s10.3-1.55,15.41-2.29a61.6,61.6,0,0,1,8.49-1.08c3,0,8.35,2.09,5.79,6Z" fill="#e6e7e8"/><path d="M383.81,156.27c1.28-.27.74-2.22-.54-2A32.6,32.6,0,0,1,370,155c-1.28-.2-1.82,1.75-.54,2a34.48,34.48,0,0,0,14.34-.68Z" fill="#e6e7e8"/><path d="M682.22,173.17c1.28-.13,1.28-2.15,0-2a417.55,417.55,0,0,1-42,2.63,1,1,0,0,0,0,2,397.94,397.94,0,0,0,42-2.63Z" fill="#e6e7e8"/><path d="M612.13,174.92a1,1,0,0,0,0-2,192.81,192.81,0,0,1-38.31-4.1c-1.28-.27-1.82,1.68-.54,1.95a198.18,198.18,0,0,0,38.85,4.17Z" fill="#e6e7e8"/><path d="M660.74,219c-.61-1.14-2.36-.13-1.75,1l20.2,36a1,1,0,0,0,1.75-1l-20.2-36Z" fill="#e6e7e8"/><path d="M615.29,206.64a1,1,0,0,0-1.75-1c-4.31,6.93-8.35,14.07-12,21.34-.61,1.14,1.14,2.15,1.75,1a236.14,236.14,0,0,1,12-21.34Z" fill="#e6e7e8"/><path d="M585.33,192.23a1,1,0,0,0-1-1.75c-5.12,3-10.17,5.85-15.28,8.82a1,1,0,0,0,1,1.75c5.11-3,10.16-5.86,15.28-8.82Z" fill="#e6e7e8"/></g><g id="bed"><path d="M451.07,619.1a1,1,0,0,0,.48-2q-42.93-11.62-85.11-25.72a1541.82,1541.82,0,0,1-148.06-58.18c-11.91-5.38-23.83-11-35.61-16.69C171.45,511,160.08,505.44,148,501.88c-11.38-3.37-23.3-4.78-35-2.49-12,2.42-23.09,8.21-33.86,13.86-1.15.61-.14,2.36,1,1.76C93,508.27,106.28,501.34,121,500.39s29,3.57,42.29,9.3c11.64,5,23,10.84,34.47,16.22,11.72,5.52,23.43,10.91,35.28,16.09q34.95,15.46,70.7,29.09a1548.6,1548.6,0,0,0,147.31,48Z" fill="#1e0a32"/><path d="M115.5,519.05c1.28-.27.74-2.23-.54-2-10.43,2-20.53-2.83-31-3.09-10-.21-19.79,2.89-29.08,6.26A295.21,295.21,0,0,0,.5,546.52a1,1,0,0,0,1,1.75,291,291,0,0,1,55.08-26.46c10-3.57,20.4-6.67,31.11-5.53,9.35,1,18.31,4.65,27.8,2.77Z" fill="#1e0a32"/><path d="M515.71,669.73c-.74-1.08-2.42-.07-1.75,1,7.61,12.12,10,26.26,11.51,40.2,1.62,15.08,3,30.16,4.51,45.24.14,1.28,2.16,1.28,2,0-1.54-15.82-3-31.71-4.78-47.53-1.54-13.54-4.17-27.21-11.51-38.92Z" fill="#1e0a32"/><path d="M468,699a1,1,0,0,0-1.75,1c11.85,19.66,13.33,43,13.26,65.44a1,1,0,0,0,2,0C481.64,742.65,480,719,468,699Z" fill="#1e0a32"/><path d="M570.05,691.68c.87.94,2.29-.47,1.41-1.48a229.27,229.27,0,0,0-20.67-19.86c-6.6-5.59-13.33-11.18-20.87-15.63-15.49-9.08-33.47-10.7-51-12.05-1.28-.06-1.28,2,0,2,17.64,1.28,35.55,3,51,12.39,14.88,9.09,28.41,21.75,40.13,34.61Z" fill="#1e0a32"/><path d="M263.56,479.72c1.28-.2.74-2.15-.54-2Q207.07,488,151.79,501.4a1,1,0,0,0,.54,2q55.24-13.44,111.23-23.64Z" fill="#1e0a32"/></g><g id="pillows"><path d="M424.48,332.07c-9.83-5.05-14.75-7.61-20.07-8.15-7.6-.8-8.61,2.16-22.35,4.18-7.88,1.21-13.73,1.14-20.67,1.14-13.2-.06-14.21-1.55-27.81-1.55-8,0-16.29.48-23.7,3.44a25.7,25.7,0,0,0-10.63,7.2,24.53,24.53,0,0,0-2.63,3.77,28.82,28.82,0,0,1-8.55-1.14c-1.35-.41-2.63-.94-4-.41s-2.23,2-2.83,3.77c-3,9.36-.74,25.39-.74,25.39a209.28,209.28,0,0,0,4.17,22.76c1.28,5.11,2.49,9.29,3.44,12.32-8.82,2.62-14.28,1.41-17.64-.21a135.24,135.24,0,0,1-13.07-7.6c-2.35-1.55-4.37-3-6.06-2.29-2.29.87-2.55,5-2.69,6.86-1.21,14.62-4.31,12.06-4.71,25.52a84.55,84.55,0,0,0,3.3,26.26c1.61,5.46,3.77,10,8,19,6.53,13.8,7.41,12.86,9.09,18.58,2.22,7.34,1.08,9.83,2.56,24.78.67,7,1.55,12.66,2.15,16.43a88.63,88.63,0,0,1,18.25-3.64c9.22-.81,12.79.41,22.62.74a131.72,131.72,0,0,0,33.53-2.89c8-1.82,14.41-4.24,25.52-8.42,12.86-4.85,13.06-5.79,19-6.93,5.32-1,10.84-1.28,21.14-3.64,6.26-1.41,8.82-2.36,9.49-4.38.94-2.76-2.62-4.57-5.86-10.9-2.08-4.11-3-9.5-4.71-20.4-.74-4.38-1.21-8.08-1.48-10.58a91.69,91.69,0,0,0,23.36-.33c6.4-1,11-2.43,21.89-4,4.84-.74,8.95-1.21,11.64-1.48A85.56,85.56,0,0,0,461.65,445a110.2,110.2,0,0,0-9.83-26.26c-3.57-7.2-15.29-31.1-15.29-57.23a90.21,90.21,0,0,1,2.56-21.14C435.59,338.2,430.67,335.23,424.48,332.07Z" fill="#fff"/><path d="M365.5,388.76c1.28.14,1.82-1.75.54-1.88-15.15-2.22-28.75,5.32-42.56,10.43A116,116,0,0,1,274.13,404c-1.28-.14-1.28,1.88,0,2a116.44,116.44,0,0,0,46.39-5.52c14.55-4.92,29-14,45-11.72Z" fill="#1e0a32"/><path d="M360,390.85c-1.21.47-.2,2.22,1.21,1.88,3.77-1.61,6.33-5.11,10-6.8,6.53-3,9,5.32,10.37,10,3.23,10.7,5.05,21.68,9.36,32,3.7,8.89,8.48,17.37,11.85,26.39,3.16,8.49,4.24,17.31,6,26.13a71.61,71.61,0,0,0,3.5,12.39,34.21,34.21,0,0,0,2.43,5c.47.87,1.34,1.75,1.75,2.69.81,1.82.54,2.7-1,3.91-3.5,2.69-9.7,3.84-14.07,4.58-4.79.8-9.7.4-14.48,1.07-9.36,1.28-18.25,6.67-26.93,10.1-9.5,3.77-19.33,6.94-29.49,8-10.44,1.08-20.88-.74-31.31-.67a119.54,119.54,0,0,0-29.63,4c.41.21.81.48,1.22.68-5.26-13.13-1-27.68-5.46-41-3.84-11.58-11.85-21.21-15.69-32.85-3.9-11.79-4.64-24.38-3.36-36.63A113.55,113.55,0,0,1,249.83,403c.4-1.49.67-3.64,1.48-5s-.34-2.42,3-1.88a6.74,6.74,0,0,1,1.82,1.08c2.35,1.34,4.58,2.89,6.8,4.37,8.68,5.79,17.77,11.85,28.61,11.78a1,1,0,0,0,0-2c-7.47.07-14.14-3-20.4-6.8-3-1.75-5.79-3.7-8.62-5.58-2.55-1.75-5.38-4-8.28-5.12-4.78-1.75-5.52,5.59-6.33,8.62a116.89,116.89,0,0,0-3.5,17.91c-1.48,12.59-.81,25.65,3.1,37.77,4,12.59,13,22.89,16.49,35.62s-.13,26.32,4.79,38.78a1,1,0,0,0,1.21.67,122.32,122.32,0,0,1,39.52-3.57c12.52.81,24.1.74,36.22-2.69,10.24-2.89,19.93-7.27,29.7-11.45a43.62,43.62,0,0,1,16.49-4,64.21,64.21,0,0,0,14.41-1.75c3.57-.94,9.16-2.35,12-5,3-2.69-.94-6.26-2.28-8.68-4.85-8.42-5.73-18.32-7.48-27.68-1.88-10-5.52-19.12-9.9-28.28C393.84,430,389.67,420,387,409.1c-1.35-5.26-2.56-10.51-4.18-15.62-1-3.24-2.22-7-5.18-9-6.53-4.58-12.19,4.11-17.64,6.4Z" fill="#1e0a32"/><path d="M331.43,412.53c1.21-.47.74-2.42-.54-1.95a56.7,56.7,0,0,1-27.2,2.69c-1.28-.2-1.82,1.75-.54,2a58.43,58.43,0,0,0,28.28-2.69Z" fill="#1e0a32"/><path d="M286.05,406.27c1.28-.07,1.35-2.09,0-2.09a51.08,51.08,0,0,1-19.39-2.36c-1.21-.4-1.75,1.55-.54,2a54.19,54.19,0,0,0,19.93,2.49Z" fill="#1e0a32"/><path d="M436.94,340.82c1.14.68,2.15-1.07,1-1.68-5.93-3.64-11.86-7.34-17.85-10.84-5-2.9-10-5.12-15.89-5.18-6.46-.07-12.79,2-19.12,3.29A124.64,124.64,0,0,1,364,328.64C342,329,313.38,320.36,296.82,340c-.87.94.61,2.42,1.42,1.41,16.36-19.46,45.31-10.23,67-10.84A131,131,0,0,0,383,328.77c6.6-1.21,13.2-3.43,19.93-3.7,6.47-.2,11.72,2.29,17.11,5.52,5.65,3.37,11.24,6.8,16.9,10.23Z" fill="#1e0a32"/><path d="M325.37,345.27c1.28-.2,1.28-2.22,0-2a81.56,81.56,0,0,1-30.23-2.08c-5.32-1.35-13.47-3-15.55,4-1.28,4.17-.54,9.36-.34,13.67.27,5.18.67,10.36,1.35,15.48a190,190,0,0,0,6.19,29.36,1,1,0,0,0,1.95-.54,181.55,181.55,0,0,1-7.61-53.39c.07-2.56.27-5.73,2.76-7.14,1.82-1.08,4.25-.88,6.27-.61,3.7.54,7.34,1.82,11,2.49a83,83,0,0,0,24.17.68Z" fill="#1e0a32"/><path d="M440.17,339.88c0-1.35-2-1.35-2.16.07-.2,11.31-4,22.15-3.3,33.46.68,9.23,3.44,18.11,6.94,26.66,7.4,18.18,18.18,35.35,20.6,55.15l1-1c-9.29-.21-18.25,3.5-27.33,4.91a127.9,127.9,0,0,1-30,.88c-1.28-.14-1.28,1.88,0,2a130.37,130.37,0,0,0,28.48-.68,138.43,138.43,0,0,0,14.08-2.76c4.91-1.21,9.69-2.56,14.81-2.42.47,0,1.08-.47,1-1-2.29-19.06-12.12-35.69-19.53-53.06-3.9-9.15-7.27-18.71-7.94-28.75-.74-11.38,3.09-22.22,3.3-33.46Z" fill="#1e0a32"/><path d="M354.19,387.75c.54,1.21-7.27,6.67-47.94,26.87,8.21-.81,16.36-1.55,24.51-2.36,5.72,12.93,11.37,31.71,4.37,49.29-7.2,18.17-23.23,23.49-21.48,34.2,2.63,16.16,42.49,19.66,41.61,26.53-.53,4.78-19.93,6.93-31.51,7.07-13.26.2-18.51-2.23-32.18-1.35a103.67,103.67,0,0,0-21.48,3.7,81.07,81.07,0,0,1-3.7-11.71c-3.5-14.88-.47-20.54-2-30.84-2.49-16.49-12.19-14.34-17.44-33.87-1.21-4.44-1.35-13.39-1.68-31.17,0,0-.14-7.81,4-23.83.6-2.23,1.48-5.46,3.7-6.06,2.49-.68,4.17,2.82,9.7,6.06s10.9,3.9,14.74,4.37a45.78,45.78,0,0,0,11,0c-.67-2-1.61-5.18-2.69-9.09-5.52-20.53-1.95-21.07-5.72-39.25-.54-2.63-1.55-6.87.67-10.71a11.23,11.23,0,0,1,6.4-5.05c3.43-.94,4.71.95,14.4,3.37,4,1,4.52.88,5.39,1.68,3.3,3,.67,8.76.67,15.09,0,9.29,5.53,19.39,13.07,24.17,9.42,6,22.55,4.17,26.19,3.7C351.49,387.89,354,387.28,354.19,387.75Z" fill="#464664" opacity="0.13" style="isolation:isolate"/><path d="M244.84,440a112.44,112.44,0,0,0,8.08,28.48c5.52,12.52,8.35,12.19,10.71,21.48,2.49,9.83.27,14.21,2.69,28.82a111.65,111.65,0,0,0,3.37,14.4q22.82-2.92,45.65-5.72c-25.32-21.75-37.91-43.83-44-56.69A210.3,210.3,0,0,1,257,427.48c-4.17-20.07-3.23-32.05-5.38-32.19C248.61,395.09,241.88,417,244.84,440Z" fill="#464664" opacity="0.16" style="isolation:isolate"/><path d="M287.4,404.32a98.14,98.14,0,0,0,14.07-1A103.33,103.33,0,0,0,326,396.57c-10.84-.4-23.64-3-32.86-12.05-8.28-8.15-10.71-18.52-12.05-18.11C279.92,366.75,280.6,374.56,287.4,404.32Z" fill="#464664" opacity="0.18" style="isolation:isolate"/></g><g id="guy_and_a_cat" data-name="guy and a cat"><g id="leg_right" data-name="leg right"><path d="M602.9,631.15c-1.41,22-2.82,44-4.24,66q61.9,53.13,67.87,47.47,5.55-5.25-36.9-61.14c1.82-12.79,3.71-25.51,5.59-38.31C624.45,640.51,613.68,635.8,602.9,631.15Z" fill="#1e0a32"/><path d="M432.69,468.08c-6.53,10.63,3,29.35,11.85,39.59,14.82,17.3,33.94,18.18,57,25.72,19.12,6.19,45.05,18.31,73,44.16a228.1,228.1,0,0,1,10.77,33.94A218.22,218.22,0,0,1,591,662.86c10.7,2.56,22.35,4.85,34.94,6.67,10,1.48,19.39,2.42,28.28,3.09a346.71,346.71,0,0,0-5.66-67.8c-3.9-21.27-6.53-34.87-15.42-50.9-10.36-18.72-23-29.56-35.48-40.06a222,222,0,0,0-74-41.14C513.76,469.49,445.62,447.2,432.69,468.08Z" fill="#fff" stroke="#1e0a32" stroke-miterlimit="10" stroke-width="2"/><path d="M430.54,475.89c-1.28,7.13,2,12.72,6.53,20.4a64.07,64.07,0,0,0,20.8,22.22c5.26,3.36,9.57,5,17.51,7.67,28.75,9.7,29.69,8,41.21,12.73,14.74,6,25.51,13.73,40.46,24.44,7.34,5.25,13.27,10,17.51,13.46a231.41,231.41,0,0,1,15.28,62.69,224.29,224.29,0,0,1,1.08,23.7l33.53,5.45a265.33,265.33,0,0,0-9.83-56.15c-6.4-22.22-9.63-33.33-17.1-43.77-7.88-11-17.91-18.11-109-54.33-15.49-6.13-34.74-13.74-41.21-31-3.56-9.63-2.42-20.34-6.53-21.14C437.2,461.55,431.75,468.62,430.54,475.89Z" fill="#464664" opacity="0.14" style="isolation:isolate"/><path d="M573.82,577.08a196.28,196.28,0,0,1,15.28,51,238.69,238.69,0,0,1,3.3,35.35c8.42,1.14,16.76,2.22,25.18,3.3-2.09-9.9-5.39-24-10.57-40.81-9-29.08-13.74-43.89-25.18-55.74-6.06-6.27-19.19-17.38-43.77-21.89C550,557.89,561.9,567.52,573.82,577.08Z" fill="#464664" opacity="0.16" style="isolation:isolate"/></g><g id="blanket"><path d="M629.5,544.36c1.88,3.44,3.63,6.73,5.18,10-12.59,4.57-30.9,13.19-47.26,29.82-21.41,21.75-17.91,35.55-37,54.47-28,27.81-68.14,30.64-76.29,31.24-38.71,2.76-47.47-14.81-76.28-5.11-23.1,7.81-25.72,21.74-46.53,22.55-19.39.74-36.63-10.64-45.78-16.7-18.86-12.52-20.47-22.28-37-26.19-8.15-1.95-15.69-1.41-19.6-7.27s-1.14-13.94-6.53-17.44c-2.15-1.41-3.63-.8-6.53-1.48-4.31-1-9.9-4.44-15.28-15.28A428.67,428.67,0,0,1,275,591.29c63.22-9.43,73.18,3.16,119.91-5.12,41.68-7.4,81.54-25.92,111.9-40,20.07-9.29,42.29-13.06,63.23-20.33,9.35-3.24,24.91-8.76,40-2.16a39.4,39.4,0,0,1,12.32,8.75C624.72,536.15,627.14,540.05,629.5,544.36Z" fill="#fff" stroke="#1e0a32" stroke-miterlimit="10" stroke-width="2"/><path d="M614.08,532.31a.78.78,0,0,0,0-1.55,73.41,73.41,0,0,0-27.74,6.46c-.94.41-.13,1.69.74,1.28a70.74,70.74,0,0,1,27-6.19Z" fill="#1e0a32"/><path d="M591.79,570.49c.88-.48.07-1.82-.8-1.28-15.15,8.68-23.57,24.37-33.8,37.84a122,122,0,0,1-45.32,36.49c-.87.4-.13,1.68.74,1.28a122.29,122.29,0,0,0,43.84-34.41c11-13.87,19.45-30.84,35.34-39.92Z" fill="#1e0a32"/><path d="M302.07,617.48a.78.78,0,0,0,0-1.55,433.41,433.41,0,0,1-56.82-3.16c-.95-.07-.95,1.41,0,1.55a433.41,433.41,0,0,0,56.82,3.16Z" fill="#1e0a32"/><path d="M307.8,642.6c.94-.34.54-1.82-.41-1.49a175.81,175.81,0,0,1-21.34,6.33.77.77,0,0,0,.4,1.48,172.66,172.66,0,0,0,21.35-6.32Z" fill="#1e0a32"/><path d="M543.92,596.07c.74-.67-.33-1.75-1.08-1-16.22,14.34-35.61,25.65-56.48,31.58A67.83,67.83,0,0,1,452,627.72c-11-2.56-21.28-7.34-31.11-12.86-.8-.54-1.61.8-.74,1.27,10.3,5.8,21.08,10.78,32.66,13.27a69.55,69.55,0,0,0,32.85-1c21.55-5.86,41.68-17.57,58.31-32.32Z" fill="#1e0a32"/><path d="M450.13,587.18c.94-.13.54-1.61-.4-1.41-6.26,1.21-12.59,4.91-15.69,10.77-2.36,4.45-1.62,10.37,3.64,12.12a.77.77,0,0,0,.4-1.48c-6.87-2.29-3.16-10.44.34-13.94a22.42,22.42,0,0,1,11.71-6.06Z" fill="#1e0a32"/><path d="M427.1,626.64c.81.54,1.55-.81.75-1.35-14.68-9.49-32.32-11.38-49.36-12.93-.94-.06-.94,1.49,0,1.55,16.77,1.55,34.14,3.37,48.61,12.73Z" fill="#1e0a32"/><path d="M568.09,536.21a.79.79,0,0,0-.33-1.54c-14.28,3.83-25.72,13.26-37.57,21.61a162.83,162.83,0,0,1-43.23,22c-.94.33-.54,1.82.41,1.48a164.77,164.77,0,0,0,41.74-20.81c12.39-8.55,24.1-18.71,39-22.69Z" fill="#1e0a32"/><path d="M512.21,543.89c-16.83,6.87-19.39,9.16-42,18.31-25.92,10.57-41.47,16.77-63.08,21.48a283.11,283.11,0,0,1-50.7,6.2c-25.72.67-33.2-2.9-61.54-.61-13.54,1.08-25,3-31.11,4a369.18,369.18,0,0,0-37.91,8.42c-2.15.6-4,1.14-5.25,1.54a26.8,26.8,0,0,0,7.74,11.18c2,1.68,4.92,4.18,7.75,3.44,2.35-.61,3-3,4.37-4.38,4.78-5.12,18.45.54,23.91,2.49,24.1,8.62,48.34,2,48.47.61.07-1.15-13.6-2-13.66-4.38s12.38-4.92,23-5.93c13.81-1.27,18.05.68,61.88,7.48,19.86,3.1,25.45,3.63,33.87,7.74,4.57,2.22,11.1,5.93,12.11,4.65.75-.95-1.68-4.11-4-6.87a99.28,99.28,0,0,0,30.17,9.29,95.41,95.41,0,0,0,14.61.94c-15.42-2.29-26.26-11.38-27.34-21.47-.87-8.08,4.92-14.68,5.93-15.83,7.74-8.88,16.49-6.12,36.69-12.45A139.48,139.48,0,0,0,519.75,564c10.37-6.46,13.47-10.3,23-17.7a217.55,217.55,0,0,1,41.67-25.18A453.49,453.49,0,0,0,512.21,543.89Z" fill="#464664" opacity="0.13" style="isolation:isolate"/><path d="M365,684.27c-3.3-5.92-6.53-12.18-9.63-19-1.21-2.63-2.36-5.19-3.43-7.75,3.63.47,7.47,1.08,11.51,1.89a132.88,132.88,0,0,1,25.18,7.74C380.71,672.89,372.84,678.62,365,684.27Z" fill="#464664" opacity="0.18" style="isolation:isolate"/><path d="M244.37,621.18c.68,2.63,1.48,5.46,2.49,8.42,1.08,3.17,2.29,6.06,3.44,8.69,37.84-3.57,46.39-5.12,46.32-5.93s-12.73.2-29.83-3.7A118.19,118.19,0,0,1,244.37,621.18Z" fill="#464664" opacity="0.15" style="isolation:isolate"/><path d="M436.53,593.24c-1.61,1.89-4.44,5.19-3.43,9s4.91,5.32,5.59,5.59c-1-4.24-1.22-9.15,1.21-13.4,3.3-5.72,9.9-7.2,9.63-7.74S441.51,587.32,436.53,593.24Z" fill="#464664" opacity="0.22" style="isolation:isolate"/><path d="M266.79,600a266.82,266.82,0,0,0-29.22,10.24c2.63,1,5.39,2,8.42,2.82a105.42,105.42,0,0,0,14.61,3.1c-.94.34-17,5.66-27.34.34a25.84,25.84,0,0,1-6.87-5.25,21.6,21.6,0,0,1-4.37-8.08A337.24,337.24,0,0,1,268.34,592a329,329,0,0,1,86.72-2.83A281.94,281.94,0,0,0,266.79,600Z" fill="#464664" opacity="0.15" style="isolation:isolate"/></g><g id="cat"><g id="cat_paw_right" data-name="cat  paw right"><path d="M313.12,619.91c-3.37,1.48-7.07-1.49-13.67-5-7.21-3.77-5-1.34-29-10.43-15.49-5.86-18.58-7.68-18.85-10.44-.34-3.23,3.43-7.07,7.54-8,6.46-1.42,11.31,4.78,22.08,11.31A90.77,90.77,0,0,0,303.82,607a51.29,51.29,0,0,0,7.81,2.22c2.83.54,3.91.47,4.65,1.35C318.1,612.63,316.41,618.29,313.12,619.91Z" fill="#1e0a32"/></g><g id="leg_left" data-name="leg left"><path d="M178.59,552c-5.52,2.89-1.68,20.67,1.15,29.49,1.41,4.44,2.15,6.73,4,9,8.14,10,25.85,9.49,26.79,6.53.34-1.14-1.61-3.64-13.53-9.7a27.14,27.14,0,0,0,2-9.42c0-1.08.2-13.8-9.7-21.61C186.94,554.46,181.76,550.42,178.59,552Z" fill="#1e0a32"/></g><g id="Layer_18" data-name="Layer 18"><path d="M255.14,606.57c-7,5.86-17,3.77-31.17.68-23.77-5.19-39.18-14.75-42.75-17-15.42-9.83-23.7-15.15-24.58-24.57-1.14-12,10.37-25.59,19.59-25.18,7.41.33,8.15,9.49,24.58,24.3,8.21,7.41,13,11.72,21.07,14.81,7,2.63,19.53,5.53,26.94,7.21,6.73,1.55,10.36,2.22,11.85,5.25C262.69,596.21,259.52,602.94,255.14,606.57Z" fill="#1e0a32"/></g><g id="leg_right-2" data-name="leg right"><path d="M161.15,556.14c-5.52,2.9-1.68,20.67,1.15,29.49,1.41,4.45,2.15,6.74,4,9,8.14,10,25.85,9.49,26.79,6.53.34-1.15-1.61-3.64-13.53-9.7a26.91,26.91,0,0,0,2-9.42c0-1.08.2-13.81-9.69-21.62C169.57,558.57,164.38,554.46,161.15,556.14Z" fill="#1e0a32"/></g><g id="cat_paw_right-2" data-name="cat paw right"><path d="M175.7,547.46c-4.72-1.75-6.74-7.41-10.37-17.64-1.08-3-1-3.17-3.5-10.71s-2.56-7.27-2.9-8.68a28.54,28.54,0,0,1,1.41-16.77c.61-1.34,4.11-9.63,8.82-9.56,1.55,0,3.24.81,3.37,1.75s-1.82,1.75-4,3.5a22.11,22.11,0,0,0-4.64,5.79c-2.63,4.58-1.55,9.9-.27,15.89,1.34,6.2,3.3,10.37,5.79,15.62,4.37,9.36,8.41,14.21,9.49,15.49a57.9,57.9,0,0,0,4.58,4.85C179.6,548.47,177,548,175.7,547.46Z" fill="#1e0a32"/></g><g id="head"><path d="M244.84,600.45c-3-2-5.72-3.71-7.07-7.07s.21-4.31,1.89-16.5c.47-3.5.74-6.26,2.09-6.6,1-.27,2.15.81,3.77,2.36a23.17,23.17,0,0,1,3.5,4.24l11.51.2,11,.21c.74-4.11,2.7-6.87,4.45-6.8,2,.06,3.43,3.5,3.77,4.24.81,1.81.54,2.62,1.41,6.6.27,1.21.34,1.34.94,3.77,1.42,5.72,2.16,8.61,2.09,9.42-.34,4.72-6.8,7.81-9.16,9C260.73,610.41,245.45,600.92,244.84,600.45Z" fill="#1e0a32"/><path d="M277.16,587.52c.27.07.41-.47.14-.47-2.56-.47-4.65.87-6.6,2.35-.27.14,0,.61.27.41,1.82-1.35,3.84-2.76,6.19-2.29Z" fill="#fff"/><path d="M261.07,589.81c.27.2.47-.27.27-.47a15.08,15.08,0,0,0-7.47-3c-.34,0-.34.47,0,.54a15,15,0,0,1,7.2,3Z" fill="#fff"/><path d="M272.79,582.54c.26.2.6-.14.33-.34a3.11,3.11,0,0,0-2.83-.67c-.33.06-.2.54.14.47a2.7,2.7,0,0,1,2.36.54Z" fill="#fff"/><path d="M261.2,582.2c.34.14.48-.34.07-.4a2.7,2.7,0,0,0-2.49.27c-.27.13,0,.6.27.4a2.25,2.25,0,0,1,2.15-.27Z" fill="#fff"/><path d="M266.66,592.7c0,.34.54.34.67.07a.8.8,0,0,0-.6-.74.38.38,0,0,0-.34.2,1.39,1.39,0,0,0,.27,1.35c.07.13.13.2.27.13.67-.2.6-.8.4-1.34-.07-.2-.27-.27-.4-.14a1,1,0,0,0-.07,1.48c.13.14.4,0,.4-.2v-.81a.24.24,0,0,0-.47-.06,3.55,3.55,0,0,0,1.15,3.57,1.06,1.06,0,0,0,1.48.06,2.37,2.37,0,0,0,.54-1.75.27.27,0,0,0-.54,0c0,.47,0,1.89-1.08,1.35a2.63,2.63,0,0,1-.81-.94,3.22,3.22,0,0,1-.33-2.23h-.54a2.91,2.91,0,0,1,.07.74l.4-.2a3.17,3.17,0,0,0,.07-.81c-.14-.06-.27-.06-.41-.13a.61.61,0,0,1-.06.74c.06.07.2.07.26.14a1.22,1.22,0,0,1-.2-.95c-.13.07-.2.14-.33.2a.68.68,0,0,0,.2.27Z" fill="#fff"/><path d="M266.86,592.91c-.13-.27-.61-.14-.4.13a2.7,2.7,0,0,1-.21,2.76c-.47.61-1.28.81-1.75.07a3,3,0,0,1-.33-1.35c-.07-.33-.54-.33-.54,0,.13,1.08.74,3,2.22,2.22s1.55-2.62,1-3.83Z" fill="#fff"/><path d="M272.45,591.42c-.34.14-.07.61.27.41a46.31,46.31,0,0,0,4.44-2.63c.27-.13,0-.6-.27-.4a46.24,46.24,0,0,1-4.44,2.62Z" fill="#fff"/><path d="M273,593a.27.27,0,0,0,0,.54,17,17,0,0,1,4.51,0c.33,0,.33-.47,0-.54a17,17,0,0,0-4.51,0Z" fill="#fff"/><path d="M273.05,593.85c-.33-.14-.47.34-.13.47a6.66,6.66,0,0,1,3.43,2.36c.21.27.54-.07.34-.34a8,8,0,0,0-3.64-2.49Z" fill="#fff"/><path d="M261.47,593.44c.27.21.54-.26.27-.47a15.07,15.07,0,0,0-7.2-2.42.27.27,0,0,0,0,.54,13.53,13.53,0,0,1,6.93,2.35Z" fill="#fff"/><path d="M260.53,594.66c.34.06.47-.41.14-.47a7.88,7.88,0,0,0-6.06.6c-.27.14,0,.54.27.41a7.13,7.13,0,0,1,5.65-.54Z" fill="#fff"/><path d="M259.72,595.87c.34-.07.21-.61-.13-.47a7.58,7.58,0,0,0-4.24,2.49c-.21.2.13.6.33.34a7.3,7.3,0,0,1,4-2.36Z" fill="#fff"/><path d="M243,573.65c-.21-.27-.61,0-.48.34a11.66,11.66,0,0,1,1.69,4.24l.33-.34c-.53-.2-1.07-1.28-1.81-.81-.54.34-.34.88-.14,1.28L243,578c-.47-.27-1-.48-1.42-.07a.62.62,0,0,0,0,.87c.21.27.54-.06.34-.33.27,0,.54-.07.81-.07a.25.25,0,0,0,.34-.34c-.48-1,1,.07.87,0,.27.14.27.21.54.27a.32.32,0,0,0,.34-.33,11.86,11.86,0,0,0-1.75-4.38Z" fill="#fff"/><path d="M276.42,573.92a.32.32,0,0,0-.54-.27,8,8,0,0,0-.4,3.57c.07.33.54.33.54,0h.74c0,.13.07.27.2.27a.9.9,0,0,1,.74,1.14c-.07.34.4.47.47.14a1.28,1.28,0,0,0-.34-1.35,2.86,2.86,0,0,1-.53-.34c-.14-.06-.14-.27-.27-.4-.61-.74-1.55-.14-1.55.67H276a9.84,9.84,0,0,1,.4-3.43Z" fill="#fff"/></g><g id="cat_paw_left" data-name="cat paw left"><path d="M298.44,629.87c-3.37,1.48-7.07-1.48-13.67-5-7.2-3.77-5-1.35-29-10.44-15.49-5.86-18.58-7.67-18.85-10.43-.34-3.24,3.43-7.07,7.54-8,6.46-1.41,11.31,4.78,22.08,11.31a90.7,90.7,0,0,0,22.63,9.63,49.5,49.5,0,0,0,7.81,2.22c2.82.54,3.9.48,4.64,1.35C303.42,622.67,301.8,628.32,298.44,629.87Z" fill="#1e0a32"/></g></g><g id="arm_right" data-name="arm right"><path d="M490.19,387.35c5.32,20.33,10,38.38,27.27,51.64,17.91,13.67,37.77,13.4,43.23,13.13,7.47-.34,18.65-.88,26.79-9.36,7.28-7.54,11.25-20.47,6.6-25.85-3.7-4.31-10.64-1.28-24-1.89A84.46,84.46,0,0,1,540.56,408a158.67,158.67,0,0,0-12.19-50.23c-8.15-19.05-15.28-24.84-21.61-27.67-3.57-1.62-10-4.51-15-1.88C477.33,335.71,488.85,381.56,490.19,387.35Z" fill="#fff" stroke="#1e0a32" stroke-miterlimit="10" stroke-width="2"/><path d="M487.9,331.87a12.18,12.18,0,0,0-2.55,8c-.14,26.93,2.15,37.91,2.15,37.91a172.88,172.88,0,0,0,9.83,32c3.57,8.35,5.32,12.52,8.42,16.76,11.24,15.55,28,20.6,34.6,22.62,12.73,3.84,22.36,3,28.42,2.56,5.79-.47,10.16-1.55,14.2-4.37a24.67,24.67,0,0,0,6.94-7.68c-10.37.54-54.81,2.09-74-25.18-11.91-17-14.27-45.18-14.61-49.22-1.48-19,1.82-35.82-4-37.91C494.5,326.41,490.06,328.91,487.9,331.87Z" fill="#464664" opacity="0.12" style="isolation:isolate"/><path d="M511.13,432.39c19.6,18.92,48.35,19.86,48.48,19.33s-14.07-1.76-29.15-12.39C515.71,428.89,507.7,415,501.64,404c-9.29-16.7-11.31-27.54-12.05-27.34C488.31,377,489.25,411.25,511.13,432.39Z" fill="#464664" opacity="0.25" style="isolation:isolate"/></g><g id="torso"><path d="M417,306.82c-34.81,9-53.8,34-59.19,41.75a605.64,605.64,0,0,0,11.72,62c6.46,26.46,11.24,37.84,18.11,48.47a119.93,119.93,0,0,0,19.12,22.76,109.38,109.38,0,0,0,114.73-9.22c-.34-5.79-.74-15-.47-26.26.81-33.94,6.73-38.58,5.32-60.26-.61-9.76-2.42-32.05-18-52.52a75.53,75.53,0,0,0-17.5-17C460.57,295.65,423.27,305.21,417,306.82Z" fill="#fa1e46"/><path d="M392.5,316.79a101.34,101.34,0,0,0-34.07,31.57c.87,10,4.91,50.91,17.17,83.9,6.73,18.18,14.07,28.88,16.49,32.25a124.76,124.76,0,0,0,15.09,17.57,125.49,125.49,0,0,0,50.56,11.25,120.64,120.64,0,0,0,21.41-1.76c-16.49-23.16-37.1-56.22-51.91-95.47C418.62,373.34,414.58,355.43,416,335a120.53,120.53,0,0,1,5.58-29.15A99.25,99.25,0,0,0,392.5,316.79Z" fill="#464664" opacity="0.09" style="isolation:isolate"/><path d="M372.1,419.6c5.92,22.62,10.5,33.73,18.58,44.57a96.35,96.35,0,0,0,17.57,17.91,135.48,135.48,0,0,0,29.83,9.49A142.21,142.21,0,0,0,461.24,494c-15.75-6.73-35.89-18.32-52.65-38.58-8.28-10-13.06-18.92-21.41-34.74a503.58,503.58,0,0,1-27-60.74A511.62,511.62,0,0,0,372.1,419.6Z" fill="#464664" opacity="0.14" style="isolation:isolate"/></g><g id="leg_left-2" data-name="leg left"><path d="M483.73,593.24q18.58,27.38,37,54.81,81.4,4.25,82.68-4,1.21-7.58-66.59-25.79l-19-33.73Z" fill="#1e0a32"/><path d="M452.69,478.85q42.53,49.08,85,98.1a54.67,54.67,0,0,1-11.38,25.65c-13.67,17-33,19.93-37.64,20.54q-71.19-81-71.3-80.93c0,.06,7.61,8.88,23,26.52-1.68-.2-40.8-6.19-53.73-39.59-8-20.8-5.32-50.76,12-61C413.64,459.26,436.13,463.23,452.69,478.85Z" fill="#fff" stroke="#1e0a32" stroke-miterlimit="10" stroke-width="2"/><path d="M384.35,487.47c-4,10.43-2.69,19.46-1.68,26.59.87,6.06,2.62,17.17,10.7,28.35,9.36,12.79,21.48,18.11,28.35,21a76.69,76.69,0,0,0,18.45,5.11Q464.6,596,489.05,623.47a53.83,53.83,0,0,0,20.2-7.27,52.17,52.17,0,0,0,9-6.87c-32.72-24.64-61.47-47.46-86.65-67.8-8.69-7-21.35-17.5-28.75-35.61a81.18,81.18,0,0,1-5.59-36A43.92,43.92,0,0,0,384.35,487.47Z" fill="#464664" opacity="0.16" style="isolation:isolate"/><path d="M386.51,527.87a60.5,60.5,0,0,0,16.76,23.56c14,12.73,29.76,16.36,37.3,17.57-9.56-5-30.16-17.3-44.17-42.08a105.8,105.8,0,0,1-12-34.34A60.73,60.73,0,0,0,386.51,527.87Z" fill="#464664" opacity="0.19" style="isolation:isolate"/><path d="M489.52,623.88c5.32-1.89,10.57-3.71,15.89-5.59Q421,539.21,418.28,541.94T489.52,623.88Z" fill="#464664" opacity="0.12" style="isolation:isolate"/></g><g id="book"><path d="M598.73,381.15c-3.77,23.43-4.24,33.4-8.22,51.24-5.79,26.19-10.3,29.9-12.79,31.44-12.05,7.68-29-.6-30.7-1.48-4.11-2-6.46-4.1-29.29-44.23-5.59-9.7-11.38-20.27-7.47-29.9a17.85,17.85,0,0,1,2.29-4.1c1.14-.41,2.35-.88,3.5-1.28-.74-1-1.48-2.09-2.22-3.1a88.49,88.49,0,0,0,29.69,11.51c9.83,1.75,20.74,1.82,33.8,9,2.42,1.34,4.31,2.56,5.59,3.43a70.37,70.37,0,0,1,2.76-15.82c1.34-4.51,2.82-7,10.23-22,1.68-3.43,3-6.19,3.84-7.87.2.74.4,1.54.6,2.28h2.09C601.49,365,600.14,372.27,598.73,381.15Z" fill="#fff" stroke="#1e0a32" stroke-miterlimit="10" stroke-width="2"/><path d="M598.59,363.92a.27.27,0,0,0-.47-.27c-5.79,12.32-11.44,24.84-13.19,38.44,0,.34.47.34.53,0,1.76-13.46,7.41-25.92,13.13-38.17Z" fill="#1e0a32"/><path d="M600.75,361.76c.13-.27-.27-.54-.41-.27a164.5,164.5,0,0,0-8.48,22.16c-.13.33.4.47.47.13a161.08,161.08,0,0,1,8.42-22Z" fill="#1e0a32"/><path d="M591.52,383.38c.14-.27-.4-.41-.53-.14a89.89,89.89,0,0,0-4.58,18.85c0,.34.47.34.54,0a89.23,89.23,0,0,1,4.57-18.71Z" fill="#1e0a32"/><path d="M597.38,373.81c.14-.33-.4-.47-.47-.13a216.56,216.56,0,0,0-8,23.36c-.14.34.4.47.47.14a216,216,0,0,1,8-23.37Z" fill="#1e0a32"/><path d="M581.69,405.33c.27.2.54-.27.27-.48a67.72,67.72,0,0,0-28-10.63c-.33-.07-.47.4-.13.47a67,67,0,0,1,27.87,10.64Z" fill="#1e0a32"/><path d="M577.52,404.52c.27.13.47-.27.27-.41-8.42-5.11-18-7.2-27.47-9.36a190.49,190.49,0,0,1-31.65-9.83c-.27-.13-.4.34-.13.48A193.32,193.32,0,0,0,549,395c9.83,2.22,19.73,4.24,28.48,9.56Z" fill="#1e0a32"/><path d="M579.14,406.87c.26.14.53-.27.26-.4a159.12,159.12,0,0,0-31-10.44c-11.32-2.62-22.29-7-33.27-10.77-.33-.13-.47.34-.13.47,10.64,3.64,21.21,7.81,32.12,10.51,11.11,2.69,21.68,5.72,32,10.63Z" fill="#1e0a32"/><path d="M606.2,361.9q-6.56,46.56-13.13,93.11c-3,13.13-6,26.2-9,39.33-3.37.8-6.67,1.61-10,2.42l-70-10.71-2.76-1.75q3.94-48,7.95-95.87c.81-.75,1.61-1.42,2.42-2.09q34.55,11.42,69,22.76l7.28-2.43c4.91-15.55,9.89-31,14.81-46.59C603.91,360.69,605.06,361.22,606.2,361.9Z" fill="#fff" stroke="#1e0a32" stroke-miterlimit="10" stroke-width="2"/><path d="M589.1,407.08c0-.95-1.48-.95-1.55,0-1.08,29.22-3.16,58.37-4.78,87.52,0,.95,1.48.95,1.55,0,1.62-29.15,3.7-58.37,4.78-87.52Z" fill="#1e0a32"/><path d="M582.1,409c.13-1-1.42-1-1.55,0a220.3,220.3,0,0,0-1.35,24.91c.07.95,1.55.95,1.55,0A220.3,220.3,0,0,1,582.1,409Z" fill="#1e0a32"/><path d="M519.35,397c-.41,5.26-.88,10.51-1.35,15.76,14.81,4.51,29.69,9.09,44.57,13.6.41-5,.74-10.1,1.15-15.15C548.9,406.54,534.16,401.82,519.35,397Z" fill="#5a14d2"/><path d="M509.52,387.62q-3.84,48.57-7.68,97.09c1.21.47,2.36,1,3.57,1.48l68.14,10.91c3.3-.74,6.53-1.42,9.76-2.09.47-12.05,1-24,1.48-36-2.29-3.84-4.51-7.68-6.8-11.52-.27,5.46-.61,11-.87,16.5a74.27,74.27,0,0,1-36.9-67.53C530,393.48,519.75,390.58,509.52,387.62Z" fill="#464664" opacity="0.16" style="isolation:isolate"/><path d="M575.84,482.89c-.68,5.72-1.35,10.5-1.82,13.8l7.54-1c-.27-3.16-.61-8.08-.81-14.07-.54-18.38,1.28-26.8,1.68-46.05.34-13.54-.2-26-.67-26C581,409.57,581.09,440.07,575.84,482.89Z" fill="#464664" opacity="0.1" style="isolation:isolate"/></g><g id="fingers"><path d="M598.12,411.05a20.06,20.06,0,0,0-3.36,7.74c-.48,2.22-.14,3-.88,5.19-.54,1.54-1.08,2-1.28,3.5-.2,1.21,0,1.68.27,4.1.27,3,.07,3.1.4,5.66.34,2.76.54,4.17,1.28,4.51,1.35.67,3.84-1.14,4.92-3.23a7.23,7.23,0,0,0,.67-3,11.76,11.76,0,0,0,2.09-4.78c.34-1.75-.07-2,.13-4.11.34-3.23,1.35-3.77,1.69-6.6.13-1,0-1.08-.41-5.32-.6-6.26-.54-7.61-1.28-7.88C601.15,406.47,599.07,409.5,598.12,411.05Z" fill="#fff"/><path d="M602.9,406.2c-.4-.87-1.75-.07-1.34.74a12.5,12.5,0,0,1-7.28,17.37c-.94.34-.53,1.82.41,1.48a14.11,14.11,0,0,0,8.21-19.59Z" fill="#1e0a32"/><path d="M602.63,407.48c.74-.67-.33-1.75-1.07-1.08A26.31,26.31,0,0,0,593,424.51a.77.77,0,0,0,1.54,0,25.12,25.12,0,0,1,8.08-17Z" fill="#1e0a32"/><path d="M604.59,415.63c-.21-.95-1.62-.54-1.49.33a12.42,12.42,0,0,1-9.83,15.22c-.94.2-.53,1.68.41,1.48a14,14,0,0,0,10.91-17Z" fill="#1e0a32"/><path d="M603.17,425.59a.73.73,0,1,0-1.41.41,8.89,8.89,0,0,1-7.27,11c-1,.2-.54,1.68.4,1.48a10.42,10.42,0,0,0,8.28-12.86Z" fill="#1e0a32"/><path d="M601.22,435.15c-.13-.94-1.62-.94-1.48,0a5.24,5.24,0,0,1-1.89,4.72c-.6.47-1.88,1.27-2.69.94-1.08-.47-.4-1.95-.07-2.7s-1.14-1.27-1.48-.4c-.54,1.15-.94,2.76,0,3.84a3,3,0,0,0,3.5.47,6.79,6.79,0,0,0,4.11-6.87Z" fill="#1e0a32"/><path d="M594.28,438.32c1,0,1-1.48,0-1.55-.8,0-.94-1.95-.94-2.43a5.08,5.08,0,0,1,.74-2.55c.54-.81-.81-1.62-1.28-.74a6.62,6.62,0,0,0-.8,4.51c.2,1.28.8,2.76,2.28,2.76Z" fill="#1e0a32"/><path d="M592.4,432.12c.67.74,1.75-.33,1.14-1.07s-.4-2.23-.27-3a5.6,5.6,0,0,1,1.42-2.69c.67-.74-.41-1.82-1.08-1.08a7.12,7.12,0,0,0-2,4c-.2,1.21-.2,2.9.74,3.77Z" fill="#1e0a32"/></g><g id="hand_left" data-name="hand left"><path d="M352.17,357.52c-6,12.66-2.76,24.91,3.9,48.88,4.72,16.9,8.28,29.76,18,45,9,14.14,19.46,30.5,40.19,38.24,19.53,7.34,37.31,2.9,43,1.42a76.56,76.56,0,0,0,32.05-17.44,57.06,57.06,0,0,0,25,10.7,54.43,54.43,0,0,0,22.49-2.22c2.29-.74,4.92-1.82,5.93-4.24a6.22,6.22,0,0,0,.13-4.11,6.66,6.66,0,0,0,4.65-3.16,6.76,6.76,0,0,0,.33-5.86,6.43,6.43,0,0,0,3.84-4,6.6,6.6,0,0,0-1.07-5.79,6.9,6.9,0,0,0,3-2.36,8.23,8.23,0,0,0,.34-8.15c-2.69-4.78-11.71-3-25.25-4a117.29,117.29,0,0,1-22.15-3.77,37.8,37.8,0,0,1,2.16-5c2.82-5.46,5.05-6.73,4.57-8.35-.74-2.29-6.73-3.84-11.71-2.15-7.68,2.55-6.94,10.84-14.21,18.24-7.47,7.61-17.91,8.55-27.13,9.36a65.34,65.34,0,0,1-34-6.46c-1.48-5.46-3.77-13.94-6.2-24.44-7-29.83-6.12-34.61-11-46.12-3.37-7.95-14.55-34.34-31.78-34.61C366,337,356.21,348.5,352.17,357.52Z" fill="#fff" stroke="#1e0a32" stroke-miterlimit="10" stroke-width="2"/><path d="M551.6,455a.77.77,0,0,0-.41-1.48A47.43,47.43,0,0,1,525,454.61c-.94-.2-1.34,1.28-.4,1.48a49,49,0,0,0,27-1.08Z" fill="#1e0a32"/><path d="M548,465.18a.77.77,0,0,0-.4-1.48,56.52,56.52,0,0,1-25.32.34c-.94-.21-1.34,1.28-.4,1.48a57.05,57.05,0,0,0,26.12-.34Z" fill="#1e0a32"/><path d="M543.79,474a.77.77,0,0,0-.41-1.48,45.66,45.66,0,0,1-22.75,1.14c-1-.2-1.35,1.28-.41,1.49A47.48,47.48,0,0,0,543.79,474Z" fill="#1e0a32"/><path d="M349.27,366.54c-.87,4.31-1.34,10.3,3.7,30,4.18,16.63,7,27.61,14.08,42,4.44,9.09,10.1,20.33,21.14,32.18,5.25,5.66,10.43,11,19,15.62a65.71,65.71,0,0,0,31,7.34c18.58.13,32.11-7.34,38.64-11a83.78,83.78,0,0,0,12.86-8.89,47.6,47.6,0,0,0,12.26,7.07,53.44,53.44,0,0,0,19,3.37c5.11.06,8-.48,13.8-1.55,4.24-.81,6.6-1.62,7.94-3.71a7.32,7.32,0,0,0,1-5.18l4.57-5.18a62.11,62.11,0,0,1-15.35,3.09,71,71,0,0,1-15-.6,89.23,89.23,0,0,1-26.4-7.95,67.62,67.62,0,0,1-34.33,13.2c-22.42,1.88-38.79-8.75-45.05-12.86-25-16.43-33.26-42.82-41.07-67.74a205.66,205.66,0,0,1-9.22-52.45C357.42,347.89,351.36,355.7,349.27,366.54Z" fill="#464664" opacity="0.12" style="isolation:isolate"/><path d="M364.56,430.91c4.71,11.58,8.88,21.48,17.77,32.52,6.2,7.74,14.27,17.78,28.82,24.24,19.66,8.75,37.77,5.05,43.83,3.7,20.4-4.44,35.15-16.76,34.34-18.38-1-2-25.39,15.49-57.64,12a69.38,69.38,0,0,1-30.36-10.44c-3.71-2.42-14.34-9.83-29.56-39.25a279.65,279.65,0,0,1-20.47-51.51A205.4,205.4,0,0,0,364.56,430.91Z" fill="#464664" opacity="0.2" style="isolation:isolate"/><path d="M519.62,485c-17.11.33-28.48-9.9-31-12.26A71.58,71.58,0,0,0,524.8,481a69.21,69.21,0,0,0,17.51-3.09A43.15,43.15,0,0,1,519.62,485Z" fill="#464664" opacity="0.12" style="isolation:isolate"/></g><g id="head-2" data-name="head"><path d="M428.92,218.15c-3.5,3.3-5.18,6.8-7.2,10.84-4,8.08-4.11,14-6.06,40.6-.81,11.24-.54,17.23-3.43,27.2a81.9,81.9,0,0,1-5.59,14.27,148.76,148.76,0,0,0,18.18,12.53c16.63,9.76,41.74,24.44,61.8,15.15,4-1.82,11.25-6.2,17.31-17.71a202.49,202.49,0,0,1-5.19-36.7c-.53-11.24.27-18.11-.87-33.26-1.08-14-1.62-21-3.84-24.77C483.19,208.12,445.69,202.46,428.92,218.15Z" fill="#fff" stroke="#1e0a32" stroke-miterlimit="10" stroke-width="2"/><path d="M487.16,283.05c-6.19,2.83-11.85,2.16-15.62,1.69a40.65,40.65,0,0,1-18.24-7.61c-7-5.12-6.8-8-20.74-24.51-6.67-7.88-10.44-11.78-14.95-11.24-3.37.4-5.59,3-6.8,4.44-4.85,5.66-6.13,15.55-1,22.42A18.12,18.12,0,0,0,420,274.71c-4.31-5-4.58-11.25-1.69-14.28a6.87,6.87,0,0,1,6.13-2c4.85,1.21,6.33,9.29,6.8,11.92,2.15,11.71-3.84,14.68-4.11,27.2-.2,9.63,3.1,17,7.81,27.2,3.57,7.81,5.73,12.32,10.91,16.3a31.19,31.19,0,0,0,17,6.12,30.32,30.32,0,0,0,16-3.77c-2.29,2.49-4.51,5-6.8,7.48a44,44,0,0,0,16.7-6.8c11.38-7.75,15.62-18.72,17.37-23.5a53.43,53.43,0,0,0-6.93-49.49A26.37,26.37,0,0,1,487.16,283.05Z" fill="#1e0a32"/><path d="M478.68,252.08c-.27-1.21-2.22-.67-1.95.54a133.22,133.22,0,0,1,2.42,18.58,77.66,77.66,0,0,1,.2,8.89c-.33,3.91-5.92-.2-7.61-1.34-1.07-.75-2.08,1-1,1.75,1.89,1.28,5.66,4.44,8.22,3.83s2.42-3.56,2.42-5.52a131.81,131.81,0,0,0-2.69-26.73Z" fill="#1e0a32"/><path d="M489.12,259.62a1,1,0,1,0,1.68.95,6.82,6.82,0,0,0,.07-7.21,1,1,0,0,0-1.82.27,13,13,0,0,0-.81,7c.07.68.94.88,1.48.61.2-.14.41-.2.61-.34,1.14-.6.13-2.35-1-1.75-.2.14-.41.2-.61.34l1.48.6a11.89,11.89,0,0,1,.81-5.92c-.61.13-1.21.2-1.82.27a4.81,4.81,0,0,1-.06,5.18Z" fill="#1e0a32"/><path d="M460.16,259a1,1,0,1,0,1.69.94,6.77,6.77,0,0,0,.87-4.24c-.13-1.08-.54-2.9-1.88-3s-1.82,1.61-2,2.69a13.57,13.57,0,0,0,.13,4.92,1,1,0,0,0,1.69.47,4,4,0,0,0,1.34-2.9c.07-1.28-2-1.28-2,0a1.77,1.77,0,0,1-.74,1.48,15.77,15.77,0,0,0,1.68.48,10.1,10.1,0,0,1-.26-2.83c0-.2.53-2.29.47-2.36-.68-.2-.88-.13-.61.27l.2.61a6.34,6.34,0,0,1,.14,1.14,4.73,4.73,0,0,1-.68,2.36Z" fill="#1e0a32"/><path d="M462,255.38c.14-1.28-1.88-1.28-2,0s-.2,2.43-.33,3.64,1.88,1.28,2,0,.2-2.43.33-3.64Z" fill="#1e0a32"/><path d="M462.12,258.14a1.14,1.14,0,0,0-1.28-.74.94.94,0,0,0-.68,1.21c0,.14.07.21.07.34v.27c0-.07-.07.13,0,.07s.07-.14.14-.21c-.14.07.06,0,0,0h.13c.14.07.4.34.27.14a1,1,0,0,0-1.41,1.41,1.62,1.62,0,0,0,2.35,0,2.49,2.49,0,0,0,.41-2.49Z" fill="#1e0a32"/><path d="M491.34,253.83a1,1,0,0,0-2,.54,8.22,8.22,0,0,1-.2,5.12c-.4,1.21,1.55,1.75,2,.54a10.27,10.27,0,0,0,.2-6.2Z" fill="#1e0a32"/><path d="M489.52,257.33c-.2,1.28,1.68,1.82,2,.54a9.14,9.14,0,0,0-.07-3.57,1,1,0,0,0-2,.54,7.43,7.43,0,0,1,.07,2.7,1,1,0,0,0,.67,1.21,1,1,0,0,0,1.21-.67,10.23,10.23,0,0,0-.07-3.78c-.67.21-1.27.34-1.95.54a5.25,5.25,0,0,1,.07,2.49Z" fill="#1e0a32"/><path d="M493.9,250c.33.94,1.81.53,1.41-.41a5.57,5.57,0,0,0-9.56-2c-.61.74.4,1.82,1.08,1.08A4.06,4.06,0,0,1,493.9,250Z" fill="#1e0a32"/><path d="M465.35,250a.76.76,0,0,0,1.28-.81c-3.17-5-10.44-2.22-12.32,2.42-.34.88,1.14,1.28,1.48.41,1.41-3.37,7.13-5.93,9.56-2Z" fill="#1e0a32"/><path d="M521.5,230.6c3.84-.53,3.84-6.59,0-6.06q-55.54,7.38-111,14.68c-3.83.47-3.83,6.6,0,6.06q55.56-7.36,111-14.68Z" fill="#1e0a32"/><path d="M416,238.89a38.54,38.54,0,0,1,16.29-39.32c13.13-8.89,31.31-9.57,43.16-2.5,6.26,3.71,9.9,8.89,12,11.85a50,50,0,0,1,8.22,19.13Q455.86,233.5,416,238.89Z" fill="#5a14d2"/><path d="M451.14,192.83c-13.53,1.55-22.15,10.1-24.51,12.46-3,3.1-9.83,10.23-11.44,21.54a33.58,33.58,0,0,0,.47,12.06c11.65-1.49,23.23-3,34.88-4.52a23.15,23.15,0,0,1-10.24-21.14c.94-9.89,8.69-18.31,19.06-20.4A37.14,37.14,0,0,0,451.14,192.83Z" fill="#320064"/><path d="M424,243.46a109.64,109.64,0,0,1,10.1,10.71c5.72,6.87,9.56,12.52,9.56,12.52,2.29,3.37,3.1,4.92,5.25,7.07a30.88,30.88,0,0,0,8.42,5.93,52.05,52.05,0,0,1-6.87-25.12,51.2,51.2,0,0,1,2.09-14.81C443.06,241,433.57,242.19,424,243.46Z" fill="#464664" opacity="0.24" style="isolation:isolate"/><path d="M418.69,259.42c-3,2.43-3.17,8.89.81,15.15-1.22-.54-2.49-1.08-3.77-1.62a70.63,70.63,0,0,1-4.45,28.22,65.61,65.61,0,0,1-4.78,10c3,2.09,6.06,4.11,9.23,6.13,7.6,4.91,15.15,9.49,22.55,13.66a89.93,89.93,0,0,1-7.94-17.17c-1.62-4.84-2.76-8.28-3-13.19A43.8,43.8,0,0,1,429,287c1.08-4,1.75-4,2.29-7.27.74-4.31.2-7.68-.34-11.38-.6-4.31-1.48-5.93-2.29-7.07a7.61,7.61,0,0,0-3.43-3A6.74,6.74,0,0,0,418.69,259.42Z" fill="#464664" opacity="0.22" style="isolation:isolate"/><path d="M416.8,268.78a12.63,12.63,0,0,0,3.3,5.93c-1.61-.61-3.16-1.22-4.78-1.82a90.36,90.36,0,0,1-1.48,17.5,92.53,92.53,0,0,1-6.6,21.08c6.33,4.31,12.66,8.55,19,12.86a62,62,0,0,1-8-17.64c-1.61-5.86-3-11.18-1.48-17.78a27.64,27.64,0,0,1,6.74-12.52,50.16,50.16,0,0,1-3.3-5.93,45.21,45.21,0,0,1-3-8.55A12.44,12.44,0,0,0,416.8,268.78Z" fill="#464664" opacity="0.21" style="isolation:isolate"/><path d="M423.4,243.46c1.89,1.49,3.7,3,5.52,4.52L453,239.49C443.13,240.77,433.3,242.12,423.4,243.46Z" fill="#464664" opacity="0.19" style="isolation:isolate"/></g></g></g></g></svg>