<svg xmlns="http://www.w3.org/2000/svg" viewBox="0 0 852.92 680"><g id="Camada_2" data-name="Camada 2"><g id="Camada_1-2" data-name="Camada 1"><path d="M600.88,104.65H735.42a1,1,0,0,0,0-2.08H600.88a1,1,0,0,0,0,2.08Z" fill="#e6e7e8"/><path d="M602.12,112.21H734.94a1,1,0,0,0,0-2.08H602.12A1,1,0,0,0,602.12,112.21Z" fill="#e6e7e8"/><path d="M603.16,79.56c9.08.28,18.58,1.39,27.66.28,1.32-.14,1.32-2.22,0-2.08-9.08,1.11-18.58,0-27.66-.28C601.85,77.41,601.85,79.49,603.16,79.56Z" fill="#e6e7e8"/><path d="M629.78,80.25c-1,7.49-1.87,15-2.84,22.53-.14,1.32,1.94,1.32,2.08,0,1-7.48,1.87-15,2.84-22.53C632,78.94,629.92,78.94,629.78,80.25Z" fill="#e6e7e8"/><path d="M613.49,77.27a12.67,12.67,0,0,1-4.09-2.35c-1.8-1.81-1.66-4.23-1.94-6.59-.42-3.12-2.15-5.89-2.36-9.08-.55.28-1,.62-1.59.9,6.45,4.16,12.13,10.05,11.92,18.23-.07,1.32,2,1.32,2.08,0,.28-8.94-5.89-15.46-13-20a1.09,1.09,0,0,0-1.6.9,21.09,21.09,0,0,0,1.32,5.34c.9,2.49.9,4.92,1.39,7.48.76,3.82,3.39,5.48,6.72,7C613.63,79.56,614.67,77.83,613.49,77.27Z" fill="#e6e7e8"/><path d="M615.5,68.4c-.76-5.27,2.7-10.33,4.65-15A26.18,26.18,0,0,0,622.57,42c-.69.07-1.38.21-2,.28,2.57,12,5.76,23.36.28,35.14-.56,1.18,1.25,2.29,1.8,1a36.89,36.89,0,0,0,3.54-17.19c-.35-6.59-2.22-13.1-3.61-19.55a1,1,0,0,0-2,.28c.42,9.63-8.46,17.4-7,27,.14,1.32,2.15.77,1.94-.55Z" fill="#e6e7e8"/><path d="M649.4,28.26c.83,25.24,1.11,50.4.62,75.63a1,1,0,0,0,2.08,0q.63-37.85-.62-75.63A1,1,0,0,0,649.4,28.26Z" fill="#e6e7e8"/><path d="M661.53,28.26c.14,24.89.28,49.71.42,74.59a1,1,0,0,0,2.07,0c-.13-24.88-.27-49.7-.41-74.59A1,1,0,0,0,661.53,28.26Z" fill="#e6e7e8"/><path d="M652.52,45a7.17,7.17,0,0,1,9.43.35c1,.9,2.42-.56,1.45-1.46a9.31,9.31,0,0,0-12.34-.35c-1,.83.42,2.29,1.46,1.46Z" fill="#e6e7e8"/><path d="M651.62,37.07a8.34,8.34,0,0,1,10.6-.28c1.11.83,2.08-1,1-1.8a10.54,10.54,0,0,0-13.17.62C649.12,36.51,650.65,38,651.62,37.07Z" fill="#e6e7e8"/><path d="M663.68,46.08a37.82,37.82,0,0,1,9.22,1.11,12.19,12.19,0,0,0-.76-1c.41,18.71.2,37.36-.77,56.08-.07,1.31,2,1.31,2.08,0,1-18.65,1.18-37.37.76-56.08a1,1,0,0,0-.76-1,38.48,38.48,0,0,0-9.77-1.18,1,1,0,1,0,0,2Z" fill="#e6e7e8"/><path d="M664.16,65.77a8.33,8.33,0,0,1,9-.21,1,1,0,0,0,1-1.81,10.26,10.26,0,0,0-11,.21C662,64.66,663.05,66.46,664.16,65.77Z" fill="#e6e7e8"/><path d="M663.82,55.85a9.3,9.3,0,0,1,7.69-.21c1.25.49,2.29-1.24,1-1.8a11.52,11.52,0,0,0-9.77.21C661.6,54.67,662.64,56.48,663.82,55.85Z" fill="#e6e7e8"/><path d="M678.79,102.5c0-1.17-.76-5.47-.07-6.3,1-1.18,6.31-.77,7.69-.84,4.79-.27,9.64-.48,14.42-.55,9.64-.14,19.27.21,28.84,1l-1-1a60.39,60.39,0,0,1,.55,9.43,1,1,0,0,0,2.08,0,70.33,70.33,0,0,0-.55-9.43,1.07,1.07,0,0,0-1-1,322.31,322.31,0,0,0-35.7-.76c-2.77.07-5.48.21-8.25.41-2,.14-5.75-.27-7.62.63-2.71,1.25-1.46,6.31-1.39,8.59a1,1,0,0,0,2.08-.07Z" fill="#e6e7e8"/><path d="M685.93,93c-.14-.77-.83-3.05-.69-3.82.48-2.07,2.49-1.59,4-1.59,2.49-.07,5.06-.07,7.55-.14,5.27-.07,10.54-.21,15.88-.28,5.06-.06,10.12-.2,15.18-.27,2.77-.07,5.54-.07,8.25-.14,1.94,0,3-.69,3.67,1.8a12.89,12.89,0,0,1,0,3.67c-.07,1.32,2,1.32,2.08,0,.07-1.8.62-5.33-.83-6.86-1.32-1.31-4-.69-5.62-.62L712,85.17l-22.73.42c-1.53,0-4.79-.62-5.9.76-1.31,1.6.28,5.55.56,7.28.28,1.25,2.29.69,2-.62Z" fill="#e6e7e8"/><path d="M692,86a25.08,25.08,0,0,1-.28-4c.14-1.39-.21-1.6,1.39-1.81,2.22-.27,5.06.49,7.28.63,4.64.34,9.36.55,14,.62s9.36.07,14-.14c2.08-.07,4.58-.62,6.66-.34a1.56,1.56,0,0,1,2.21.76,1.59,1.59,0,0,1,1,1.73c.2.56.27,1.25.48,1.87.49,1.25,2.5.7,2-.55-.62-1.53-.21-3.81-1.45-5.13s-2.71-.9-4.23-.83c-6.87.34-13.8.55-20.66.48-6.66-.14-13.31-.48-20-1.11-1.39-.14-3.54-.69-4.51.7-1.11,1.66-.14,5.19,0,7,.14,1.38,2.22,1.38,2.08.07Z" fill="#e6e7e8"/><g id="coins_ground" data-name="coins ground"><path d="M586.37,579.34a.7.7,0,0,0,0-1.39H561.74a.7.7,0,0,0,0,1.39Z" fill="#1e0a32"/><path d="M478.1,578.51a.7.7,0,0,0,0-1.39H459.83a.7.7,0,0,0,0,1.39Z" fill="#1e0a32"/><path d="M451,577.68a.7.7,0,0,0,0-1.39H440.36a.7.7,0,0,0,0,1.39Z" fill="#1e0a32"/><path d="M488.89,516.83V514a5.56,5.56,0,0,1,5.54-5.54H582a5.55,5.55,0,0,1,5.54,5.54v2.86a5.56,5.56,0,0,1-5.54,5.54h-87.6A5.57,5.57,0,0,1,488.89,516.83Z" fill="none" stroke="#1e0a32" stroke-miterlimit="10" stroke-width="2"/><path d="M480.31,531.5v-2.86a5.55,5.55,0,0,1,5.54-5.54h87.6a5.55,5.55,0,0,1,5.54,5.54v2.86a5.55,5.55,0,0,1-5.54,5.53h-87.6A5.55,5.55,0,0,1,480.31,531.5Z" fill="none" stroke="#1e0a32" stroke-miterlimit="10" stroke-width="2"/><path d="M500.52,545.8v-2.86a5.56,5.56,0,0,1,5.54-5.54h87.6a5.57,5.57,0,0,1,5.54,5.54v2.86a5.57,5.57,0,0,1-5.54,5.54h-87.6A5.56,5.56,0,0,1,500.52,545.8Z" fill="none" stroke="#1e0a32" stroke-miterlimit="10" stroke-width="2"/><path d="M489.77,559.27v-2.86a5.56,5.56,0,0,1,5.54-5.54h87.6a5.56,5.56,0,0,1,5.54,5.54v2.86a5.55,5.55,0,0,1-5.54,5.54H495.35A5.63,5.63,0,0,1,489.77,559.27Z" fill="none" stroke="#1e0a32" stroke-miterlimit="10" stroke-width="2"/><path d="M480.31,573.2v-2.86a5.55,5.55,0,0,1,5.54-5.53h87.6a5.55,5.55,0,0,1,5.54,5.53v2.86a5.55,5.55,0,0,1-5.54,5.54h-87.6A5.55,5.55,0,0,1,480.31,573.2Z" fill="none" stroke="#1e0a32" stroke-miterlimit="10" stroke-width="2"/><path d="M520,514.43a.53.53,0,0,0-1.06,0v5.72a.53.53,0,0,0,1.06,0v-5.72Z" fill="#1e0a32"/><path d="M516.94,515.45a.53.53,0,0,0-1.06,0v5.21a.53.53,0,0,0,1.06,0v-5.21Z" fill="#1e0a32"/><path d="M506.52,512.59a.53.53,0,0,0-1.06,0v7.28a.53.53,0,0,0,1.06,0v-7.28Z" fill="#1e0a32"/><path d="M504.44,516.74a.53.53,0,0,0-1.06,0v2.86a.53.53,0,0,0,1.06,0v-2.86Z" fill="#1e0a32"/><path d="M576,512.4a.53.53,0,0,0-1.06,0v8.07a.53.53,0,0,0,1.06,0V512.4Z" fill="#1e0a32"/><path d="M580.33,514.43a.53.53,0,0,0-1.06,0v4.75a.53.53,0,0,0,1.06,0v-4.75Z" fill="#1e0a32"/><path d="M563.07,512.72a.53.53,0,0,0-1.06,0v6.46a.53.53,0,0,0,1.06,0v-6.46Z" fill="#1e0a32"/><path d="M567.83,516.51a.54.54,0,0,0-1.07,0v4.29c0,.69,1.07.64,1.07,0v-4.29Z" fill="#1e0a32"/><path d="M543.65,512.86a.53.53,0,0,0-1.06,0v8.4a.53.53,0,0,0,1.06,0v-8.4Z" fill="#1e0a32"/><path d="M540.47,516a.53.53,0,0,0-1.06,0v4.3a.53.53,0,0,0,1.06,0V516Z" fill="#1e0a32"/><path d="M535.76,512.22a.53.53,0,0,0-1.06,0v8.39a.53.53,0,0,0,1.06,0v-8.39Z" fill="#1e0a32"/><path d="M566.58,526.29a.53.53,0,0,0-1.06,0v10a.53.53,0,0,0,1.06,0v-10Z" fill="#1e0a32"/><path d="M560.86,529.61c0-.65-1-.65-1.06,0v7.1a.53.53,0,0,0,1.06,0v-7.1Z" fill="#1e0a32"/><path d="M542.36,527.72c0-.65-1-.65-1.06,0v7.1a.53.53,0,0,0,1.06,0v-7.1Z" fill="#1e0a32"/><path d="M530.37,525.18c0-.65-1-.65-1.06,0v11.53a.53.53,0,0,0,1.06,0V525.18Z" fill="#1e0a32"/><path d="M519.48,529.79a.53.53,0,0,0-1.06,0v3.79a.53.53,0,0,0,1.06,0v-3.79Z" fill="#1e0a32"/><path d="M588.4,541.33a.53.53,0,0,0-1.06,0v9.18a.53.53,0,0,0,1.06,0v-9.18Z" fill="#1e0a32"/><path d="M564,541.65a.53.53,0,0,0-1.06,0v9.5a.53.53,0,0,0,1.06,0v-9.5Z" fill="#1e0a32"/><path d="M574.15,542.43a.54.54,0,0,0-1.07,0v6.32a.54.54,0,0,0,1.07,0v-6.32Z" fill="#1e0a32"/><path d="M570.69,540.36a.54.54,0,0,0-1.07,0v5.21a.54.54,0,0,0,1.07,0v-5.21Z" fill="#1e0a32"/><path d="M537.15,540.54a.53.53,0,0,0-1.06,0v9.64a.53.53,0,0,0,1.06,0v-9.64Z" fill="#1e0a32"/><path d="M545.87,540.36a.53.53,0,0,0-1.06,0v2.35a.53.53,0,0,0,1.06,0v-2.35Z" fill="#1e0a32"/><path d="M516.48,537.54a.53.53,0,0,0-1.06,0v9.18a.53.53,0,0,0,1.06,0v-9.18Z" fill="#1e0a32"/><path d="M511.87,544.14c0-.65-1-.65-1.06,0v5.54a.53.53,0,0,0,1.06,0v-5.54Z" fill="#1e0a32"/><path d="M528.48,540.36a.54.54,0,0,0-1.07,0v8.07a.54.54,0,0,0,1.07,0v-8.07Z" fill="#1e0a32"/><path d="M579.54,552.4a.53.53,0,0,0-1.06,0v10.28a.53.53,0,0,0,1.06,0V552.4Z" fill="#1e0a32"/><path d="M571.52,564.53a.53.53,0,0,0,1.06,0V554.24a.53.53,0,0,0-1.06,0v10.29Z" fill="#1e0a32"/><path d="M568.19,564.25a.54.54,0,0,0,1.07,0v-4a.54.54,0,0,0-1.07,0v4Z" fill="#1e0a32"/><path d="M560.86,551.61a.53.53,0,0,0-1.06,0v10.75a.53.53,0,0,0,1.06,0V551.61Z" fill="#1e0a32"/><path d="M558.18,556.64c0-.64-1-.64-1.06,0v5.08a.53.53,0,0,0,1.06,0v-5.08Z" fill="#1e0a32"/><path d="M554.54,554.75c0-.65-1-.65-1.06,0v5.54a.53.53,0,0,0,1.06,0v-5.54Z" fill="#1e0a32"/><path d="M542.68,551.61a.53.53,0,0,0-1.06,0v11.21a.53.53,0,0,0,1.06,0V551.61Z" fill="#1e0a32"/><path d="M530.69,555.72a.53.53,0,0,0-1.06,0v6.18a.53.53,0,0,0,1.06,0v-6.18Z" fill="#1e0a32"/><path d="M514.27,551.29a.53.53,0,0,0-1.06,0v11.86a.53.53,0,0,0,1.06,0V551.29Z" fill="#1e0a32"/><path d="M509.19,557.1a.53.53,0,0,0-1.06,0v5.68a.53.53,0,0,0,1.06,0V557.1Z" fill="#1e0a32"/><path d="M500.47,551.89c0-.65-1-.65-1.06,0v8.86a.53.53,0,0,0,1.06,0v-8.86Z" fill="#1e0a32"/><path d="M566.63,578.32a.53.53,0,0,0,1.06,0V568a.53.53,0,0,0-1.06,0v10.28Z" fill="#1e0a32"/><path d="M562.84,578.14a.53.53,0,0,0,1.06,0v-5.21a.53.53,0,0,0-1.06,0v5.21Z" fill="#1e0a32"/><path d="M552.19,566.14a.53.53,0,0,0-1.06,0V578a.53.53,0,0,0,1.06,0V566.14Z" fill="#1e0a32"/><path d="M542.68,568a.53.53,0,0,0-1.06,0v7.28a.53.53,0,0,0,1.06,0V568Z" fill="#1e0a32"/><path d="M546,569.47a.54.54,0,0,0-1.07,0v2.86c0,.69,1.07.64,1.07,0v-2.86Z" fill="#1e0a32"/><path d="M525.48,565a.53.53,0,0,0-1.06,0v12.31a.53.53,0,0,0,1.06,0V565Z" fill="#1e0a32"/><path d="M521.51,570.39c0-.65-1-.65-1.06,0v5.53a.53.53,0,0,0,1.06,0v-5.53Z" fill="#1e0a32"/><path d="M511.41,565.64a.53.53,0,0,0-1.06,0v11.53a.53.53,0,0,0,1.06,0V565.64Z" fill="#1e0a32"/><path d="M493.05,566.61c0-.65-1-.65-1.07,0v10a.54.54,0,0,0,1.07,0v-10Z" fill="#1e0a32"/><path d="M490.23,570.9a.53.53,0,0,0-1.06,0v4.75a.53.53,0,0,0,1.06,0V570.9Z" fill="#1e0a32"/><path d="M502,536c0,.7,1,.65,1.06,0v-7.38a.53.53,0,0,0-1.06,0V536Z" fill="#1e0a32"/><path d="M495.68,525.59c0-.69-1-.64-1.07,0v9.92a.54.54,0,0,0,1.07,0v-9.92Z" fill="#1e0a32"/><path d="M490.88,505.85a.52.52,0,1,0-.56-.88,8.4,8.4,0,0,0-4.19,8c.09.65,1.1.65,1.06,0a7.51,7.51,0,0,1,3.69-7.15Z" fill="#1e0a32"/><path d="M596.52,540.13c-.37-.6-1.25,0-.92.5a6.61,6.61,0,0,1,.55,5.86c-.23.65.78.88,1,.28a7.5,7.5,0,0,0-.65-6.64Z" fill="#1e0a32"/><path d="M601.73,534.91c-.41-.5-1.15.23-.78.69a17,17,0,0,1,3.64,11,.53.53,0,0,0,1.06,0,17.8,17.8,0,0,0-3.92-11.67Z" fill="#1e0a32"/><path d="M491.34,549.63c.6-.32.05-1.2-.55-.88a6.51,6.51,0,0,0-3.51,5.81.53.53,0,0,0,1.06,0,5.51,5.51,0,0,1,3-4.93Z" fill="#1e0a32"/><path d="M514.17,508.43c-4.15-.18-8.35.23-12.5,0-5.3-.27-8.21-.83-10.47,1.16a8.49,8.49,0,0,0-2.49,5.67,7,7,0,0,0,1.61,5.44,6.68,6.68,0,0,0,4.8,1.8c-3.41.14-6.83.33-10.24.46a6.63,6.63,0,0,0-3.64,2.27c-2.13,2.76-1.43,7.24.69,9.54,1.57,1.67,3.55,1.8,12.27,2,3,.1,6.78.19,11.16.23a8.45,8.45,0,0,0-5.21,6.6,8.62,8.62,0,0,0,2.26,6.83l-9.78.69a8.58,8.58,0,0,0-2.95,5.68c-.32,4.56,3.41,7.38,3.64,7.52-.83-.19-8.16-1.62-11.39,2.49a8.18,8.18,0,0,0-.92,8.62,7.6,7.6,0,0,0,3.18,3.19l61.63-.7c-4.47-4.89-9-9.73-13.42-14.57a10.76,10.76,0,0,1,0-5.68,11,11,0,0,1,5.44-6.59A18.57,18.57,0,0,1,529,545a18.18,18.18,0,0,1-3.64-8.63,13.74,13.74,0,0,1,2.26-6.82c4-6,11.39-6.42,12.32-6.46-6.79-.23-13.52-.51-20.3-.79-.14-2.12-.33-4.24-.46-6.36a21.1,21.1,0,0,1,4.33-3.42,24.45,24.45,0,0,1,15.69-2.95C531.61,509.22,522.85,508.8,514.17,508.43Z" fill="#464664" opacity="0.15" style="isolation:isolate"/></g><g id="leg_r" data-name="leg r"><path d="M516.94,460.13q-2.36,23.6-4.7,47.1,54.79,5.53,56.09-.46c.74-3.32-10.84-9.27-34.64-17.9,1.43-7.52,2.81-15.08,4.24-22.6C531,464.24,524,462.21,516.94,460.13Z" fill="#1e0a32" stroke="#1e0a32" stroke-miterlimit="10" stroke-width="3"/><path d="M384.68,321.55c6.32-15.73,45.53-13,49.46-12.64,14.71,1.2,24.58,5.4,40.36,12.14s44.89,19.56,69.15,48.43c3.09,3.69,5.49,6.88,7.06,9.09,1.06,9.55,1.89,19.52,2.54,29.8,1.06,17.76,1.34,34.65,1,50.47A35,35,0,0,1,532.53,470c-17.62,1.8-29.24-11.4-30.3-12.64q.75-25.74,1.52-51.48a130.54,130.54,0,0,0-50.47-27.27c-12.59-3.46-16.79-2.44-26.76-6.55C401.94,361.92,378.82,335.9,384.68,321.55Z" fill="#fff" stroke="#1e0a32" stroke-miterlimit="10" stroke-width="3"/><path d="M384,326.67c-.65,21,27.26,37.14,32.2,39.95,21.4,12.32,31.14,7.15,57.11,19.2A144.45,144.45,0,0,1,504,405q-.76,26.14-1.57,52.4a50.49,50.49,0,0,0,19.75,10.38,49.08,49.08,0,0,0,10.37,1.57,132.56,132.56,0,0,0-2.07-34.28c-2.17-11.07-5.72-21.95-9.14-28.83-11.16-22.65-30.53-22.28-67.53-45.58-38.48-24.26-57.81-50-66.57-44C384.27,318.74,384.22,323.31,384,326.67Z" fill="#464664" opacity="0.16" style="isolation:isolate"/><path d="M405.4,358.74a69.72,69.72,0,0,0,18.17,11.94c6.88,3.09,9.6,2.86,28.56,7.8,10.84,2.81,16.28,4.29,19.19,5.72,8.07,4.06,10.65,7.84,21.26,14A122.61,122.61,0,0,0,505,404.45a224,224,0,0,0-36-27c-24.68-14.86-35.47-14.67-57.89-30.64-18-12.87-25.56-23.39-27.5-21.82C381.18,327,390.36,345.54,405.4,358.74Z" fill="#464664" opacity="0.25" style="isolation:isolate"/><path d="M502,456.86a42.24,42.24,0,0,0,10.89,8.3,44.31,44.31,0,0,0,9.36,3.65q-8.85-31.9-17.67-63.85Q503.23,430.91,502,456.86Z" fill="#464664" opacity="0.2" style="isolation:isolate"/></g><g id="leg_l" data-name="leg l"><path d="M366.88,532.19c-1.53,13.56-3,27.13-4.53,40.69q50.38,13,52.13,8.26c.93-2.63-9.32-9.37-30.86-20.21,1.43-7.52,2.82-15.08,4.25-22.6C380.85,536.3,373.89,534.27,366.88,532.19Z" fill="#1e0a32" stroke="#1e0a32" stroke-miterlimit="10" stroke-width="3"/><path d="M388.65,302.32,449.08,345C443.55,352.69,438,360.3,432.43,368a785,785,0,0,0-22.38,108.83c-2.9,22-4.7,42.85-5.72,62.51a47.36,47.36,0,0,1-45.85-3.65,553.86,553.86,0,0,0,7.29-96.37c-.37-26.15-2.58-45.85-1.06-81.24,1-22.92,3.09-41.7,4.7-54.15C375.87,303.38,382.28,302.87,388.65,302.32Z" fill="#fff" stroke="#1e0a32" stroke-miterlimit="10" stroke-width="3"/><path d="M441.47,349c-2.58,3.65,3.41,7.11,5.95,3.51,1.43-2,2.82-4,4.25-6,1.1-1.57.23-3.83-1.25-4.75a246.67,246.67,0,0,1-20.44-14c-5.58-4.29-10.84-8.95-16.56-13.1-3.69-2.68-7.42-5.21-11.21-7.75-3.27-2.26-6.73-5.26-10.56-6.5a25.17,25.17,0,0,0-7.71-.79c-4,0-8.07.19-12.08.37-4.43.23-4.43,7.15,0,6.92,4-.23,8-.37,12.08-.37,2.13,0,4.48-.14,6.46.83,3.69,1.8,7.11,4.66,10.47,6.92s7,4.8,10.43,7.34c5.4,4,10.38,8.44,15.73,12.5,6.41,4.89,13.1,9.36,19.93,13.61-.41-1.62-.83-3.19-1.25-4.76-1.43,2-2.81,4-4.24,6Z" fill="#fff"/><path d="M369.55,307.34A480.61,480.61,0,0,0,363.32,394c.7,34.32,5,57.2,1.57,97.57a396.94,396.94,0,0,1-6.23,44.1c2.4,2.07,9.88,8.07,20.26,7.79a26.87,26.87,0,0,0,8.3-1.57,568.92,568.92,0,0,1,28-232.5Z" fill="#464664" opacity="0.14" style="isolation:isolate"/><path d="M364.38,381.62c-.83,36,2.08,51.71,1.57,82.53a460,460,0,0,1-6.73,70.58A23.22,23.22,0,0,0,380.48,542q-3.18-36-5.72-73.16-4.85-72-6.73-140.15C366.69,340.19,364.94,358.74,364.38,381.62Z" fill="#464664" opacity="0.2" style="isolation:isolate"/></g><g id="hand_r" data-name="hand r"><path d="M574.38,139.29c3.78,0,5.3.41,6.64,1.15,4.34,2.49,6.92,8.63,5.07,11.35-2.35,3.46-11.62.92-11.71,1.57s11.67,2.17,11.71,4.29c0,1.61-6.78,3.36-12.5,3.92a49.17,49.17,0,0,1-19.14-1.94,126.06,126.06,0,0,1-16,24.59c-7.29,8.72-30.86,37-67.58,40.23a81.1,81.1,0,0,1-25-1.8c-1.06-13.24-2.16-26.53-3.23-39.77A74.23,74.23,0,0,0,473,190.54c27.26.83,46.18-14.21,51-18.22,8.07-6.65,13.38-11,16.75-19,3-7.11,2.63-12.64,7.79-16.43,4.94-3.64,12.27-3.23,12.87-1.56s-5.3,4.47-4.7,5.85S564.14,139.29,574.38,139.29Z" fill="#fff" stroke="#1e0a32" stroke-miterlimit="10" stroke-width="3"/><path d="M586.23,149.16c.88.18,1.25-1.15.37-1.34-2-.46-3.83.19-5.86.46a24.26,24.26,0,0,1-7.93-.27c-.88-.19-1.25,1.15-.37,1.33a26.25,26.25,0,0,0,6.32.51c2.4-.09,5.12-1.24,7.47-.69Z" fill="#1e0a32"/><path d="M584.29,144.59c.88.19,1.25-1.15.42-1.38a14.24,14.24,0,0,0-6,.37,19.3,19.3,0,0,1-9-.51.7.7,0,0,0-.37,1.34,22.71,22.71,0,0,0,7,.92c2.67-.14,5.12-1.29,7.88-.74Z" fill="#1e0a32"/><path d="M558.78,146a.7.7,0,0,0-1-1,9.91,9.91,0,0,1-7.94,3.27c-.87,0-.87,1.34,0,1.39a11.71,11.71,0,0,0,8.95-3.69Z" fill="#1e0a32"/><path d="M581.76,153.45c-3.88,1-7,.28-7.06.51-.09.46,11,1.7,11.12,3.78,0,1.61-6.55,3.46-12.14,4.06a43.67,43.67,0,0,1-19.42-2.54,133.55,133.55,0,0,1-14.62,22c-8.72,10.66-30.63,37.51-65.55,42.44a83,83,0,0,1-28.28-1l-1.53-19.93c13.24,5.35,36.73,12.08,57.3,2s32.29-28.28,32.29-28.28c5.17-8.17,8.44-17.07,18.41-21.73,4.57-2.17,9.41-2.86,14.39-3.55,9.23-1.34,19.29-1,19.42.23C586.14,152.11,583.28,153.08,581.76,153.45Z" fill="#464664" opacity="0.18" style="isolation:isolate"/><path d="M543.15,175.87c-4.2,7.33-20.44,33.63-53.52,44.19a92.65,92.65,0,0,1-43.41,3.05c-.23-5.91-.51-11.77-.74-17.67,6.65,4.11,19.38,10.56,35.85,10.33C520.08,215.27,541.81,178.27,543.15,175.87Z" fill="#464664" opacity="0.24" style="isolation:isolate"/><path d="M586.09,157.74c.14.74-11.39,5.95-24,3.55-4.34-.83-8.45-2.49-8.35-3s6.78.78,16.65.74C580.79,158.94,586,157.23,586.09,157.74Z" fill="#464664" opacity="0.19" style="isolation:isolate"/></g><g id="torso"><path d="M383.62,172.78c-7.79.64-18.87,3.87-31.65,15.91,2,25.05,4.66,51.12,8.22,78.06,2.07,15.91,4.38,31.46,6.82,46.59,4,3,23.39,16.93,49.78,13.24A66.92,66.92,0,0,0,452.4,309.7a191.94,191.94,0,0,1,1.39-51.12c2.9-17.39,7.15-28.64,5-46.13a87.49,87.49,0,0,0-8.54-28.23,65.12,65.12,0,0,0-8.39-2.68,70.07,70.07,0,0,0-13.2-1.93C412.18,178.68,398.61,171.49,383.62,172.78Z" fill="#fa1e46"/><path d="M386.8,173.61c-10.56-1.85-19.92,4.1-25.88,7.93a52.61,52.61,0,0,0-8.25,6.46c.92,15.27,2.17,31.09,3.83,47.33,2.86,27.68,6.55,53.89,10.88,78.52a66.81,66.81,0,0,0,32.94,13,64.19,64.19,0,0,0,17.07-.6,146.48,146.48,0,0,1-21.45-42.95c-4.66-15.13-15.09-49.26,1.75-78.51A68.64,68.64,0,0,1,408,191.23C407.1,189.39,400.27,175.92,386.8,173.61Z" fill="#464664" opacity="0.17" style="isolation:isolate"/><path d="M358.53,251.53c2.35,22.28,5.53,43.08,9.13,62.37a75.94,75.94,0,0,0,42.67,13.51A93,93,0,0,1,388,304.16c-13.33-20-12.55-36.58-23.53-75.29-3.69-13.19-7.33-23.71-9.69-30.3C355.39,215.27,356.63,233,358.53,251.53Z" fill="#464664" opacity="0.11" style="isolation:isolate"/></g><g id="hand_l" data-name="hand l"><path d="M363.09,286.72c-.64-1.66.93-3.59,1.25-4,2.3-2.91,7.43-3.92,10.24-1.25,1.52,1.44,2.54,4.11,1.57,5.91C374.16,291,364.48,290.09,363.09,286.72Z" fill="#fff" stroke="#1e0a32" stroke-miterlimit="10" stroke-width="3"/><path d="M364.94,219.56c-4.29,12.77-13.24,22.09-16.42,25.37a79.28,79.28,0,0,1-7.11,6.5c6.92,10.75,13.84,21.45,20.76,32.2a20.4,20.4,0,0,1,12.69,2.17c2,1.11,7.84,4.29,8.67,10.24,1,7.11-5.68,14.12-8.58,13.43-1.39-.33-1.25-2.36-4-4.52a9.61,9.61,0,0,0-5-2.17,16.22,16.22,0,0,1,5.21,3.5c2,2.22,3.28,5.4,2.54,6.05-.93.78-4.94-2.36-7.89-4.71a81.75,81.75,0,0,1-10.38-9.73,95,95,0,0,1-14.86-10.52,98.81,98.81,0,0,1-26-35.61,120.34,120.34,0,0,1,25.09-49.55,120.22,120.22,0,0,1,23.53-21.36C365.4,186.57,370.7,202.4,364.94,219.56Z" fill="#fff" stroke="#1e0a32" stroke-miterlimit="10" stroke-width="3"/><path d="M382.42,301.9c.37.79,1.57.09,1.2-.69a17.41,17.41,0,0,0-8.9-8.9c-.79-.37-1.52.83-.69,1.2a16.36,16.36,0,0,1,8.39,8.39Z" fill="#1e0a32"/><path d="M377.35,308.31c-.28.83,1.06,1.2,1.34.37,1.66-5-2.86-10.05-6.88-12.36a.69.69,0,0,0-.69,1.2c3.46,2,7.66,6.46,6.23,10.79Z" fill="#1e0a32"/><path d="M363.14,180.3a118.27,118.27,0,0,0-22.33,20,125.9,125.9,0,0,0-21.27,35.24,132.74,132.74,0,0,0-5.21,15.87,100.07,100.07,0,0,0,27.54,37.37,94,94,0,0,0,13.8,9.6,81.09,81.09,0,0,0,9.41,9c4.15,3.32,8.25,5.95,9,5.21s-1.52-3.27-.64-4.15,2.95.83,3.55.23-1.25-4.06-3.14-6.46c-6.55-8.39-17.94-12.68-22.33-14.8-15.13-7.29-26.61-26.44-25.88-41.75.42-8.26,6.23-16.1,17.95-31.74a259.75,259.75,0,0,1,21.68-25.47C364.57,185.74,363.88,183,363.14,180.3Z" fill="#464664" opacity="0.18" style="isolation:isolate"/><path d="M314.7,250.65c-.88.55,8.77,24.22,30.26,40.69a91,91,0,0,0,9.41,6.27q18.76,14.75,19,14.39c.14-.18-3-3.09-9.6-8.76-6.22-5.31-11.3-9.92-15-13.38-10.48-9.69-15.69-14.53-19.19-19.61-1.85-2.72-4.11-6.36-8.54-12.08C317.05,253,315.07,250.46,314.7,250.65Z" fill="#464664" opacity="0.21" style="isolation:isolate"/></g><g id="head"><path d="M418.08,98c-12.87,2.49-18.4,16.56-18.77,17.53-.88,2.4-.79,3.18-2.77,17.85-.74,5.63-1.43,10.24-1.85,13.24q-4.77,16-9.55,32c3.51,3,16.38,13.56,34.37,12.68a44.35,44.35,0,0,0,16.42-4q-1.1-8-2.21-16.05A52.09,52.09,0,0,0,446,152.2c5.3-14.57,5.86-37.13-7.71-48.25C437,102.89,428.46,96.06,418.08,98Z" fill="#fff" stroke="#1e0a32" stroke-miterlimit="10" stroke-width="3"/><path d="M445.71,144.18c-1.66.32-2.3-.42-3.92-.37-3.36.09-3.64,3.37-6.69,3.87-3.73.6-5.76-3.87-9.54-2.81a12.43,12.43,0,0,1-2.86.88,7.91,7.91,0,0,1-4.3-1c-2.67-3.41-5.39-6.92-8.11-10.66-4.29-5.85-8.17-11.58-11.68-17.11a19,19,0,0,0-5.21,9.36c-1.89,8.91,3.69,16.7,4.38,16.47s-2.53-8,.65-10.65a4,4,0,0,1,4-.65c2.63,1.06,3.23,5.21,3.55,7.52,1.71,13,2.17,20.11,2.91,24,.92,4.93,3.59,11.76,11.67,19.19,3.18-1.75,6.41-3.46,9.59-5.21a14.13,14.13,0,0,1,0,3.13,17.35,17.35,0,0,1-.64,2.91,30.59,30.59,0,0,0,15.22-10.66c4.84-6.5,5.49-13.24,5.86-17.11a40.76,40.76,0,0,0-1.06-13.75A7.8,7.8,0,0,1,445.71,144.18Z" fill="#1e0a32" stroke="#1e0a32" stroke-miterlimit="10" stroke-width="3"/><path d="M433.81,128.4c-.18-.88-1.52-.51-1.38.37a102.38,102.38,0,0,1,2.17,15.82c.37-.18.69-.41,1.06-.6l-5.72-3c-.79-.42-1.48.78-.69,1.2l5.72,2.95a.7.7,0,0,0,1.06-.6,106.82,106.82,0,0,0-2.22-16.19Z" fill="#1e0a32"/><ellipse cx="441.19" cy="131.26" rx="1.06" ry="2.68" fill="#1e0a32" stroke="#1e0a32" stroke-miterlimit="10" stroke-width="3"/><ellipse cx="423.29" cy="131.26" rx="1.43" ry="2.68" fill="#1e0a32" stroke="#1e0a32" stroke-miterlimit="10" stroke-width="3"/><path d="M443.78,126.05c.41.78,1.61,0,1.2-.69-1.2-2.17-3.79-2.13-5.82-1.39-.83.28-.46,1.62.37,1.34,1.43-.51,3.37-.88,4.25.74Z" fill="#1e0a32"/><path d="M426.34,124.16c.65.6,1.61-.37,1-1a6.23,6.23,0,0,0-9.5.87c-.51.7.69,1.39,1.19.7a4.8,4.8,0,0,1,7.34-.6Z" fill="#1e0a32"/><path d="M460.2,117.56c2.68-.14,2.68-4.29,0-4.15q-29.07,1.73-58.08,4.89c-2.63.27-2.63,4.43,0,4.15q28.92-3.18,58.08-4.89Z" fill="#1e0a32"/><path d="M395.43,119.73c-1.57-10.71,3.09-21.22,11.76-26.67,11.08-6.92,25.33-3.5,33,4.66,5.9,6.28,7.1,14,7.42,17Q421.49,117.26,395.43,119.73Z" fill="#5a14d2"/><path d="M398.29,103A27.53,27.53,0,0,0,395,113a23.53,23.53,0,0,0,.37,6.92c7.56-.88,15.13-1.8,22.69-2.68a54.43,54.43,0,0,0,6.51-16.19c.78-4.24.78-8.26-1.48-10.15C418.31,86.88,403.83,93.52,398.29,103Z" fill="#320064" opacity="0.69" style="isolation:isolate"/><path d="M396.17,139.56,385.1,178.45a56.88,56.88,0,0,0,15.82,9.74,58.61,58.61,0,0,0,10.1,3,38,38,0,0,1-7.61-45.58,5.94,5.94,0,0,1-4-.55C396.35,143.48,396.17,139.79,396.17,139.56Z" fill="#464664" opacity="0.24" style="isolation:isolate"/><path d="M402.81,122.22c2.95,4.43,6.18,9,9.69,13.7,2.12,2.81,4.29,5.58,6.41,8.16,1.06.33,2.12.7,3.19,1A29.44,29.44,0,0,1,416,131a27.85,27.85,0,0,1,.46-10C411.9,121.34,407.38,121.8,402.81,122.22Z" fill="#464664" opacity="0.19" style="isolation:isolate"/></g><path d="M97.62,663.71H255.18c2.7,0,2.7-4.16,0-4.16H97.62C94.92,659.55,94.92,663.71,97.62,663.71Z" fill="#e6e7e8"/><path d="M149,647.42H352c2.7,0,2.7-4.16,0-4.16H149c-2.63,0-2.63,4.16,0,4.16Z" fill="#e6e7e8"/><path d="M348.55,621.77h107a2.08,2.08,0,0,0,0-4.16h-107c-2.7,0-2.7,4.16,0,4.16Z" fill="#e6e7e8"/><path d="M440.19,680H725.37a2.08,2.08,0,0,0,0-4.16H440.19C437.49,675.84,437.49,680,440.19,680Z" fill="#e6e7e8"/><path d="M615.78,663.71h147.3a2.08,2.08,0,0,0,0-4.16H615.78c-2.7,0-2.7,4.16,0,4.16Z" fill="#e6e7e8"/><path d="M199.59,310.67a701.25,701.25,0,0,0,79.78-10.19c1.32-.28.77-2.22-.55-2a693.33,693.33,0,0,1-79.23,10.12c-1.39.07-1.39,2.15,0,2.08Z" fill="#e6e7e8"/><path d="M240.35,297.43l34.17-3.54c1.32-.13,1.32-2.21,0-2.08l-34.17,3.54c-1.32.14-1.32,2.22,0,2.08Z" fill="#e6e7e8"/><path d="M259.76,283.57l15.66-.63c1.32-.07,1.32-2.15,0-2.08l-15.66.63A1,1,0,1,0,259.76,283.57Z" fill="#e6e7e8"/><path d="M599.35,103.61a76.49,76.49,0,0,0,.55,7.84c.21,1.31,2.29,1.31,2.08,0a59.9,59.9,0,0,1-.55-7.84A1,1,0,0,0,599.35,103.61Z" fill="#e6e7e8"/><path d="M734.18,104.45V109a1,1,0,0,0,2.08,0v-4.57A1,1,0,1,0,734.18,104.45Z" fill="#e6e7e8"/><path d="M601.91,79.7c1.74,7.83,3.19,15.73,4.37,23.64.21,1.31,2.22.76,2-.56-1.25-7.9-2.7-15.8-4.36-23.64A1,1,0,0,0,601.91,79.7Z" fill="#e6e7e8"/><path d="M651,28.61c3-2.5,8-1.39,11.37-.35,1.25.42,1.8-1.59.56-2-4.23-1.31-9.78-2.15-13.38.9-1,.84.41,2.29,1.45,1.46Z" fill="#e6e7e8"/><path d="M729.25,95.71c3.12.07,6.31.14,9.43-.07,1.53-.14,3.05-.69,2.91-2.49-.14-1.32-2.22-1.32-2.08,0,.07.76-9.35.55-10.26.48-1.31-.07-1.31,2,0,2.08Z" fill="#e6e7e8"/><path d="M745.2,154.63v30.85a1,1,0,0,0,2.08,0V154.63A1,1,0,0,0,745.2,154.63Z" fill="#e6e7e8"/><path d="M746.93,154.63H801a1,1,0,0,0,0-2.08H746.93A1,1,0,0,0,746.93,154.63Z" fill="#e6e7e8"/><path d="M800,153.94v30.85a1,1,0,0,0,2.08,0V153.94A1,1,0,0,0,800,153.94Z" fill="#e6e7e8"/><path d="M746.24,187.21h54.07a1,1,0,0,0,0-2.08H746.24A1,1,0,0,0,746.24,187.21Z" fill="#e6e7e8"/><path d="M769.81,152.55a18.61,18.61,0,0,1,.62-5.2,7.12,7.12,0,0,1,1-2.49c.21-.7.69-.9,1.53-.63,1.1-.48,1.66-.13,1.73,1.11.83,2.91,1,6.24,1.38,9.29.21,1.32,2.22.76,2-.55a69.14,69.14,0,0,0-1.38-9.29c-.42-1.66-1.67-3.4-3.54-3.54-4.64-.27-5.47,8.18-5.47,11.3C767.8,153.87,769.87,153.87,769.81,152.55Z" fill="#e6e7e8"/><path d="M748.59,159.14V182a1,1,0,0,0,2.08,0V159.14A1,1,0,0,0,748.59,159.14Z" fill="#e6e7e8"/><path d="M750.74,159.14h47.14a1,1,0,0,0,0-2.08H750.74A1,1,0,0,0,750.74,159.14Z" fill="#e6e7e8"/><path d="M796.56,158.44v24.27a1,1,0,0,0,2.08,0V158.44A1,1,0,0,0,796.56,158.44Z" fill="#e6e7e8"/><path d="M750.05,183.05h45.06a1,1,0,0,0,0-2.08H750.05A1,1,0,0,0,750.05,183.05Z" fill="#e6e7e8"/><path d="M752,173.83c1.53-2.21,2.91-2.7,4.09-1.59.21.14.35.28.56.42a13.77,13.77,0,0,0,1.31.69,3.82,3.82,0,0,0,2.64-.14,2.4,2.4,0,0,0,1.38-1.46c.35-1.11-.48-1.31-.55-2.28-.35-.42-.21-.84.41-1.39.14-1.59,1.11-1.94,2.78-1a7,7,0,0,0,1.18.07c1.24-.21,1.38-.62,2.28-1.39,2.91-2.35,6.17-1.18,6.93,2.57.07.48.42,3.67-.13,4-.56-.7-1.11-1.32-1.67-2a5,5,0,0,1,3.88,2.77,1.08,1.08,0,0,0,1.81,0c1.38-1.46,2.77-1.52,4.16-.14l1.45-1.45c-.55-.49-1-1-1.59-1.46-1.81-1.52-1.67-3.26.48-5.27a3.74,3.74,0,0,1,3.19,5.55c-1.59,3.12-5.41,3.53-8.53,3.26v2.08l13.59.83c1.32.07,1.32-2,0-2.08l-13.59-.83c-1.31-.07-1.31,1.94,0,2.08,3.61.34,7.56-.35,9.85-3.54,1.8-2.56,1.66-6.45-1-8.46a5,5,0,0,0-6.73.77c-2.49,3.11.42,6.51,2.78,8.59,1,.9,2.42-.48,1.45-1.45a4.7,4.7,0,0,0-7.42.55h1.81c-1.74-2.84-5-4.92-8.25-3.19-2.5,1.39-3.4,5-1.11,7.07s5.75.49,7-1.94a9.78,9.78,0,0,0-.9-9.63,5.79,5.79,0,0,0-8-.91c-1.74,1.32-.7,1.53-3.61,1.32a7.37,7.37,0,0,0-2.77,0,3.7,3.7,0,0,0-2.49,1.94,2.63,2.63,0,0,0-.14,2.29c.07.28.83.9.76,1.11-.28,1.52-4.3-1.25-5-1.39-3.12-.48-5.2,2.84-4.3,5.55C750.4,175.64,752.41,175.15,752,173.83Z" fill="#e6e7e8"/><path d="M811.4,115.26V139.1a1,1,0,0,0,2.08,0V115.26A1,1,0,0,0,811.4,115.26Z" fill="#e6e7e8"/><path d="M813.62,115.12h38.26a1,1,0,0,0,0-2.08H813.62A1,1,0,1,0,813.62,115.12Z" fill="#e6e7e8"/><path d="M813,140.77h38.27a1,1,0,0,0,0-2.08H813A1,1,0,0,0,813,140.77Z" fill="#e6e7e8"/><path d="M850.84,115v24.47a1,1,0,0,0,2.08,0V115A1,1,0,0,0,850.84,115Z" fill="#e6e7e8"/><path d="M813.75,116.16v22.67a1,1,0,0,0,2.08,0V116.16A1,1,0,1,0,813.75,116.16Z" fill="#e6e7e8"/><path d="M814.52,139h36.53a1,1,0,0,0,0-2.08H814.52A1,1,0,1,0,814.52,139Z" fill="#e6e7e8"/><path d="M815.07,116.58h35.35a1,1,0,0,0,0-2.08H815.07A1,1,0,0,0,815.07,116.58Z" fill="#e6e7e8"/><path d="M849.94,115.81v21.77a1,1,0,0,0,2.08,0V115.81A1,1,0,0,0,849.94,115.81Z" fill="#e6e7e8"/><path d="M821.79,133.49c5.76-2.77,12.27-4.09,18.1-.69a1,1,0,0,0,1-1.81c-6.45-3.81-13.73-2.42-20.17.7C819.51,132.24,820.62,134,821.79,133.49Z" fill="#e6e7e8"/><path d="M821.79,130.58c-1.24-1.53,2-2,2.36-2.84.35-.63-.14-2.57.07-2.5a1.05,1.05,0,0,0,1.32-1c-.07-3.26,3.46,1.94,3.33,1.73a3.86,3.86,0,0,0,1.52,1.25c1,.42,3.05-.69,3.61-.28a1,1,0,0,0,1.73-.48,12.51,12.51,0,0,1,1.73-.56,1.08,1.08,0,0,0,1.8.77c1.87,1.45,2.15,2.63.77,3.46-1,.9.48,2.36,1.45,1.46,1.8-1.53,3-4.16,1.39-6.31a3.22,3.22,0,0,0-5.13-.07c.62.28,1.18.49,1.8.76a2.53,2.53,0,0,0-2.43-2.91c-1.8-.14-2.84,1.39-3.39,2.91a15.94,15.94,0,0,0,1.73-.48c-1.18-1-1.39-.56-2.7-.63-3.54-.13-2.5-2.35-4.79-3.67s-4.5.69-4.5,3a14.36,14.36,0,0,1,1.32-1c-1-.21-2.29-.28-3,.62s.42,1.74.14,2.43c-.41,1.11-2.42.76-2.91,2.22s.49,2.63,1.32,3.6,2.29-.55,1.45-1.59Z" fill="#e6e7e8"/><path d="M830.11,112.35a4.33,4.33,0,0,1-.41-2.78c.07-.62.62-2.63,1.59-2.35.69.21,1.39,2,1.53,2.63a7.78,7.78,0,0,1,.27,3.33c-.13,1.32,1.95,1.32,2.08,0a8.92,8.92,0,0,0-1-5.34c-.69-1.38-2-3.26-3.81-2.7-1.39.41-2.29,2.15-2.63,3.46a6.93,6.93,0,0,0,.55,4.86c.62,1.18,2.36.14,1.8-1.11Z" fill="#e6e7e8"/><path d="M814.45,151v31.82a1,1,0,0,0,2.08,0V151A1,1,0,1,0,814.45,151Z" fill="#e6e7e8"/><path d="M815.49,150.2h32.23a1,1,0,0,0,0-2.08H815.49A1,1,0,1,0,815.49,150.2Z" fill="#e6e7e8"/><path d="M846.68,149.16v33.55a1,1,0,0,0,2.08,0V149.16A1,1,0,0,0,846.68,149.16Z" fill="#e6e7e8"/><path d="M816.32,185.13h30.5a1,1,0,0,0,0-2.08h-30.5A1,1,0,0,0,816.32,185.13Z" fill="#e6e7e8"/><path d="M825.82,161.56c-.49,4,2.08,8.39,6.37,8.88a6.88,6.88,0,0,0,7.7-7.35c-.07-1.32-2.15-1.32-2.08,0,.14,3.26-2.36,5.89-5.76,5.2-3.12-.63-4.43-3.81-4.16-6.73.14-1.31-1.94-1.31-2.07,0Z" fill="#e6e7e8"/><path d="M832.82,170c-.14,1,.48,1.73.2,2.64-.41,1.38-2.21,2.7-3.11,3.74a9.46,9.46,0,0,0-2.71,6c-.07,1.32,2,1.32,2.08,0,.14-3.19,2.84-5.06,4.65-7.42a6.39,6.39,0,0,0,1.31-2.28c.21-1-.48-1.74-.34-2.71C835,168.63,833,168.63,832.82,170Z" fill="#e6e7e8"/><path d="M828,169.88c-2.42-.14-7-1.66-5.89-5.06C822.7,163,825,163,826,161.7c1.32-1.59.21-2.49-.83-3.67s-3-1.53-.27-3.95c1.52-1.39,4,.34,5.26,1.38.77.7.9,1.46,1.94,1.94a3.08,3.08,0,0,0,2.36.21c1.25-.55,2.64-4.23,4,.35a1,1,0,0,0,1.25.69c.07,1.46.14,2.84.14,4.3-.83,1,.62,2.5,1.45,1.46,1.32-1.67,2.85-3.75,1.88-6a3.31,3.31,0,0,0-4.09-1.8c.41.21.83.49,1.24.7-.55-1.88-1.45-3.82-3.6-4a2.92,2.92,0,0,0-1.87.42,8.93,8.93,0,0,1-.83,1c-1.46.76-1.88-.55-2.71-1.39-1.45-1.59-2.63-2.49-5-2.15-1.8.28-4.37,1.53-5,3.4-.76,2.22,1.11,2.84,1.94,4.51.9.34.9.76-.07,1.24a1.47,1.47,0,0,1-.83.77,7.5,7.5,0,0,0-1,.62,6.32,6.32,0,0,0-1.25,2c-1.59,5.06,3.61,7.77,7.77,8a1,1,0,1,0,.2-2Z" fill="#e6e7e8"/><path d="M828.8,149c-.07-1-.42-2.91.83-3.54s1.11,1.39,1,2.08c-.28,1.32,1.73,1.87,2,.56a5.15,5.15,0,0,0-.21-3.4,2.68,2.68,0,0,0-2.63-1.39c-2.85.35-3.19,3.4-3,5.69,0,1.32,2.08,1.32,2,0Z" fill="#e6e7e8"/><path d="M817,150.75v30.57a1,1,0,0,0,2.08,0V150.75A1,1,0,1,0,817,150.75Z" fill="#e6e7e8"/><path d="M818.26,182.85h27.66a1,1,0,0,0,0-2.08H818.26A1,1,0,0,0,818.26,182.85Z" fill="#e6e7e8"/><path d="M846.68,182.08V150a1,1,0,0,0-2.08,0v32.09A1,1,0,0,0,846.68,182.08Z" fill="#e6e7e8"/><path d="M818.74,151h27.39a1,1,0,0,0,0-2.08H818.74A1,1,0,0,0,818.74,151Z" fill="#e6e7e8"/><path d="M275.63,383.52c.35,3.75.62,7.56,1,11.3l352.9.63c1-3.75,2.08-7.56,3.12-11.3Z" fill="#fff"/><path d="M280.34,384h3.75a1,1,0,0,0,0-2.08h-3.75A1,1,0,0,0,280.34,384Z" fill="#1e0a32"/><path d="M276.53,386H633.66a2.08,2.08,0,0,0,0-4.16H276.53C273.9,381.86,273.9,386,276.53,386Z" fill="#1e0a32"/><path d="M277.5,396.28H629c2.7,0,2.7-4.16,0-4.16H277.5c-2.7,0-2.7,4.16,0,4.16Z" fill="#1e0a32"/><path d="M288.52,406.4v224c0,2.7,4.16,2.7,4.16,0v-224C292.68,403.76,288.52,403.76,288.52,406.4Z" fill="#1e0a32"/><path d="M578.14,403.63V606.11c0,2.7,4.16,2.7,4.16,0V403.63A2.08,2.08,0,0,0,578.14,403.63Z" fill="#1e0a32"/><path d="M2,581.85H409.28c2.7,0,2.7-4.16,0-4.16H2a2.08,2.08,0,0,0,0,4.16Z" fill="#1e0a32"/><path d="M489,583.72H848.9c2.7,0,2.7-4.16,0-4.16H489c-2.7,0-2.7,4.16,0,4.16Z" fill="#1e0a32"/><path d="M289.36,406.33V625.24a2.08,2.08,0,0,0,4.15,0V406.33A2.08,2.08,0,0,0,289.36,406.33Z" fill="#1e0a32"/><path d="M290.26,407.23v218c0,2.7,4.16,2.7,4.16,0v-218C294.42,404.6,290.26,404.6,290.26,407.23Z" fill="#1e0a32"/><path d="M577.79,402.59V601.05c0,2.7,4.16,2.7,4.16,0V402.59C582,400,577.79,400,577.79,402.59Z" fill="#1e0a32"/><path d="M578.76,403.56V600.22c0,2.7,4.16,2.7,4.16,0V403.56A2.08,2.08,0,0,0,578.76,403.56Z" fill="#1e0a32"/><path d="M279.79,396.63a104.52,104.52,0,0,1,9.63,13.79c1.39,2.29,5,.21,3.61-2.08a119.27,119.27,0,0,0-10.33-14.63c-1.73-2.08-4.64.84-2.91,2.92Z" fill="#1e0a32"/><path d="M293.86,409c5.13-4.29,10.19-8.66,15.32-13,2-1.73-.9-4.64-2.91-2.91-5.13,4.3-10.19,8.66-15.32,13C288.87,407.79,291.85,410.7,293.86,409Z" fill="#1e0a32"/><path d="M566.22,398.77q6.43,4.07,12.89,8.11c2.29,1.46,4.37-2.14,2.08-3.6l-12.89-8.11C566,393.78,563.93,397.39,566.22,398.77Z" fill="#1e0a32"/><path d="M591.24,393.85a132,132,0,0,0-10.33,9.29c-1.87,1.87,1,4.85,2.91,2.91a134.08,134.08,0,0,1,10.33-9.29C596.23,395.1,593.32,392.19,591.24,393.85Z" fill="#1e0a32"/><path d="M569.47,399a66.12,66.12,0,0,0,16.5.49c-.35-1.32-.69-2.57-1-3.88a15.86,15.86,0,0,1-7.35,2.14c-1.52.21-3.05,2.29-1.45,3.54a7.36,7.36,0,0,0,7,1.59c2.56-.62,1.52-4.64-1.11-4a2.8,2.8,0,0,1-3-.55c-.49,1.18-1,2.36-1.46,3.53,3.33-.34,6.59-.83,9.43-2.77,1.6-1,1.18-4.09-1-3.88a64,64,0,0,1-15.46-.35c-2.56-.27-3.67,3.75-1,4.16Z" fill="#1e0a32"/><path d="M589.58,395a7.09,7.09,0,0,0-5.55,1,2.18,2.18,0,0,0-.76,2.84,2.14,2.14,0,0,0,2.84.77,2.61,2.61,0,0,1,2.29-.56A2.18,2.18,0,0,0,591,397.6,2,2,0,0,0,589.58,395Z" fill="#1e0a32"/><path d="M284.5,398.57c1.25.83,5.89,3,5.69,4.78l2.08-2.08c-.28,0-1.11-3.19-1.32-3.74-.62,1-1.18,2.08-1.8,3.12a36.59,36.59,0,0,0,11.92-2.57c-.69-1.18-1.32-2.29-2-3.47a69.82,69.82,0,0,1-7.56,6.8l2.85,2.84c2.49-4.23-1-7.69-4.65-9.5-.34,1.32-.69,2.57-1,3.89,2.84-.14,5.69-.21,8.53-.07s2.63-4,0-4.16a69.37,69.37,0,0,0-8.53.07c-1.94.13-3,2.91-1,3.88,1.25.62,4.3,1.94,3.19,3.81-1,1.66,1.11,4.16,2.84,2.84A70.56,70.56,0,0,0,302,397.6c1.32-1.39,0-4.3-2-3.47a34.46,34.46,0,0,1-10.81,2.43,2.12,2.12,0,0,0-1.81,3.12c1.18,2.63,1.11,5.82,4.93,5.75a2.14,2.14,0,0,0,2.08-2.08c.55-4.16-4.93-6.52-7.7-8.32-2.36-1.52-4.44,2.08-2.22,3.54Z" fill="#1e0a32"/><path d="M290.6,381.37V371.12a1,1,0,0,0-2.08,0v10.25A1,1,0,1,0,290.6,381.37Z" fill="#e6e7e8"/><path d="M289.56,372H347.1a1,1,0,0,0,0-2.08H289.56A1,1,0,0,0,289.56,372Z" fill="#e6e7e8"/><path d="M346.06,371v9.77a1,1,0,0,0,2.08,0V371A1,1,0,1,0,346.06,371Z" fill="#e6e7e8"/><path d="M292.2,375.9h44a1,1,0,0,0,0-2.08h-44A1,1,0,0,0,292.2,375.9Z" fill="#e6e7e8"/><path d="M302,379.85h33.76a1,1,0,0,0,0-2.08H302A1,1,0,0,0,302,379.85Z" fill="#e6e7e8"/><path d="M304.33,370.77v-7a1,1,0,0,0-2.08,0v7A1,1,0,0,0,304.33,370.77Z" fill="#e6e7e8"/><path d="M304.61,364.39h50.11a1,1,0,0,0,0-2.08H304.61A1,1,0,0,0,304.61,364.39Z" fill="#e6e7e8"/><path d="M347.72,371.53h6.52a1,1,0,0,0,0-2.08h-6.52A1,1,0,0,0,347.72,371.53Z" fill="#e6e7e8"/><path d="M370.32,363.56v6.72a1,1,0,0,0,2.08,0v-6.72A1,1,0,1,0,370.32,363.56Z" fill="#e6e7e8"/><path d="M314.66,367.86h12a1,1,0,0,0,0-2.08h-12A1,1,0,1,0,314.66,367.86Z" fill="#e6e7e8"/><path d="M335.31,369.59H346a1,1,0,0,0,0-2.08H335.31A1,1,0,0,0,335.31,369.59Z" fill="#e6e7e8"/><path d="M316,361.34c-1.66-1.59-2-4-1.87-6.24.28-3.67,3.61-3.81,6.38-2.7,1.25.48,1.8-1.53.55-2-3.12-1.25-7.21-1.18-8.59,2.49-1.18,3.12-.35,7.63,2.08,9.92,1,1,2.42-.56,1.45-1.46Z" fill="#e6e7e8"/><path d="M320.13,351.36c6.52-2.91,9.22,8,3.61,10.81-1.18.63-.14,2.36,1,1.81,8-4,3.32-18.44-5.69-14.42-1.24.55-.14,2.35,1,1.8Z" fill="#e6e7e8"/><path d="M320.34,350.81a13.83,13.83,0,0,0-2.49-6c-.77-1.1-2.57-.06-1.81,1a13.18,13.18,0,0,1,2.29,5.55c.21,1.32,2.22.76,2-.55Z" fill="#e6e7e8"/><path d="M319.37,347.27a7.1,7.1,0,0,1,.83-1.53,5.48,5.48,0,0,1,.56-.69c.07-.14.2-.21.34-.34-.34-.7-.55-.84-.69-.49a6.91,6.91,0,0,0-.9,1.73,15.17,15.17,0,0,1-1.18,1.74c-.76,1.1,1,2.14,1.8,1a19.39,19.39,0,0,0,2-3.33c.49-1,.77-2.22-.48-2.71-2.08-.76-3.68,2.5-4.23,4S318.89,348.52,319.37,347.27Z" fill="#e6e7e8"/><path d="M676.64,486.81c.28,3.26.56,6.58.83,9.84l95.87-.83c-.35-3.12-.69-6.24-1-9.29C740.35,486.67,708.53,486.74,676.64,486.81Z" fill="#fff"/><path d="M677.26,497.76h95.8a2.08,2.08,0,0,0,0-4.16h-95.8C674.63,493.6,674.56,497.76,677.26,497.76Z" fill="#1e0a32"/><path d="M677.89,488.26h94a2.08,2.08,0,0,0,0-4.15h-94A2.08,2.08,0,0,0,677.89,488.26Z" fill="#1e0a32"/><path d="M674.63,486.81v7.07c0,2.7,4.16,2.7,4.16,0v-7.07C678.79,484.11,674.63,484.11,674.63,486.81Z" fill="#1e0a32"/><path d="M771,486.81v9.43c0,2.7,4.16,2.7,4.16,0v-9.43C775.14,484.11,771,484.11,771,486.81Z" fill="#1e0a32"/><path d="M724.26,496.86V616.3c0,2.7,4.16,2.7,4.16,0V496.86c0-2.7-4.16-2.7-4.16,0Z" fill="#1e0a32"/><path d="M724.12,615.67c-7.14,4.23-14.28,8.46-21.48,12.69-2.29,1.39-.21,5,2.08,3.6,7.13-4.23,14.27-8.45,21.48-12.68C728.56,617.89,726.41,614.29,724.12,615.67Z" fill="#1e0a32"/><path d="M725.3,618.65c8.11,4.51,16.15,9.08,24.26,13.59,2.36,1.32,4.44-2.29,2.08-3.6-8.11-4.51-16.15-9.08-24.26-13.59C725,613.73,723,617.34,725.3,618.65Z" fill="#1e0a32"/><path d="M703.88,633.49c15.39-.14,30.71-.63,46.1-1.39,2.63-.14,2.7-4.3,0-4.16q-23,1.15-46.1,1.39C701.18,629.33,701.18,633.49,703.88,633.49Z" fill="#1e0a32"/><path d="M706.17,498.39a270.36,270.36,0,0,1,17.05,27.72c1.25,2.36,4.86.28,3.61-2.08a272.13,272.13,0,0,0-17.05-27.72C708.25,494.09,704.65,496.17,706.17,498.39Z" fill="#1e0a32"/><path d="M747.83,495.4a133.38,133.38,0,0,0-23.15,29.33c-1.39,2.28,2.22,4.43,3.6,2.08a129.48,129.48,0,0,1,22.53-28.42c1.94-1.88-1-4.86-3-3Z" fill="#1e0a32"/><path d="M578.42,576.92c-.56,9.92-1,19.83-1.6,29.74-26.48,11.51-39.23,19.06-38.19,22.53,1.17,4.16,21.55,2.7,61-4.23q.4-25.47.76-51l-22,2.91Z" fill="#1e0a32"/><path d="M660.63,416.31c-5.89,5.27-14.28,12.9-24.06,22.32-23.29,22.6-40.41,39.17-52,56.29-9.57,14.21-23.78,41.24-24.89,85.47a127.52,127.52,0,0,0,48.94,3.88,119.47,119.47,0,0,1,.41-44.22,117.73,117.73,0,0,1,10.75-30.92,225.5,225.5,0,0,0,65.71-43.81c13.59-13.1,29-28.07,24.89-38.68C706.59,416.59,686.28,412.71,660.63,416.31Z" fill="#fa1e46"/><path d="M693.42,416.38a451.86,451.86,0,0,1-92.27,91.78q-8.73,38.37-17.47,76.67a51.8,51.8,0,0,0,8.46.76A56.75,56.75,0,0,0,608,583.72a130.2,130.2,0,0,1-.55-34.66,126.39,126.39,0,0,1,11.65-39.65,290.41,290.41,0,0,0,37-20.38s28-18.16,49.7-46a24.36,24.36,0,0,0,3.47-6.1c1-2.7,2.36-6,1.32-9.5-1-3.12-3.33-4.85-5.83-6.58a26.93,26.93,0,0,0-11.36-4.44Z" fill="#464664" opacity="0.18" style="isolation:isolate"/><path d="M618.55,509.75q-4.47,8.32-8.73,17.47A342.34,342.34,0,0,0,589,585.38c6.38-.28,12.69-.55,19.06-.76a123.57,123.57,0,0,1-1.31-32.79,121,121,0,0,1,11.85-42.08Z" fill="#464664" opacity="0.16" style="isolation:isolate"/><path d="M621.19,586.49q4.77,14.87,9.56,29.74-35.36,21.21-33.41,25.51,2.38,5.19,61-15.39l-16.22-47.21c-7,2.36-14,4.85-20.93,7.35Z" fill="#1e0a32"/><path d="M735.49,429.76c4.92,25-2.49,39.1-6,44.5-7.07,10.82-16.5,14.14-44,27.8-10.74,5.34-27.1,13.66-47.13,24.68a200.56,200.56,0,0,0,18.09,57A57.74,57.74,0,0,1,606.21,599a134,134,0,0,1-14.42-51.85c-.9-13.87-1.94-29.6,6.17-45.13,6.24-11.92,12.27-13,37.51-32.3C673.38,440.85,677.2,430,696.74,426c16-3.26,30.23.55,38.75,3.74Z" fill="#fa1e46"/><path d="M709.57,425.12c.34,8-.28,20.65-6.73,33.55-5.4,10.88-12.61,18.64-36.39,34.72-21.14,14.28-38,25.31-48.87,32.38l20.8,69.66a40.39,40.39,0,0,0,7.14-3.19,39.39,39.39,0,0,0,10.19-8.45A221.78,221.78,0,0,1,638,527c17.19-9.56,29.25-15.8,36.32-19.34,10.54-5.26,15.74-7.9,21.08-10.46,1.8-.83,5.82-2.71,11.09-5.48,5.89-3.05,8.8-4.5,11.44-6.31a45.72,45.72,0,0,0,11.92-11.57c6.24-9,6.79-18.44,7.21-25.3a66.31,66.31,0,0,0-1.46-18.44A63.08,63.08,0,0,0,721.28,426a52,52,0,0,0-11.71-.83Z" fill="#464664" opacity="0.22" style="isolation:isolate"/><path d="M737,443.62a63.44,63.44,0,0,1-6.66,14.77c-10.88,17.47-27.52,24.4-39.16,30.22-13.8,6.93-32.37,18.37-53,38.13,5.82-3.26,13-7.14,21.28-11.58,14.7-7.83,22-11.71,29.53-15.32,5.89-2.77,12.62-5.75,22.67-11.09,7.21-3.81,11.16-6.17,14.9-10.54A41,41,0,0,0,733.83,465,53.16,53.16,0,0,0,737,443.62Z" fill="#464664" opacity="0.11" style="isolation:isolate"/><path d="M637.82,527.43a185.36,185.36,0,0,0,11.65,61.69,25.11,25.11,0,0,0,4.23-3,19.67,19.67,0,0,0,2.42-2.42c-2.91-6-5.75-12.76-8.45-20a227.47,227.47,0,0,1-9.85-36.25Z" fill="#464664" opacity="0.17" style="isolation:isolate"/><path d="M689.81,294c-8.66,2.91-10.19,13.24-16,25a108.21,108.21,0,0,1-29.18,34.1c-7.28,5.62-23,15.53-49.29,17.26a55,55,0,0,0-11.51-3.26C576.68,366,566.7,364.25,560,370c-3.05,2.63-6.45,7.62-4.92,10.67,1.87,3.74,10.19,2.29,23.84,1.67,18.93-.84,18,1.24,31.19.41,11.79-.76,30.37-1.87,49.71-13.17a89.53,89.53,0,0,0,30.36-28.77c4.43-6.93,6.44-12.54,10.53-23.84,5.41-14.84,4.51-18.16,3-20.11-2.64-3.6-9-4.5-13.87-2.84Z" fill="#fff" stroke="#1e0a32" stroke-miterlimit="10" stroke-width="2"/><path d="M587.08,372.57c-4.37.83-10.67,1-13.86,4.65-1.81,2.08-1.53,5.75,1.8,5.75a.8.8,0,0,0,0-1.6c-1.66-1.73-1.53-3.11.55-4.08a11.5,11.5,0,0,1,2.29-1.18,19.54,19.54,0,0,1,2.7-.77c2.29-.48,4.58-.9,6.94-1.31C588.47,373.89,588.05,372.43,587.08,372.57Z" fill="#1e0a32"/><path d="M554.36,379c4.09,5.13,10.47-.83,15.39.48a.79.79,0,0,0,.42-1.52,10.45,10.45,0,0,0-6.17.41c-2.84.91-6.31,2.43-8.6-.48-.55-.76-1.66.35-1,1.11Z" fill="#1e0a32"/><path d="M556.86,372.71c.14,2.08,1.52,2.91,3.53,2.91,4.51,0,8.46-1.8,13-.35a.79.79,0,0,0,.41-1.52,16.45,16.45,0,0,0-6.86-.62c-1.66.13-8.32,2-8.46-.49-.14-.9-1.66-.9-1.59.07Z" fill="#1e0a32"/><path d="M563.65,368.41a4.24,4.24,0,0,0,3.67,2.71c3.54.48,6.59.62,9.85,2.08.9.41,1.73-1,.76-1.32a25.54,25.54,0,0,0-5.55-1.8c-2.21-.42-6.3.27-7.27-2.08C564.76,367.1,563.23,367.51,563.65,368.41Z" fill="#1e0a32"/><path d="M698.2,294.24c-4,1-2.77,11.58-4.85,21.42-3.47,15.87-14.77,25.79-27.25,36.74-8.45,7.42-18.37,16.15-33.48,20a127.26,127.26,0,0,1-23,3.26c-12.48.62-18.65,1-19.06.9a24.35,24.35,0,0,0-12.55,1.6c-1.11.48-4.16,1.8-4,2.77.28,1.45,7.48,1,23.71.9,12-.07,10.74.14,14.41,0,6.94-.28,19-.69,32.58-5.61,19.34-6.94,31.27-19.21,36.74-24.89a86.48,86.48,0,0,0,9.08-11.16c4.3-6.45,6.31-12.2,10.26-23.5,4.58-13.17,4.58-16.64,2.78-19.34-1.25-1.59-3.54-3.6-5.41-3.12Z" fill="#464664" opacity="0.16" style="isolation:isolate"/><path d="M556.23,381.24a16.93,16.93,0,0,1,8.11-9.08c8.32-4,16.43,1.38,16.78,1.59a38.39,38.39,0,0,1-4.44,2.08c-1.73.76-2.42.9-3,1.59-1,1.32-.76,3.26-.48,4.44a33.86,33.86,0,0,1-8.6.69,32.37,32.37,0,0,1-8.32-1.31Z" fill="#464664" opacity="0.13" style="isolation:isolate"/><path d="M703.54,305.61a112,112,0,0,1-23.29,41.87,113.58,113.58,0,0,1-51.65,33.06c7.84-1.38,36.95-7.55,57.47-34.17a91.12,91.12,0,0,0,17.47-40.76Z" fill="#464664" opacity="0.14" style="isolation:isolate"/><path d="M687.45,294.59C683.09,299.37,680,305.68,678,329c-3,34,1.73,41.87-3.54,58.71-2.42,7.7-7.41,18.86-19,30.85a125,125,0,0,0,39.16,16.64,123.25,123.25,0,0,0,42.15,2.35c12.48-38.33,11.44-69.32,8.87-88.38-2.42-18.16-7.9-60-29.67-65.23-10.32-2.56-22,3.68-28.49,10.68Z" fill="#fff" stroke="#1e0a32" stroke-miterlimit="10" stroke-width="2"/><path d="M710.4,284.05c-.35,2.84-.83,7.07-1.32,12.13-3.26,33.9.56,40.07-1.94,60-1.39,11.37-4.3,32.65-19.27,52.48a89.37,89.37,0,0,1-17.54,17.53A111.94,111.94,0,0,0,704.09,437a109.91,109.91,0,0,0,32.23,0,192.19,192.19,0,0,0,6.94-25.44,195.87,195.87,0,0,0,3.67-47.07c-.9-22-2.91-69.11-27-78.75a26.2,26.2,0,0,0-9.5-1.73Z" fill="#464664" opacity="0.12" style="isolation:isolate"/><path d="M746.45,383.59c-.84-.14-2.78,8.46-5.62,16.22-3.6,10.06-10.4,23.57-24.47,38.2,6.79-.35,13.66-.63,20.45-1a257.8,257.8,0,0,0,7.56-31.82c1.52-9.08,3.11-21.42,2.08-21.63Z" fill="#464664" opacity="0.24" style="isolation:isolate"/><path d="M728.63,293.69c7.83,1.52,11.16,13.93,13.93,24.81s8.11,33.28.63,62.67c-3.12,12.13-5.89,23.43-15.53,34.86-12.55,15-28.56,20.8-36,23-8.31,5.75-12.61,8.66-15,10.19-1.73,1.11-2.77,1.73-4.64,3.05-2.71,1.94-3.19,2.56-4.51,3.12a10.06,10.06,0,0,1-6.93-.07,4.7,4.7,0,0,1-4-1.25,3.86,3.86,0,0,1-1.18-2.56,3.52,3.52,0,0,1-2.43-1.25,3.46,3.46,0,0,1-.27-3.74,5,5,0,0,1-.56-2.29c-.34-4.85,5.41-8.74,8.6-10.95a42.39,42.39,0,0,1,20.52-7.07,71.29,71.29,0,0,0,21.42-17.27c2.35-2.77,18.09-22.32,16.84-48.59-.48-11-4.44-31.54-6.65-50.67a14.52,14.52,0,0,1,1.45-8.73c2.91-4.93,9.57-8.11,14.42-7.21Z" fill="#fff" stroke="#1e0a32" stroke-miterlimit="10" stroke-width="2"/><path d="M652.8,447a.8.8,0,0,0,0-1.59A.8.8,0,0,0,652.8,447Z" fill="#1e0a32"/><path d="M652,446.12v.48a.79.79,0,0,0,1.46.42,21.83,21.83,0,0,1,10.88-7.76.79.79,0,0,0-.41-1.53,23.86,23.86,0,0,0-11.86,8.46l1.46.41v-.48c0-1-1.6-1-1.53,0Z" fill="#1e0a32"/><path d="M655.91,451.73a33.94,33.94,0,0,1,12.9-9.08c.9-.34.55-1.87-.42-1.52a35,35,0,0,0-13.58,9.43C654.18,451.39,655.29,452.5,655.91,451.73Z" fill="#1e0a32"/><path d="M661.11,455.48a51,51,0,0,1,12.48-10.26c.83-.49.07-1.87-.76-1.32a51.85,51.85,0,0,0-12.76,10.54C659.38,455.13,660.49,456.24,661.11,455.48Z" fill="#1e0a32"/><path d="M725.58,296.32c-2.63,3.81,1.66,10.54,4.09,15.53,3.54,7.35,4.09,15.32,5.2,31.26,2,28.91-11.44,53.65-12.41,55.39-12.27,21.83-31.33,34.93-37.29,38.95-10.12,6.8-24.47,14.21-23.29,17.06.41,1,2.7,1.17,3.67,1.11,3.33-.14,4.71-2.71,9.36-6,2.42-1.73,2.35-1.17,6.51-3.67a108.41,108.41,0,0,0,10-6.79,72.19,72.19,0,0,0,20.44-9.08,70,70,0,0,0,25.58-29.33c2.5-5.47,3.47-9.84,5.41-18.5,2-9.08,5.2-24,3.4-43a122.52,122.52,0,0,0-4.3-21.91c-3.12-12.13-6-22.59-11.37-23.29a5.59,5.59,0,0,0-5,2.22Z" fill="#464664" opacity="0.13" style="isolation:isolate"/><path d="M745.34,334.24c-.63,0-.49,7.28-3.47,26.62-2.7,17.33-4.09,26.2-7.9,34.31a76,76,0,0,1-16.78,22.74C706.73,428,700.42,428.72,684.4,440.5a198.45,198.45,0,0,0-18.3,15.25c8.32-5.54,16.57-11.09,24.89-16.56a74.43,74.43,0,0,0,35.91-22.95C735.56,406,739,395.93,741.59,388.1,750.6,360.16,746.45,334.24,745.34,334.24Z" fill="#464664" opacity="0.16" style="isolation:isolate"/><path d="M697.51,263.46c-3.12,2.15-3.68,6.31-4.16,10.89a45.72,45.72,0,0,0,3.67,22.8,50.83,50.83,0,0,0,9.5-.9,48.31,48.31,0,0,0,7.41-2.08c-.27-9.22-.48-18.44-.76-27.66C707.35,262.22,701.25,260.9,697.51,263.46Z" fill="#fff" stroke="#1e0a32" stroke-miterlimit="10" stroke-width="2"/><path d="M681,217.23c-4.85,2.77-6.93,7.41-11,16.43-4.58,10.26-7.77,19.13-9,25.64a2.12,2.12,0,0,0,1.18,2.36,26.29,26.29,0,0,0,4.37,1A28.27,28.27,0,0,0,669.29,275a28.84,28.84,0,0,0,15.05,13.72,49.49,49.49,0,0,0,16.77-6,37.91,37.91,0,0,0,11.09-8.66,35.1,35.1,0,0,0,6.38-11.09,12.14,12.14,0,0,0,6-1.39c4.71-2.56,8.73-9.29,6.24-13.38-1.87-3-7-4.23-12.27-2.29a36.91,36.91,0,0,0-.76-8.87c-.21-.9-1.67-7.48-5-12.13-6.38-8.94-21.91-13.38-31.75-7.76Z" fill="#fff" stroke="#1e0a32" stroke-miterlimit="10" stroke-width="2"/><path d="M663.54,248.63a31.11,31.11,0,0,1-5-18.51c.21-3.05.62-8.87,4.85-14.35a24.42,24.42,0,0,1,14.35-8.8,19.17,19.17,0,0,1,5.41-5.89c1.11-.77,4.16-2.64,11.64-3.05A51.82,51.82,0,0,1,712,200a33,33,0,0,1,11.65,5.89c8.8,6.93,8.11,12.41,19.27,23.64,2.56,2.56,4.37,3.46,8.25,7.27a105.64,105.64,0,0,1,9.15,10.06c4.09,5.19,11.78,15,13.24,28.35.48,4.5,1.87,17.19-6,26.89-10.75,13.24-35,14.28-49.77,3.75-2.78-1.94-14.28-10.26-13.66-23.64.56-12.06,10.61-19.27,12-20.31a8.63,8.63,0,0,0,6,.41c4.93-1.8,7-9.35,4.44-13.17a6.12,6.12,0,0,0-3.19-2.28c-4-1.39-7.76,1.59-8,1.8A92.84,92.84,0,0,1,702.91,238a57.75,57.75,0,0,1-11.3-15.45,37.3,37.3,0,0,0-11.71,5.06,38,38,0,0,0-8.11,7.07,47.51,47.51,0,0,0-4.58,6.24,73.35,73.35,0,0,0-3.67,7.76Z" fill="#5a14d2"/><path d="M677.68,254.8h0a3.27,3.27,0,0,1,.07.34v.07c-.07.14-.14.21-.21.35.14-.14,0-.07-.28.14-.13-.07-.27-.07-.41-.14s-.14-.07-.14-.14-.07-.28-.14-.41v-.07c.07-.14.14-.21.21-.35s.28-.07.42-.07l.55.56v.2c-.35.07-.69.21-1,.28l-.07-.07c-.07-.14-.14-.21-.21-.35a4.65,4.65,0,0,1,.28-.55c.14-.07.28-.07.42-.14h-.07a.83.83,0,0,0-.77.76.73.73,0,0,0,.77.77,1,1,0,0,0,.9-.77.92.92,0,0,0-.49-1.1.77.77,0,0,0-1,.27,1,1,0,0,0,.56,1.53,1.06,1.06,0,0,0,1.18-1,1,1,0,0,0-1.25-.9,1,1,0,0,0-.63,1.45.73.73,0,0,0,1,.28c.49-.07.49-.56.35-.9Z" fill="#1e0a32"/><path d="M683.78,253.13c.14.7-.14.63-.76-.2.14-.07.21-.14.34-.21a.65.65,0,0,1,.63.48c.07-.41-.42-.76-.76-.76a.73.73,0,0,0-.77.76,1,1,0,0,0,1.11,1,1,1,0,0,0,.9-1.31,1.05,1.05,0,0,0-1.52-.63,1.15,1.15,0,0,0-.42,1.6.73.73,0,0,0,1,.27.74.74,0,0,0,.21-1Z" fill="#1e0a32"/><path d="M681.84,257.71c.42,0,.48.14.21.48,0,.28-.07.42-.28.42-.07-.28-.07-.62-.14-.9a.55.55,0,0,1,.56.07c-.7-.76-1.81.35-1.11,1.11a1.08,1.08,0,0,0,1.73-.21,1.12,1.12,0,0,0-.62-1.59,1.13,1.13,0,0,0-1.46,1,1.24,1.24,0,0,0,1.46,1.17.78.78,0,1,0-.35-1.52Z" fill="#1e0a32"/><path d="M669,272.82a15.82,15.82,0,0,0,10.46-6.93c.56-.83-.76-1.6-1.31-.76a14.55,14.55,0,0,1-9.5,6.24C667.63,271.5,668.05,273,669,272.82Z" fill="#1e0a32"/><path d="M692.58,224.78c1.25,2.5,2.85,5.83,4.65,9.78,5.54,12.06,6.17,15.39,6.38,18.3a30.47,30.47,0,0,1-1.11,10.05c-3.19,12.89-12.55,21.49-17.19,25.23a39.84,39.84,0,0,0,8.11-1.8,41.42,41.42,0,0,0,10.88-5.55,22.35,22.35,0,0,0,1,9.22c1.39,4.44,3.88,7.21,6,9.85a30.93,30.93,0,0,0,8.94,7.76,31.61,31.61,0,0,0,11,3.88,44.8,44.8,0,0,0,13.94.9c4.5-.41,11.64-1,18.3-6.17a24.47,24.47,0,0,0,7.76-9.56c.56-1.25,1.39-3.61,1.8-9.85.49-7.34.84-12.47-.9-19a41.06,41.06,0,0,0-8.25-15.74c-5.54,14.91-18.92,23.5-31,21.7-9.43-1.45-15.11-8.87-16.78-11.16a9.46,9.46,0,0,0,9.57-3c2.56-3,3.33-8.53,0-11.44-2.63-2.28-7-2.35-10.26.21a90,90,0,0,1-13-11.44,86.47,86.47,0,0,1-9.78-12.2Z" fill="#1e0a32" opacity="0.1" style="isolation:isolate"/><path d="M676.57,247.31a1.8,1.8,0,0,1,.21-2.29l-.56.21h.21c-.21-.07-.34-.14-.55-.21.69.56.14,2.71-.14,3.33a3.32,3.32,0,0,1,.48-.35.24.24,0,0,0-.13.07c.2,0,.41.07.62.07-.42-.2-.35-1.31-.28-1.59a4.18,4.18,0,0,1,.49-1.66c-.35.06-.7.2-1,.27a1.37,1.37,0,0,1,.34,1.25,1.32,1.32,0,0,1-.13.56c-.07.34-.21.34.13.41a3,3,0,0,0,.49.35c0-.07-.07-.07-.07-.14-.62-.76-1.94,0-1.32.76a1.23,1.23,0,0,0,1.39.49,1.74,1.74,0,0,0,1-1.39c.35-1.39.35-2.77-.9-3.67a.71.71,0,0,0-1,.27c-.69,1.39-1.11,3.54-.21,4.93a1.18,1.18,0,0,0,1.67.41c.62-.48.69-1.73.76-2.42.14-1-.07-4-1.87-3.12-1.46.76-1.32,3.12-.63,4.29.28.84,1.67,0,1.11-.83Z" fill="#1e0a32"/><path d="M673.38,240.24c3.68-.62,6.8,1.39,9.64,3.54.83.62,1.59-.77.76-1.32-3.19-2.43-6.65-4.3-10.81-3.67-1,.06-.56,1.59.41,1.45Z" fill="#1e0a32"/><path d="M677.54,265.2a10.12,10.12,0,0,1,2.08,1.8c.69.76,1.8-.35,1.11-1.11a13.72,13.72,0,0,0-2.43-2.08C677.47,263.26,676.71,264.64,677.54,265.2Z" fill="#1e0a32"/><path d="M55.94,576.21A121.51,121.51,0,0,1,43.6,528.45c-.07-1.32-2.15-1.32-2.08,0a124.53,124.53,0,0,0,12.61,48.8c.63,1.18,2.36.14,1.81-1Z" fill="#e6e7e8"/><path d="M43.94,528.52c10.12,1.25,20.38,3.19,30.57,3.46,9.85.21,19.55-1.94,29.12-4,1.31-.27.76-2.28-.56-2-9.84,2.15-19.75,4.37-29.87,3.88-9.78-.41-19.55-2.21-29.19-3.39-1.38-.14-1.38,1.94-.07,2.08Z" fill="#e6e7e8"/><path d="M102.17,527.55a134.63,134.63,0,0,1-10,48c-.48,1.24,1.53,1.8,2,.55a134.54,134.54,0,0,0,10.12-48.59c.07-1.32-2-1.32-2.08,0Z" fill="#e6e7e8"/><path d="M55.17,527.76A66,66,0,0,1,47,516c-1.17-2.15-2.21-4.3-3.18-6.59C43,507.44,40,499,46,500.24c.7.13,1.6-.49,1.25-1.25a148.44,148.44,0,0,1-4.85-18.09,160.78,160.78,0,0,1-3.67-19.07,56,56,0,0,1-.35-9.08c.07-2.08.55-11.23,5.41-6.38,1.94,1.95,3.25,5.06,4.64,7.49,1.52,2.63,2.91,5.34,4.3,8a158.59,158.59,0,0,1,16.5,69.18,1,1,0,0,0,2.07,0A160.72,160.72,0,0,0,57.88,468a161,161,0,0,0-7.35-14.62c-1.8-3.12-4-8.81-7.63-10.26-8.52-3.4-6.65,15.32-6.23,18.78a167.17,167.17,0,0,0,3.39,18.3c1.53,6.52,2.84,13.17,5.13,19.41l1.25-1.25a5,5,0,0,0-5.68,2.71c-1.39,2.7-.35,5.89.69,8.52a68.7,68.7,0,0,0,12.06,19.76,1.16,1.16,0,0,0,1.66-1.59Z" fill="#e6e7e8"/><path d="M67.37,499.61C67,497,66.54,481.87,72,483a1.05,1.05,0,0,0,1.32-1c1.17-9.91,2.35-20,6.37-29.25a38,38,0,0,1,3.82-7c1.31-1.87,3.81-2.63,5.26-.42a10.31,10.31,0,0,1,1.11,2.92,84.08,84.08,0,0,1,2.22,16.63C93,487,87.34,508.76,81.79,530a1,1,0,0,0,2,.56c6.73-25.58,13.66-52.48,8.88-79-.56-3.19-1.18-8.52-4.86-9.91-4.23-1.59-6.93,4.16-8.45,7.07C74,459,72.57,470.71,71.26,482c.41-.34.9-.69,1.31-1-8-1.66-7.76,14.15-7.21,18.65.14,1.25,2.22,1.32,2-.07Z" fill="#e6e7e8"/><path d="M41.31,530.46a143.49,143.49,0,0,0,37.78,47.41c1,.83,2.49-.62,1.45-1.45a141,141,0,0,1-37.43-47c-.55-1.18-2.35-.14-1.8,1Z" fill="#e6e7e8"/><path d="M57.11,529.83l19.83,21.7c5.55,6.1,11,12.83,18.3,16.85,1.18.62,2.22-1.18,1-1.81-7.56-4.09-13.1-11.23-18.79-17.46-6.3-6.94-12.61-13.8-18.92-20.73-.9-1-2.36.48-1.46,1.45Z" fill="#e6e7e8"/><path d="M77.77,531.78A121.84,121.84,0,0,0,99,554.44c1,.83,2.5-.62,1.46-1.45a127.5,127.5,0,0,1-20.87-22.25c-.76-1-2.56,0-1.8,1Z" fill="#e6e7e8"/><path d="M94.48,529.28l7.69,8.73c.9,1,2.36-.48,1.46-1.45l-7.7-8.74c-.9-1-2.35.49-1.45,1.46Z" fill="#e6e7e8"/><g id="background"><path d="M284.26,197.24a1,1,0,0,0-2.08,0V214a1,1,0,0,0,2.08,0V197.24Z" fill="#e6e7e8"/><path d="M283.22,198.28a1,1,0,0,0,0-2.08H136.61a1,1,0,0,0,0,2.08Z" fill="#e6e7e8"/><path d="M282.94,215.06a1,1,0,0,0,0-2.08H136.33a1,1,0,0,0,0,2.08Z" fill="#e6e7e8"/><path d="M137.44,197.24a1,1,0,0,0-2.08,0V214a1,1,0,0,0,2.08,0V197.24Z" fill="#e6e7e8"/><path d="M278.5,163.28c.21-1.25-1.8-1.87-2-.49-1.94,11.86-4.29,24.4-13.65,32.86-1,.9.48,2.36,1.45,1.46,9.64-8.74,12.2-21.56,14.21-33.83Z" fill="#e6e7e8"/><path d="M277.19,162.86c1.31-.07,1.31-2.15,0-2.08q-31.92,1.25-63.78-.41c-1.31-.07-1.31,2,0,2.08,21.29,1.11,42.5,1.24,63.78.41Z" fill="#e6e7e8"/><path d="M213.69,162.1c.28-1.32-1.73-1.87-1.94-.62a38.41,38.41,0,0,0,12.62,36.18c1,.9,2.49-.55,1.45-1.46a36.28,36.28,0,0,1-12.13-34.1Z" fill="#e6e7e8"/><path d="M278.5,157.52c-.83,1,.7,2.57,1.39,1.6a12.68,12.68,0,0,0,3-6.52c.21-1.52.42-4.92-1.18-6-3.05-2.08-7.14,4.44-8.25,6.45-7.48,13.31-13.51,27.73-20,41.66-.55,1.18,1.25,2.29,1.8,1q6.66-14.35,13.52-28.63c2.08-4.37,4.09-8.87,6.45-13.1.48-.83,3.74-6.52,5.4-5.48.7.49.14,4.3,0,4.79a9.7,9.7,0,0,1-2.15,4.22Z" fill="#e6e7e8"/><path d="M281.83,155.51c.56-1.17-1.25-2.21-1.8-1a193.85,193.85,0,0,1-25.86,41.18c-.83,1,.63,2.5,1.46,1.46a201,201,0,0,0,26.2-41.6Z" fill="#e6e7e8"/><path d="M282.39,149.07c1.11.76,2.15-1,1.11-1.94-.14-.07-.21-.14-.35-.21-.28.62-.56,1.25-.83,1.87,2.35.62,5.13.62,6.51-1.66a3.52,3.52,0,0,0,.56-2.36c0,.28-.63-2.22-.76-1.73.2-.77,1.17-.83,1.66-1.18,1.66-1.11,1.66-1.8,1.39-3.68-.14-1-.42-.34.06-1.8a5.85,5.85,0,0,0,.56-1.18,4,4,0,0,0-.42-2.7,2.93,2.93,0,0,0-4.29-1.39,5.29,5.29,0,0,0-1.88,2.5,7.37,7.37,0,0,1-1.59,2.63c-.55.49-1.18.63-1.66,1.11a3.12,3.12,0,0,0-1.25,2.08,8.07,8.07,0,0,0,.35,2.15c-.07.21-.84.21-1,.42-1.32,1.38-1.95,2.63-.63,4.36.83,1,2.64,0,1.8-1s1-1.8,1.46-2.49a4,4,0,0,0,.14-1c.14-1.39.07-2.08,1.11-3.19.9-.83,1.73-1,2.35-2.29a8.29,8.29,0,0,0,.63-1.38c.21-1.6.69-1.74,1.38-.35.84.35,1.11.69.77,1,0,.42-.56,1.46-.56,2.15,0,1,.56.48,0,1.73s-.83.63-1.59,1.32-1,.9-1.11,1.8c0,.35.14.62.14.9.69.76.41,1.53-.7,2.22-.41,1.59-1.38,2-2.84,1.18a1,1,0,0,0-.83,1.87c.14.07.21.14.35.21Z" fill="#e6e7e8"/><path d="M274.62,150c-.48,1.25,1.53,1.73,1.94.55,1-2.56,2.29-9.56-2.56-8.94-4.65.62-6.52,7.76-8,11.23a234.9,234.9,0,0,0-12.83,40.9c-.27,1.32,1.74,1.87,2,.55a238.64,238.64,0,0,1,7.7-27.52c1.73-4.78,3.53-9.56,5.54-14.28a45.27,45.27,0,0,1,2.71-5.82,8.21,8.21,0,0,1,1.24-1.8c1,.48,2.08.9,3.12,1.39.42.62-.62,3-.9,3.74Z" fill="#e6e7e8"/><path d="M277.12,141.51c-1.25-.48-1.73,1.53-.56,2,3.4,1.32,5.69-2.56,5-5.54-.14-.7-1.11-1.74-1.11-2.29,0-.21,1-1.53,1.11-1.87a4.2,4.2,0,0,0-1.25-4v1.45c1.73-1.45,2.28-5.27.14-6.72-2.57-1.73-3.54,1.32-4.23,3.12s-2.57,2.42-3.19,4.3c-.56,1.59.55,2.7.35,4.16-.14,1.24-1.39,1.66-1.6,2.84-.28,1.45.62,2.56,1.53,3.53s2.35-.48,1.45-1.45c-1.45-1.53.56-2.71.76-4s-.83-2.5-.62-3.75c.21-1.59,2.15-2.22,2.84-3.53.28-.49.21-1.11.49-1.53-.14-.9.14-1.18.83-.83,1.39-.07,1.32.76-.21,2.43a1.06,1.06,0,0,0,0,1.45c2.29,2.36-.55,2.64-.69,4.23a2,2,0,0,0,.14.69,2.91,2.91,0,0,0,.62,1c1.11,1.31.56,2.77-1.8,4.36Z" fill="#e6e7e8"/><path d="M244.89,195.3a1,1,0,1,0,1.8.84c1.87-3.19-1-5.06-3.33-6.8-2.5-1.87-3.12-4-4.57-6.58a4.61,4.61,0,0,0-2.64-2.57c-2.15-.76-4.3.63-6.45,0-2.77-.83-3.32-3.6-5.06-5.47-2.7-2.92-6.44-1.67-9.63-.14-1.25.62-.14,2.35,1,1.8,2.91-1.39,5.89-2.08,8,1a19.19,19.19,0,0,0,1.87,2.77,7.09,7.09,0,0,0,6,2.29c2.36-.14,4.3-.55,5.41,2a17.87,17.87,0,0,0,1.87,3.67c1.11,1.6,6.86,5.2,5.76,7.14Z" fill="#e6e7e8"/><path d="M234.83,195.17c1.32.2,1.88-1.81.49-1.95-5.75-1-8.18-5.89-11.65-9.91-2.49-2.91-6-4.64-9.56-2.77-1.18.62-.14,2.42,1,1.8,5.33-2.63,8.66,5.13,11.57,8.18a14.67,14.67,0,0,0,8.11,4.65Z" fill="#e6e7e8"/><path d="M234.35,181.65a1.09,1.09,0,0,0,1.87-1.11,13.27,13.27,0,0,1-2.22-6.17,31.2,31.2,0,0,0-.28-4.37c-.48-2.15-2.07-2.91-3.46-4.36-3.4-3.54-1.53-9.22-5.13-12.76a1.16,1.16,0,0,0-1.25-.14,5.25,5.25,0,0,0-1.73,1.53c-1.32,1.45-2.7,1.94-4.37,2.77a5.14,5.14,0,0,0-2.77,4.09c-.49,2.77,0,5.82-.28,8.66-.21,1.74-.07,3.19,1.32,4.44,1,.9,2.49-.55,1.45-1.45-1.59-1.39-.34-4.51-.34-6.45,0-2.5-1-5.76,1.59-7,1.18-.56,2.57-.7,3.54-1.6s1.24-2.42,2.56-3.19a9,9,0,0,1-1.25-.13c3.26,3.18,1.67,8.59,4.51,12.13.69.83,1.59,1.31,2.29,2.08,1.8,2,1.18,3.67,1.38,6a15.85,15.85,0,0,0,2.57,7.07Z" fill="#e6e7e8"/><path d="M258.75,214.78c.48-1.25-1.53-1.8-1.94-.55-1.18,3.19-2.22,6.44-3.12,9.7.28-.27.62-.48,1-.76-4.16-.07-8.39,0-12.55.14-1.31.07-1.31,2.15,0,2.08,4.16-.14,8.39-.14,12.55-.14a1.11,1.11,0,0,0,1-.76c1-3.26,2-6.52,3.12-9.71Z" fill="#e6e7e8"/><path d="M239.89,214.3a1,1,0,0,0-2,.55l3.33,10c.42,1.25,2.43.7,2-.55l-3.33-10Z" fill="#e6e7e8"/><path d="M185,196.69a1.08,1.08,0,0,0,2.15,0c-.14-2.08,1.18-4.23,0-6.17a5.21,5.21,0,0,0-3.67-2.15c-2.57-.48-5.34-.21-7.9-.21-3.4,0-6.87,0-10.26.07-7.07.07-14.21-.14-21.21.42-1.46.14-3,.21-4.09,1.45-1.39,1.67-.42,4-1,5.9a1,1,0,0,0,2,.55c.55-2.08-.28-4.78,2.28-5.68,1.87-.7,4.92-.21,6.93-.28,4.58-.14,9.09-.21,13.66-.28,4.78-.07,9.57-.07,14.35-.07,1.66,0,4.92-.48,6.31.7s.34,4,.41,5.75Z" fill="#e6e7e8"/><path d="M193,187.75c-.27,1.32,1.74,1.87,1.95.62.9-3.67.34-6.72-3.75-7.42-6-1-12.41-.2-18.51-.13a95.4,95.4,0,0,1-10-.49c-2.91-.28-6-.9-9-.42-4.44.7-3.81,5.13-4.3,8.88-.21,1.31,1.94,1.31,2.08,0a26.54,26.54,0,0,1,.42-3.4c.48-2.15.69-3.4,3-3.53a33.55,33.55,0,0,1,5.2.2c3.74.35,7.41.77,11.23.77,4.09,0,8.11-.28,12.2-.28q2.7,0,5.4.21c1.46.14,3.54.07,4.3,1.73.35.76-.07,2.43-.28,3.26Z" fill="#e6e7e8"/><path d="M194.21,189.76c1.32-.14.77-2.15-.55-2A42.93,42.93,0,0,1,183,188c-1.31-.14-1.31,1.94,0,2.07a46.82,46.82,0,0,0,11.23-.34Z" fill="#e6e7e8"/><path d="M182,215.2c.49-1.32-1.52-1.8-1.94-.56-1.11,3-2.08,6-3,9.08.28-.27.62-.48,1-.76-3.67.14-8.8,1.18-12.27-.07-1.25-.41-1.8,1.6-.55,2,3.81,1.32,8.87.28,12.82.14a1,1,0,0,0,1-.76c.9-3.05,1.87-6.1,3-9.08Z" fill="#e6e7e8"/><path d="M163.92,214.85c-.42-1.25-2.43-.69-2,.56.9,2.91,1.8,5.75,2.7,8.66.42,1.25,2.43.69,2-.55-.9-2.91-1.8-5.76-2.7-8.67Z" fill="#e6e7e8"/><path d="M284.26,79a1,1,0,1,0-2.08,0v16.7a1,1,0,0,0,2.08,0V79Z" fill="#e6e7e8"/><path d="M283.22,80a1,1,0,0,0,0-2.08H136.61a1,1,0,0,0,0,2.08Z" fill="#e6e7e8"/><path d="M282.94,96.73a1,1,0,0,0,0-2.08H136.33a1,1,0,0,0,0,2.08Z" fill="#e6e7e8"/><path d="M137.37,79a1,1,0,1,0-2.08,0v16.7a1,1,0,0,0,2.08,0V79Z" fill="#e6e7e8"/><path d="M258.75,96.45c.41-1.24-1.6-1.8-1.94-.55-1.18,3.19-2.22,6.45-3.12,9.7.28-.27.62-.48,1-.76-4.16-.07-8.39,0-12.55.14-1.31.07-1.31,2.15,0,2.08,4.16-.14,8.39-.14,12.55-.14a1.1,1.1,0,0,0,1-.76c1-3.26,2-6.52,3.12-9.71Z" fill="#e6e7e8"/><path d="M239.82,96a1,1,0,0,0-2,.55l3.33,10c.42,1.24,2.43.69,2-.56l-3.33-10Z" fill="#e6e7e8"/><path d="M182,96.87c.42-1.32-1.59-1.8-1.94-.55-1.11,3-2.08,6-3,9.08a11.74,11.74,0,0,1,1-.77c-3.67.14-8.8,1.18-12.27-.06-1.25-.42-1.8,1.59-.55,2,3.81,1.31,8.87.27,12.82.13a1,1,0,0,0,1-.76c.9-3,1.87-6.1,3-9.08Z" fill="#e6e7e8"/><path d="M163.92,96.52c-.42-1.24-2.43-.69-2,.56.9,2.91,1.8,5.75,2.7,8.66.42,1.25,2.43.7,2-.55-.9-2.91-1.8-5.75-2.7-8.67Z" fill="#e6e7e8"/><path d="M278.71,20.55c-.07-1.32-2.15-1.32-2.08,0,1,19.2,1.25,38.33.56,57.54-.07,1.31,2,1.31,2.08,0q1-28.81-.56-57.54Z" fill="#e6e7e8"/><path d="M276.77,19.51c.63,1.18,2.43.14,1.8-1.11a82.59,82.59,0,0,1-5.33-12.48,1,1,0,0,0-.7-.69,22.41,22.41,0,0,1-5.26-1.39c-1.25-.48-1.81,1.53-.56,2s3.67.77,4.58,1.46,1.17,2.77,1.59,3.88a76.55,76.55,0,0,0,3.88,8.32Z" fill="#e6e7e8"/><path d="M259.23,26.86c-.13-1.32-2.21-1.32-2.08,0a478.77,478.77,0,0,1,1.25,51c-.07,1.32,2,1.32,2.08,0a478.32,478.32,0,0,0-1.25-50.95Z" fill="#e6e7e8"/><path d="M244,24.5a1,1,0,0,0-2.08,0c.63,17.4,1,34.87,1,52.27a1,1,0,0,0,2.08,0q0-26.2-1-52.27Z" fill="#e6e7e8"/><path d="M266.44,4.81c.63,1.18,2.36.14,1.81-1a15.6,15.6,0,0,1-1-2.57.92.92,0,0,0-1-.76c-2-.07-4-.21-6-.28-1.11-.07-2.7-.42-3.81.14-2.22,1-2,5.61-2.36,7.62-.2,1.32,1.81,1.88,2,.56s.42-2.43.63-3.61c.07-.62.21-1.17.28-1.8a1.3,1.3,0,0,1,1.8-.9c2.22-.35,5.13.28,7.42.35-.28-.28-.63-.49-1-.77a22.86,22.86,0,0,0,1.17,3.05Z" fill="#e6e7e8"/><path d="M255.91,9c1.24-.55.14-2.35-1-1.8-2.91,1.39-7.84,2.7-9.71,5.48-2.22,3.32-3,8.25-3.67,12.06-.21,1.32,1.8,1.87,2,.55.62-3.46,1.32-8,3.19-10.95,1.66-2.7,6.44-4,9.22-5.34Z" fill="#e6e7e8"/><path d="M278.64,44.6c1.39-.13,1.39-2.21,0-2.08-6.44.49-12.89.77-19.41,1-1.31.06-1.31,2.14,0,2.07,6.45-.13,13-.48,19.41-1Z" fill="#e6e7e8"/><path d="M278.92,65.61c1.25-.49.69-2.5-.62-1.94-2.78,1.18-5.55,1-8.46.76-1.11-.07-2.29-.21-3.4-.21-1.31,0-3.81.56-5-.07s-2.22,1.18-1,1.8c2.43,1.32,5.62.28,8.32.42,3.54.21,6.86.62,10.19-.76Z" fill="#e6e7e8"/><path d="M258.19,45.44c1.32.13,1.32-1.94,0-2.08-4.64-.35-9.28-.63-13.93-1-1.32-.07-1.32,2,0,2.08,4.65.34,9.29.62,13.93,1Z" fill="#e6e7e8"/><path d="M259.51,66.37c1.32.07,1.32-2,0-2.08A72,72,0,0,1,245.09,62a1,1,0,0,0-.55,2,84.22,84.22,0,0,0,15,2.36Z" fill="#e6e7e8"/><path d="M274.21,18.82a1,1,0,0,0,0-2.08c-5.13,0-10.33.14-15.46.41-1.32.07-1.32,2.15,0,2.08,5.13-.2,10.26-.41,15.46-.41Z" fill="#e6e7e8"/><path d="M252.16,19a1,1,0,0,0,0-2.08h-7.34a1,1,0,0,0,0,2.08Z" fill="#e6e7e8"/><path d="M201.08,77.53c-.49,1.25,1.52,1.8,2,.56a4.22,4.22,0,0,0-2.5-5.41,4.28,4.28,0,0,0-5.34,3.19c-.27,1.31,1.74,1.87,2,.55a2,2,0,1,1,3.82,1.11Z" fill="#e6e7e8"/><path d="M196.22,72.75c-.55,1.18,1.18,2.22,1.81,1.11a3.31,3.31,0,0,0-2.43-4.65c-2.36-.41-4.16,1.87-4.3,4-.07,1.32,2,1.32,2.08,0,.07-.9.76-2,1.73-2,.7,0,1.46.83,1.11,1.53Z" fill="#e6e7e8"/><path d="M192,76.14a1,1,0,0,0,2,.56,3.88,3.88,0,0,0-2.49-4.65,3.81,3.81,0,0,0-4.64,2.5c-.49,1.25,1.52,1.8,2,.55a1.64,1.64,0,0,1,3.11,1Z" fill="#e6e7e8"/><path d="M190.68,70c-1.11.77-.07,2.57,1.11,1.81a2.84,2.84,0,0,0-.56-4.93c-2.63-1.1-4.85,1-6.1,3-.69,1.11,1.11,2.15,1.8,1s1.39-2.07,2.57-2.28c.48-.07,1.11,0,1.32.48.13.28.13.7-.14.83Z" fill="#e6e7e8"/><path d="M186,74.55c-.27,1.25,1.67,1.8,2,.62a3,3,0,0,0-3.12-3.53c-2.21,0-3.46,2.15-4.16,4-.48,1.25,1.53,1.8,2,.55a4.13,4.13,0,0,1,1.59-2.28c.48-.28,1.87-.14,1.66.69Z" fill="#e6e7e8"/><path d="M181,77.05c.21,1.31,2.22.76,1.94-.63a3.55,3.55,0,0,0-3.39-2.91,3.69,3.69,0,0,0-3.4,3c-.21,1.32,1.8,1.87,2,.56a1.42,1.42,0,0,1,2.84,0Z" fill="#e6e7e8"/><path d="M184.85,69.84c-.06,1.31,2,1.31,2.08-.07.14-1.94-1.87-3.26-3.67-3.12-2.29.21-3.6,2.42-4.51,4.3-.55,1.17,1.25,2.21,1.81,1a6.7,6.7,0,0,1,2-2.92c.76-.48,2.35-.41,2.28.77Z" fill="#e6e7e8"/><path d="M180.83,74.13a1,1,0,0,0,2.08.07,3.75,3.75,0,0,0-2.7-3.74A3.87,3.87,0,0,0,176,72.33c-.62,1.18,1.18,2.22,1.8,1a1.6,1.6,0,0,1,3.05.76Z" fill="#e6e7e8"/><path d="M213.35,58.88c.27-1.31-1.74-1.87-2-.55a41.86,41.86,0,0,1-9.56,19.2c-.9,1,.55,2.5,1.45,1.46a44.77,44.77,0,0,0,10.13-20.11Z" fill="#e6e7e8"/><path d="M208.35,58.88c1.32-.07,1.32-2.15,0-2.08a292,292,0,0,1-47.41-.55c-1.32-.14-1.32,1.94,0,2.08a293.21,293.21,0,0,0,47.41.55Z" fill="#e6e7e8"/><path d="M161.91,58.88c.07-1.31-2-1.31-2.08,0a30,30,0,0,0,7.07,20.25c.83,1,2.29-.42,1.46-1.46a28,28,0,0,1-6.45-18.79Z" fill="#e6e7e8"/><path d="M177.78,70a1,1,0,0,0,1.81,1,3.89,3.89,0,1,0-6.73-3.88c-.62,1.18,1.18,2.22,1.8,1a2,2,0,0,1,2.57-.83,2,2,0,0,1,.55,2.63Z" fill="#e6e7e8"/><path d="M172.93,74.13c-1.18.63-.14,2.43,1.11,1.81,1.8-.9,1.73-3.54.28-4.79-1.8-1.52-4.58-.2-5.48,1.67-.55,1.18,1.25,2.22,1.8,1,.35-.7,1.32-1.74,2.22-1.18.49.28.63,1.18.07,1.45Z" fill="#e6e7e8"/><path d="M168.7,68.59c-1.17.62-.14,2.42,1,1.8a3.45,3.45,0,0,0,.56-5.54A3.41,3.41,0,0,0,165,66.58c-.42,1.32,1.59,1.8,2,.55a1.37,1.37,0,0,1,2-.62,1.32,1.32,0,0,1-.35,2.08Z" fill="#e6e7e8"/><path d="M174.25,65.89c0,1.31,2.08,1.31,2.08.06a4.68,4.68,0,0,0-8.25-3.18c-.9,1,.55,2.49,1.46,1.45a2.61,2.61,0,0,1,4.71,1.67Z" fill="#e6e7e8"/><path d="M211.13,56.18c-1.11.69-.07,2.5,1,1.8A2.77,2.77,0,0,0,212,53.2c-2.15-1.11-4.37.42-5.55,2.22-.69,1.11,1.11,2.15,1.81,1a2.59,2.59,0,0,1,2.21-1.53c.56,0,1.46.77.7,1.25Z" fill="#e6e7e8"/><path d="M208.42,59.72c-1.24.55-.2,2.35,1.11,1.8a2.61,2.61,0,0,0,.83-3.75c-.9-1.38-2.84-1.31-4.09-.41-1.66,1.18-1.8,3.4-1.17,5.2.55,1.52,1.87,3.12,3.6,2.29,1.18-.63.14-2.36-1-1.81a13.29,13.29,0,0,1-.69-1.66,2.27,2.27,0,0,1,.21-2c.27-.35,1-1,1.45-.42a.51.51,0,0,1-.21.77Z" fill="#e6e7e8"/><path d="M205.65,56.32c-.48,1.25,1.53,1.73,2.08.62,1-2.56-1.8-5.47-4.37-4.43a3.51,3.51,0,0,0-1,5.75c1,.83,2.5-.62,1.46-1.46a1.54,1.54,0,0,1,.14-2.35c1-.63,2,1,1.66,1.87Z" fill="#e6e7e8"/><path d="M203.92,61.17c-.35,1.25,1.66,1.8,2.08.49A3.16,3.16,0,0,0,201.63,58c-2.56,1.18-2.63,4.37-.83,6.24.9,1,2.42-.48,1.45-1.45a1.74,1.74,0,0,1-.07-2.71,1.1,1.1,0,0,1,1.74,1.11Z" fill="#e6e7e8"/><path d="M204.89,65.54c-.63,1.18,1.18,2.22,1.8,1a2.55,2.55,0,0,0-3.19-3.47c-2.63,1-2.29,4.16-1.18,6.17.63,1.18,2.43.14,1.81-1-.42-.83-1-1.94-.35-2.77a.79.79,0,0,1,.76-.42c.21,0,.49.28.35.49Z" fill="#e6e7e8"/><path d="M205,72.4c1.25-.35.69-2.36-.7-2a2.2,2.2,0,0,1-2.21-.83c-.14-.21-1.46-1.87-1.11-1.94,1.31-.21.76-2.22-.56-2a2,2,0,0,0-1.59,1.94,4.46,4.46,0,0,0,1.11,2.56c1.18,1.6,3,2.91,5.06,2.29Z" fill="#e6e7e8"/><path d="M199.41,64.5a1,1,0,1,0,2.08,0A3.34,3.34,0,1,0,195.25,66c.63,1.18,2.43.14,1.81-1a1.46,1.46,0,0,1,.69-1.8,1.4,1.4,0,0,1,1.66,1.39Z" fill="#e6e7e8"/><path d="M194.91,61.1c-.28,1.25,1.73,1.8,2,.56a3,3,0,0,0-3.75-3.4c-2.42.69-3,3.4-2.42,5.61a1,1,0,0,0,2-.55,2.53,2.53,0,0,1,.55-2.84c.49-.35,1.8-.35,1.6.62Z" fill="#e6e7e8"/><path d="M197.68,67.13c.9-1-.56-2.42-1.46-1.45a1.91,1.91,0,0,1-2.91,0c-.76-1.11-2.56-.07-1.8,1a4,4,0,0,0,6.17.41Z" fill="#e6e7e8"/><path d="M198.58,57.77c.69,1.11,2.5.07,1.8-1A3.53,3.53,0,0,0,196,55.28c-2,.69-2.78,2.77-2.92,4.64-.07,1.32,2,1.32,2.08,0a3.07,3.07,0,0,1,1.39-2.63,1.53,1.53,0,0,1,2,.48Z" fill="#e6e7e8"/><path d="M691.37,192.77a1,1,0,0,0,0-2.08H597.1a1,1,0,0,0,0,2.08Z" fill="#e6e7e8"/><path d="M609.23,191.73a1,1,0,0,0-2.08,0v25a1,1,0,0,0,2.08,0v-25Z" fill="#e6e7e8"/><path d="M625.73,220.5a1,1,0,0,0,0-2.08H561.05a1,1,0,0,0,0,2.08Z" fill="#e6e7e8"/><path d="M105.53,281.87a1,1,0,0,0,0-2.08h-97a1,1,0,0,0,0,2.08Z" fill="#e6e7e8"/><path d="M134.16,257.81a1,1,0,0,0,0-2.08H68.52a1,1,0,0,0,0,2.08Z" fill="#e6e7e8"/><path d="M77.88,258.64a1,1,0,0,0-2.08,0v21.28a1,1,0,0,0,2.08,0V258.64Z" fill="#e6e7e8"/></g><g id="boy"><g id="leg_right" data-name="leg right"><path d="M243,613.94c-.82,12.08-1.58,24.21-2.34,36.29q53.28,6.53,54,2.61.57-3.11-33.13-13.06c.22-7.07.38-14.14.6-21.21C255.73,617,249.36,615.47,243,613.94Z" fill="#1e0a32" stroke="#1e0a32" stroke-miterlimit="10" stroke-width="2"/><path d="M150.24,495.61c-4.68,12.19,1.3,26.23,9.63,33.19,3.21,2.72,4,2,25.73,8.38,18.17,5.33,24.76,7.94,31.34,11.48a104.31,104.31,0,0,1,13,8.37,166.2,166.2,0,0,1,3.7,28.24,162.11,162.11,0,0,1-2.18,34.44,45.46,45.46,0,0,0,5.88,3.7c8.92,4.57,17.52,4.46,23.56,4.35a64.54,64.54,0,0,0,14.25-1.85A193.82,193.82,0,0,0,277,593.32c-.22-8.59-1.36-27.91-9-48.09-2.44-6.48-5.6-13.11-11.8-18.93-3.76-3.49-6.8-5-10.56-7.13-6.47-3.65-15.77-10.83-34.43-25.14-17.63-13.54-16.92-13.92-20.19-14.9C177.77,475.27,156.33,479.56,150.24,495.61Z" fill="#fff"/><path d="M199.42,484.62c-.87-.6-1.69.82-.82,1.42l32.81,23c8.76,6.15,18.33,11.91,26,19.53,7.89,7.89,11.26,18.12,13.82,28.73a191,191,0,0,1,4,67.4c-.11,1,1.52,1,1.63,0a192.57,192.57,0,0,0,.6-39.66,189.86,189.86,0,0,0-6.15-34c-2.83-10-7.18-18.77-15-25.79-8.16-7.35-17.74-13.22-26.66-19.48-10.06-7-20.08-14.09-30.14-21.11Z" fill="#1e0a32"/><path d="M168.57,530.76a.81.81,0,0,0-.38,1.58q16.41,4.65,32.48,10.5,8,2.92,15.83,6.09c4.52,1.85,9.2,4,11.81,8.43a.81.81,0,0,0,1.41-.81c-2.39-4-6.25-6.32-10.39-8.17-5-2.23-10.23-4.13-15.34-6-11.64-4.36-23.45-8.17-35.42-11.59Z" fill="#1e0a32"/><path d="M229,548.38c-.22-1-1.8-.59-1.58.44a178.39,178.39,0,0,1,3,69.8c-.16,1,1.42,1.47,1.58.44a181,181,0,0,0-3-70.68Z" fill="#1e0a32"/><path d="M276.08,624.66c.1-1-1.53-1-1.64,0-.11,1.36-10.61,1.63-11.91,1.69a73.06,73.06,0,0,1-10.77-.11c-7-.66-13.77-2.83-19.26-7.29-.82-.66-2,.49-1.14,1.14,6.41,5.22,14.41,7.51,22.57,7.94a99.67,99.67,0,0,0,15.07-.6c2.07-.21,6.8.28,7.08-2.77Z" fill="#1e0a32"/><path d="M162.86,526.19c2.5,8.81,18.06,8.21,43.14,18.06a170.29,170.29,0,0,1,23.56,11.32,158.84,158.84,0,0,1,3.37,19.85,166,166,0,0,1-1.19,44.07,28.65,28.65,0,0,0,18.06,6.42c7.61-59.9-3-80.52-15-87.75C228,534,223.74,536,206.38,528c-21.21-9.69-29.81-19.43-37.32-15.62C164.6,514.65,161.55,521.24,162.86,526.19Z" fill="#464664" opacity="0.11" style="isolation:isolate"/><path d="M200.78,542.13c7.62,2.07,14.09,3.37,21.44,8.54a45.27,45.27,0,0,1,7.34,6.42,196.37,196.37,0,0,1,3.37,27.53,194.93,194.93,0,0,1-1.52,36.07c3.59,1.14,7.13,2.23,10.72,3.37a142.88,142.88,0,0,0,2.77-34.27c-.71-17.3-1.2-29.76-10.12-39.45-5.6-6.14-12-8.32-23.83-12.24-18.49-6.2-36.12-7-36.39-5.49S190.93,539.35,200.78,542.13Z" fill="#464664" opacity="0.12" style="isolation:isolate"/></g><g id="leg_left" data-name="leg left"><path d="M79.19,601.43c-9.25-2.23-18.56-4.52-27.86-6.75-.33,5.17-.6,10.34-.87,15.51,8.16,5.28,9.79,7.89,9.3,9.3-1.3,3.59-18.49,4-23.66-4.24-1.53-2.34-1.31-4.25-.87-11.81,1.25-23.07.54-26.77,3.91-29.27,2-1.47,4.41-1.85,14.91,0a216.16,216.16,0,0,1,29.27,7.35C81.91,588.21,80.49,594.85,79.19,601.43Z" fill="#1e0a32" stroke="#1e0a32" stroke-miterlimit="10" stroke-width="2"/><path d="M150.24,471.4c-3.7-.16-9.69-.43-15,3.27-5.12,3.59-6.1,9.52-9.52,21.32-3.27,11.26-4,21.44-5.34,41.79-.59,9-.92,17.24-5.33,27.47a60.85,60.85,0,0,1-4.78,9,12.69,12.69,0,0,1-4.19,1.68c-4.46.93-7-1-13.77-2.83-5.87-1.57-9.19-2.39-12.89-1.14A15.77,15.77,0,0,0,72.71,577c-4.73,5.5-5.28,12-5.6,15.45a36,36,0,0,0,1.14,12.35,109,109,0,0,0,28.07,7.29,111.83,111.83,0,0,0,30-.54c5.93-.76,8.33-1.53,10.12-2.23,9.47-3.7,14.86-10.67,17.14-13.77,5.22-7,7-13.49,10.12-26.11,2.56-10.23,4.19-20.46,5.6-29.43,1-6.15,1.69-11.27,4-18.34,2.18-6.58,3.48-7.23,4.84-12.13,1.2-4.24,3.76-13.27.17-21.71C173.36,476.14,159.32,471.78,150.24,471.4Z" fill="#fff"/><path d="M132.67,478.42c.43-1-1-1.79-1.47-.87-8.16,17.25-9.63,36.34-11.27,55.06-.76,9-1.36,18.22-3.64,27-2.12,8-5.93,15.83-13.55,19.81-.92.48-.11,1.9.82,1.41,14.85-7.73,16.1-27.8,17.52-42.44,2-20.23,2.66-41.23,11.59-59.95Z" fill="#1e0a32"/><path d="M176.9,515.69c.43-.93-1-1.74-1.31-.87-5.39,12.13-7.13,25.24-9.08,38.24-2.94,19.21-7.78,42.22-26,52.94-10.39,6.09-23.77,6.69-35.53,5.93a118.1,118.1,0,0,1-35.9-8.38c-1-.38-1.42,1.2-.44,1.58A118.61,118.61,0,0,0,110,613.78c11.26.16,23.72-1.14,33.29-7.62,7.89-5.38,13.44-13.54,17.14-22.25,9.31-21.76,6.91-46.52,16.49-68.22Z" fill="#1e0a32"/><path d="M111.34,574.5a.79.79,0,1,0-.82-1.36c-6.31,3.7-14.74-1-21.16-2.29-4.79-.92-10.07-.87-14,2.29-4.29,3.37-6.47,9.19-7.72,14.31a41,41,0,0,0-.27,17.08c.21,1,1.79.6,1.57-.44a37.33,37.33,0,0,1,.77-18c1.57-5.44,4.4-11.65,10.17-13.55,10.39-3.37,21.65,7.73,31.5,2Z" fill="#1e0a32"/><path d="M135.28,475.32c-6.53.92-9.25,17-11.37,29.92-2.89,17.52-1.36,20.89-3.81,36.83-3,19.43-4.57,29.87-11.7,33-9.47,4.13-19.53-8.49-30.3-2.78-3.54,1.85-7,5.61-6.53,8.92.82,5.06,10.83,7,15.5,8.27,2.94.82,29.76,8,41.62-4.46,8.27-8.7,2.13-19.47,2.4-45.42.32-33.19,18.77-52.94,9.63-61.92C140.28,477.22,137.89,474.88,135.28,475.32Z" fill="#464664" opacity="0.11" style="isolation:isolate"/><path d="M120.42,537.88c-.27,8.33.06,16.16-4.13,25.79A48.68,48.68,0,0,1,109.43,575c-2.61-.21-6.31-.6-10.66-1.36-10.5-1.79-14.47-3.81-19.64-1.74-.81.33-5.87,2.4-5.87,5.17,0,5.49,19.85,14.15,34.76,7.56,6.75-2.94,10.45-8.16,12.4-11,4.74-6.85,6.81-14.63,6.53-51.25-.11-12.89-.16-23.34-1-23.39C124.83,499,121,517.32,120.42,537.88Z" fill="#464664" opacity="0.17" style="isolation:isolate"/></g><g id="hand_reight" data-name="hand reight"><path d="M325.09,411.23c-3.1,1.69-4.89,1.25-8.27,2.61a18,18,0,0,0-4.29,2.4c.54-.06,4.13-.17,5.38,2,.44.71.44,1.58.49,3.32a13.44,13.44,0,0,1-.43,4.35,10.29,10.29,0,0,1-3.1,4.62,5.71,5.71,0,0,1-1,3.92,5.6,5.6,0,0,1-5.44,1.8c-1.36-.27-1.91-1.15-3.49-1.25a6.1,6.1,0,0,0-3.7,1.25c-2.39,1.36-4.62.87-9.9.27-3.1-.38-7.56-.76-13.38-1a61.87,61.87,0,0,1-22.85,12c-4.68,1.3-10.17,2.77-17.36,1.79a39.78,39.78,0,0,1-17.13-6.91c-7.84-5.11-12.24-11.15-15.4-15.61a68.14,68.14,0,0,1-10.93-23.5c-2.23-9.41-1.26-14.8-.49-17.63.7-2.56,2.34-8.59,6.2-9.47,3.15-.7,6.2,2.29,8.7,4.85,4.63,4.68,6.75,9.35,13.39,24.53,3.26,7.46,3.8,8.76,5.44,11A29.7,29.7,0,0,0,240,426.79c7.78,3.26,14.69,1.8,18.12,1,3.91-.81,11.69-2.5,16.86-8.92,2.23-2.77,2.78-4.95,6.69-9.19s6-5,7.46-5.39c1.09-.32,5.11-1.3,7.94,1.25a7.82,7.82,0,0,1,2.23,4.36c3.1-1.2,6.15-2.4,9.2-3.6,1.63-.65,7.78-1.85,14.9-.27,1.74.38,4.63,1,4.74,2.29C328.19,409.44,326.35,410.47,325.09,411.23Z" fill="#fff"/><path d="M199.53,375.49c-1,.38-.55,2,.49,1.58,4.08-1.53,6.85,2.06,8.92,4.95,1.74,2.39,3.32,5,4.84,7.5A138.61,138.61,0,0,1,221.67,406c3.86,9.41,8.11,19,16.59,25.19.87.6,1.69-.82.82-1.42-10.5-7.5-14-20.56-19.1-31.77a105.89,105.89,0,0,0-9.68-16.81c-2.5-3.54-6-7.51-10.77-5.71Z" fill="#1e0a32"/><path d="M294.68,410.9c-1-.32-1.41,1.26-.49,1.53,2.4.81,4.57-1.09,4.9-3.48.38-2.67-1.91-4.74-4.24-5.5-8.33-2.77-13.39,4.9-17.41,10.61-5.44,7.56-13.93,13-23.29,13.87a30.68,30.68,0,0,1-24.64-9.14c-.71-.76-1.91.38-1.15,1.15a32.42,32.42,0,0,0,36,7,35.88,35.88,0,0,0,15-12.73c2.18-3.16,4.19-6.69,7.73-8.43a10.1,10.1,0,0,1,7-.82,4.85,4.85,0,0,1,3.16,2.29c.71,1.57-.22,4.46-2.56,3.69Z" fill="#1e0a32"/><path d="M300.34,408.67c-.92.44-.11,1.85.76,1.42,7-3.48,15.89-6.09,23.45-3,1.2.43,2.77,1.25,1.52,2.55-.7.76-2.55,1.15-3.48,1.47-1.69.66-3.37,1.2-5.11,1.69a49.87,49.87,0,0,0-9.58,3.26c-.92.49-.11,1.91.82,1.42,4.95-2.56,10.72-3.21,15.83-5.33,2.23-.93,6.37-2.62,3.21-5.23-3.48-2.88-9.41-3-13.66-2.61a40,40,0,0,0-13.76,4.35Z" fill="#1e0a32"/><path d="M309.1,416.45c-.87.55-.06,2,.82,1.42a5.77,5.77,0,0,1,6-.11c.33.27.65.49,1,.76,1.2,1,1.25,2,.05,3-.92,1.58-1,1.53-2.44,1.85-3.76.87-7.68,1.53-11.21-.27-.93-.49-1.74.93-.82,1.42,3.16,1.57,6.42,1.57,9.85,1,2.23-.43,6-.7,7-3.26.87-2.23-.71-4.73-2.61-5.87a7.26,7.26,0,0,0-7.62.1Z" fill="#1e0a32"/><path d="M318.46,423.15c-.33-1-1.91-.55-1.58.43,1.25,3.43-1.63,6.09-4.9,6.37-2.5.21-5-.77-7.29-1.69-1-.38-1.41,1.2-.43,1.58,3.42,1.36,7.5,2.77,11.1.87a6.15,6.15,0,0,0,3.1-7.56Z" fill="#1e0a32"/><path d="M315.9,430c-.33-1-1.9-.54-1.58.44,1.09,3.31-3,4.84-5.55,4.62s-4.4-1.9-6.25-3.48c-.77-.71-2,.43-1.15,1.14,2.94,2.56,6.21,4.84,10.29,3.7,2.77-.82,5.22-3.37,4.24-6.42Z" fill="#1e0a32"/><path d="M306.43,419.34c1-.33.6-1.91-.38-1.58a6.3,6.3,0,0,0-3.75,2.45,3.62,3.62,0,0,0-.11,4c.54.87,2,.05,1.41-.82-1.3-2,1.2-3.48,2.83-4Z" fill="#1e0a32"/><path d="M304.09,424.89a.85.85,0,0,0-1.19-1.2,3.91,3.91,0,0,0,1.74,6.47.81.81,0,0,0,.43-1.57,2.24,2.24,0,0,1-1-3.7Z" fill="#1e0a32"/><path d="M303.33,428.91c.93-.49.06-1.9-.81-1.41a3.57,3.57,0,0,0-.71,5.6c.76.76,1.9-.43,1.14-1.14a2,2,0,0,1,.38-3Z" fill="#1e0a32"/><path d="M301.43,410c.92-.44.11-1.85-.82-1.41-1.19.54-2.39,1.14-3.59,1.68-1,.44-.11,1.85.82,1.42,1.19-.55,2.39-1.15,3.59-1.69Z" fill="#1e0a32"/><path d="M294,412.48c.82.71,2-.43,1.14-1.14a6.66,6.66,0,0,0-6-1.52c-1,.21-.6,1.79.43,1.57a5,5,0,0,1,4.41,1.09Z" fill="#1e0a32"/><path d="M293.1,414.44a.82.82,0,0,0-1.57.44A8.54,8.54,0,0,1,287.94,425a.81.81,0,0,0,.81,1.41,10.16,10.16,0,0,0,4.35-12Z" fill="#1e0a32"/><path d="M304.58,435.28c.87-.6.06-2-.81-1.42-4.35,3.1-8.33,2-13.17,1.2a47.62,47.62,0,0,0-12.73-.22c-1,.11-1,1.74,0,1.63a55,55,0,0,1,16.05.88,13,13,0,0,0,10.66-2.07Z" fill="#1e0a32"/><path d="M279.29,435.77c.92-.44.1-1.85-.77-1.47-9.3,4.41-17.84,10.88-28,13.16a36.45,36.45,0,0,1-28.89-5.6c-8.21-5.87-15.23-14.58-20.18-23.28-5.33-9.36-8.11-20.08-6.91-30.85.11-1-1.53-1-1.63,0a51.44,51.44,0,0,0,5.38,28.4,79.59,79.59,0,0,0,14.75,20.29c5.6,5.82,12,10.5,20,12.46a39.36,39.36,0,0,0,23.23-1.42c8.05-3,15.24-8,23-11.69Z" fill="#1e0a32"/><path d="M192.84,393.44c-.71,7.67,1.9,13.49,5.11,20.4,7.29,15.83,17.25,24.32,19.48,26.17,3.53,2.88,6.63,5.44,11.53,7.29a37,37,0,0,0,19.7,1.58,56.76,56.76,0,0,0,20.4-8.22c3-2.06,4.68-3.7,8.21-4.67,3.7-1,7.07-.71,12.19-.22,5,.49,7.18,1.25,11.1.43a21.81,21.81,0,0,0,4.68-1.58,9.37,9.37,0,0,0,5.11,1.09c.93-.11,3.54-.32,4.41-2,.49-.92-.06-1.41.43-2.88.6-1.74,1.63-2.13,1.58-2.67-.11-.87-2.94-2.5-14.42-1.79-13.92.87-24,4.18-29.7,5.76-18,5.06-29.33,8.22-40.53,4.41-15.83-5.39-26.61-23-30.36-36.34-2.56-9.25-2.29-18.28-4.41-18.39C195.56,381.69,193.44,387.84,192.84,393.44Z" fill="#464664" opacity="0.16" style="isolation:isolate"/><path d="M304.15,434.08c-.38,2.07-4.9,2.72-6,2.88-4.13.6-6.25-.54-11.31-1.3a50,50,0,0,0-8.87-.44,102.76,102.76,0,0,1-12.4,7.08,65,65,0,0,1-13.77,5.33c-3.15.7-14.2,3.26-24.81-1.8-11.69-5.55-16.59-17.41-16.16-17.73s6,11.86,18.18,15.72c8.54,2.72,17.19-.06,27.91-3.54,11.15-3.59,11.47-6,20-7.29,10.28-1.52,10.94.11,17.74-2.23,1.19-.43,4.24-1.52,6.85-.22C302.9,431.25,304.37,432.72,304.15,434.08Z" fill="#464664" opacity="0.17" style="isolation:isolate"/></g><g id="torso-2" data-name="torso"><path d="M151.82,377.17c-7,7-8.06,18.45-10.29,41.41-1.68,17.35-.16,23.61-3.32,37.75a111.89,111.89,0,0,1-9.52,26.39c5.77,3.92,23,14.58,46.52,13.16a73.09,73.09,0,0,0,31.88-9.52c1.9-13.38,2.83-24.7,3.32-33a376.09,376.09,0,0,0-.38-47.27c-1.42-23.78-3.32-26.77-4.79-28.57C194.41,364.23,165.15,363.79,151.82,377.17Z" fill="#fa1e46"/><path d="M159.6,371.9a32.6,32.6,0,0,0-10.45,8.48c-2.61,3.38-4.19,7.19-6.26,24.7-1.41,12-2.06,22.36-2.23,24.92-.65,11-.49,13.22-1.47,20a105.48,105.48,0,0,1-4,17.68,95,95,0,0,1-6.74,15.45,73.41,73.41,0,0,0,31.39,12.24,74.28,74.28,0,0,0,14.47.49A126,126,0,0,1,158.89,455a122.64,122.64,0,0,1,4-61.8,114,114,0,0,1,12.73-25.41A37.57,37.57,0,0,0,159.6,371.9Z" fill="#464664" opacity="0.22" style="isolation:isolate"/><path d="M141.75,418.19c-1.79,18.07-1.47,25.47-2.39,33.14s-3.43,18.28-10.67,31a58.29,58.29,0,0,0,15.24,8.81,58.94,58.94,0,0,0,13.6,3.48,569,569,0,0,1-11.48-58.75q-2-14-3.21-27.26C142.57,410.85,142.19,414.17,141.75,418.19Z" fill="#464664" opacity="0.22" style="isolation:isolate"/></g><g id="head-2" data-name="head"><path d="M186.36,300.41c-3.75,1.14-13.44,4-15.18,10.72-1.14,4.35,1.64,8.38-1.19,12.35-1.85,2.66-4,2-5.33,4.89-1.42,3.05-.28,6.48.76,9.52.7,2.07,1.3,3.76,3,4.63a5.91,5.91,0,0,0,4,.27c.54,1.58,1.14,3.26,1.95,5.06a42.73,42.73,0,0,0,5.34,8.92,12.86,12.86,0,0,1,.27,3,12.46,12.46,0,0,1-3.7,8.06,14.71,14.71,0,0,0,5.33,6.09,15.26,15.26,0,0,0,8.05,2.39,19.09,19.09,0,0,0,2.67-2.83,18.85,18.85,0,0,0,3.1-6.25,20.38,20.38,0,0,0,4.3.43c9.3,0,15.88-6.25,17.41-7.72,5.38-5.12,7.12-10.88,8.92-16.65A57.77,57.77,0,0,0,228.47,325c0-6.37.06-9.52-1-12.19C222.65,301,201.76,295.84,186.36,300.41Z" fill="#fff"/><path d="M231.74,311.4a23.19,23.19,0,0,0-4.57-13.33,21.72,21.72,0,0,0-8.71-7.45c-6.26-2.78-8.27.54-14.31-2.51a86.14,86.14,0,0,1-8.7-5,10.05,10.05,0,0,0-5.33-2.56c-1.53-.22-2,.16-3.1-.27-2.56-1-2.94-3.75-4-3.65-.65.06-.87,1.26-1.85,4.14-1.74,5.11-2,5.11-2.5,7.29a30,30,0,0,0-.6,5.82c-7-.92-10.72-3.37-12.89-5.6-1.26-1.25-2.24-2.72-3.32-2.51-.82.22-1.36,1.31-2.89,9.36-1.41,7.51-1.3,8.49-.81,9.52.92,2,2.55,3.1,2.28,5.17a6,6,0,0,1-1.25,2.5c-1.58,2.56-1.36,5.28-1,9.36a24,24,0,0,0,2.5,9.14c.22.49,2.12,4.08,3.1,3.76.82-.22-.11-2.89,1.25-6.21.44-1.19,1.47-3.81,3.92-4.57,3-1,6,1.64,6.2,1.85.33-2,.71-4,1-6,1.69-.05,3.32-.16,5-.21a19.23,19.23,0,0,1,5.6-6.21,18.74,18.74,0,0,1,9.42-3.21c5.33.55,10.66,1.15,16,1.69,6.53.6,10.17,2.83,12.35,4.95s3,4.25,4.35,4C230.76,320.38,231.84,315.26,231.74,311.4Z" fill="#5a14d2"/><path d="M228.8,322.82c-.11-1-1.74-1-1.63,0a50.27,50.27,0,0,1-3.92,25.41c-2.94,6.69-7.51,13.38-14.31,16.59-7.56,3.59-16.65,1.53-23.12-3.37-6.26-4.79-10.17-11.91-12.51-19.31-.33-1-1.91-.55-1.58.43,2.45,7.78,6.58,15.24,13.16,20.24s15.4,7,23.18,4.14c7.62-2.83,12.89-9.91,16.21-17a52.19,52.19,0,0,0,4.52-27.1Z" fill="#1e0a32"/><path d="M174,326.9c.22,1,1.79.55,1.58-.32a5.05,5.05,0,0,0-5.61-3.86c-3.42.43-5.44,3.75-6,6.85-1,5.33.77,16.38,8.71,13.82,1-.33.54-1.91-.44-1.58-5.6,1.8-7-5.44-6.91-9.36.06-2.34.44-4.89,2.13-6.63,2-2.13,5.82-2.23,6.58,1.08Z" fill="#1e0a32"/><path d="M208.61,323.48c-.43-.93-1.85-.11-1.41.81,1.36,2.83,2.77,5.61,4,8.44,1.52,3.59-.65,6.42-4.19,7.29a.82.82,0,0,0,.44,1.57c2.94-.7,5.76-2.83,6-6a9.14,9.14,0,0,0-1.15-4.29c-1.19-2.61-2.44-5.17-3.7-7.78Z" fill="#1e0a32"/><path d="M216.56,330.6c-.71.77.43,2,1,1.15a4.26,4.26,0,0,0,1.14-2.94c0-1-.38-2.29-1.3-2.67s-1.74.49-1.91,1.42a7.74,7.74,0,0,0,.49,4,.82.82,0,0,0,1.36.38,3.3,3.3,0,0,0,1.2-2.88c-.11-1-1.74-1-1.63,0a1.94,1.94,0,0,1-.71,1.74c.44.16.93.27,1.36.38a6.71,6.71,0,0,1-.49-2v-.81a1.38,1.38,0,0,1,.06-.49c-.11,0-.17-.06-.28-.06s.28.6.28.77a1.65,1.65,0,0,1,0,.7,2.66,2.66,0,0,1-.6,1.36Z" fill="#1e0a32"/><path d="M195.77,329.79c-.43,1,1.15,1.36,1.58.38a4.21,4.21,0,0,0,.06-3.16,1.41,1.41,0,0,0-1.91-1c-2,.93-.92,3.87.06,5.12a.85.85,0,0,0,1.3-.17,4,4,0,0,0-.11-4.57.86.86,0,0,0-1.3-.16,3,3,0,0,0,.81,4.52.85.85,0,0,0,1.2-.49,4.78,4.78,0,0,0-.05-3.87,1.55,1.55,0,0,0-2.72.22,4.6,4.6,0,0,0,0,3.81c.7,1.25,2,.49,2.61-.38s-.82-1.69-1.42-.82c-.21.22-.16.33.22.38,0-.1,0-.16,0-.27s-.11-.49-.11-.7a2.36,2.36,0,0,1,.22-1.26c.1-.16.05-.1-.11.11,0,.11,0,.17,0,.27,0,.28.06.55.06.82a5.59,5.59,0,0,1-.33,1.31c.38-.17.82-.33,1.2-.49a1.32,1.32,0,0,1-.49-2l-1.31-.16a2.36,2.36,0,0,1,.11,2.93l1.31-.16a3.49,3.49,0,0,1-.6-1.31,2.35,2.35,0,0,1-.06-.65,4.38,4.38,0,0,1,.11-.43c-.27-.17-.33-.17-.22,0s.06.16.06.21a3,3,0,0,1,.11.66,3.37,3.37,0,0,1-.28,1.25Z" fill="#1e0a32"/><path d="M213.18,320.65c-.87.54-.05,2,.82,1.36a4.37,4.37,0,0,1,6.09,1.25c.55.87,2,.05,1.42-.82a6,6,0,0,0-8.33-1.79Z" fill="#1e0a32"/><path d="M198.17,321.08c.76.66,1.9-.49,1.14-1.14a6.27,6.27,0,0,0-10.23,2.45c-.32,1,1.25,1.41,1.58.43a4.63,4.63,0,0,1,7.51-1.74Z" fill="#1e0a32"/><path d="M196.16,367.82a.82.82,0,0,0-1.58-.44,15.88,15.88,0,0,1-4.57,7.67c-.76.71.38,1.85,1.14,1.14a17.64,17.64,0,0,0,5-8.37Z" fill="#1e0a32"/><path d="M181.14,357.75c.11-1-1.52-1-1.63,0a20.33,20.33,0,0,1-3.65,9.2c-.6.87.82,1.68,1.42.81a22.37,22.37,0,0,0,3.86-10Z" fill="#1e0a32"/><path d="M191,376.47c1-.33.55-1.91-.43-1.58-4.9,1.69-10.94-2.39-12.79-7-.38-1-2-.55-1.58.43,2.18,5.39,8.93,10.12,14.8,8.11Z" fill="#1e0a32"/><path d="M195.18,368.69c1,.16,1.47-1.36.43-1.53a17.18,17.18,0,0,1-9.46-5c-.71-.76-1.85.38-1.15,1.15a18.48,18.48,0,0,0,10.18,5.33Z" fill="#1e0a32"/><path d="M194.25,369.77a.8.8,0,0,0,.49-1.52c-4.24-1.2-9-4.57-10.88-8.54-.44-1-1.85-.11-1.41.82,2.06,4.35,7.23,7.94,11.8,9.24Z" fill="#1e0a32"/><path d="M228.53,316.62c-.71.82.49,2,1.19,1.14,3.16-3.64,2.56-9.24,1.42-13.65a19,19,0,0,0-7.78-11.64c-5.17-3.32-11.54-2.72-17.25-4.41-5.93-1.69-10-8-16.54-7.56-1,.05-1,1.68,0,1.63,5.77-.38,9.41,5,14.42,7,4.52,1.74,9.47,1.58,14.09,2.89a15.88,15.88,0,0,1,10.77,10.33c1.53,4.14,2.78,10.67-.32,14.31Z" fill="#5a14d2"/><path d="M211.12,310.47c-.17,1,1.52,1,1.74,0,.92-8.05-3.59-14.69-10.67-18.11-4.29-2.07-8.48-3.76-11.69-7.51-2.45-2.77-3.54-6.58-6.69-8.71a.81.81,0,0,0-1.15.28c-2.93,6.91-8.54,15.23-3.26,22.52.6.87,2,.05,1.41-.82-4.89-6.74.55-14.52,3.27-20.89a9.47,9.47,0,0,0-1.14.28c2.88,2,4,5.87,6.31,8.48a24.27,24.27,0,0,0,8.59,6.2c3.92,1.85,7.89,3.49,10.5,7.13a15.94,15.94,0,0,1,2.78,11.15Z" fill="#5a14d2"/><path d="M195.72,309.71c.49.93,1.9.11,1.52-.81a31.44,31.44,0,0,0-13.87-13.39c-3.21-1.57-6.69-2.23-10-3.42a25.78,25.78,0,0,1-10.12-6.86.81.81,0,0,0-1.3.16c-2.24,4.79-4.47,10.29-4.57,15.67-.11,5.12,2.93,9.14,6,12.95.66.82,1.8-.33,1.15-1.14-3.1-3.76-5.93-7.67-5.55-12.79.38-4.73,2.28-9.57,4.3-13.87l-1.31.16a26.15,26.15,0,0,0,7.78,6c3.1,1.58,6.53,2.23,9.79,3.37a29.59,29.59,0,0,1,16.16,14Z" fill="#5a14d2"/><path d="M161.45,310c.49-.93-.93-1.74-1.42-.82a23.93,23.93,0,0,0,1.8,25.19c.59.87,2,.06,1.41-.81A22.47,22.47,0,0,1,161.45,310Z" fill="#5a14d2"/><path d="M175.92,319.94c-.27,2.23-.49,4.46-.76,6.69a5.51,5.51,0,0,0-2.07-2.23,6.2,6.2,0,0,0-6.31.76c-3.7,2.72-2.51,9-2.07,11.32s.92,4.68,3,5.77a5.77,5.77,0,0,0,4.63,0,97.76,97.76,0,0,0,4.84,10.61c1.09,2.12,2.17,4.08,3.32,5.93-1.42,2.82-2.83,5.71-4.25,8.54,1.64,2,3.21,4,4.85,5.93,1-4.08,2.12-8.16,3.15-12.24a29.2,29.2,0,0,0,8.54,4.46A30,30,0,0,0,203.94,367c-5.23-2.18-13.06-6.53-17.63-14.86-3.65-6.69-4.08-13.82-4.63-22.08a95,95,0,0,1,0-11.16C179.78,319.23,177.82,319.61,175.92,319.94Z" fill="#464664" opacity="0.14" style="isolation:isolate"/><path d="M188.38,306.45c-3.54-2.45-9.85-6.8-10.78-13.77a15.47,15.47,0,0,1,2.07-9.46,64.16,64.16,0,0,0,14.47,26.38A35.56,35.56,0,0,1,188.38,306.45Z" fill="#29163c" opacity="0.2" style="isolation:isolate"/><path d="M159.38,308.46a16.33,16.33,0,0,1-1.69-10.93,55.57,55.57,0,0,0,14.69,13.16,56.76,56.76,0,0,0,10.61,5C172.92,318.47,163.3,315.21,159.38,308.46Z" fill="#29163c" opacity="0.16" style="isolation:isolate"/><path d="M208.07,289c.92-.54,7,5.88,9.47,14.48a30,30,0,0,1,1.08,9.3C209.16,294.53,207.31,289.42,208.07,289Z" fill="#29163c" opacity="0.22" style="isolation:isolate"/><path d="M216,347.8c.76-.06.81-1.26-.06-1.2a46,46,0,0,1-22.63-4.68c-.71-.38-1.3.71-.6,1A47.3,47.3,0,0,0,216,347.8Z" fill="#1e0a32"/><path d="M215.14,348c.38-.65-.7-1.3-1.09-.65a22.53,22.53,0,0,0-2.39,6.58c-.11.76,1,1.09,1.2.33a21.41,21.41,0,0,1,2.28-6.26Z" fill="#1e0a32"/><path d="M212.75,354.32c.54-.54-.33-1.41-.87-.87-3.16,3.1-8.76.71-11.86-1.41a15.55,15.55,0,0,1-6.37-9.41c-.16-.76-1.36-.44-1.19.32a16.68,16.68,0,0,0,8.27,10.94c3.48,2,8.75,3.59,12,.43Z" fill="#1e0a32"/><path d="M213.51,350.24c.76-.16.44-1.36-.33-1.19-3.42.92-7.5-.22-10.82-1.2a17.88,17.88,0,0,1-8.44-5.11c-.54-.6-1.41.27-.87.87a19,19,0,0,0,9,5.44c3.54,1.08,7.78,2.17,11.48,1.19Z" fill="#1e0a32"/><path d="M213,350.84c.32-.71-.77-1.36-1-.49-.43,1-.87,2.07-1.3,3.1l1.14.49a18.61,18.61,0,0,0,.87-2.93.62.62,0,0,0-.76-.77,20.83,20.83,0,0,1-3.65.28c.06.38.11.81.17,1.19a4.65,4.65,0,0,1,2.83.22,6.49,6.49,0,0,1-.39-.92c-.32.49-.7,1-1,1.52a8.34,8.34,0,0,1,1,.6,6.09,6.09,0,0,0,.6-1.74.63.63,0,0,0-1.14-.49,4.09,4.09,0,0,0-.71,2.88.63.63,0,0,0,1.15.33c.49-.77,1.19-3.54-.77-2.89a1.71,1.71,0,0,0-.87,1.85c.11.76.77.87,1,1.36a9.43,9.43,0,0,1,.93-.7c-4.52-3.43-9.85-5.17-15.24-6.8a.62.62,0,0,0-.32,1.19c5.28,1.63,10.5,3.32,15,6.69.43.33,1.09-.21.92-.7s-.81-1.85-1.57-.6l1.14.32a2.54,2.54,0,0,1,.54-2.28l-1.14-.49c-.16.44-.33.92-.49,1.41a.6.6,0,1,0,1,.6l1-1.52a.63.63,0,0,0-.38-.93,6.88,6.88,0,0,0-3.48-.21c-.71.11-.49,1.19.16,1.19a23.72,23.72,0,0,0,4-.32l-.76-.76a18.61,18.61,0,0,1-.87,2.93c-.22.66.87,1.15,1.14.49.44-1,.87-2.06,1.31-3.1Z" fill="#1e0a32"/><path d="M209.48,352.8c.66.44,1.31-.65.66-1.09a38.48,38.48,0,0,0-6.26-2.88c-.65-.22-1.14.87-.49,1.14,1.85.82,3.76,1.69,5.66,2.56l.49-1.14a79.22,79.22,0,0,1-14.53-7,.65.65,0,0,0-.92.71c.92,2.5,3.21,2.56,5.49,3.26,1.69.55,3.27,1.36,4.9,1.91s3.86.49,5.06,1.85c.54.6,1.41-.27.87-.87-1.47-1.63-3.7-1.53-5.6-2.18-1.36-.49-2.67-1.14-4-1.63-1.63-.6-4.79-.82-5.49-2.72a11.49,11.49,0,0,1-.93.71,78.74,78.74,0,0,0,14.8,7.12c.65.22,1.09-.87.49-1.14-1.85-.82-3.76-1.69-5.66-2.56L203.5,350a33.19,33.19,0,0,1,6,2.77Z" fill="#1e0a32"/><path d="M194.8,346.82c-.17.27.1.65.38.76a.59.59,0,0,0,.76-.44c.22-.49.11-1.3-.6-1.3a.82.82,0,0,0-.65.38.94.94,0,0,0-.11.43v.11c0,.11,0,.11,0-.05l.22-.22a0,0,0,0,1,0,.05.59.59,0,0,0-.22.82.55.55,0,0,0,.81.22.8.8,0,0,0,.38-.49.45.45,0,0,0,.06-.27c-.06-.33-.06.16-.33.21s-.32,0-.49,0h.06l-.22-.22v-.11c0,.06,0,.11,0,.17Z" fill="#1e0a32"/><path d="M194.69,341.87c.76-.28.43-1.47-.33-1.15a6.18,6.18,0,0,0-3.21,2.67c-.43.65.65,1.25,1,.6a5.24,5.24,0,0,1,2.51-2.12Z" fill="#1e0a32"/><path d="M209.54,355.19c.65.49,1.25-.59.65-1.08a39.28,39.28,0,0,0-14.47-6.42c-.76-.17-1.09,1-.33,1.19a39.23,39.23,0,0,1,14.15,6.31Z" fill="#1e0a32"/><path d="M210.63,354.22c.81,0,.81-1.15,0-1.2a26.81,26.81,0,0,1-14.09-4.73c-.66-.49-1.25.59-.6,1a28.44,28.44,0,0,0,14.69,4.9Z" fill="#1e0a32"/><path d="M205.68,352.86c.76.16,1.08-1,.27-1.15a25.25,25.25,0,0,1-8-3.32c-.66-.43-1.25.6-.6,1a26.34,26.34,0,0,0,8.38,3.43Z" fill="#1e0a32"/><path d="M209.43,355c.76,0,.76-1.2,0-1.2a20.78,20.78,0,0,1-11.37-3.65c-.65-.48-1.25.6-.6,1a21.84,21.84,0,0,0,12,3.81Z" fill="#1e0a32"/><path d="M209.43,354.87c-.05-.76-1.31-.76-1.2-.06,0-.49-1.9-.59-2.28-.65-.87-.16-1.69-.33-2.5-.54a.62.62,0,0,0-.33,1.19,44.65,44.65,0,0,0,4.79,1c.7.11,1.57,0,1.52-.92Z" fill="#1e0a32"/></g><g id="hand_left" data-name="hand left"><path d="M198,363.41c-2.56,2.83-6.64,2.88-7.78,2.83-.43,1.41-2.61,7-8.21,9.36a13.17,13.17,0,0,1-4.14.92,133.81,133.81,0,0,1-5.22,33.41c-1.2,4.29-5.06,16.64-13.44,23.44a13.4,13.4,0,0,1-7.45,3.32c-4.52.38-8-2-9.85-3.32a21.33,21.33,0,0,1-7.13-8.7c-2.23-4.79-2.12-8.92-2.06-13.33a49.46,49.46,0,0,1,3.48-17.08c1.58-4,3.91-9.74,9.36-14.91,2.77-2.67,6.52-6.15,11.86-6.2a12.32,12.32,0,0,1,5.38,1.09,48.38,48.38,0,0,0,1.74-11.7c.06-3.05-.22-3-.32-10.28-.11-7.13.16-6.8-.17-8.71-.6-3.32-1.58-5.28-.49-6.64a3.2,3.2,0,0,1,3.32-.92c1.09.44,1.58,1.74,2.4,4.3,1.25,3.81,1.9,5.76,2.23,6.8,1.08-.33,2.23-.71,3.31-1.09a15.71,15.71,0,0,1,5.72,2.07c1.52.92,2.72,2.17,5.06,4.73,2.17,2.39,2.77,3.43,3.15,4.46a9.78,9.78,0,0,1,.65,3.32c4.25-.54,9.14-.87,9.69.65C199.26,361.94,198.49,362.76,198,363.41Z" fill="#fff"/><path d="M191.48,365c-1.09.06-1.09,1.69-.06,1.58,3.65-.27,7.62-1.74,8.54-5.66a.8.8,0,0,0-.54-1c-4.19-.87-8.38.38-12.57-.22-1-.16-1.47,1.42-.43,1.58,4.19.6,8.38-.65,12.56.22-.16-.33-.38-.65-.54-1-.76,3.16-4.08,4.24-7,4.46Z" fill="#1e0a32"/><path d="M188.38,359.22c-.17,1,1.41,1.47,1.57.38.87-5.28-5.87-6-9.52-5a.82.82,0,0,0,.44,1.57c2.23-.59,8.16-.81,7.51,3.05Z" fill="#1e0a32"/><path d="M186,355.47c.21,1,1.79.59,1.57-.44a8.06,8.06,0,0,0-4.29-5.6c-2.67-1.25-5.34-.17-7.84,1-1,.43-.11,1.85.82,1.41,2-.87,4.19-1.85,6.36-.87a6.52,6.52,0,0,1,3.38,4.52Z" fill="#1e0a32"/><path d="M180.32,348.94a.85.85,0,0,0,1.2,1.19c1.63-1.68-1.63-4.13-3-4.67-3.21-1.31-6.53.05-9.25,1.79-.87.6-.05,2,.82,1.42a10.76,10.76,0,0,1,5.71-2.13,5.65,5.65,0,0,1,2.5.6,11.57,11.57,0,0,1,2,1.8Z" fill="#1e0a32"/><path d="M164.17,362.7c.1,1,1.68.6,1.57-.38a65.5,65.5,0,0,1-.65-9.19c0-2.67.49-5.39.27-8a21,21,0,0,0-.65-3.05c-.22-.65-.38-1.25-.54-1.9-.66-2,.43-2.72,3.15-2.39.65.48,1.09,3.2,1.36,4,.49,1.31.93,2.67,1.36,4,.33,1,1.91.54,1.58-.44-.76-2.34-1.52-4.73-2.34-7.07-.44-1.25-.76-2.72-2-3.37-2-1-4,.54-4.63,2.39a8.17,8.17,0,0,0,.22,4.13,22.6,22.6,0,0,1,.76,7.35,65.61,65.61,0,0,0,.55,13.87Z" fill="#1e0a32"/><path d="M192.35,366.78c1,0,1.09-1.68,0-1.58-2.61.17-4,1.91-5.23,4.09-1.9,3.48-4.51,5.87-8.65,6.25-1,.11-1,1.74,0,1.63a12,12,0,0,0,6.59-2.55,10.75,10.75,0,0,0,2.45-2.72c1.3-2,2-4.9,4.84-5.12Z" fill="#1e0a32"/><path d="M178.75,376.47c.32-1-1.26-1.42-1.58-.44-2.94,10.12-1.8,20.84-4.52,31.07a57.3,57.3,0,0,1-14.52,25.95c-.76.7.38,1.9,1.14,1.14a58.91,58.91,0,0,0,14.47-25,76.9,76.9,0,0,0,2.67-15c.49-6,.65-12,2.34-17.79Z" fill="#1e0a32"/><path d="M165.74,362.05c.11-1-1.52-1-1.63.05a63.5,63.5,0,0,1-9.19,27.53c-4.3,6.86-9.9,13.11-11.26,21.33-.17,1,1.41,1.47,1.57.43,1.53-9,8.22-15.72,12.57-23.44a64.69,64.69,0,0,0,7.94-25.9Z" fill="#1e0a32"/><path d="M162,374.67c1,.33,1.41-1.25.38-1.63-8.21-2.61-16.48,3.32-21.22,9.63-5.66,7.62-8,17.57-8.76,26.87-.7,8.55,1,18,7.84,23.83,5.6,4.79,14,5.5,19.75.55.81-.66-.33-1.85-1.15-1.14-6,5.22-14.9,2.93-19.69-2.83-5.17-6.21-5.77-14.64-4.9-22.36.93-7.89,2.94-16,7.4-22.69,4.25-6.31,12.24-12.84,20.35-10.23Z" fill="#1e0a32"/><path d="M163.62,338.17c-1.14,1,.44,3.42,1,7.5s-.55,4.57-.22,11c.16,3.54.54,3.54.6,5.88a26.15,26.15,0,0,1-2.67,11.8,11.18,11.18,0,0,0-6.53,0c-4.08,1.42-5.28,6-10.77,19.7-1.63,4-8.22,20.56-4.08,23.34,2.61,1.74,8.76-2.67,12-5.71,2.23-2.13,6.31-6.64,10.77-24,3.1-12.18,3.48-20.13,4.24-36,.22-5.33.44-12.73-2.44-13.82C164.93,337.68,164,337.62,163.62,338.17Z" fill="#464664" opacity="0.15" style="isolation:isolate"/><path d="M155.79,390.5c-2.07,3.43-3.65,4.74-6.1,8.54A52.68,52.68,0,0,0,144,410.85a58.14,58.14,0,0,1,1.63-8.32,57.5,57.5,0,0,1,15.24-25.41A42,42,0,0,1,155.79,390.5Z" fill="#464664" opacity="0.15" style="isolation:isolate"/></g></g></g></g></svg>