<svg xmlns="http://www.w3.org/2000/svg" viewBox="0 0 826.52 678.14"><g id="Camada_2" data-name="Camada 2"><g id="Camada_1-2" data-name="Camada 1"><g id="background"><g id="details"><circle cx="254.51" cy="143.01" r="10.51" transform="translate(-19.62 42.62) rotate(-9.22)" fill="#fa1e46"/><circle cx="243.38" cy="119.49" r="4.9" fill="#fa1e46"/><circle cx="564.53" cy="55.62" r="5.03" fill="#fa1e46"/><circle cx="235.58" cy="640.5" r="8.51" fill="#fa1e46"/><circle cx="622.73" cy="674.21" r="3.93" fill="#fa1e46"/><circle cx="573.62" cy="383.67" r="4.06" fill="#fa1e46"/><circle cx="565.63" cy="404.49" r="3.93" fill="#5a14d2"/><circle cx="570.33" cy="510.64" r="7.35" fill="#5a14d2"/><circle cx="260.37" cy="95.81" r="4.64" transform="translate(-15.05 62.4) rotate(-13.29)" fill="#5a14d2"/><circle cx="436.92" cy="104.47" r="4.06" fill="#5a14d2"/><circle cx="798.94" cy="423.05" r="3.09" fill="#5a14d2"/><circle cx="246.34" cy="662.54" r="7.73" fill="#5a14d2"/><circle cx="163.53" cy="4.06" r="4.06" transform="matrix(1, -0.01, 0.01, 1, -0.03, 1.67)" fill="#5a14d2"/><path d="M558,186.58c-.19,1.23,1.68,1.74,1.94.52.83-4.9,1.16-13-5.48-13.86a7,7,0,0,0-3.93.9c-3.16,1.42-5-.25-6-3.15-.9-2.71-.84-5.87-2.77-8.19a5.51,5.51,0,0,0-6-1.61c-1.74.45-3.23,1.61-4.9,2.13a5,5,0,0,1-2.77.25c-2.45-1-1.55-2.7-1.61-4.38-.2-6.9-8.12-6.44-12.89-5.15a1,1,0,0,0,.51,1.86c4.71-1.28,10.44-1.74,10.31,4.77-.06,1.74.33,3.42,1.94,4.32,4.9,2.77,11.28-5.67,14.56.13,2,3.61.91,9.86,5.74,11.54,2.58.9,3.87-1.16,6.19-1.42,6.38-.65,5.8,7.35,5.15,11.34Z" fill="#5a14d2"/><path d="M550.42,190.32c.19,1.22,2.12,1.22,1.93-.13a8.43,8.43,0,0,0-6.38-7.47c-2.26-.52-4.51.12-6.77-.13-4.19-.52-4.12-4.06-4.57-7.29-.52-3.48-1.94-6.18-5.61-7.15-2.32-.58-4.58-.19-6.9.06-3.15.39-10.63.07-8.44-5.28.45-1.16-1.42-1.68-1.87-.52-1.42,3.55,1.42,6.9,4.77,7.74,5,1.16,13.92-3.22,15.86,3.86,1,3.74.19,8.51,4.57,10.19,1.94.71,3.93.38,5.93.38,3.74,0,7,1.74,7.48,5.74Z" fill="#5a14d2"/><path d="M417.26,32c-.77-1-2.19.45-1.28,1.29,1.54,1.93,3.35,4.25,3.28,6.83-.13,3.42-2.77,4.32-5.6,4-1.81-.2-3.55-.32-5,1a6.26,6.26,0,0,0-1.54,5.28c.25,2.26,4.12,11.61-1.49,10.32-1.22-.26-1.74,1.61-.51,1.87,3,.64,5.28-1.62,5.6-4.52.2-2.12-.77-4.06-1.28-6.05-.33-1.29-1-3.74.06-4.9,1.42-1.55,3.22-1.1,5-1,3,.19,5.42-1,6.32-4.06,1.09-3.8-1.29-7.28-3.55-10.12Z" fill="#5a14d2"/><path d="M402.05,31.06c-1.09-.45-2.12,1.16-1,1.62,3.48,1.48,4.7,6,1.29,8.37-1.68,1.16-4.06.58-5.61,2a5.07,5.07,0,0,0-1.42,3.74,10.43,10.43,0,0,0,.19,1.93l.39,1.94c.71,1.87-.13,3-2.58,3.28-.38-1.16-2.25-.64-1.87.52a3.13,3.13,0,0,0,5,1.29,4.12,4.12,0,0,0,1.55-3.42c.13-2.7-2.19-6.12.71-7.86,1.54-1,3.35-.71,4.9-1.87a6.57,6.57,0,0,0-1.62-11.54Z" fill="#5a14d2"/><path d="M823.49,412c-.64,1,1,2,1.68.9A9,9,0,0,0,822.91,401a9.71,9.71,0,0,0-3.16-1.36c-2.9-1-3.54-2.12-3.48-5.09,0-2.45.39-5-1.09-7.09-1.29-1.87-2.84-1.67-4.84-1.48-1.67.19-3.48.52-4.44-1.22a9.09,9.09,0,0,1-.78-2.52,23.57,23.57,0,0,0-1-4.25c-1.29-3-6.45-4.84-7.61-.65a1,1,0,0,0,1.87.52c1.48-1.42,2.71-1.29,3.74.32a7,7,0,0,1,.77,2.32c.26,1.16.32,2.39.65,3.55a6.59,6.59,0,0,0,2.38,3.73,4.34,4.34,0,0,0,3.22.65c2-.32,4.19-1,5,1.55a9.7,9.7,0,0,1,.19,3.35c-.19,3.09-.12,6.51,3.16,7.86,2.39.9,4.45,1,5.93,3.29a7,7,0,0,1,0,7.54Z" fill="#fa1e46"/><path d="M815.44,416.47c-1.23.2-.71,2.07.45,1.94,2.45-.39,3.67-3.1,3-5.35-1.16-4-6.12-4-8.44-6.83-2-2.58.26-5.35-.52-8.06a6.47,6.47,0,0,0-2.19-3c-2.71-2.19-13.34-3.74-11.15-9,.45-1.09-1.22-2.12-1.67-1-3,7.21,7.34,8.44,11.21,11.15s-.13,7.41,2.64,10.89A11.89,11.89,0,0,0,812.6,410a14.23,14.23,0,0,1,3.29,1.93c1.22,1.16,2.25,4.13-.45,4.51Z" fill="#fa1e46"/><path d="M108.94,266.69a1,1,0,0,0,1.74.91c1.93-3.42.06-8.32-4-9-3-.51-6.77,1.94-7.73-2.45-.45-1.93-.07-4.19-1.16-6a4.15,4.15,0,0,0-4.26-1.87c-1.09.13-2.19.71-3.28.84-3.1.32-2.84-1.93-3.1-4.26-.38-4.06-3.86-8.44-8.18-5.8-1.1.65-.07,2.32,1,1.68,4.84-3,5,4.45,5.42,7a4.18,4.18,0,0,0,1.93,3.16c3.35,1.8,8.32-3.42,9.35,2.32.45,2.45.06,5.67,2.57,7.22,1.42.84,2.78.51,4.26.38,2.19-.19,3.87-.64,5.28,1.42a4.23,4.23,0,0,1,.2,4.51Z" fill="#fa1e46"/><path d="M99.33,270.75c-.45,1.23,1.42,1.68,1.81.58,1.67-4.7-3.8-9.15-8.12-6.89a6.65,6.65,0,0,1,1.16.13c-2.52-2.71-1.55-6.9-4.84-9.22-2.7-1.87-11.86-2.26-10-7.35.45-1.16-1.41-1.67-1.87-.51-1.35,3.86,2.32,6.57,5.61,7.6s6.12,1.55,7.28,5.29c.65,2.06,1,3.93,2.52,5.54a1,1,0,0,0,1.16.13c3-1.55,6.38,1.74,5.28,4.7Z" fill="#fa1e46"/><path d="M359.65,287.64c1.22.19,1.74-1.68.45-1.93a2,2,0,0,0-2.32,1c-.39.58-.39,1.68-.84,2.13-1.1.32-2.26.64-3.35,1a9.82,9.82,0,0,1-1.42-.91c-2.58-1.67-5.8-3.54-7.86-.12-.45.64-.52,1.54-.91,2.19-.9,1.61-1.74,1-3.15.19-1.16-.64-1.81-1.48-3.29-1.29-3.16.45-3.48,4.83-6.12,6-1.16.52-.13,2.2,1,1.68a6.35,6.35,0,0,0,2.65-2.38,13.24,13.24,0,0,1,1.41-2.26c1.1-1.1,2.26-.58,3.48.19,1.87,1.16,3.61,2.32,5.22-.06,1.42-2,1.42-5.54,5-3.48,1.68.9,2.9,2.32,4.84,2.64a3.76,3.76,0,0,0,3.09-.58c.58-.45,2-3.93,2.13-3.93Z" fill="#fa1e46"/><path d="M344.5,281.45c.71,1.1,2.38.13,1.61-.9-1-1.74-2.83-2.06-4.7-1.42-3.16,1-4.39,5.29-8.19,4.51-2.38-.51-3.87-1.8-6.25-.25-1.29.83-6.25,8.44-8.06,4.57-.51-1.16-2.19-.13-1.67,1a3.39,3.39,0,0,0,4.12,1.8c3-.64,3.55-3,5.61-4.7a4.18,4.18,0,0,1,4.64-1,9.57,9.57,0,0,0,1.42.58,4.83,4.83,0,0,0,3.29-.13c1.8-.77,6.25-7.09,8.18-4.06Z" fill="#fa1e46"/></g><g id="background_grey" data-name="background grey"><path d="M103.65,394.11a1,1,0,0,0,0-1.93H.92a1,1,0,0,0,0,1.93Z" fill="#e6e7e8"/><path d="M75.62,393.66a1,1,0,0,0-1.94,0v29.9a1,1,0,0,0,1.94,0v-29.9Z" fill="#e6e7e8"/><path d="M27.79,392.69a1,1,0,0,0,1.94,0V350.93a1,1,0,0,0-1.94,0v41.76Z" fill="#e6e7e8"/><path d="M50.54,351.7a1,1,0,0,0,0-1.93H11.68a1,1,0,0,0,0,1.93Z" fill="#e6e7e8"/><path d="M76,119.62a1,1,0,0,0-1.93,0v36.09a1,1,0,0,0,1.93,0V119.62Z" fill="#e6e7e8"/><path d="M106.1,158.48a1,1,0,1,0,0-1.93H36.37a1,1,0,0,0,0,1.93Z" fill="#e6e7e8"/><path d="M37,158.22a1,1,0,0,0-1.93,0v24a1,1,0,0,0,1.93,0v-24Z" fill="#e6e7e8"/><path d="M684.28,82a1,1,0,0,0,0-1.93H616A1,1,0,0,0,616,82Z" fill="#e6e7e8"/><path d="M618.8,81.85a1,1,0,1,0-1.93,0v18.56a1,1,0,0,0,1.93,0V81.85Z" fill="#e6e7e8"/><path d="M639.49,80.3a1,1,0,1,0,1.93,0V50.59a1,1,0,0,0-1.93,0V80.3Z" fill="#e6e7e8"/><path d="M819.43,280.68a1,1,0,0,0,0-1.93H772.25a1,1,0,0,0,0,1.93Z" fill="#e6e7e8"/><path d="M790.62,261.28a1,1,0,0,0-1.93,0v17.4a1,1,0,0,0,1.93,0v-17.4Z" fill="#e6e7e8"/><path d="M802,262.25a1,1,0,0,0,0-1.94H776.83a1,1,0,0,0,0,1.94Z" fill="#e6e7e8"/><path d="M518.13,668.6a1,1,0,1,0,0-1.93h-63a1,1,0,0,0,0,1.93Z" fill="#e6e7e8"/><path d="M479.33,666.67a1,1,0,1,0,1.93,0v-13.6a1,1,0,0,0-1.93,0v13.6Z" fill="#e6e7e8"/><path d="M485.19,653.13a1,1,0,0,0,0-1.93H459a1,1,0,0,0,0,1.93Z" fill="#e6e7e8"/><path d="M818,634.7a1,1,0,0,0,0-1.93h-63a1,1,0,0,0,0,1.93Z" fill="#e6e7e8"/><path d="M788.82,609.44a1,1,0,0,0-1.94,0v22.3a1,1,0,0,0,1.94,0v-22.3Z" fill="#e6e7e8"/><path d="M788.82,606.54a1,1,0,0,0,0,1.93H814a1,1,0,0,0,0-1.93Z" fill="#e6e7e8"/><path d="M117.31,578c-.9.9.46,2.25,1.29,1.35,2.26-2.26,2.84-5.8.58-8.31a5.86,5.86,0,0,0-4.12-2,5.63,5.63,0,0,0-2.13.26c-2,.45-2.12,1.28-3.54-.58-1.29-1.68-.71-1.55-.65-3.29a5.65,5.65,0,0,0-.51-2.71,6.68,6.68,0,0,0-2.71-3.09c-3.16-2-7-1.1-9.92.71.45.38,1,.71,1.41,1.09a10.44,10.44,0,0,0-17.08-10.18c-1,.77.39,2.13,1.36,1.35a8.48,8.48,0,0,1,13.85,8.25,1,1,0,0,0,1.42,1.1c3.48-2.06,10.44-2.45,10.31,3.41-.06,1.87-1.09,3.81.2,5.48a3.39,3.39,0,0,0,3.48,1.1c1.67-.2,3.35-1.29,5.09-.9,3.29.7,3.8,4.83,1.67,7Z" fill="#e6e7e8"/><path d="M104.75,579.92c-.2,1.22,1.74,1.22,1.87,0,.32-3-1.62-5.16-4.06-6.57-1.55-.91-3.23-1.36-4.84-2.13-2.7-1.35-3.09-2.77-4.25-5.35-3.29-7.22-11.28-5.35-17.21-2.9-1.16.45-.64,2.32.52,1.87,3.22-1.36,6.89-3,10.44-2.06a6.37,6.37,0,0,1,4.51,3.86,16.11,16.11,0,0,0,1.42,3.29c2.7,4.06,12.31,4.12,11.6,10Z" fill="#e6e7e8"/><path d="M382,392.5c.45-1.16-1.42-1.61-1.81-.52-1.29,3.23-2.58,6.51-3.87,9.74a1,1,0,0,0,.46,1.09c2.25,1.48,5.28,3.87,7,.32a3.46,3.46,0,0,0-2.26-5c-2.83-.84-5.34,1.1-6.44,3.61-1.61,3.8-.77,8.51.52,12.25l1.16-1.16a6.18,6.18,0,0,0-7,4.25c-1.41,4,1,8,3,11.21.65,1,2.32.07,1.68-1a22.62,22.62,0,0,1-2.9-5.87c-.77-2.9.77-7.54,4.64-6.77a.94.94,0,0,0,1.16-1.16,18.32,18.32,0,0,1-1.1-9.28c.26-1.35.84-3,2.07-3.8,2.06-1.16,2.51-.51,1.41,2.06-.7-.51-1.41-1-2.12-1.41.13.38.32.7.45,1.09,1.29-3.22,2.58-6.51,3.87-9.73Z" fill="#e6e7e8"/><path d="M763.1,87.59c-.45,1.16,1.42,1.67,1.81.38,1-2.38-.58-4.7-2.9-5.54-2.84-1.09-5.48.71-7.29,2.84-1.93,2.38-4.44,5.86-4.25,9.08.13,2.32,1.87,4.84,4.45,4.64,2.19-.12,3.48-2.25,3.48-4.31A4.84,4.84,0,0,0,754,89.84c-7.22-1-11.73,7.35-11.15,13.47a1,1,0,0,0,1.8.52c2.32-3.22-.51-7.35-4.06-8.12-4.83-1.1-8.5,3.67-10.95,7.09-.71,1,1,2,1.67,1,1.49-2.06,3.1-4.31,5.42-5.54a4.79,4.79,0,0,1,4.57-.19c1.74,1,3,3,1.68,4.83.58.2,1.22.32,1.8.52a11.15,11.15,0,0,1,2.84-9,7.85,7.85,0,0,1,5.22-2.64c1.93-.07,4.19,1.35,3.61,3.48-.07,1.48-1.23,1.74-3.48.71a3.81,3.81,0,0,1-.19-3.55,15.84,15.84,0,0,1,2.19-4,10.74,10.74,0,0,1,3.35-3.68c1.93-1.09,6.06-.26,4.83,2.84Z" fill="#e6e7e8"/><path d="M423.58,182.14c-1,.64-.06,2.25.9,1.67a4.82,4.82,0,0,0,1.74-6.38,4.1,4.1,0,0,0-6.12-1.16,3.8,3.8,0,0,0-.58,6,4.24,4.24,0,0,0,6-.19c.78-1-.58-2.32-1.35-1.35-1.87,2.25-5.74-1-2.84-3s5,2.77,2.26,4.39Z" fill="#e6e7e8"/><path d="M218.24,41.18c-.71,1,1,2,1.68,1,2.25-3.16-1.68-8.83-5.48-7-1.74.9-1.35,3.87-.64,5.28a5.07,5.07,0,0,0,4.77,3,.9.9,0,0,0,.9-.71c.38-1.1.84-2.26,1.22-3.35s-1.42-1.68-1.87-.52-.83,2.26-1.22,3.35c.26-.25.58-.45.9-.7a3.37,3.37,0,0,1-3-4.9c-.2.13-.39.32-.58.45,2.25-.9,4.7,2.13,3.28,4.12Z" fill="#e6e7e8"/><path d="M165.78,137a1,1,0,0,0,1.93.52,5,5,0,0,0-3.28-5.74,4.52,4.52,0,0,0-5.42,2.77c-2.06,4.77,4.39,8.44,7.74,4.71.84-.91-.52-2.26-1.36-1.36-1.8,2-5.6.65-4.76-2.25a2.68,2.68,0,0,1,2.9-2.07,3,3,0,0,1,2.25,3.42Z" fill="#e6e7e8"/><path d="M375,670.47c-1.1.52-.13,2.19,1,1.61a5.08,5.08,0,0,0,2.06-7.15c-1.74-3-5.8-3.29-8.64-2.06-1.48.64-3.41,2.57-4.83.45-.52-.84-.13-2.84-.19-3.74a6.12,6.12,0,0,0-1.23-3.74c-3-3.74-8.31-2.32-12.12-.84-1.16.45-.64,2.32.52,1.87,4.32-1.61,10.63-2.9,10.89,3.61.07,1.68-.19,3.68,1.16,5,1.48,1.49,3.42.78,5.09,0,2-.9,4.06-2,6.26-.77a3.27,3.27,0,0,1,0,5.8Z" fill="#e6e7e8"/></g><g id="flower"><path d="M343.79,518.56c-.13-1.22-2.06-1.22-1.93,0a282.07,282.07,0,0,1-3,70.25c-.19,1.23,1.67,1.74,1.87.52a283.38,283.38,0,0,0,3.09-70.77Z" fill="#e6e7e8"/><path d="M342.5,520.05c1.16-.46.71-2.32-.51-1.87a137.44,137.44,0,0,1-30.49,6.89c-9.79,1-21.07,2.13-30.35-1.54-1.16-.46-1.68,1.41-.52,1.86,9.54,3.74,20.95,2.65,30.87,1.62a142,142,0,0,0,31-7Z" fill="#e6e7e8"/><path d="M327.16,522.69c-.71,1,1,2,1.74.84A75.15,75.15,0,0,0,339,499.94c.51-2.19,4.25-16.76-2.19-13.67.45.39,1,.71,1.41,1.1a81.91,81.91,0,0,0,5.74-28.55,1,1,0,0,0-1-1,2.85,2.85,0,0,0-2.83,1.16c.51.32,1.09.65,1.61,1a56,56,0,0,0,2.58-18.69c-.07-1.81.38-9.86-3.35-8.83l1.16,1.16a109.24,109.24,0,0,0,1.41-25.07,104.69,104.69,0,0,0-1.48-12c-.51-2.77-1.16-5.41-3.35-7.41a1,1,0,0,0-1.55.19c-5.35,10-8.38,20.82-11.15,31.71q-4.25,17-7.41,34.22a530.54,530.54,0,0,0-8,69.8c-.07,1.23,1.86,1.23,1.93,0a531.48,531.48,0,0,1,8-69.28q3.09-16.64,7.15-33c2.78-11.08,5.81-22.23,11.22-32.42l-1.55.2c2.58,2.38,2.84,6.38,3.35,9.66a86.1,86.1,0,0,1,1,10.9,104.57,104.57,0,0,1-1.48,22,1,1,0,0,0,1.16,1.16c.71-.2.9,11.4.84,12.44a53.76,53.76,0,0,1-2.38,12.76c-.26.9,1,1.74,1.61,1l1.48-.58-1-1a80.07,80.07,0,0,1-5.67,28c-.32.84.77,1.42,1.42,1.1,1.35-.65.64,3.93.64,4.12-.19,1.74-.51,3.48-.83,5.22a80.87,80.87,0,0,1-2.26,8.58,72.63,72.63,0,0,1-8.06,16.69Z" fill="#e6e7e8"/><path d="M316.92,458.3c-.13,1.23,1.74,1.74,1.67.45a48.8,48.8,0,0,0-.64-18.3c-.52-2.26-1.81-10.63-5.74-8.89.52.25,1,.58,1.48.83-.45-8.89-3.22-16.75-6.51-24.87-3-7.54-6.05-14.63-11-21.08a.93.93,0,0,0-1.35,0c-2.84,3.16-3.48,7.16-3.74,11.22-.45,6.18-.58,12.37-.71,18.56q-.39,18.55.39,37.12a582.32,582.32,0,0,0,7.93,73.41c.19,1.22,2.06.71,1.87-.52a573.09,573.09,0,0,1-7.74-70.38q-.76-17.3-.58-34.61c.07-5.86.26-11.73.52-17.59.19-5.22-.26-11.6,3.41-15.79h-1.35c5,6.51,8,13.79,11,21.33s5.61,14.95,6,23.2a1,1,0,0,0,1.49.84c1.22-.51,3.67,11.6,3.8,12.63a47.54,47.54,0,0,1-.19,12.44Z" fill="#e6e7e8"/><path d="M339.8,590.94c1.22-.39.7-2.26-.52-1.87a95.4,95.4,0,0,1-61-.9c-1.16-.39-1.68,1.48-.52,1.87a96.81,96.81,0,0,0,62,.9Z" fill="#e6e7e8"/><path d="M280.89,524.75c.06-1.22-1.87-1.22-1.94,0-.83,10.83-1.67,21.72-2.38,32.55-.71,10.44-.84,20.88.9,31.26.2,1.22,2.06.7,1.87-.52-1.74-10.57-1.48-21.33-.77-32,.71-10.44,1.55-20.88,2.32-31.32Z" fill="#e6e7e8"/></g></g><g id="window"><path d="M543.59,623.81c-67.35,7.8-120.91.26-158.49-5.09-6.57-1-37.89-5.48-78.75-15-19.4-4.51-35.71-9-47.83-12.44,3.42-2.25,7.29-4.51,11.48-6.7a142.91,142.91,0,0,1,20.43-8.64,316.6,316.6,0,0,0,30.93,10.19c14.12,3.8,31.39,7.47,59.94,10.18a676.18,676.18,0,0,0,84.49,2.58c41.51-1.23,74.32-5.8,94.68-8.64,10.18-1.42,18.69-2.77,24.88-3.8l39.51,21.07A524.13,524.13,0,0,1,543.59,623.81Z" fill="#fff"/><path d="M461.67,621.88c-36.8-.58-61.87-3.61-112-9.8-22.82-2.77-48.41-6.51-79.47-17.85-4.58-1.68-8.31-3.16-10.83-4.19q-1.07,4.55-2.12,9.09c9,3.54,21.65,8.12,37.12,12.63,41.12,12,73,15,105.76,17.85,0,0,65.61,5.74,147.72-.71a385.64,385.64,0,0,0,56-8.06c8.76-1.93,15.85-3.86,20.68-5.22.33-2.7.71-5.34,1-8A805.94,805.94,0,0,1,461.67,621.88Z" fill="#161616"/><path d="M626,608.79a1,1,0,0,0-1.94,0V615a1,1,0,0,0,1.94,0v-6.19Z" fill="#161616"/><path d="M625.31,616.78a.94.94,0,1,0-.52-1.8c-27.65,7.48-55.94,11.21-84.49,13-47.76,2.9-96,3.74-143.72.06-47.37-3.67-94.49-12.44-138.83-29.64-1.16-.45-1.67,1.41-.51,1.87a434,434,0,0,0,77.59,21.78c46.92,8.7,94.87,10.76,142.5,10.12,49.56-.71,99.83-2.39,148-15.41Z" fill="#161616"/><path d="M257.24,598.93c.19,1.23,2.06.65,1.86-.51a34.47,34.47,0,0,1-.19-7.67c.13-1.23-1.8-1.23-1.93,0a34.49,34.49,0,0,0,.26,8.18Z" fill="#161616"/><path d="M624.47,608.6c1.16.52,2.13-1.16,1-1.68q-20.31-9.66-39.83-20.81a1,1,0,0,0-1,1.67c13,7.48,26.3,14.37,39.83,20.82Z" fill="#161616"/><path d="M585.16,586.88c1.22-.19.7-2.06-.52-1.87-22,4.13-44.08,7.35-66.38,9.48a732.58,732.58,0,0,1-115.88,1.86c-19-1.22-38-3-56.85-6-18.5-2.9-36.8-7.35-53.94-15-1.1-.52-2.13,1.16-1,1.67,19.08,8.51,39.57,13.09,60.2,16,77.53,11.09,157.45,8.38,234.34-6.25Z" fill="#161616"/><path d="M291,576.76a1,1,0,0,0-.52-1.87,137,137,0,0,0-32.74,15.79c-1,.71-.06,2.39,1,1.68A133.19,133.19,0,0,1,291,576.76Z" fill="#161616"/><path d="M624.34,607.57c1.16-.39.65-2.26-.39-1.87-26,8.76-53.42,12.18-80.75,13.86-47.82,2.83-96,2.57-143.72-1.81-48-4.38-95.45-13.28-141.15-28.49-1.16-.38-1.67,1.49-.51,1.87a574,574,0,0,0,79.59,20.24c47.44,8.64,95.71,11.92,143.85,11.92,24.24,0,48.6-.58,72.77-2.51,23.84-1.93,47.56-5.54,70.31-13.21Z" fill="#161616"/><path d="M587.22,239.5a1,1,0,0,0,.51-1.87c-22.17-5.16-44.53-9.16-67.09-12.31-80.24-11.15-161.45-11.09-242.27-11a1,1,0,0,0,0,1.93c22.82,0,45.64-.06,68.45.2,80.56.77,161.64,4.77,240.4,23Z" fill="#161616"/><path d="M259,208c-17.92-7.34-39.32-16-66.32-23.46-7.87-2.12-19.08-5-32.87-7.6-3.68,16.05-8.45,39.25-12.31,67.48-2.84,20.94-10.19,80.62-2.32,210.17,2.19,36.86,6,85,12.89,141.47a143.15,143.15,0,0,0,48.14,1.74C214.76,596.61,220.5,595,242,589c13.92-3.87,29.77-8.25,46.4-12.89-2.19-11.28-5.16-27.91-7.61-48.15-3.8-31.06-4.12-51.3-5.28-105-2-93.32-2.19-82.63-2.32-105-.19-38.61.32-73.35,1.16-103.32C271,213.07,265.61,210.82,259,208Z" fill="#fff"/><path d="M664.82,205.59c-37,18-58,26.62-66.77,30.17-5.1,2.06-9.41,3.67-12.38,4.83a1637.6,1637.6,0,0,1,7,231.44c-1.68,39.77-4.64,77.66-8.64,113.56a220.52,220.52,0,0,0,30.16,15.08c13.67,5.61,32.29,13,56.53,14,16.88.64,30.16-2,36.09-4.32a74.93,74.93,0,0,1,8.63-3.22c5.48-1.55,8.25-1.49,11.28-3.74a14.09,14.09,0,0,0,4.32-5.41,1116.44,1116.44,0,0,0,7-179.24c-1.74-39.25-7.09-100.28-17.79-222.29-.52-5.93-1.1-12.76-1.61-18.3C697.75,189.29,679.45,198.51,664.82,205.59Z" fill="#fff"/><path d="M152.31,177.17c-1,4.19-2.45,10.31-3.93,17.66-5.67,28.81-6.51,51-7.35,76-1.16,36.73-1.74,55.1-1.93,74.5-.26,28.1-.58,59.36,1,100,.77,20.62,1.16,20,3.41,70.57.45,11,.9,21.27,1.93,35.32,1.36,19.46,3.1,35.38,4.39,46.08,2.64.19,5.22.32,7.86.52-2.51-42.86-4.51-78-5.86-102-4.39-77-6.06-109.95-5.87-154.94.07-22.17.71-50,3.42-82.37,2.64-31.06,6.25-54.72,7.86-64.7,1.16-7,2.19-12.89,3-17.15C157.53,176.91,155,177,152.31,177.17Z" fill="#161616"/><path d="M718.18,179.88c2.84,22.56,6.12,51.37,9,85,3.1,35.58,6.71,77.34,7.48,130.77.45,32.74-.39,55.75.32,106.15.07,7,.2,11.92,0,19.33-.58,24.11-3.09,35.84-4.64,64.77-.39,6.51-.58,11.73-.64,14.63,5.22-1.54,10.37-3.09,15.59-4.64,2.52-30,3.55-55.23,4.06-73.79.65-23.27.52-41.06.33-65.68-.2-28.48-.33-42.73-1.23-62.9-.84-18-2-34-4.38-66-1.16-15.66-1.74-23.46-2.51-32.35-4.13-48.66-7-59.36-8.38-81.27a232,232,0,0,0-2.77-24.62c-.71-4.25-1.42-7.73-1.87-10Z" fill="#161616"/><path d="M275.93,215.65c.06-1.23-1.87-1.23-2,0-1.36,26.87-1.81,53.75-1.87,80.63Q272,367,274.12,437.81c1.42,46.14,4.58,92.35,13.15,137.79.26,1.23,2.13.71,1.87-.51a716.56,716.56,0,0,1-10.06-78.5c-3.54-46.21-3.86-92.62-4.57-138.89-.65-47.31-1-94.74,1.42-142Z" fill="#161616"/><path d="M273.54,215.65c1.1.58,2.06-1.1,1-1.68a449,449,0,0,0-113.37-38.22c-1.22-.25-1.74,1.62-.51,1.87a442.74,442.74,0,0,1,112.91,38Z" fill="#161616"/><path d="M161.27,177a1,1,0,0,0-1.93-.45A708.21,708.21,0,0,0,147.67,267c-3.67,54.46-2.13,109.11.32,163.64,2.52,55.62,5.42,111.18,8.19,166.73.06,1.23,2,1.23,1.93,0q-2.33-47.09-4.64-94.1c-2.64-54.46-5.86-108.85-6-163.38S150.64,230.6,161.27,177Z" fill="#161616"/><path d="M288.82,575.47a1,1,0,0,0-1.42-1.35c-1.94,2.25-5,2.83-7.67,3.67L272,580.11l-15.46,4.64c-10.19,3.1-20.37,6.32-30.75,8.83a162.35,162.35,0,0,1-66.38,2.65c-1.22-.2-1.74,1.67-.52,1.86a165,165,0,0,0,67.42-2.64c11.34-2.83,22.49-6.38,33.71-9.73,5.54-1.68,11.15-3.35,16.69-5,4.06-1.22,9.22-1.87,12.12-5.22Z" fill="#161616"/><path d="M160,177.11c1.23-.26.71-2.13-.52-1.87L152.25,177a1,1,0,0,0,.51,1.87c2.45-.58,4.84-1.16,7.22-1.74Z" fill="#161616"/><path d="M152.89,178.2a1,1,0,0,0-1.93-.45c-7.16,29.07-8.83,59.62-10.7,89.39-3.48,54.79-3.61,109.7-1.87,164.48s5.41,109.69,9.47,164.48c.07,1.22,2,1.22,1.94,0-2.26-30.81-4.45-61.62-6.19-92.42-3.09-54.4-5-108.86-4.19-163.32.45-27.46,1.48-54.85,3.42-82.17,1.87-26.75,3.61-53.95,10-80Z" fill="#161616"/><path d="M157.08,598.42c1.22.13,1.22-1.81,0-1.94l-8.44-.77c-1.23-.13-1.23,1.8,0,1.93l8.44.78Z" fill="#161616"/><path d="M587.28,240.08c-.13-1.23-2.06-1.23-1.87,0q3.58,37.8,5.61,75.66,3.59,67.49,1.81,135.15-1.74,67.29-8.71,134.25c-.12,1.22,1.81,1.22,1.94,0,2.58-25.14,4.7-50.34,6.19-75.6q4.05-67.49,2.77-135.15-1.26-67.29-7.74-134.31Z" fill="#161616"/><path d="M717.47,179.69a1,1,0,0,0-1-1.68,1043,1043,0,0,1-129.41,60.78c-1.16.45-.65,2.32.52,1.87a1051.53,1051.53,0,0,0,129.86-61Z" fill="#161616"/><path d="M719.47,179.23c-.13-1.22-2.06-1.22-1.93,0q6,46,10,92.17,7,82.26,7.21,164.86t-6.31,164.86c-.13,1.23,1.8,1.23,1.93,0q3.67-46.2,5.22-92.55,2.71-82.45-1.29-165T719.47,179.23Z" fill="#161616"/><path d="M730.43,602.35c1.09-.58.06-2.26-1-1.68a105.09,105.09,0,0,1-31.19,11c-40.16,7.47-80-6.9-113.95-27.46-1-.64-2,1-1,1.68a254.06,254.06,0,0,0,31.71,16.37c36.48,15.47,79.47,19.66,115.37.13Z" fill="#161616"/><path d="M744.67,597c1.16-.52.19-2.19-1-1.68a123.44,123.44,0,0,1-13.4,5.35c-1.16.39-.65,2.26.51,1.87A133.41,133.41,0,0,0,744.67,597Z" fill="#161616"/><path d="M729.85,179.69c-.2-1.23-2.13-1.23-1.94-.07q5.9,45.74,10.51,91.58c5.35,54,9.09,108.15,10.31,162.35a1492.5,1492.5,0,0,1-4.71,163c-.12,1.22,1.81,1.22,1.94,0,2.64-30.55,4.19-61.23,4.83-91.91,1.16-54.2-.64-108.4-4.38-162.48-3.8-54.33-9.6-108.46-16.56-162.47Z" fill="#161616"/><path d="M728.75,181c1.22.26,1.74-1.61.52-1.87a48.75,48.75,0,0,0-11.86-.9c-1.23.06-1.23,2,0,1.93a44.79,44.79,0,0,1,11.34.84Z" fill="#161616"/><path d="M251.24,220c.07-1.22-1.87-1.22-1.93,0q-1.17,31.42-1.61,62.84-1.65,112.25,5.41,224.29c.06,1.22,2,1.22,1.93,0-1.35-21-2.44-41.83-3.28-62.78q-4.65-112.14-.52-224.35Z" fill="#161616"/><path d="M220,193.22c.07-1.22-1.87-1.22-1.93,0q-2.13,44.17-3.09,88.36-1.65,78.12.51,156.29t8.19,156c.06,1.22,2,1.22,1.93,0q-3.39-44.08-5.54-88.24-3.87-78-3.87-156.22T220,193.22Z" fill="#161616"/><path d="M182.47,181.75a1,1,0,0,0-1.93-.07q-3.09,45.73-4.7,91.46-2.91,81.69-1.23,163.31,1.65,81.32,7.93,162.48c.06,1.23,2,1.23,1.93,0q-3.57-45.63-5.61-91.39Q175.2,426,176.09,344.29q.87-81.41,6.38-162.54Z" fill="#161616"/><path d="M257.88,531.32c-.13-1.22-2.06-1.22-1.93,0A346.05,346.05,0,0,0,264.13,582a1,1,0,0,0,1.87-.51,347.25,347.25,0,0,1-8.12-50.15Z" fill="#161616"/><path d="M696.33,192.25c-.19-1.22-2.06-.64-1.8.52,4.38,30.74,7.34,61.74,9.15,92.74,3.16,54.53,2.83,109.18.71,163.71s-6,109.24-9.86,163.83c-.07,1.22,1.87,1.22,1.93,0,2.19-31,4.38-61.94,6.25-92.94,3.35-54.78,5.61-109.63,5.16-164.54-.52-54.59-3.8-109.24-11.54-163.32Z" fill="#161616"/><path d="M659.27,210.3c-.13-1.22-2.06-1.22-1.93.06q4.15,44.08,6.64,88.3c2.83,51.75,3.8,103.7,2.12,155.52a1330,1330,0,0,1-14.05,156.93c-.19,1.23,1.68,1.74,1.87.52q6.58-43.21,10.12-86.82a1539.62,1539.62,0,0,0,4.51-157.25c-1.09-52.53-4.38-105-9.28-157.26Z" fill="#161616"/><path d="M622.15,225.7c-.19-1.22-2.13-1.22-1.87-.06q5.33,41,8.12,82.24a1360.74,1360.74,0,0,1,2,146.88,1364.64,1364.64,0,0,1-13.92,146.56c-.19,1.22,1.67,1.74,1.87.51q6.09-40.7,9.73-81.66a1373.15,1373.15,0,0,0,5-147.39,1352.73,1352.73,0,0,0-11-147.08Z" fill="#161616"/><path d="M161.27,176.66q-3.59,18.36-7.15,36.86a1374.85,1374.85,0,0,0-5.93,170.79c.25,9.93.71,19.79,7.73,164.22.13,2.84,2.26,46,2.38,48.79a185.26,185.26,0,0,0,44.6,1.81,188.77,188.77,0,0,0,59.49-14.89q-21.16-33.93-42.28-67.87c-20-51.17-42.92-130.9-38.09-228.47a543.43,543.43,0,0,1,14.89-101.77C185,182.91,173.06,179.75,161.27,176.66Z" fill="#1e0a32" opacity="0.12" style="isolation:isolate"/><path d="M717.47,179A1589.89,1589.89,0,0,1,737.13,465.2c-1,48.4-4.26,94.16-8.9,136.89-12.24,6.06-37.25,16.18-68.44,12.5a116.34,116.34,0,0,1-28.55-7.15,152.81,152.81,0,0,0,30.93-32.74c37.64-54.27,28.81-120.39,19.66-188.65-5.16-38.73-14.82-80.82-28-138-3-12.82-5.48-23.33-7.15-30.35Q682.19,198.32,717.47,179Z" fill="#1e0a32" opacity="0.13" style="isolation:isolate"/></g><g id="cat"><path d="M708.38,151.26a24.23,24.23,0,0,0-9.28-2.19c-4.19-.13-5.73,1-8.12-.19-3.93-1.87-4.51-7.22-5.67-7-.64.13-.58,2-1,4.64a30.18,30.18,0,0,1-3.35,9.67,23.24,23.24,0,0,1-6.64,8.63c-3.22,2.39-5.47,2.19-13,3.81-7.93,1.74-11.86,2.57-16.43,4.83-5.87,2.9-10.64,5-14,10.12-1.29,1.93-2.71,4.83-5.67,5.48a6.85,6.85,0,0,1-5.67-1.49c-2.9-2.38-2.77-6.51-2.84-13.79-.06-10-.13-15-.64-16.76-3.23-11.08-13.86-16-15.28-16.62-2.19-1-6.7-2.65-7.28-1.68-.32.52.64,1.61,1.16,2.19,5.54,6.12,12.44,8.25,15.79,12.83,4,5.48,2.58,14.11,1,23.78-.71,4.32-1.55,6.64-.65,10.31,1,4.19,4.32,10.06,9.48,10.64a8.27,8.27,0,0,0,4.83-1,28.43,28.43,0,0,0,1,10.83,29.49,29.49,0,0,0,6.31,11.47,110.59,110.59,0,0,0,18.11-7c4.84-2.32,4.26-2.45,11.15-6.13,10.7-5.67,14.57-6.63,25.27-12.43,3.15-1.74,5.73-3.23,7.28-4.13,3.54-.77,6.32-1.29,8.64-1.67a4.64,4.64,0,0,0,2.64-1.16,4.93,4.93,0,0,0,1.16-3.36,39.38,39.38,0,0,1,9.28-4.31,36.93,36.93,0,0,1,7.28-1.49,11.85,11.85,0,0,0-9.6-8.18c-.52-3.48-1-7-1.48-10.44.25-.84.71-2.13,1.16-3.8,1.16-4.32,1.8-6.84,1-7.48C713.15,147.46,709.54,150.43,708.38,151.26Z"/><path d="M712.38,169.5c-.19,1.23,1.74,1.16,1.93,0,1.49-11.73-9.21-22.1-20.94-21.14-11.15.91-18.76,14.31-18.44,24.49.07,1.23,2,1.23,1.94,0-.32-9.21,6.38-21.52,16.5-22.55,10.7-1.1,20.36,8.57,19,19.2Z"/><path d="M712.57,176.21c.58-1.1-1.09-2.07-1.67-1-3.61,7-11.22,12-19.27,11A17.09,17.09,0,0,1,677.13,172c-.2-1.22-2.07-.71-1.87.52a19.08,19.08,0,0,0,16.11,15.66c8.83,1.16,17.27-4.25,21.2-11.92Z"/><path d="M705.61,185.55c-.13,1.23,1.87,1.23,2,0,.19-2.58-2.26-3.48-4.32-4.19a51.65,51.65,0,0,0-11.73-2.51,35.1,35.1,0,0,0-21.85,4.77c-1.09.64-.06,2.32,1,1.67a31.65,31.65,0,0,1,16.82-4.7,44.53,44.53,0,0,1,9.61,1.09c1.74.39,8.7,1.42,8.5,3.87Z"/><path d="M677.9,163.25c.77-1-.58-2.32-1.29-1.42-5.41,6.58-16.43,6.9-24.1,8.9s-15.28,5-20.69,10.83a28.74,28.74,0,0,0-.07,38.86c.84,1,2.19-.45,1.36-1.36a26.87,26.87,0,0,1,5.6-40.73c6.84-4.32,14.89-5.93,22.69-7.73,5.87-1.29,12.44-2.45,16.5-7.35Z"/><path d="M632.78,197c-.7,1,1,2,1.74,1a9.72,9.72,0,0,1,11.93-2.64c4.64,2.25,4.57,9.21,4,13.73-.13,1.22,1.81,1.22,1.94,0,.71-5.74.38-13.28-5.74-15.8A11.69,11.69,0,0,0,632.78,197Z"/><path d="M650.7,208.17c-1,.78,0,2.45,1,1.61,3-2.32,6.25-4.7,10.25-3.61-.19-.38-.45-.77-.64-1.16-.65,2.58-4.58,3.81-6.77,4.84-2.45,1.16-4.9,2.25-7.41,3.29-4.64,1.93-9.28,3.54-14,5-1.16.39-.65,2.26.51,1.87a171.8,171.8,0,0,0,17.53-6.51c3.74-1.61,10.83-3.48,12-8a1,1,0,0,0-.64-1.16c-4.58-1.22-8.25,1.1-11.8,3.8Z"/><path d="M707.35,185.36c.65-1.1-1-2.06-1.61-1-2.71,4.25-9.86,4.51-14.31,5a76.35,76.35,0,0,1-15.85-.19c-1.23-.13-1.23,1.8,0,1.93a78,78,0,0,0,19.72-.25c4.45-.65,9.54-1.36,12.05-5.48Z"/><path d="M722.37,178.78c.19,1.23,2.06.71,1.8-.51-1-5.35-5.86-8.19-11-8.44a1,1,0,0,0-.9.7,36,36,0,0,1-1.42,4.45c-.45,1.16,1.42,1.68,1.87.52a20.62,20.62,0,0,0,1.42-4.45c-.26.26-.58.45-.9.71,4.38.19,8.31,2.51,9.15,7Z"/><path d="M711.16,158.8c-.46,1.23,1.41,1.68,1.93.52a37.44,37.44,0,0,0,1.74-7c.19-1.16.9-3.54-.07-4.57-1.93-2.06-6.5,3.22-7.6,4.51-.84.9.52,2.32,1.35,1.35a21.09,21.09,0,0,1,2.65-2.7c.58-.45,1.16-.91,1.74-1.29.25-.71.32-.78.25-.2,0,.26-.06.52-.06.78a36.11,36.11,0,0,1-1.93,8.63Z"/><path d="M689.37,149.78a1,1,0,0,0,1.68-1c-1-1.74-2-3.61-3.1-5.35-.64-1-1.54-1.8-2.83-1.42s-1.87,1.87-1.94,3.16c-.12,2-.06,4-.06,6a1,1,0,0,0,1.93,0c0-1.22.07-2.44.07-3.67,0-.77-.32-2.9.58-3.09s.77.38,1.16,1a11.79,11.79,0,0,0,.71,1.29c.64,1,1.22,2.06,1.8,3.09Z"/><path d="M627.63,191.93c.06-1.29-1.87-1.22-1.87.07-.26,3.48-4.38,3.93-6.77,2.45a11.5,11.5,0,0,1-3.54-4.26,20.24,20.24,0,0,1-1.61-11.86c.83-6.25,2.25-12.18,1.29-18.56-1.62-10.7-9.35-20.37-20.69-21.07-1.23-.07-1.23,1.87,0,1.93,8.31.52,14.88,6.77,17.53,14.44,2.77,8.05.83,15.59-.13,23.71-.71,5.93.51,13.8,6.12,17.28,3.8,2.38,9.28.77,9.67-4.13Z"/><path d="M626.6,195.41c.45-1.16-1.42-1.67-1.87-.51-1.68,4.51-7.86.13-9.28-1.62a10.81,10.81,0,0,1-2.32-5.28c-.71-4.06-.33-8.44-.07-12.5.07-1.23-1.87-1.23-1.93,0-.39,6.38-1.48,14.76,3.48,19.78,3,3.1,10,5.48,12,.13Z"/><path d="M594.37,138.63c-1.16-.45-1.67,1.42-.51,1.87,7.86,3,15.14,7.41,17.27,16.18,1.93,8,0,16.24.19,24.3a1,1,0,0,0,1.94,0c-.2-9.22,2.25-18.89-1.16-27.78-3-7.74-10.38-11.73-17.73-14.57Z"/><path d="M595.85,139.73c-1.16-.52-2.12,1.16-1,1.67,6.51,3,12.76,8.25,15.53,15,1.61,4,1,9,1,13.28-.07,4.06-.26,8.05-.52,12.11-.06,1.23,1.87,1.23,1.93,0,.39-5,.58-10.12.58-15.14,0-3.93.26-7.93-1.41-11.54-3.16-6.9-9.35-12.31-16.12-15.4Z"/><path d="M708.58,163.06a.48.48,0,1,0-.84-.45,2.7,2.7,0,0,1-5-1c-.06-.58-1-.64-1,0a3.66,3.66,0,0,0,6.83,1.42Z" fill="#fff"/><path d="M694.91,160.54a.47.47,0,1,0-.83-.45,2.85,2.85,0,0,1-5.35-1.41.49.49,0,1,0-1,0,3.82,3.82,0,0,0,7.15,1.86Z" fill="#fff"/><path d="M698.78,164.8c.19-.58-.77-.84-1-.26A7.48,7.48,0,0,0,699,170.6c.39.45,1.22,0,.84-.52a6.21,6.21,0,0,1-1.1-5.28Z" fill="#fff"/><path d="M698.39,164.73a.48.48,0,0,0-1,0,5,5,0,0,1-3,5c-.51.25-.06,1.09.52.83a5.86,5.86,0,0,0,3.41-5.8Z" fill="#fff"/><path d="M714.12,170.47c.58,0,.58-1,0-1-5.93-.39-9.8,4.32-13.79,7.93-.45.45.26,1.09.71.7,3.8-3.41,7.41-8,13.08-7.6Z" fill="#fff"/><path d="M703.55,181.81c.52.33,1-.51.45-.77a33.27,33.27,0,0,0-25.07-4.45c-.58.13-.32,1,.26.9a32.14,32.14,0,0,1,24.36,4.32Z" fill="#fff"/><path d="M685.25,190.64a.48.48,0,0,0,0-1,21.43,21.43,0,0,1-15.54-5.16c-.51-.39-1.16.32-.7.71a22.32,22.32,0,0,0,16.24,5.41Z" fill="#fff"/><path d="M687,144.88a.47.47,0,1,0-.78.52,8.4,8.4,0,0,1,.78,7c-.2.58.71.84.9.26a9.5,9.5,0,0,0-.9-7.8Z" fill="#fff"/><path d="M712.51,150.88c.51-.33.06-1.16-.45-.84a7.47,7.47,0,0,0-3.35,4.77c-.13.58.77.84.9.26a6.45,6.45,0,0,1,2.9-4.19Z" fill="#fff"/><path d="M678.41,161.19c.39-.45-.25-1.16-.7-.71a15.77,15.77,0,0,1-4.06,3.61c-.52.32,0,1.16.51.84a16.8,16.8,0,0,0,4.25-3.74Z" fill="#fff"/><path d="M638.65,192.83c-.19.58.71.84,1,.2.58-1.55,4.31-.84,5.41-.52a9.69,9.69,0,0,1,4.25,2.26,9.14,9.14,0,0,1,2.52,9.6c-.2.58.71.84.9.26a10.07,10.07,0,0,0-4.06-11.54c-2.13-1.35-8.64-3.67-10-.26Z" fill="#fff"/><path d="M651.93,204.69c-.58.2-.33,1.16.25.9a21.33,21.33,0,0,1,15.09-.7c.58.19.83-.71.25-.91a22.43,22.43,0,0,0-15.59.71Z" fill="#fff"/></g><g id="girl_waving" data-name="girl waving"><g id="legs"><path d="M446.85,446.9c-26.3-9-49.05,10.11-50.08,11a129.08,129.08,0,0,0-14.44,20.49c-9.41,16.56-12.82,30.74-15.14,40.22-4.39,17.72-10.51,40.6-19.79,72a651.56,651.56,0,0,0,65,6.51,647.09,647.09,0,0,0,68.19-.2c-.52-24.74-.71-43.76-.84-56.32-.13-14.89-1.42-29.78-1.87-44.73-.39-12.12-.39-16.82-3-23.14C467.28,454.37,448.14,447.41,446.85,446.9Z" fill="#fa1e46"/><path d="M436.92,510.31c.58-1.09-1.09-2.06-1.67-1-4.26,7.67-8.58,15.34-12.89,23-.58,1.09,1.09,2.06,1.67,1q6.39-11.51,12.89-23Z" fill="#fa1e46"/><path d="M437.44,509.93c.77-1-.65-2.39-1.42-1.36-9.93,12.38-16,26.56-19.08,42.09a387.71,387.71,0,0,0-6.06,45.57c-.06,1.22,1.87,1.22,1.94,0a365.18,365.18,0,0,1,5.86-44.35c3.1-15.46,8.83-29.58,18.76-41.95Z" fill="#fa1e46"/><path d="M409.53,449.8c-7.67,3.93-13.73,9.53-20.17,18.49-7.16,9.93-12.12,20.3-17.47,35.58-7.22,20.56-8.38,30.29-16.82,61.48-3,11.15-5.74,20.18-7.41,25.85,5.41.9,11.15,1.67,17.14,2.32s11.73,1.09,17.15,1.35a221.06,221.06,0,0,1,3.67-52.07c5.8-30.3,16.69-54.91,27.2-78.25,3.61-8,6.83-14.63,9.08-19.14A51.76,51.76,0,0,0,409.53,449.8Z" fill="#1e0a32" opacity="0.19" style="isolation:isolate"/><path d="M428.54,522.37c-3.41,5.67-7.67,14.5-11.73,38.28a311.09,311.09,0,0,0-4.06,36.28l22.17,1.36a192.67,192.67,0,0,1-3.35-54.4,187.83,187.83,0,0,1,5.74-33.25A82,82,0,0,0,428.54,522.37Z" fill="#1e0a32" opacity="0.11" style="isolation:isolate"/></g><g id="hand_right" data-name="hand right"><path d="M491.38,380.06c-.51,3.8.9,5.41,5.29,17.21,0,0,3.48,9.47,6.89,21,4.32,14.69,5.74,27.2,7.87,47.18.64,6.12,1.09,11.15,1.35,14.37-.52,2.13-1.42,5.86-2.32,10.57-3.8,19.53-2.58,27.07-6,46.72a171.57,171.57,0,0,1-4.18,19.28,152.32,152.32,0,0,1-10.45,26.87,36,36,0,0,0-8.12,4.13c-3.61,2.38-7.79,5.28-7.73,9.08.06,1.55.77,3.42,2.06,4,1.55.71,2.71-1,5.8-1.93.71-.2,5.93-1.81,9.61.9a10.12,10.12,0,0,1,3.09,4.57c1.61,3.81.77,6,2.19,13.54.32,2,.71,3.61,1.87,4.12s2.58-.19,3.42-.9c1.48-1.29,1.93-3.35,2.19-7.93a98.52,98.52,0,0,0-.13-11.34,13.77,13.77,0,0,1,3.09,4.83c.32.78.71,2.13,1.1,7,.45,5.8.13,7.6,1.22,8.25,1.29.84,3.42-.77,3.93-1.16,3-2.19,3.55-6.19,3.81-8.06a22.21,22.21,0,0,0,0-5.41,32.22,32.22,0,0,0-1.36-6.9,11.61,11.61,0,0,1,3.93,3.1c1.55,2,1.68,3.6,3.55,8.7s2.64,5.8,3.41,6c1.42.39,3.16-.9,4.06-2.32,1.81-2.84.71-6.83-.7-11.73a43.58,43.58,0,0,0-3.23-8.38,19.55,19.55,0,0,1,8.7.71c4.13,1.35,6.51,3.67,7.74,2.64,1-.83.64-3.28-.13-5-1.74-3.81-6.25-4.9-11.28-6-3.93-.84-5.28-.58-15-1.74-1.87-.26-3.41-.45-4.38-.58,1.35-3.35,3.29-8.18,5.61-14.05,10.63-27.26,16-40.92,20-57.36a200.88,200.88,0,0,0,6.31-42.54,228.74,228.74,0,0,0-1.41-31.9,245.27,245.27,0,0,0-7.35-36.86c-1.48-5.48-1-3-5.29-17.47a85.79,85.79,0,0,0-4.57-12.89c-2.52-5.35-3.8-8.06-5.93-9.47C511.94,357.63,493.19,368.07,491.38,380.06Z" fill="#fff"/><path d="M524.83,369c-.51-1.16-2.13-.13-1.67,1a251.14,251.14,0,0,1,15,46c6.18,28.16,7.28,57.49,1.93,85.85-5.41,28.74-16.76,55.94-28.36,82.75-.45,1.09,1.16,2.13,1.68,1,6.7-15.47,13.28-30.94,18.69-46.86,9.54-27.84,14.63-56.65,13-86.1-1.55-28.88-8.77-57.17-20.24-83.66Z" fill="#161616"/><path d="M500.79,405.84c-.39-1.16-2.25-.64-1.87.52A255.25,255.25,0,0,1,511.68,482a1,1,0,0,0,1.94,0,256.84,256.84,0,0,0-12.83-76.12Z" fill="#161616"/><path d="M520.38,470.23c.71-1-1-1.94-1.67-1-11,15.34-10.31,36.16-12.7,54.14-2.71,20.49-7.28,41.05-17,59.48-.58,1.1,1.09,2.07,1.67,1,9.35-17.72,14-37.44,16.82-57.23,1.42-9.73,2.07-19.59,3.48-29.33,1.36-9.53,3.68-19.07,9.41-27.06Z" fill="#161616"/><path d="M513.62,584.75a1,1,0,0,0-.07,1.94c4.71.25,9.41.71,14.12,1.41,3.48.52,7.15,1.1,10.31,2.78,1.16.64,4.38,2.51,4.51,4.12-.58,1-1.22,2.06-1.8,3.09-.52-.32-1-.64-1.49-.9-.83-.51-1.67-1-2.57-1.42-3-1.48-5.93-2.25-9.22-1.35a1,1,0,0,0,.51,1.87c4-1.1,7.48.9,10.83,2.84,1.36.77,2.77,1.86,4.38,1.28,3.68-1.35,1.55-6.12-.12-8.12-2.9-3.35-7.35-4.7-11.54-5.54a140.06,140.06,0,0,0-17.85-2Z" fill="#161616"/><path d="M518.9,590.49c-1.22-.19-1.74,1.67-.45,1.87a13.18,13.18,0,0,1,10.38,9,35.31,35.31,0,0,1,1.87,9.22c.06,2-.13,5.93-2.13,7.15-3.55,2.19-3.74-5.28-4.06-6.77a25.4,25.4,0,0,0-1.74-5.22,18.56,18.56,0,0,0-6.77-8c-1-.71-2,1-1,1.68a17.22,17.22,0,0,1,6.71,8.83c1,2.9.84,6.06,1.87,9,1.67,4.64,6.12,3.28,7.92-.52,2.39-5,.65-12.31-1.41-17.21a14.8,14.8,0,0,0-11.22-9Z" fill="#161616"/><path d="M512.84,595.26c-1-.71-2,1-1,1.67,4.13,2.71,5.29,9.93,4.84,14.44a14.27,14.27,0,0,1-2.13,6.38,10.87,10.87,0,0,1-1.87,2.32c-2,1.87-2.51-.06-2.77-1.87-.58-4,.19-7.92-1.16-11.79a11.1,11.1,0,0,0-5-6.19c-1.1-.58-2.07,1.1-1,1.68,6.83,3.73,4.32,12.56,5.28,18.82.58,3.73,3.87,2.7,6,.71,3.61-3.42,5-8.64,4.57-13.47-.38-4.52-1.8-10.12-5.8-12.7Z" fill="#161616"/><path d="M503.69,600.41c-.32-1.16-2.19-.64-1.93.58,1.16,4.39,2.25,8.9,1.61,13.41-.26,1.61-.58,4-1.74,5.22-2.13,2.39-3.42-.71-3.87-2.77-1.35-5.67.2-12.12-4.32-16.56a1,1,0,1,0-1.35,1.35c3.74,3.67,2.84,9.41,3.55,14.18.32,2.19,1.67,8.12,5,7.47,3-.58,4.32-6.25,4.64-8.57.78-4.83-.38-9.67-1.61-14.31Z" fill="#161616"/><path d="M489.77,585c1.1-.45.64-2.32-.39-1.94-4,1.61-8.05,3.29-11.21,6.32-2.26,2.19-5.16,5.93-4.58,9.28.33,2.06,1.94,3.54,4.06,2.9,1.49-.45,2.45-1.8,4-2.26a11.31,11.31,0,0,1,4.38-.06c2.32.32,5.67.9,6.9,3.16.58,1.09,2.25.13,1.67-1-2.32-4.12-10.37-5.41-14.43-3.61-1.49.65-5.48,4.06-4.51-1.29.38-1.93,2.06-4,3.41-5.35,3-3,6.9-4.64,10.7-6.18Z" fill="#161616"/><path d="M494.67,391.27c2.25,7.67,11.53,39.9,16.37,66.52a92.92,92.92,0,0,1,1.67,23.26c-.51,8.58-2.12,12.64-4.06,22.56-2.77,14-1,13-3.73,30.68-3.61,23.39-6.26,22.11-11.61,42.47a14.55,14.55,0,0,1-3.41,6.64c-1.87,1.93-3.22,2.13-6.12,3.67-1.49.78-10.51,5.61-9.86,10.32a4.6,4.6,0,0,0,2.7,3.67c1.94.64,3.22-1.48,6.13-2.58s7-1,9.53,1.1c4.19,3.48,4.39,12.82,4.45,14.76s-.13,4.44,1.35,5.93a4.9,4.9,0,0,0,4.06,1.09c-1-6.32-2.32-12.89-3.73-19.59-1.1-5.09-2.26-10-3.42-14.76,2.06-5.74,4.06-11.54,6.12-17.34a299.84,299.84,0,0,0,20.76-103c.51-23.66-2-39.9-4.77-51.69-2.45-10.51-6.9-29.46-14.31-29.91C499.57,384.83,496.73,388.05,494.67,391.27Z" fill="#1e0a32" opacity="0.13" style="isolation:isolate"/></g><g id="hand_left" data-name="hand left"><path d="M368.15,123c-1.16,2.19-.77,3.67-1.41,8.7-.46,3.67-.84,4.77-1.68,5s-1.74-.45-1.93-.58c-1.68-1.29-.33-3.68-1.94-7.28-.19-.52-.38-.84-.71-1.68a15.49,15.49,0,0,1-.83-3.48c-.46-3.22-3.48-12.57-5.74-18.69-.45-1.23-2.19-4.77-5.61-11.8-.83-1.74-1.93-4-3.35-3.93-1.22.07-2.06,1.81-2.25,2.26-1,2.13-.52,4.12.58,9,.77,3.35,1.74,7.54,2.25,9.79,1.36,5.93,1.23,5.61,1.42,6.19.84,2.39,1.74,3.87,1.1,4.77s-1.87.71-2.84.58a47.69,47.69,0,0,1-7.28-13.73c-1.23-3.61-2-7.34-5.35-11.21-1.94-2.26-4.64-4.38-5.87-3.68s.13,3.68-1.42,5c-1.74,1.42-4.7-1-6.44.26-.39.32-1.74,1.48-.26,7.86,1.35,6,3.55,9.48,6.19,14.89a107.67,107.67,0,0,1,4.51,10.63,57.68,57.68,0,0,1-10.38-10.11c-2.12-2.71-4.06-5.8-5.6-5.35-1.23.32-1.55,2.57-1.68,3.35-.9,5.54,2.39,11.08,6.7,17.4,6.71,9.67,10.19,14.76,17.15,20.75a78.77,78.77,0,0,0,12.63,9c5.67,12.37,10.57,23.27,14.57,32.29,7.6,17.14,11.47,26,16.56,38.73,2.25,5.61,5.61,14.57,12.37,32.55,4.45,11.73,6.64,17.73,8.45,22.75,5.73,16.24,8.57,24.3,9.28,26.68a76.88,76.88,0,0,0,3.93,11A67.9,67.9,0,0,0,419.71,342c11.22,3.6,22.82-.13,28.36-8.45,5.22-7.86,3-16.82,2.51-18.49-9.47-19.47-17.53-34.61-23.26-44.93-6.51-11.79-12.89-22.81-21.59-40.41-3.48-7.09-3.74-8-6.71-13.72-7.92-15.34-11.72-20.18-17.4-32.29-1.67-3.61-4.12-9.16-6.7-16.24a68.88,68.88,0,0,1-.58-15.73c1.29-16.37,1.68-19.08,1.68-19.08a14.68,14.68,0,0,0-.84-8.12c-.39-1-1.94-4.57-3.93-4.51C369.89,120.13,368.93,122,368.15,123Z" fill="#fff"/><path d="M374.34,149.91c.07,1.22,2,1.22,1.93,0-.51-5.67.58-11.21.58-16.89,0-4-.58-9.79-3.35-13-2.12-2.52-4.64-1.16-5.73,1.54a21.6,21.6,0,0,0-1.16,6.13c-.13,1.28.06,8.89-2.19,8.24-1.23-.38-1.68,1.49-.52,1.87,2.26.71,3.48-1,3.93-3a37.34,37.34,0,0,0,.65-6,23.38,23.38,0,0,1,.45-4.32c.32-1.61.19-2.77,2.12-2.71s2.13,1.61,2.78,3.48a25.18,25.18,0,0,1,.83,3.8,34,34,0,0,1,.2,6.83c-.26,4.71-1,9.29-.52,14Z" fill="#161616"/><path d="M363.13,137a1,1,0,0,0,1.67-.9c-4-7.67-4.83-16.82-7.47-25C355,104,352.11,96.29,347.4,90.42c-1.1-1.29-2.71-2.57-4.32-1.22-1.87,1.61-1.42,5.35-1.09,7.47.58,4.07,1.48,8.06,2.38,12,.45,2.13,1,4.26,1.61,6.38.52,1.87,2.19,5.35.58,7.09-.84.9.52,2.26,1.36,1.36,1.41-1.55,1.41-3.29,1-5.29-.83-3.61-2-7.09-2.83-10.7a93.26,93.26,0,0,1-2.32-12c-.2-1.8-.2-6,2.19-3.8,1.22,1.1,2.06,3.1,2.9,4.51A87.84,87.84,0,0,1,357.07,117c1.87,6.7,2.83,13.79,6.06,20Z" fill="#161616"/><path d="M347.47,123.68c1.22-.13,1.22-2.06-.07-2-1.61.13-3-3.87-3.61-5-.9-1.74-1.87-3.61-2.71-5.41-1.41-3-2.64-6-4-9a30,30,0,0,0-4.26-7.09c-1-1.23-3.09-3.48-4.89-3.42-9.09.2,4.83,29.58,6.18,32.94.46,1.16,2.32.64,1.87-.52-2.38-5.86-4.83-11.67-7-17.53a25.63,25.63,0,0,1-2.06-9.28,12.53,12.53,0,0,1,.32-2.71,2.9,2.9,0,0,1,3.35.84A11.37,11.37,0,0,1,333,98.54c2.9,4.58,4.57,9.93,7,14.83,1.22,2.51,2.51,5.09,3.93,7.54.9,1.54,1.61,3,3.55,2.77Z" fill="#161616"/><path d="M324.65,100c.19,1.23,2.06.71,1.87-.45a4.19,4.19,0,0,0-5.41-3.16c-3.23,1-4.07,4.77-3.61,7.67.7,4.58,3,9.22,4.83,13.41a135.59,135.59,0,0,0,7.41,14.18,1,1,0,0,0,1.68-1,126.63,126.63,0,0,1-7.87-15.27c-1.16-2.71-2.25-5.48-3.22-8.32-.64-1.87-1.42-3.87-1-5.86.52-2.39,4.58-5,5.29-1.23Z" fill="#161616"/><path d="M328.39,132.38c.84.9,2.19-.45,1.42-1.35-3.48-4-6.84-8.25-10.51-12.06-1.55-1.61-4.12-3.86-6.57-2.7s-2.13,4.12-1.49,6.31a67.32,67.32,0,0,0,4.52,10.9,84.64,84.64,0,0,0,32.29,34.73c1,.65,2.06-1,1-1.67a83,83,0,0,1-27.45-26.68,78.18,78.18,0,0,1-8.32-17.34c-.19-.52-1-2.19-.64-2.77,1.16-.39,2.25-.78,3.35-1.16.39.38.84.71,1.29,1.09a49.72,49.72,0,0,1,3.87,4.39c2.44,2.77,4.83,5.54,7.28,8.31Z" fill="#161616"/><path d="M376,147.91a.91.91,0,1,0-1.81,0c-.51,6.58-1,13.15.32,19.66,1.1,5.74,3.61,11.08,6.32,16.31,22.75,44.14,46.34,87.84,69.48,131.73.58,1.1,2.25.13,1.67-1-6.44-12.18-12.89-24.42-19.33-36.6Q415.84,246.13,399,214.3c-5.6-10.64-11.34-21.21-16.82-31.91-2.7-5.28-5.15-10.7-6.12-16.56s-.51-12-.06-17.92Z" fill="#161616"/><path d="M349.14,166.09c-.51-1.1-2.19-.13-1.67,1,5.92,12.51,11.6,25.07,17.14,37.77q14.59,33.65,27.33,68.12c8.24,22.3,15.27,45.18,24.87,67,.52,1.16,2.19.2,1.68-1-5.61-12.83-10.25-26-14.89-39.25a1349.57,1349.57,0,0,0-54.46-133.67Z" fill="#161616"/><path d="M318.2,102.54c-.45,2.64.91,4.7,2.26,7.09,2.39,4.19-.13.9,5.93,13.34,3,6.06,4.06,7.93,3.67,8.25-.71.45-6.18-3.35-9.92-9.09-1-1.54-2.19-3.8-4.51-4.25a5.61,5.61,0,0,0-3.42.58,59.18,59.18,0,0,0,5.09,16.43c5.48,11.67,13.47,18.82,19.53,24.11a91.54,91.54,0,0,0,11.6,8.76c10.76,22.5,19.14,41.64,25.2,55.82,15.21,35.83,26,65.28,34.29,88.16,4.57,12.7,8.25,23.21,10.76,30.36,5-6.12,10-12.31,15-18.43q-30.94-65.16-61.81-130.39a302.66,302.66,0,0,0-18.69-37.12c-13.4-22.56-18.69-24.49-24.94-41.12-2.06-5.41-5.61-16.24-8.25-15.85C318.91,99.38,318.2,101.38,318.2,102.54Z" fill="#1e0a32" opacity="0.1" style="isolation:isolate"/><path d="M336.7,158.74a84.55,84.55,0,0,0,11.6,9.35c13.15,27.52,26.23,57.1,38.87,88.74,11.73,29.46,22,57.88,30.87,85,3.09-4.06,6.25-8.12,9.34-12.18-6.83-13.53-12-24.81-15.27-32.29-6-13.66-27.07-62.77-44.79-108-1.94-4.83-5.16-13.14-12.51-21.52-5.41-6.19-11.86-11.09-17.85-15.6-5.22-4-9.8-7-13-9.09A83.13,83.13,0,0,0,336.7,158.74Z" fill="#1e0a32" opacity="0.13" style="isolation:isolate"/></g><g id="torso"><path d="M472.05,319.48a144.38,144.38,0,0,1-23.08-12,102.29,102.29,0,0,0-9,6.9,98.12,98.12,0,0,0-22.17,28.16c-6.51,12.38-8.7,22.82-10.5,31.77a147.38,147.38,0,0,0-3,26.69q-2.12,12.94-3.86,26.68-2,16.14-3.29,31.19a70.25,70.25,0,0,0,19.21,18.89c5,3.28,12.18,8,22.75,9.6,4.77.77,13.92,2.06,24-2.39a37.78,37.78,0,0,0,12.57-9,216.37,216.37,0,0,1,2.13-30.3c.77-5.34,1.67-10.44,2.7-15.27,6.45-9,11.86-16.18,15.6-20.95,8.89-11.4,14.05-17.08,20.69-27.58,3.74-5.93,6.44-10.89,8.12-14.11-1.1-2.45-2.64-5.81-4.77-9.61a82.52,82.52,0,0,0-11.66-17.08,71.59,71.59,0,0,0-13.22-11.4C487.19,324.38,482.36,323.73,472.05,319.48Z" fill="#fff"/><path d="M523.93,368.07c.26,1.16,2.13.71,1.8-.58-2.06-7.92-7.67-15.14-12.63-21.52a82.33,82.33,0,0,0-18-17.47c-1-.71-2,1-1,1.68a81,81,0,0,1,17.47,17c4.77,6.19,10.31,13.28,12.31,20.88Z" fill="#161616"/><path d="M525.35,368.72a1,1,0,0,0-1.68-1,378.82,378.82,0,0,1-46.53,64.51c-.84.91.51,2.26,1.35,1.36a380.77,380.77,0,0,0,46.86-64.9Z" fill="#161616"/><path d="M470.82,320.38c1,.71,2-1,1-1.68a81.2,81.2,0,0,0-24-11.53,1,1,0,0,0-.52,1.87,79,79,0,0,1,23.59,11.34Z" fill="#161616"/><path d="M448.84,309.55c1-.71,0-2.38-1-1.67-31.39,21.85-45.05,60-43.51,97.19.07,1.22,2,1.22,1.94,0C404.83,368.65,418,331,448.84,309.55Z" fill="#161616"/><path d="M482.68,429.82c.52-1.16-1.09-2.13-1.67-1-3.16,6.58-3.68,14.31-4.45,21.47a208,208,0,0,0-1.29,25.45,1,1,0,0,0,1.93,0,227.72,227.72,0,0,1,1-22.94c.71-7.48,1.1-16.05,4.45-22.94Z" fill="#161616"/><path d="M476,476.09c.77-1-.58-2.32-1.29-1.35C465.21,486.4,449,489.43,435,485.5a64.54,64.54,0,0,1-20.56-10.44c-6.38-4.71-12.44-10.18-16.05-17.34-.58-1.09-2.26-.13-1.68,1,3.74,7.48,10.06,13.15,16.7,18.05a65,65,0,0,0,22,10.89c14.37,3.67,30.87.32,40.54-11.54Z" fill="#161616"/><path d="M405.6,402.17c.19-1.23-1.68-1.74-1.87-.52-3.16,19-6.25,38.09-7.41,57.36-.07,1.23,1.87,1.23,1.93,0,1.1-19.08,4.19-38,7.35-56.84Z" fill="#161616"/><path d="M448.33,307.88a115.83,115.83,0,0,0-16.18,15.59A120.07,120.07,0,0,0,408,369.88a121.59,121.59,0,0,0-4.12,34.93c-2.13,18-4.26,36-6.38,54A67.95,67.95,0,0,0,427.71,484a276.89,276.89,0,0,1-.65-59.1c1.81-19.14,4.19-41.63,16.18-67.67a172.4,172.4,0,0,1,25.13-39.38C461.67,314.52,455,311.23,448.33,307.88Z" fill="#1e0a32" opacity="0.13" style="isolation:isolate"/><path d="M410.17,364.46c-2.25,7.42-3.48,11.41-4.12,17.47-.84,7.6-.06,11.54-1.61,20.69a98.08,98.08,0,0,1-2.26,9.86c-2.06,7.6-4.25,21.07-5.09,47a58.14,58.14,0,0,0,10.51,11.15,61.56,61.56,0,0,0,10.82,7,230.69,230.69,0,0,1-7-64.52,419.85,419.85,0,0,1,4.77-46.4c2.58-15.53,5.29-26,4.13-26.36S413.59,353.31,410.17,364.46Z" fill="#1e0a32" opacity="0.14" style="isolation:isolate"/></g><g id="head"><path d="M460.12,259.73a6.66,6.66,0,0,0-4.06.32c-3.74,1.75-4,6.9-4.06,7.8a11.58,11.58,0,0,0,5.42,10.51,10.74,10.74,0,0,0,4.7,1.35c2.32,12.57,5.67,18.89,8.44,22.3a23.91,23.91,0,0,1,4.39,7.8,22.09,22.09,0,0,1,1,8.12c-.9,10.38-12,16.44-12.83,16.89-8.83,4.7-17.66,2.51-20.94,1.67-1.81-.45-16-4.25-22.3-17.27-6.06-12.63-.58-25.84,2.7-33.84,6.77-16.37,14.12-15.34,21.66-32.8,6-13.86,2.45-16.89,9.15-26.75,2.26-3.35,11.67-17.27,26.36-17.27a26.94,26.94,0,0,1,13.86,4.06,31,31,0,0,1,19.59.64c9.86,3.87,14.57,12.12,16.89,16.25,6,10.5,3.22,15.33,8.44,29.06,3.93,10.38,6.31,9.67,11.47,20.3s13.66,28.3,7.09,46c-5.41,14.7-18.37,21.4-21,22.69-4.77,2.38-17.78,8.76-29.77,2.38-6.9-3.67-14.18-12-13.54-22a21.58,21.58,0,0,1,4.71-11.86,44,44,0,0,0,9.28-5.87c6.83-5.67,10.25-12.18,12.5-16.56a63.11,63.11,0,0,0,3.61-8.51,7.46,7.46,0,0,0,4.64-.26c1.68-.71,2.71-1.93,4.32-3.93a16,16,0,0,0,2.45-3.54c1.22-2.84,1.16-7.67-2-10.12a7.8,7.8,0,0,0-5.73-1.36,60.26,60.26,0,0,0-30.42-42.27C484.16,235.69,472.11,247.62,460.12,259.73Z" fill="#5a14d2"/><path d="M490.41,227.38c-6.38,4.51-10.18,8.89-16.17,15.92-7,8-11.93,13.92-14.57,17.08a4.09,4.09,0,0,0-3-1.42c-1.93.19-2.9,2.45-3.48,3.67-2.45,5.48.26,11,.45,11.35a9.44,9.44,0,0,0,4.64,4.83,9,9,0,0,0,4.64.45,40,40,0,0,0,4.19,17.34,37.66,37.66,0,0,0,6.45,9.21c0,2.07-.07,4.32-.26,6.71a58.32,58.32,0,0,1-2.77,13.4,20.33,20.33,0,0,0,13.66,6,19.18,19.18,0,0,0,8.77-2.07,22.54,22.54,0,0,1,.71-6.44,23.71,23.71,0,0,1,3.22-7.41,36.25,36.25,0,0,0,10.63-6.45c5.48-4.77,8.32-10.12,11.35-15.92a77.66,77.66,0,0,0,4.19-9.21,8.37,8.37,0,0,0,5.28-.45,9.5,9.5,0,0,0,4.64-5.1,11.12,11.12,0,0,0,1.16-7.15c-.26-1.48-.77-4.45-3.22-5.54a5.34,5.34,0,0,0-3.93,0,36.75,36.75,0,0,0-.9-4.19,62.91,62.91,0,0,0-14.57-26.1,66.46,66.46,0,0,0-15.27-12.25C494.8,224.48,492.73,225.7,490.41,227.38Z" fill="#fff"/><path d="M495.76,291c-3.41-.51-7.41-1.16-11.27-3.8-2.2-1.55-3.16-2.84-4.19-2.45-1.36.58-1.55,4.06-.84,6.57a11.71,11.71,0,0,0,4.7,6.06,14.6,14.6,0,0,0,9.86,2.45,13.71,13.71,0,0,0,7.29-2.58c1.41-1.09,4.44-3.74,3.8-5.22C504.46,290.73,501.56,291.89,495.76,291Z"/><path d="M525.54,277.13c.32-1.22-1.55-1.74-1.8-.58-2.07,8.51-5.16,16.83-10.19,24s-12.82,15-22.3,14.57c-9-.39-16.3-7.93-20.75-15.08a45.46,45.46,0,0,1-6.77-25.33c.07-1.23-1.87-1.23-1.93,0a47.18,47.18,0,0,0,7.86,27.65c4.64,7,11.8,13.79,20.56,14.63,9.48.9,17.6-5.87,23.07-12.89,6.19-7.86,9.93-17.34,12.25-27Z" fill="#161616"/><path d="M498.15,316.13a1,1,0,0,0-1.68-1,26.61,26.61,0,0,0-4.32,14.57,1,1,0,0,0,1.94,0,24.18,24.18,0,0,1,4.06-13.6Z" fill="#161616"/><path d="M493.19,330.5c1.09-.58.12-2.26-1-1.68a16.1,16.1,0,0,1-20.75-4.19c-.78-1-2.45,0-1.68,1a18.13,18.13,0,0,0,23.4,4.9Z" fill="#161616"/><path d="M474.62,307.49a1,1,0,1,0-1.93,0,56.9,56.9,0,0,1-2.77,16.76c-.39,1.16,1.48,1.67,1.87.51a56.18,56.18,0,0,0,2.83-17.27Z" fill="#161616"/><path d="M523.61,283.26c-.84-.91-2.19.45-1.42,1.35,4.38,4.71,10.89-3.16,12.31-7,1.8-4.71.71-14.11-6.38-12.25a1,1,0,0,0,.51,1.87c5.74-1.54,5.16,7.16,3.87,10.19a12.32,12.32,0,0,1-3,4.31,8.25,8.25,0,0,1-2.07,1.55c-1,.52-3,.84-3.86-.06Z" fill="#161616"/><path d="M458.83,260.7a1,1,0,0,0,1.87-.58c-.64-2.06-3-2.32-4.77-1.35-2.77,1.54-3.93,5.28-4.25,8.18-.71,6.64,3.48,14.76,11.28,12.76a1,1,0,0,0-.52-1.87c-4.83,1.23-8.31-3-8.83-7.34a13.22,13.22,0,0,1,.71-6.51c.39-.91,3.74-5.87,4.51-3.29Z" fill="#161616"/><path d="M516.71,247c.58,1.09,2.26.13,1.68-1a15.51,15.51,0,0,0-11.54-8.25c-1.23-.19-1.74,1.68-.52,1.87A13.71,13.71,0,0,1,516.71,247Z" fill="#161616"/><path d="M486.93,237.11a1,1,0,0,0,.52-1.87A13.7,13.7,0,0,0,472,242.46c-.51,1.1,1.1,2.06,1.68,1a11.78,11.78,0,0,1,13.27-6.32Z" fill="#161616"/><path d="M501,245c.2-1.23-1.67-1.74-1.86-.45a75,75,0,0,0-1.23,17.08c.13,2.51.45,5,.77,7.47.39,2.71.2,3.29-1.61,5.16-1.16,1.22-2.32,2.38-3.48,3.61-.9.9.52,2.25,1.36,1.35,1.74-1.8,4.51-3.8,5.54-6.12,1-2.13-.07-5.16-.32-7.28A75.19,75.19,0,0,1,501,245Z" fill="#161616"/><path d="M509.11,261.6c-.65,1,1,2,1.48.9,1.48-2.45,2.38-6.44.77-9.15a1.92,1.92,0,0,0-2.58-.9c-1.16.71-1.35,2.58-1.54,3.8-.26,1.55-1.23,7.87,2,7.22a2.13,2.13,0,0,0,1.68-2.06,42.47,42.47,0,0,0-.06-6.38c0-1-1.68-1.36-1.87-.26a37.4,37.4,0,0,0-.58,6.57,1,1,0,0,0,1.93,0v-.77a1,1,0,0,0-1.93,0v.77h1.93a36.78,36.78,0,0,1,.52-6c-.58-.07-1.23-.2-1.87-.26.06,1.87.19,3.74.13,5.61,0,1.28-.07-.84-.07-1.1a18.66,18.66,0,0,1,.19-2.58,12.59,12.59,0,0,1,.58-2.51c.33.06.58,1.74.58,2.12a8.22,8.22,0,0,1-1.28,5Z" fill="#161616"/><path d="M479.33,258.19c-.65,1.09,1,2.06,1.48.9,1.48-2.45,2.39-6.45.78-9.15A1.91,1.91,0,0,0,479,249c-1.16.71-1.36,2.58-1.55,3.81-.26,1.54-1.22,7.86,2,7.21a2.12,2.12,0,0,0,1.67-2.06,42.47,42.47,0,0,0-.06-6.38c0-1-1.68-1.35-1.87-.26a37.59,37.59,0,0,0-.58,6.58,1,1,0,0,0,1.93,0v-.78a1,1,0,0,0-1.93,0v.78h1.93a38.12,38.12,0,0,1,.52-6.06c-.58-.06-1.23-.19-1.87-.26.06,1.87.19,3.74.13,5.61,0,1.29-.07-.84-.07-1.1a17.11,17.11,0,0,1,.2-2.57A11.43,11.43,0,0,1,480,251c.32.07.58,1.74.58,2.13a8.18,8.18,0,0,1-1.29,5Z" fill="#161616"/><path d="M518.64,267.53a1,1,0,0,0,0-1.93,1,1,0,0,0,0,1.93Z" fill="#161616"/><path d="M511,269a1,1,0,0,0,1-1,1,1,0,0,0-1-1h-.26a1,1,0,1,0,0,1.93Z" fill="#161616"/><path d="M515.55,274.88a1,1,0,0,0,0-1.94,1,1,0,0,0,0,1.94Z" fill="#161616"/><path d="M478.94,266.56a1,1,0,0,0,1-1,1,1,0,0,0-1-1h-.26a1,1,0,0,0,0,1.93Z" fill="#161616"/><path d="M471.85,261.8a1,1,0,0,0,0-1.94,1,1,0,0,0,0,1.94Z" fill="#161616"/><path d="M472.82,267a1.05,1.05,0,0,0,1-1,1,1,0,0,0-1-1h-.26a1,1,0,0,0,0,1.94Z" fill="#161616"/><path d="M503.5,293.5c-.71,1,1,2,1.74,1,1.74-2.45,3.67-6,1.29-8.76-2.65-3.1-6.64-.58-9.93-.84-4.45-.32-7.47-5-12.11-4.51-2.84.32-4.84,2.57-5.68,5.22-4.83,15.79,22.75,21.07,27.2,6.83.39-1.23-1.48-1.68-1.87-.52-3.61,11.6-26.94,7.87-23.65-5.35,1.16-4.83,5.48-4.64,9.15-2.57a27.33,27.33,0,0,0,4.71,2.44c2.06.65,3.8.26,5.93-.06,1.74-.26,4.38-.58,5.22,1.61.7,1.94-1,4.06-2,5.54Z" fill="#161616"/><path d="M507.24,289.83c.45-1.16-1.42-1.67-1.94-.45-1,2.84-10.89.64-12.76.13a29.79,29.79,0,0,1-11.47-6.06c-1-.84-2.32.58-1.35,1.35a32.51,32.51,0,0,0,15.92,7.29c3.09.45,10.18,1.67,11.6-2.26Z" fill="#161616"/><path d="M495.76,318.12a1,1,0,0,0-.51-1.86c-6.58,1.67-15.92-2.71-19.66-8.19-.71-1-2.38-.06-1.67,1,4.25,6.25,14.3,11,21.84,9.08Z" fill="#161616"/><path d="M495.06,318.7a.94.94,0,1,0-1-1.61c-5.74,3.55-15.6-2.06-18.31-7.47-.58-1.1-2.25-.13-1.67,1,3.22,6.38,14.24,12.31,20.95,8.12Z" fill="#161616"/><path d="M460.06,259.67c-3.48-.26-5.29,1.09-5.8,1.55-3.61,3-2.58,9.6-.26,13.27a9.16,9.16,0,0,0,5.41,4.45,9,9,0,0,0,3.68.13,48.19,48.19,0,0,0,1,8.57c2.19,10,6.12,10.89,7.86,19.66.58,3,.32,7.47-.26,16.3a12.33,12.33,0,0,1-1.35,5.29c-1,1.8-2.9,3.28-6.32,5.28-9.08,5.29-18.75,3-22,2.26a34.23,34.23,0,0,1-12.76-5.93c-2.07-1.55-9-7-11.28-16.56a32.77,32.77,0,0,1-.26-13,65.27,65.27,0,0,1,1.93-7.42c3.48-11.79,6-15.14,7-16.3a30,30,0,0,1,3.74-3.74c-1.8,9.67,1.68,19.08,8.83,23.72,7.74,5,20.05,4.45,24-1.42a8.69,8.69,0,0,0,1.35-4.12,53.56,53.56,0,0,1,4.25,7.6c1.68,3.67,3.36,7.35,3.94,11.86A27.52,27.52,0,0,1,470.18,326c2.19,1.42,4.32,2.77,6.51,4.19.25-5.74.45-11.48.71-17.21a41.19,41.19,0,0,0,5.8,1.87,54.63,54.63,0,0,0,11.4,1.61c-10.11-2.84-15.59-7.86-18.17-10.7-12-13.21-10.44-33.06-9.54-44.92a104.46,104.46,0,0,1,1.42-10.44C465.47,253.48,462.7,256.57,460.06,259.67Z" fill="#1e0a32" opacity="0.2" style="isolation:isolate"/><path d="M497.63,274.23a13.5,13.5,0,0,1-3.67,4.19c-.84-.64-1.61-1.22-2.45-1.93s-1.74-1.48-2.58-2.26c3.29-1,6.64-2,9.93-3A10.68,10.68,0,0,1,497.63,274.23Z" fill="#1e0a32" opacity="0.13" style="isolation:isolate"/><path d="M556.73,294.66c2,7.29,4.77,17.28,1.16,28.36a38.9,38.9,0,0,1-8.57,14.18c-2.38,2.64-15.92,17.92-33.38,15.6a27.26,27.26,0,0,1-15.34-7,25.06,25.06,0,0,1-6.9-11.47,22.31,22.31,0,0,1-.58-8.76,21.49,21.49,0,0,1,4.45-10.19A38,38,0,0,0,512.2,305.3c5.09-5.74,7.28-11.8,9.47-18.05a79.31,79.31,0,0,0,3.16-11.73,4.72,4.72,0,0,0,2.13,5.42c1.74.77,4.44-1.68,6.31-3.61a14.51,14.51,0,0,1-3.09,7.15,15.37,15.37,0,0,1-3.67,3.22,70.14,70.14,0,0,0-9.86,22.05c-1.49,5.93-1.1,7.86-.71,8.95,2.77,8.45,17.66,13.28,25.91,9.87,10.5-4.39,15.72-24.43,8.7-49.24A72.3,72.3,0,0,1,556.73,294.66Z" fill="#1e0a32" opacity="0.16" style="isolation:isolate"/></g></g></g></g></svg>