<svg xmlns="http://www.w3.org/2000/svg" viewBox="0 0 805.94 681"><g id="Camada_2" data-name="Camada 2"><g id="Camada_1-2" data-name="Camada 1"><path d="M457.55,531c87.29-19.51,152.58-97.31,152.58-190.48S544.84,169.53,457.55,150" fill="none" stroke="#b3b3b3" stroke-linecap="round" stroke-linejoin="round"/><path d="M534.47,607.91C636.6,562.13,707.79,459.66,707.79,340.5S636.6,118.87,534.47,73.09" fill="none" stroke="#b3b3b3" stroke-linecap="round" stroke-linejoin="round"/><path d="M607.07,680.5c118.41-67.1,198.37-194.18,198.37-340S725.48,67.6,607.07.5" fill="none" stroke="#b3b3b3" stroke-linecap="round" stroke-linejoin="round"/><path d="M348.4,531c-87.29-19.51-152.59-97.31-152.59-190.48s65.3-171,152.59-190.48" fill="none" stroke="#b3b3b3" stroke-linecap="round" stroke-linejoin="round"/><path d="M271.47,607.91C169.34,562.13,98.16,459.66,98.16,340.5S169.34,118.87,271.47,73.09" fill="none" stroke="#b3b3b3" stroke-linecap="round" stroke-linejoin="round"/><path d="M198.88,680.5C80.46,613.4.5,486.32.5,340.5S80.46,67.6,198.88.5" fill="none" stroke="#b3b3b3" stroke-linecap="round" stroke-linejoin="round"/><path d="M434.58,282.63V86.49a31.94,31.94,0,0,0-63.87,0V282.63a65.65,65.65,0,1,0,63.87,0Z" fill="none" stroke="#b3b3b3" stroke-linecap="round" stroke-linejoin="round"/><circle cx="402.65" cy="340.27" r="19.12" fill="none" stroke="#b3b3b3" stroke-linecap="round" stroke-linejoin="round"/><line x1="402.45" y1="157.44" x2="402.45" y2="321.15" fill="none" stroke="#b3b3b3" stroke-linecap="round" stroke-linejoin="round"/></g></g></svg>