<svg xmlns="http://www.w3.org/2000/svg" viewBox="0 0 681 681"><g id="Camada_2" data-name="Camada 2"><g id="Camada_1-2" data-name="Camada 1"><polyline points="433.23 508.78 433.23 408.55 41.71 408.55 41.71 495.05" fill="none" stroke="#b3b3b3" stroke-linecap="round" stroke-linejoin="round"/><rect x="82.92" y="529.39" width="309.09" height="48.08" transform="translate(474.94 1106.86) rotate(-180)" fill="none" stroke="#b3b3b3" stroke-linecap="round" stroke-linejoin="round"/><rect x="82.92" y="577.47" width="309.09" height="103.03" transform="translate(474.94 1257.97) rotate(-180)" fill="none" stroke="#b3b3b3" stroke-linecap="round" stroke-linejoin="round"/><rect x="0.5" y="495.05" width="82.42" height="185.45" fill="none" stroke="#b3b3b3" stroke-linecap="round" stroke-linejoin="round"/><rect x="392.02" y="508.78" width="82.42" height="171.72" fill="none" stroke="#b3b3b3" stroke-linecap="round" stroke-linejoin="round"/><rect x="543.13" y="514.14" width="137.37" height="103.03" fill="none" stroke="#b3b3b3" stroke-linecap="round" stroke-linejoin="round"/><line x1="635.85" y1="565.65" x2="587.77" y2="565.65" fill="none" stroke="#b3b3b3" stroke-linecap="round" stroke-linejoin="round"/><line x1="671.13" y1="680.5" x2="639.68" y2="617.17" fill="none" stroke="#b3b3b3" stroke-linecap="round" stroke-linejoin="round"/><line x1="545.76" y1="680.5" x2="577.21" y2="617.17" fill="none" stroke="#b3b3b3" stroke-linecap="round" stroke-linejoin="round"/><path d="M600.61,417.82c3-8.8,3.51-38.67-24-45.87-10.33-2.71-21.14-3.69-36.42-2.53,0,0,1.82,20.31,12.41,35.46C569,428.26,594.26,420.87,600.61,417.82Z" fill="none" stroke="#b3b3b3" stroke-linecap="round" stroke-miterlimit="10"/><path d="M624.26,424.94c-1.67-5.43-1.23-22.69,15.66-26.61,6.35-1.47,12.31-.22,22.27-.92,0,0,1.45,8.33-8.19,21.43C643.68,432.87,628.08,426.91,624.26,424.94Z" fill="none" stroke="#b3b3b3" stroke-linecap="round" stroke-miterlimit="10"/><path d="M612.45,465.76c-2.44-43.63,31.93-56.58,31.93-56.58" fill="none" stroke="#b3b3b3" stroke-linecap="round" stroke-miterlimit="10"/><path d="M576.75,391.09s34.31,19.51,35.66,74.27" fill="none" stroke="#b3b3b3" stroke-linecap="round" stroke-miterlimit="10"/><polygon points="576.7 465.76 646.93 465.76 631.37 514.14 592.25 514.14 576.7 465.76" fill="none" stroke="#b3b3b3" stroke-linecap="round" stroke-linejoin="round"/><line x1="642.57" y1="479.33" x2="581.06" y2="479.33" fill="none" stroke="#b3b3b3" stroke-linecap="round" stroke-miterlimit="10"/><rect x="41.71" y="0.5" width="206.06" height="343.43" transform="translate(289.48 344.43) rotate(-180)" fill="none" stroke="#b3b3b3" stroke-linecap="round" stroke-linejoin="round"/><rect x="62.32" y="21.11" width="164.85" height="302.22" transform="translate(289.48 344.43) rotate(-180)" fill="none" stroke="#b3b3b3" stroke-linecap="round" stroke-linejoin="round"/><polygon points="603.44 264.96 413.45 264.96 464.82 134.08 552.07 134.08 603.44 264.96" fill="none" stroke="#b3b3b3" stroke-linecap="round" stroke-linejoin="round"/><line x1="508.78" y1="265.89" x2="508.78" y2="666.76" fill="none" stroke="#b3b3b3" stroke-linecap="round" stroke-linejoin="round"/><polyline points="491.28 680.5 491.28 666.76 525.62 666.76 525.62 680.5" fill="none" stroke="#b3b3b3" stroke-linecap="round" stroke-linejoin="round"/><circle cx="359.27" cy="74.46" r="73.96" fill="none" stroke="#b3b3b3" stroke-linecap="round" stroke-miterlimit="10"/><line x1="359.27" y1="43.86" x2="359.27" y2="74.46" fill="none" stroke="#b3b3b3" stroke-linecap="round" stroke-miterlimit="10"/><line x1="392.02" y1="118.66" x2="359.27" y2="74.46" fill="none" stroke="#b3b3b3" stroke-linecap="round" stroke-miterlimit="10"/></g></g></svg>