<svg xmlns="http://www.w3.org/2000/svg" viewBox="0 0 681 681"><g id="Camada_2" data-name="Camada 2"><g id="Camada_1-2" data-name="Camada 1"><path d="M250.68,492.33H444.22a4.48,4.48,0,0,1,4.48,4.48V523.1a0,0,0,0,1,0,0H246.2a0,0,0,0,1,0,0V496.81a4.48,4.48,0,0,1,4.48-4.48Z" fill="none" stroke="#b3b3b3" stroke-linecap="round" stroke-linejoin="round"/><path d="M32.22,492.33H225.76a4.48,4.48,0,0,1,4.48,4.48V523.1a0,0,0,0,1,0,0H27.74a0,0,0,0,1,0,0V496.81A4.48,4.48,0,0,1,32.22,492.33Z" fill="none" stroke="#b3b3b3" stroke-linecap="round" stroke-linejoin="round"/><path d="M3.5,523.1H472.94a3,3,0,0,1,3,3v99.58a0,0,0,0,1,0,0H.5a0,0,0,0,1,0,0V526.1A3,3,0,0,1,3.5,523.1Z" fill="none" stroke="#b3b3b3" stroke-linecap="round" stroke-linejoin="round"/><line x1="475.94" y1="625.68" x2="475.94" y2="680.5" fill="none" stroke="#b3b3b3" stroke-linecap="round" stroke-linejoin="round"/><line x1="0.5" y1="625.68" x2="0.5" y2="680.5" fill="none" stroke="#b3b3b3" stroke-linecap="round" stroke-linejoin="round"/><path d="M.5,543.71V380.22a20.61,20.61,0,0,1,20.61-20.61H455.33a20.61,20.61,0,0,1,20.61,20.61V543.71" fill="none" stroke="#b3b3b3" stroke-linecap="round" stroke-linejoin="round"/><rect x="0.5" y="0.5" width="212.93" height="315.96" transform="translate(213.93 316.96) rotate(-180)" fill="none" stroke="#b3b3b3" stroke-linecap="round" stroke-linejoin="round"/><rect x="21.11" y="21.11" width="171.72" height="274.75" transform="translate(213.93 316.96) rotate(-180)" fill="none" stroke="#b3b3b3" stroke-linecap="round" stroke-linejoin="round"/><rect x="263.01" y="0.5" width="212.93" height="315.96" transform="translate(738.95 316.96) rotate(-180)" fill="none" stroke="#b3b3b3" stroke-linecap="round" stroke-linejoin="round"/><rect x="283.61" y="21.11" width="171.72" height="274.75" transform="translate(738.95 316.96) rotate(-180)" fill="none" stroke="#b3b3b3" stroke-linecap="round" stroke-linejoin="round"/><path d="M592.68,313.47h70.83c0-38.86-32-70.84-70.83-70.84s-70.84,32-70.84,70.84Z" fill="none" stroke="#b3b3b3" stroke-linecap="round" stroke-linejoin="round"/><line x1="592.68" y1="0.5" x2="592.68" y2="242.63" fill="none" stroke="#b3b3b3" stroke-linecap="round" stroke-linejoin="round"/><rect x="504.85" y="532.59" width="175.65" height="73.96" transform="translate(1185.35 1139.13) rotate(-180)" fill="none" stroke="#b3b3b3" stroke-linecap="round" stroke-linejoin="round"/><line x1="636.59" y1="569.57" x2="548.77" y2="569.57" fill="none" stroke="#b3b3b3" stroke-linecap="round" stroke-linejoin="round"/><rect x="504.85" y="606.54" width="175.65" height="73.96" transform="translate(1185.35 1287.04) rotate(-180)" fill="none" stroke="#b3b3b3" stroke-linecap="round" stroke-linejoin="round"/><line x1="636.59" y1="643.52" x2="548.77" y2="643.52" fill="none" stroke="#b3b3b3" stroke-linecap="round" stroke-linejoin="round"/><path d="M614.69,429.78c3.18-9.39,3.74-41.27-25.59-49-11-2.89-22.56-3.94-38.87-2.71,0,0,1.94,21.68,13.25,37.86C580.92,440.93,607.91,433,614.69,429.78Z" fill="none" stroke="#b3b3b3" stroke-linecap="round" stroke-linejoin="round"/><path d="M639.93,437.38c-1.78-5.79-1.31-24.22,16.72-28.4,6.77-1.57,13.14-.23,23.77-1,0,0,1.55,8.89-8.74,22.87C660.66,445.85,644,439.48,639.93,437.38Z" fill="none" stroke="#b3b3b3" stroke-linecap="round" stroke-linejoin="round"/><path d="M627.33,481c-2.61-46.57,34.08-60.39,34.08-60.39" fill="none" stroke="#b3b3b3" stroke-linecap="round" stroke-linejoin="round"/><path d="M589.23,401.25s36.62,20.83,38,79.28" fill="none" stroke="#b3b3b3" stroke-linecap="round" stroke-linejoin="round"/><polygon points="589.17 480.95 664.13 480.95 647.53 532.59 605.77 532.59 589.17 480.95" fill="none" stroke="#b3b3b3" stroke-linecap="round" stroke-linejoin="round"/><line x1="659.47" y1="495.43" x2="593.82" y2="495.43" fill="none" stroke="#b3b3b3" stroke-linecap="round" stroke-linejoin="round"/><rect x="515.77" y="511.98" width="61.82" height="20.61" transform="translate(1093.36 1044.57) rotate(-180)" fill="none" stroke="#b3b3b3" stroke-linecap="round" stroke-linejoin="round"/><rect x="525.79" y="491.38" width="51.79" height="20.61" transform="translate(1103.38 1003.36) rotate(-180)" fill="none" stroke="#b3b3b3" stroke-linecap="round" stroke-linejoin="round"/></g></g></svg>