<svg xmlns="http://www.w3.org/2000/svg" viewBox="0 0 680.85 680.85"><g id="Camada_2" data-name="Camada 2"><g id="Camada_1-2" data-name="Camada 1"><polyline points="51.49 680.35 51.49 340.43 629.36 340.43 629.36 680.35" fill="none" stroke="#b3b3b3" stroke-linecap="round" stroke-linejoin="round"/><polyline points="51.49 340.43 51.49 102.48 629.36 102.48 629.36 340.43" fill="none" stroke="#b3b3b3" stroke-linecap="round" stroke-linejoin="round"/><rect x="0.5" y="0.5" width="679.85" height="679.85" fill="none" stroke="#b3b3b3" stroke-linecap="round" stroke-linejoin="round"/><path d="M140.59,70.19h-34a34,34,0,1,1,68,0Z" fill="none" stroke="#b3b3b3" stroke-linecap="round" stroke-linejoin="round"/><path d="M340.42,70.19h-34a34,34,0,1,1,68,0Z" fill="none" stroke="#b3b3b3" stroke-linecap="round" stroke-linejoin="round"/><path d="M540.26,70.19h-34a34,34,0,1,1,68,0Z" fill="none" stroke="#b3b3b3" stroke-linecap="round" stroke-linejoin="round"/><line x1="79.21" y1="142.14" x2="601.64" y2="142.14" fill="none" stroke="#b3b3b3" stroke-linecap="round" stroke-linejoin="round"/><line x1="79.21" y1="181.79" x2="601.64" y2="181.79" fill="none" stroke="#b3b3b3" stroke-linecap="round" stroke-linejoin="round"/><line x1="79.21" y1="221.45" x2="601.64" y2="221.45" fill="none" stroke="#b3b3b3" stroke-linecap="round" stroke-linejoin="round"/><line x1="79.21" y1="261.11" x2="601.64" y2="261.11" fill="none" stroke="#b3b3b3" stroke-linecap="round" stroke-linejoin="round"/><line x1="79.21" y1="300.77" x2="601.64" y2="300.77" fill="none" stroke="#b3b3b3" stroke-linecap="round" stroke-linejoin="round"/><line x1="51.49" y1="630.57" x2="174.59" y2="510.39" fill="none" stroke="#b3b3b3" stroke-linecap="round" stroke-linejoin="round"/><line x1="629.36" y1="630.57" x2="506.26" y2="510.39" fill="none" stroke="#b3b3b3" stroke-linecap="round" stroke-linejoin="round"/><line x1="174.59" y1="510.39" x2="506.26" y2="510.39" fill="none" stroke="#b3b3b3" stroke-linecap="round" stroke-linejoin="round"/><line x1="174.59" y1="340.42" x2="174.59" y2="510.39" fill="none" stroke="#b3b3b3" stroke-linecap="round" stroke-linejoin="round"/><rect x="390.69" y="340.42" width="115.57" height="169.96" fill="none" stroke="#b3b3b3" stroke-linecap="round" stroke-linejoin="round"/><line x1="416.37" y1="361.32" x2="433.26" y2="361.32" fill="none" stroke="#b3b3b3" stroke-linecap="round" stroke-linejoin="round"/><line x1="416.37" y1="378.45" x2="416.37" y2="383.23" fill="none" stroke="#b3b3b3" stroke-linecap="round" stroke-linejoin="round"/></g></g></svg>