<svg xmlns="http://www.w3.org/2000/svg" viewBox="0 0 681 681"><g id="Camada_2" data-name="Camada 2"><g id="Camada_1-2" data-name="Camada 1"><polygon points="0.5 378.72 111.14 378.72 81.22 302.5 30.41 302.5 0.5 378.72" fill="none" stroke="#b3b3b3" stroke-linecap="round" stroke-linejoin="round"/><line x1="55.62" y1="378.72" x2="55.62" y2="462.11" fill="none" stroke="#b3b3b3" stroke-linecap="round" stroke-linejoin="round"/><polyline points="88.69 481.31 88.69 462.11 22.95 462.11 22.95 481.31" fill="none" stroke="#b3b3b3" stroke-linecap="round" stroke-linejoin="round"/><polyline points="480.9 680.5 480.9 481.31 176.97 481.31" fill="none" stroke="#b3b3b3" stroke-linecap="round" stroke-linejoin="round"/><rect x="226.93" y="332.59" width="204" height="120.83" fill="none" stroke="#b3b3b3" stroke-linecap="round" stroke-linejoin="round"/><line x1="328.93" y1="453.42" x2="328.93" y2="481.31" fill="none" stroke="#b3b3b3" stroke-linecap="round" stroke-linejoin="round"/><rect x="543.13" y="514.14" width="137.37" height="103.03" transform="translate(1223.63 1131.3) rotate(180)" fill="none" stroke="#b3b3b3" stroke-linecap="round" stroke-linejoin="round"/><line x1="587.77" y1="565.65" x2="635.85" y2="565.65" fill="none" stroke="#b3b3b3" stroke-linecap="round" stroke-linejoin="round"/><line x1="552.5" y1="680.5" x2="583.95" y2="617.17" fill="none" stroke="#b3b3b3" stroke-linecap="round" stroke-linejoin="round"/><line x1="677.87" y1="680.5" x2="646.41" y2="617.17" fill="none" stroke="#b3b3b3" stroke-linecap="round" stroke-linejoin="round"/><path d="M619.81,417.82c-3-8.8-3.51-38.67,24-45.87,10.32-2.71,21.13-3.69,36.41-2.53,0,0-1.82,20.31-12.41,35.46C651.45,428.26,626.16,420.87,619.81,417.82Z" fill="none" stroke="#b3b3b3" stroke-linecap="round" stroke-linejoin="round"/><path d="M596.16,424.94c1.67-5.43,1.24-22.69-15.66-26.61-6.35-1.47-12.31-.22-22.27-.92,0,0-1.45,8.33,8.19,21.43C576.74,432.87,592.34,426.91,596.16,424.94Z" fill="none" stroke="#b3b3b3" stroke-linecap="round" stroke-linejoin="round"/><path d="M608,465.76c2.45-43.63-31.93-56.58-31.93-56.58" fill="none" stroke="#b3b3b3" stroke-linecap="round" stroke-linejoin="round"/><path d="M643.67,391.09S609.36,410.6,608,465.36" fill="none" stroke="#b3b3b3" stroke-linecap="round" stroke-linejoin="round"/><polygon points="643.72 465.76 573.49 465.76 589.05 514.14 628.17 514.14 643.72 465.76" fill="none" stroke="#b3b3b3" stroke-linecap="round" stroke-linejoin="round"/><line x1="577.86" y1="479.33" x2="639.36" y2="479.33" fill="none" stroke="#b3b3b3" stroke-linecap="round" stroke-linejoin="round"/><rect x="0.5" y="481.31" width="176.47" height="66.4" fill="none" stroke="#b3b3b3" stroke-linecap="round" stroke-linejoin="round"/><line x1="54.74" y1="514.51" x2="122.74" y2="514.51" fill="none" stroke="#b3b3b3" stroke-linecap="round" stroke-linejoin="round"/><rect x="0.5" y="547.71" width="176.47" height="66.4" fill="none" stroke="#b3b3b3" stroke-linecap="round" stroke-linejoin="round"/><line x1="54.74" y1="580.9" x2="122.74" y2="580.9" fill="none" stroke="#b3b3b3" stroke-linecap="round" stroke-linejoin="round"/><rect x="0.5" y="614.1" width="176.47" height="66.4" fill="none" stroke="#b3b3b3" stroke-linecap="round" stroke-linejoin="round"/><line x1="54.74" y1="647.3" x2="122.74" y2="647.3" fill="none" stroke="#b3b3b3" stroke-linecap="round" stroke-linejoin="round"/><rect x="142.63" y="398.88" width="34.34" height="82.42" fill="none" stroke="#b3b3b3" stroke-linecap="round" stroke-linejoin="round"/><circle cx="159.8" cy="458.73" r="6.87" fill="none" stroke="#b3b3b3" stroke-linecap="round" stroke-linejoin="round"/><rect x="108.29" y="398.88" width="34.34" height="82.42" fill="none" stroke="#b3b3b3" stroke-linecap="round" stroke-linejoin="round"/><circle cx="125.46" cy="458.73" r="6.87" fill="none" stroke="#b3b3b3" stroke-linecap="round" stroke-linejoin="round"/><line x1="460.7" y1="117.27" x2="0.5" y2="117.27" fill="none" stroke="#b3b3b3" stroke-linecap="round" stroke-linejoin="round"/><line x1="680.5" y1="259.78" x2="220.3" y2="259.78" fill="none" stroke="#b3b3b3" stroke-linecap="round" stroke-linejoin="round"/><rect x="77.8" y="0.5" width="27.47" height="116.77" fill="none" stroke="#b3b3b3" stroke-linecap="round" stroke-linejoin="round"/><rect x="77.8" y="0.5" width="27.47" height="116.77" fill="none" stroke="#b3b3b3" stroke-linecap="round" stroke-linejoin="round"/><rect x="22.85" y="14.24" width="27.47" height="103.03" fill="none" stroke="#b3b3b3" stroke-linecap="round" stroke-linejoin="round"/><rect x="105.27" y="34.84" width="27.47" height="82.42" fill="none" stroke="#b3b3b3" stroke-linecap="round" stroke-linejoin="round"/><rect x="50.33" y="21.11" width="27.47" height="96.16" fill="none" stroke="#b3b3b3" stroke-linecap="round" stroke-linejoin="round"/><rect x="173.96" y="48.58" width="27.47" height="68.69" fill="none" stroke="#b3b3b3" stroke-linecap="round" stroke-linejoin="round"/><rect x="201.44" y="34.84" width="27.47" height="82.42" fill="none" stroke="#b3b3b3" stroke-linecap="round" stroke-linejoin="round"/><circle cx="347.65" cy="87.65" r="29.62" fill="none" stroke="#b3b3b3" stroke-linecap="round" stroke-linejoin="round"/><circle cx="403.25" cy="101.18" r="16.09" fill="none" stroke="#b3b3b3" stroke-linecap="round" stroke-linejoin="round"/><rect x="528.12" y="156.75" width="27.47" height="103.03" fill="none" stroke="#b3b3b3" stroke-linecap="round" stroke-linejoin="round"/><rect x="555.59" y="177.35" width="27.47" height="82.42" fill="none" stroke="#b3b3b3" stroke-linecap="round" stroke-linejoin="round"/><rect x="583.07" y="191.09" width="27.47" height="68.69" fill="none" stroke="#b3b3b3" stroke-linecap="round" stroke-linejoin="round"/><rect x="610.54" y="163.62" width="27.47" height="96.16" fill="none" stroke="#b3b3b3" stroke-linecap="round" stroke-linejoin="round"/><rect x="480.04" y="184.22" width="27.47" height="68.69" transform="translate(712.34 -275.21) rotate(90)" fill="none" stroke="#b3b3b3" stroke-linecap="round" stroke-linejoin="round"/><rect x="473.17" y="204.83" width="27.47" height="82.42" transform="translate(240.87 732.95) rotate(-90)" fill="none" stroke="#b3b3b3" stroke-linecap="round" stroke-linejoin="round"/><rect x="267.56" y="174.4" width="72.94" height="85.37" fill="none" stroke="#b3b3b3" stroke-linecap="round" stroke-linejoin="round"/><rect x="356.63" y="200.23" width="50.87" height="59.55" fill="none" stroke="#b3b3b3" stroke-linecap="round" stroke-linejoin="round"/><rect x="228.91" y="41.71" width="27.47" height="75.56" fill="none" stroke="#b3b3b3" stroke-linecap="round" stroke-linejoin="round"/></g></g></svg>