<svg xmlns="http://www.w3.org/2000/svg" viewBox="0 0 681 681"><g id="Camada_2" data-name="Camada 2"><g id="Camada_1-2" data-name="Camada 1"><path d="M7.37,563.73H144.74a0,0,0,0,1,0,0v44.19a3.89,3.89,0,0,1-3.89,3.89H11.26a3.89,3.89,0,0,1-3.89-3.89V563.73A0,0,0,0,1,7.37,563.73Z" fill="none" stroke="#b3b3b3" stroke-linecap="round" stroke-linejoin="round"/><rect x="52.02" y="611.81" width="48.08" height="68.69" fill="none" stroke="#b3b3b3" stroke-linecap="round" stroke-linejoin="round"/><rect x="0.5" y="543.13" width="151.11" height="20.61" fill="none" stroke="#b3b3b3" stroke-linecap="round" stroke-linejoin="round"/><path d="M17.67,440.1H134.44a0,0,0,0,1,0,0v99.14a3.89,3.89,0,0,1-3.89,3.89h-109a3.89,3.89,0,0,1-3.89-3.89V440.1A0,0,0,0,1,17.67,440.1Z" transform="translate(152.11 983.22) rotate(180)" fill="none" stroke="#b3b3b3" stroke-linecap="round" stroke-linejoin="round"/><line x1="62.32" y1="459.2" x2="89.79" y2="459.2" fill="none" stroke="#b3b3b3" stroke-linecap="round" stroke-linejoin="round"/><polyline points="564.95 473.03 680.5 473.03 680.5 574.53 250.2 574.53 250.2 473.03 365.75 473.03" fill="none" stroke="#b3b3b3" stroke-linecap="round" stroke-linejoin="round"/><rect x="365.76" y="442.62" width="199.19" height="61.82" fill="none" stroke="#b3b3b3" stroke-linecap="round" stroke-linejoin="round"/><path d="M440.68,392.59a24.71,24.71,0,0,1,24.67-24.74h0A24.71,24.71,0,0,1,490,392.59v49.26" fill="none" stroke="#b3b3b3" stroke-linecap="round" stroke-linejoin="round"/><circle cx="465.35" cy="168.78" r="168.28" fill="none" stroke="#b3b3b3" stroke-linecap="round" stroke-linejoin="round"/><ellipse cx="465.35" cy="168.78" rx="149.16" ry="148.73" fill="none" stroke="#b3b3b3" stroke-linecap="round" stroke-linejoin="round"/><path d="M628.89,392.42c2.49-7.37,2.94-32.37-20.06-38.4-8.65-2.27-17.7-3.09-30.49-2.12,0,0,1.53,17,10.39,29.69C602.41,401.16,623.58,395,628.89,392.42Z" fill="none" stroke="#b3b3b3" stroke-linecap="round" stroke-linejoin="round"/><path d="M648.69,398.37c-1.4-4.54-1-19,13.11-22.27,5.31-1.23,10.3-.18,18.64-.77,0,0,1.21,7-6.86,17.94C664.94,405,651.88,400,648.69,398.37Z" fill="none" stroke="#b3b3b3" stroke-linecap="round" stroke-linejoin="round"/><path d="M638.8,432.54c-2-36.52,26.73-47.36,26.73-47.36" fill="none" stroke="#b3b3b3" stroke-linecap="round" stroke-linejoin="round"/><path d="M608.92,370s28.72,16.33,29.85,62.17" fill="none" stroke="#b3b3b3" stroke-linecap="round" stroke-linejoin="round"/><polygon points="608.88 432.54 667.66 432.54 654.64 473.03 621.9 473.03 608.88 432.54" fill="none" stroke="#b3b3b3" stroke-linecap="round" stroke-linejoin="round"/><line x1="664.01" y1="443.9" x2="612.53" y2="443.9" fill="none" stroke="#b3b3b3" stroke-linecap="round" stroke-linejoin="round"/><rect x="262.44" y="321.42" width="61.82" height="89.29" fill="none" stroke="#b3b3b3" stroke-linecap="round" stroke-linejoin="round"/><line x1="262.44" y1="387.82" x2="324.26" y2="387.82" fill="none" stroke="#b3b3b3" stroke-linecap="round" stroke-linejoin="round"/><line x1="262.44" y1="373.1" x2="324.26" y2="373.1" fill="none" stroke="#b3b3b3" stroke-linecap="round" stroke-linejoin="round"/><line x1="262.44" y1="334.28" x2="250.2" y2="334.28" fill="none" stroke="#b3b3b3" stroke-linecap="round" stroke-linejoin="round"/><line x1="336.49" y1="334.94" x2="324.26" y2="334.94" fill="none" stroke="#b3b3b3" stroke-linecap="round" stroke-linejoin="round"/><line x1="680.5" y1="680.5" x2="247.19" y2="680.5" fill="none" stroke="#b3b3b3" stroke-linecap="round" stroke-linejoin="round"/><line x1="130.19" y1="680.5" x2="21.92" y2="680.5" fill="none" stroke="#b3b3b3" stroke-linecap="round" stroke-linejoin="round"/><path d="M76.06,310.46H.5c0-41.45,34.11-75.55,75.56-75.55s75.55,34.1,75.55,75.55Z" fill="none" stroke="#b3b3b3" stroke-linecap="round" stroke-linejoin="round"/><line x1="76.06" y1="0.5" x2="76.06" y2="234.91" fill="none" stroke="#b3b3b3" stroke-linecap="round" stroke-linejoin="round"/></g></g></svg>