<svg xmlns="http://www.w3.org/2000/svg" viewBox="0 0 681 681"><g id="Camada_2" data-name="Camada 2"><g id="Camada_1-2" data-name="Camada 1"><path d="M85.31,680.5V554.71a34,34,0,0,1,34-34H220.94a34,34,0,0,0,34-34V160.31a34,34,0,0,1,34-34H680.5" fill="none" stroke="#b3b3b3" stroke-linecap="round" stroke-linejoin="round"/><path d="M.5,126.31H220.94a34,34,0,0,1,34,34h0" fill="none" stroke="#b3b3b3" stroke-linecap="round" stroke-linejoin="round"/><path d="M270.8,680.5V604a34,34,0,0,1,34-34H409.87a34.91,34.91,0,0,0,24.77-10.16L586.45,406.61a31.41,31.41,0,0,0,9.24-22.12v-165a31.54,31.54,0,0,0-11.15-23.9L435,66.69a35.07,35.07,0,0,0-22.86-8.38H.5" fill="none" stroke="#b3b3b3" stroke-linecap="round" stroke-linejoin="round"/><path d="M382.91.5V232.14a34,34,0,0,0,34,34h80.18c15.86,0,28.71,15.22,28.71,34V595.51c0,18.78-12.85,34-28.71,34H.5" fill="none" stroke="#b3b3b3" stroke-linecap="round" stroke-linejoin="round"/><line x1="680.5" y1="306.51" x2="595.69" y2="306.51" fill="none" stroke="#b3b3b3" stroke-linecap="round" stroke-linejoin="round"/><path d="M680.5,629.51H556.4a30.6,30.6,0,0,1-30.6-30.6h0" fill="none" stroke="#b3b3b3" stroke-linecap="round" stroke-linejoin="round"/><path d="M.5,272.09H158.44a34,34,0,0,1,20.83,7.12L353.41,414.14a34,34,0,0,0,20.82,7.12H680.5" fill="none" stroke="#b3b3b3" stroke-linecap="round" stroke-linejoin="round"/></g></g></svg>