<svg xmlns="http://www.w3.org/2000/svg" viewBox="0 0 681 681"><g id="Camada_2" data-name="Camada 2"><g id="Camada_1-2" data-name="Camada 1"><circle cx="227.17" cy="227.17" r="226.67" fill="none" stroke="#b3b3b3" stroke-linecap="round" stroke-linejoin="round"/><circle cx="453.83" cy="227.17" r="226.67" fill="none" stroke="#b3b3b3" stroke-linecap="round" stroke-linejoin="round"/><path d="M680.5,453.83c-125.18,0-226.67-101.48-226.67-226.66S555.32.5,680.5.5Z" fill="none" stroke="#b3b3b3" stroke-linecap="round" stroke-linejoin="round"/><path d="M.5.5C125.68.5,227.17,102,227.17,227.17S125.68,453.83.5,453.83Z" fill="none" stroke="#b3b3b3" stroke-linecap="round" stroke-linejoin="round"/><circle cx="227.17" cy="453.83" r="226.67" fill="none" stroke="#b3b3b3" stroke-linecap="round" stroke-linejoin="round"/><circle cx="453.83" cy="453.83" r="226.67" fill="none" stroke="#b3b3b3" stroke-linecap="round" stroke-linejoin="round"/><path d="M680.5,680.5C555.32,680.5,453.83,579,453.83,453.83S555.32,227.17,680.5,227.17Z" fill="none" stroke="#b3b3b3" stroke-linecap="round" stroke-linejoin="round"/><path d="M.5,227.17c125.18,0,226.67,101.48,226.67,226.66S125.68,680.5.5,680.5Z" fill="none" stroke="#b3b3b3" stroke-linecap="round" stroke-linejoin="round"/><path d="M.5,453.83c125.18,0,226.67,101.49,226.67,226.67H.5Z" fill="none" stroke="#b3b3b3" stroke-linecap="round" stroke-linejoin="round"/><path d="M680.5.5c0,125.18-101.48,226.67-226.67,226.67S227.17,125.68,227.17.5Z" fill="none" stroke="#b3b3b3" stroke-linecap="round" stroke-linejoin="round"/><path d="M453.83.5c0,125.18-101.48,226.67-226.66,226.67S.5,125.68.5.5Z" fill="none" stroke="#b3b3b3" stroke-linecap="round" stroke-linejoin="round"/><path d="M.5,680.5C.5,555.32,102,453.83,227.17,453.83S453.83,555.32,453.83,680.5Z" fill="none" stroke="#b3b3b3" stroke-linecap="round" stroke-linejoin="round"/><path d="M227.17,680.5c0-125.18,101.48-226.67,226.66-226.67S680.5,555.32,680.5,680.5Z" fill="none" stroke="#b3b3b3" stroke-linecap="round" stroke-linejoin="round"/><path d="M680.5,453.83c-125.18,0-226.67,101.49-226.67,226.67H680.5Z" fill="none" stroke="#b3b3b3" stroke-linecap="round" stroke-linejoin="round"/><path d="M453.83.5c0,125.18,101.49,226.67,226.67,226.67V.5Z" fill="none" stroke="#b3b3b3" stroke-linecap="round" stroke-linejoin="round"/><path d="M.5,227.17C125.68,227.17,227.17,125.68,227.17.5H.5Z" fill="none" stroke="#b3b3b3" stroke-linecap="round" stroke-linejoin="round"/></g></g></svg>