<svg xmlns="http://www.w3.org/2000/svg" viewBox="0 0 681 681"><g id="Camada_2" data-name="Camada 2"><g id="Camada_1-2" data-name="Camada 1"><rect x="0.5" y="0.5" width="206.06" height="473.94" fill="none" stroke="#b3b3b3" stroke-linecap="round" stroke-linejoin="round"/><rect x="21.11" y="21.11" width="164.85" height="432.73" fill="none" stroke="#b3b3b3" stroke-linecap="round" stroke-linejoin="round"/><line x1="49.44" y1="137.87" x2="49.44" y2="337.07" fill="none" stroke="#b3b3b3" stroke-linecap="round" stroke-linejoin="round"/><rect x="0.5" y="474.44" width="206.06" height="68.69" fill="none" stroke="#b3b3b3" stroke-linecap="round" stroke-linejoin="round"/><line x1="151.61" y1="508.78" x2="55.45" y2="508.78" fill="none" stroke="#b3b3b3" stroke-linecap="round" stroke-linejoin="round"/><rect x="0.5" y="611.81" width="206.06" height="68.69" fill="none" stroke="#b3b3b3" stroke-linecap="round" stroke-linejoin="round"/><line x1="151.61" y1="646.16" x2="55.45" y2="646.16" fill="none" stroke="#b3b3b3" stroke-linecap="round" stroke-linejoin="round"/><rect x="0.5" y="543.13" width="206.06" height="68.69" fill="none" stroke="#b3b3b3" stroke-linecap="round" stroke-linejoin="round"/><line x1="151.61" y1="577.47" x2="55.45" y2="577.47" fill="none" stroke="#b3b3b3" stroke-linecap="round" stroke-linejoin="round"/><line x1="209.95" y1="136.16" x2="680.5" y2="136.16" fill="none" stroke="#b3b3b3" stroke-linecap="round" stroke-linejoin="round"/><line x1="209.95" y1="271.81" x2="680.5" y2="271.81" fill="none" stroke="#b3b3b3" stroke-linecap="round" stroke-linejoin="round"/><line x1="209.95" y1="407.47" x2="680.5" y2="407.47" fill="none" stroke="#b3b3b3" stroke-linecap="round" stroke-linejoin="round"/><line x1="209.95" y1="543.13" x2="680.5" y2="543.13" fill="none" stroke="#b3b3b3" stroke-linecap="round" stroke-linejoin="round"/><polygon points="380.19 589.16 233.05 589.16 249.63 680.5 363.62 680.5 380.19 589.16" fill="none" stroke="#b3b3b3" stroke-linecap="round" stroke-linejoin="round"/><rect x="275.02" y="613.68" width="63.21" height="15.02" rx="1.09" fill="none" stroke="#b3b3b3" stroke-linecap="round" stroke-linejoin="round"/><polygon points="545.64 589.16 398.5 589.16 415.08 680.5 529.06 680.5 545.64 589.16" fill="none" stroke="#b3b3b3" stroke-linecap="round" stroke-linejoin="round"/><rect x="440.47" y="613.68" width="63.21" height="15.02" rx="1.09" fill="none" stroke="#b3b3b3" stroke-linecap="round" stroke-linejoin="round"/><rect x="248.45" y="304.28" width="72.94" height="103.18" fill="none" stroke="#b3b3b3" stroke-linecap="round" stroke-linejoin="round"/><rect x="321.39" y="355.88" width="36.47" height="51.59" fill="none" stroke="#b3b3b3" stroke-linecap="round" stroke-linejoin="round"/><rect x="416.66" y="509.45" width="68.69" height="33.68" rx="1.46" fill="none" stroke="#b3b3b3" stroke-linecap="round" stroke-linejoin="round"/><rect x="416.66" y="475.77" width="59.23" height="33.68" rx="1.46" fill="none" stroke="#b3b3b3" stroke-linecap="round" stroke-linejoin="round"/><path d="M499.54,183.41h43a2,2,0,0,1,2,2v86.42a0,0,0,0,1,0,0H497.55a0,0,0,0,1,0,0V185.4A2,2,0,0,1,499.54,183.41Z" fill="none" stroke="#b3b3b3" stroke-linecap="round" stroke-linejoin="round"/><path d="M510.54,152.75h21a0,0,0,0,1,0,0v29.58a1.08,1.08,0,0,1-1.08,1.08h-18.8a1.08,1.08,0,0,1-1.08-1.08V152.75a0,0,0,0,1,0,0Z" transform="translate(1042.04 336.16) rotate(-180)" fill="none" stroke="#b3b3b3" stroke-linecap="round" stroke-linejoin="round"/><rect x="614.6" y="196.26" width="27.47" height="68.69" transform="translate(858.94 -397.74) rotate(90)" fill="none" stroke="#b3b3b3" stroke-linecap="round" stroke-linejoin="round"/><rect x="607.73" y="216.86" width="27.47" height="82.42" transform="translate(363.4 879.55) rotate(-90)" fill="none" stroke="#b3b3b3" stroke-linecap="round" stroke-linejoin="round"/><path d="M435.14,183.41h43a2,2,0,0,1,2,2v86.42a0,0,0,0,1,0,0H433.16a0,0,0,0,1,0,0V185.4A2,2,0,0,1,435.14,183.41Z" fill="none" stroke="#b3b3b3" stroke-linecap="round" stroke-linejoin="round"/><path d="M446.14,152.75h21a0,0,0,0,1,0,0v29.58a1.08,1.08,0,0,1-1.08,1.08h-18.8a1.08,1.08,0,0,1-1.08-1.08V152.75a0,0,0,0,1,0,0Z" transform="translate(913.24 336.16) rotate(-180)" fill="none" stroke="#b3b3b3" stroke-linecap="round" stroke-linejoin="round"/><circle cx="266.8" cy="106.34" r="29.62" fill="none" stroke="#b3b3b3" stroke-linecap="round" stroke-linejoin="round"/><circle cx="538.4" cy="513.51" r="29.62" fill="none" stroke="#b3b3b3" stroke-linecap="round" stroke-linejoin="round"/><rect x="511.62" y="320.52" width="73.16" height="86.95" rx="1" fill="none" stroke="#b3b3b3" stroke-linecap="round" stroke-linejoin="round"/><rect x="519.57" y="296.94" width="57.25" height="23.57" rx="1" fill="none" stroke="#b3b3b3" stroke-linecap="round" stroke-linejoin="round"/><rect x="595.12" y="348.35" width="49.76" height="59.14" rx="1" fill="none" stroke="#b3b3b3" stroke-linecap="round" stroke-linejoin="round"/><rect x="603.62" y="332.32" width="32.76" height="16.03" rx="0.75" fill="none" stroke="#b3b3b3" stroke-linecap="round" stroke-linejoin="round"/><rect x="451.45" y="311.74" width="49.76" height="95.73" rx="0.75" fill="none" stroke="#b3b3b3" stroke-linecap="round" stroke-linejoin="round"/><rect x="451.45" y="295.71" width="49.76" height="16.03" rx="0.75" fill="none" stroke="#b3b3b3" stroke-linecap="round" stroke-linejoin="round"/><rect x="409.66" y="330.29" width="29.36" height="77.17" rx="0.75" fill="none" stroke="#b3b3b3" stroke-linecap="round" stroke-linejoin="round"/><rect x="409.66" y="317.37" width="29.36" height="12.92" rx="0.75" fill="none" stroke="#b3b3b3" stroke-linecap="round" stroke-linejoin="round"/><rect x="611.49" y="77.02" width="49.76" height="59.14" rx="1.89" fill="none" stroke="#b3b3b3" stroke-linecap="round" stroke-linejoin="round"/><rect x="619.99" y="60.98" width="32.76" height="16.03" rx="0.97" fill="none" stroke="#b3b3b3" stroke-linecap="round" stroke-linejoin="round"/><path d="M600,454.73h43a2,2,0,0,1,2,2v86.42a0,0,0,0,1,0,0H598a0,0,0,0,1,0,0V456.71A2,2,0,0,1,600,454.73Z" fill="none" stroke="#b3b3b3" stroke-linecap="round" stroke-linejoin="round"/><path d="M611,424.06h21a0,0,0,0,1,0,0v29.58a1.08,1.08,0,0,1-1.08,1.08h-18.8a1.08,1.08,0,0,1-1.08-1.08V424.06A0,0,0,0,1,611,424.06Z" transform="translate(1242.94 878.79) rotate(-180)" fill="none" stroke="#b3b3b3" stroke-linecap="round" stroke-linejoin="round"/><polygon points="375.97 204.05 266.81 204.05 279.11 271.81 363.67 271.81 375.97 204.05" fill="none" stroke="#b3b3b3" stroke-linecap="round" stroke-linejoin="round"/><rect x="297.94" y="222.24" width="46.89" height="11.15" rx="0.81" fill="none" stroke="#b3b3b3" stroke-linecap="round" stroke-linejoin="round"/><rect x="353.35" y="456.33" width="27.47" height="86.8" fill="none" stroke="#b3b3b3" stroke-linecap="round" stroke-linejoin="round"/><rect x="325.87" y="446.96" width="27.47" height="96.16" fill="none" stroke="#b3b3b3" stroke-linecap="round" stroke-linejoin="round"/><rect x="277.79" y="495.05" width="27.47" height="68.69" transform="translate(820.92 237.86) rotate(90)" fill="none" stroke="#b3b3b3" stroke-linecap="round" stroke-linejoin="round"/><rect x="282.6" y="472.38" width="27.47" height="59.07" transform="translate(798.25 205.58) rotate(90)" fill="none" stroke="#b3b3b3" stroke-linecap="round" stroke-linejoin="round"/><rect x="329.31" y="103.53" width="65.28" height="32.63" fill="none" stroke="#b3b3b3" stroke-linecap="round" stroke-linejoin="round"/><rect x="329.31" y="70.9" width="65.28" height="32.63" fill="none" stroke="#b3b3b3" stroke-linecap="round" stroke-linejoin="round"/><rect x="329.31" y="38.28" width="65.28" height="32.63" fill="none" stroke="#b3b3b3" stroke-linecap="round" stroke-linejoin="round"/><rect x="394.59" y="103.53" width="65.28" height="32.63" fill="none" stroke="#b3b3b3" stroke-linecap="round" stroke-linejoin="round"/><rect x="394.59" y="70.9" width="65.28" height="32.63" fill="none" stroke="#b3b3b3" stroke-linecap="round" stroke-linejoin="round"/><path d="M572.14,614.37h97.72a0,0,0,0,1,0,0v62.39a3.74,3.74,0,0,1-3.74,3.74H575.88a3.74,3.74,0,0,1-3.74-3.74V614.37A0,0,0,0,1,572.14,614.37Z" fill="none" stroke="#b3b3b3" stroke-linecap="round" stroke-linejoin="round"/><path d="M589.69,574.06H652.3a4.76,4.76,0,0,1,4.76,4.76v35.56a0,0,0,0,1,0,0H584.94a0,0,0,0,1,0,0V578.81A4.76,4.76,0,0,1,589.69,574.06Z" fill="none" stroke="#b3b3b3" stroke-linecap="round" stroke-linejoin="round"/><line x1="629.3" y1="629.4" x2="629.3" y2="662.28" fill="none" stroke="#b3b3b3" stroke-linecap="round" stroke-linejoin="round"/><line x1="612.69" y1="629.4" x2="612.69" y2="662.28" fill="none" stroke="#b3b3b3" stroke-linecap="round" stroke-linejoin="round"/><line x1="596.09" y1="629.4" x2="596.09" y2="662.28" fill="none" stroke="#b3b3b3" stroke-linecap="round" stroke-linejoin="round"/><line x1="645.91" y1="629.4" x2="645.91" y2="662.28" fill="none" stroke="#b3b3b3" stroke-linecap="round" stroke-linejoin="round"/><path d="M482,70h97.72a0,0,0,0,1,0,0v62.39a3.74,3.74,0,0,1-3.74,3.74H485.69a3.74,3.74,0,0,1-3.74-3.74V70A0,0,0,0,1,482,70Z" fill="none" stroke="#b3b3b3" stroke-linecap="round" stroke-linejoin="round"/><path d="M499.51,29.71h62.61a4.76,4.76,0,0,1,4.76,4.76V70a0,0,0,0,1,0,0H494.75a0,0,0,0,1,0,0V34.47a4.76,4.76,0,0,1,4.76-4.76Z" fill="none" stroke="#b3b3b3" stroke-linecap="round" stroke-linejoin="round"/><line x1="539.12" y1="85.05" x2="539.12" y2="117.93" fill="none" stroke="#b3b3b3" stroke-linecap="round" stroke-linejoin="round"/><line x1="522.51" y1="85.05" x2="522.51" y2="117.93" fill="none" stroke="#b3b3b3" stroke-linecap="round" stroke-linejoin="round"/><line x1="505.9" y1="85.05" x2="505.9" y2="117.93" fill="none" stroke="#b3b3b3" stroke-linecap="round" stroke-linejoin="round"/><line x1="555.73" y1="85.05" x2="555.73" y2="117.93" fill="none" stroke="#b3b3b3" stroke-linecap="round" stroke-linejoin="round"/></g></g></svg>