<svg xmlns="http://www.w3.org/2000/svg" viewBox="0 0 681 681"><g id="Camada_2" data-name="Camada 2"><g id="Camada_1-2" data-name="Camada 1"><polygon points="584.34 105.7 584.34 0.5 488.18 0.5 488.18 105.7 392.01 201.87 680.5 201.87 584.34 105.7" fill="none" stroke="#b3b3b3" stroke-linecap="round" stroke-linejoin="round"/><rect x="392.02" y="201.87" width="288.48" height="36.86" fill="none" stroke="#b3b3b3" stroke-linecap="round" stroke-linejoin="round"/><line x1="376" y1="257.92" x2="2.48" y2="257.92" fill="none" stroke="#b3b3b3" stroke-linecap="round" stroke-linejoin="round"/><rect x="252.62" y="171.39" width="61.2" height="86.58" fill="none" stroke="#b3b3b3" stroke-linecap="round" stroke-linejoin="round"/><rect x="313.82" y="214.68" width="30.6" height="43.29" fill="none" stroke="#b3b3b3" stroke-linecap="round" stroke-linejoin="round"/><rect x="105.13" y="229.71" width="57.63" height="28.26" rx="1.46" fill="none" stroke="#b3b3b3" stroke-linecap="round" stroke-linejoin="round"/><rect x="105.13" y="201.46" width="49.7" height="28.26" rx="1.46" fill="none" stroke="#b3b3b3" stroke-linecap="round" stroke-linejoin="round"/><path d="M190.58,183.75H226a2,2,0,0,1,2,2v72.19a0,0,0,0,1,0,0H188.6a0,0,0,0,1,0,0V185.73A2,2,0,0,1,190.58,183.75Z" fill="none" stroke="#b3b3b3" stroke-linecap="round" stroke-linejoin="round"/><path d="M199.49,158h17.59a0,0,0,0,1,0,0v24.65a1.08,1.08,0,0,1-1.08,1.08H200.58a1.08,1.08,0,0,1-1.08-1.08V158A0,0,0,0,1,199.49,158Z" transform="translate(416.58 341.77) rotate(-180)" fill="none" stroke="#b3b3b3" stroke-linecap="round" stroke-linejoin="round"/><path d="M163,380.21a31,31,0,0,1,30.91-31h0a31,31,0,0,1,30.91,31v65.16" fill="none" stroke="#b3b3b3" stroke-linecap="round" stroke-linejoin="round"/><rect x="2.48" y="0.5" width="373.52" height="128.39" transform="translate(378.47 129.39) rotate(180)" fill="none" stroke="#b3b3b3" stroke-linecap="round" stroke-linejoin="round"/><line x1="77.1" y1="92.57" x2="310.64" y2="92.57" fill="none" stroke="#b3b3b3" stroke-linecap="round" stroke-linejoin="round"/><polyline points="543.13 680.5 543.13 446.96 0.5 446.96 0.5 680.5" fill="none" stroke="#b3b3b3" stroke-linecap="round" stroke-linejoin="round"/><polyline points="515.65 680.5 515.65 481.31 27.98 481.31 27.98 680.5" fill="none" stroke="#b3b3b3" stroke-linecap="round" stroke-linejoin="round"/><line x1="115.6" y1="561.95" x2="115.6" y2="653.73" fill="none" stroke="#b3b3b3" stroke-linecap="round" stroke-linejoin="round"/><path d="M115.6,680.5h26.77a26.77,26.77,0,0,0-53.54,0Z" fill="none" stroke="#b3b3b3" stroke-linecap="round" stroke-linejoin="round"/><path d="M115.6,509.05H62.7a52.91,52.91,0,0,0,105.81,0Z" fill="none" stroke="#b3b3b3" stroke-linecap="round" stroke-linejoin="round"/><line x1="98.16" y1="607.84" x2="133.05" y2="607.84" fill="none" stroke="#b3b3b3" stroke-linecap="round" stroke-linejoin="round"/><line x1="271.05" y1="561.95" x2="271.05" y2="653.73" fill="none" stroke="#b3b3b3" stroke-linecap="round" stroke-linejoin="round"/><path d="M271.05,680.5h26.77a26.77,26.77,0,1,0-53.54,0Z" fill="none" stroke="#b3b3b3" stroke-linecap="round" stroke-linejoin="round"/><path d="M271.05,509.05H218.14a52.91,52.91,0,0,0,105.81,0Z" fill="none" stroke="#b3b3b3" stroke-linecap="round" stroke-linejoin="round"/><line x1="253.6" y1="607.84" x2="288.49" y2="607.84" fill="none" stroke="#b3b3b3" stroke-linecap="round" stroke-linejoin="round"/><line x1="422.06" y1="561.1" x2="422.06" y2="652.88" fill="none" stroke="#b3b3b3" stroke-linecap="round" stroke-linejoin="round"/><path d="M422.06,679.64h26.77a26.77,26.77,0,0,0-53.54,0Z" fill="none" stroke="#b3b3b3" stroke-linecap="round" stroke-linejoin="round"/><path d="M422.06,508.19h-52.9a52.91,52.91,0,1,0,105.81,0Z" fill="none" stroke="#b3b3b3" stroke-linecap="round" stroke-linejoin="round"/><line x1="404.62" y1="606.99" x2="439.51" y2="606.99" fill="none" stroke="#b3b3b3" stroke-linecap="round" stroke-linejoin="round"/><polyline points="392.01 446.96 392.01 238.82 680.5 238.82 680.26 680.5" fill="none" stroke="#b3b3b3" stroke-linecap="round" stroke-linejoin="round"/><rect x="429.79" y="272.96" width="212.93" height="137.37" fill="none" stroke="#b3b3b3" stroke-linecap="round" stroke-linejoin="round"/><rect x="543.13" y="502.81" width="65.79" height="62.36" fill="none" stroke="#b3b3b3" stroke-linecap="round" stroke-linejoin="round"/><line x1="543.13" y1="533.99" x2="576.02" y2="533.99" fill="none" stroke="#b3b3b3" stroke-linecap="round" stroke-linejoin="round"/></g></g></svg>