<svg xmlns="http://www.w3.org/2000/svg" viewBox="0 0 681 681"><g id="Camada_2" data-name="Camada 2"><g id="Camada_1-2" data-name="Camada 1"><polyline points="476.5 612.5 544.5 612.5 544.5 646.5" fill="none" stroke="#b3b3b3" stroke-linecap="round" stroke-linejoin="round"/><polyline points="408.5 578.5 476.5 578.5 476.5 612.5" fill="none" stroke="#b3b3b3" stroke-linecap="round" stroke-linejoin="round"/><polyline points="340.5 544.5 408.5 544.5 408.5 578.5" fill="none" stroke="#b3b3b3" stroke-linecap="round" stroke-linejoin="round"/><polyline points="272.5 510.5 340.5 510.5 340.5 544.5" fill="none" stroke="#b3b3b3" stroke-linecap="round" stroke-linejoin="round"/><polyline points="204.5 476.5 272.5 476.5 272.5 510.5" fill="none" stroke="#b3b3b3" stroke-linecap="round" stroke-linejoin="round"/><polyline points="136.5 442.5 204.5 442.5 204.5 476.5" fill="none" stroke="#b3b3b3" stroke-linecap="round" stroke-linejoin="round"/><polyline points="0.5 408.5 136.5 408.5 136.5 421.82 136.5 442.5" fill="none" stroke="#b3b3b3" stroke-linecap="round" stroke-linejoin="round"/><polyline points="680.5 680.5 544.5 680.5 68.5 442.5 0.5 442.5" fill="none" stroke="#b3b3b3" stroke-linecap="round" stroke-linejoin="round"/><line x1="544.5" y1="646.5" x2="680.5" y2="646.5" fill="none" stroke="#b3b3b3" stroke-linecap="round" stroke-linejoin="round"/><line x1="272.5" y1="340.5" x2="204.5" y2="340.5" fill="none" stroke="#b3b3b3" stroke-linecap="round" stroke-linejoin="round"/><polyline points="340.5 306.5 272.5 306.5 272.5 340.5" fill="none" stroke="#b3b3b3" stroke-linecap="round" stroke-linejoin="round"/><polyline points="408.5 272.5 340.5 272.5 340.5 306.5" fill="none" stroke="#b3b3b3" stroke-linecap="round" stroke-linejoin="round"/><polyline points="476.5 238.5 408.5 238.5 408.5 272.5" fill="none" stroke="#b3b3b3" stroke-linecap="round" stroke-linejoin="round"/><polyline points="544.5 204.5 476.5 204.5 476.5 238.5" fill="none" stroke="#b3b3b3" stroke-linecap="round" stroke-linejoin="round"/><polyline points="680.5 170.5 544.5 170.5 544.5 204.5" fill="none" stroke="#b3b3b3" stroke-linecap="round" stroke-linejoin="round"/><polyline points="272.5 374.5 612.5 204.5 680.5 204.5" fill="none" stroke="#b3b3b3" stroke-linecap="round" stroke-linejoin="round"/><line x1="408.5" y1="102.5" x2="476.5" y2="102.5" fill="none" stroke="#b3b3b3" stroke-linecap="round" stroke-linejoin="round"/><polyline points="340.5 68.5 408.5 68.5 408.5 102.5" fill="none" stroke="#b3b3b3" stroke-linecap="round" stroke-linejoin="round"/><polyline points="272.5 34.5 340.5 34.5 340.5 68.5" fill="none" stroke="#b3b3b3" stroke-linecap="round" stroke-linejoin="round"/><polyline points="204.5 0.5 272.5 0.5 272.5 34.5" fill="none" stroke="#b3b3b3" stroke-linecap="round" stroke-linejoin="round"/><line x1="408.5" y1="136.5" x2="136.5" y2="0.5" fill="none" stroke="#b3b3b3" stroke-linecap="round" stroke-linejoin="round"/><line x1="544.5" y1="510.5" x2="136.5" y2="306.5" fill="none" stroke="#b3b3b3" stroke-linecap="round" stroke-linejoin="round"/><line x1="136.5" y1="306.5" x2="136.5" y2="408.5" fill="none" stroke="#b3b3b3" stroke-linecap="round" stroke-linejoin="round"/><line x1="544.5" y1="612.5" x2="544.5" y2="510.5" fill="none" stroke="#b3b3b3" stroke-linecap="round" stroke-linejoin="round"/><line x1="136.5" y1="272.5" x2="544.5" y2="68.5" fill="none" stroke="#b3b3b3" stroke-linecap="round" stroke-linejoin="round"/><line x1="544.5" y1="68.5" x2="544.5" y2="170.5" fill="none" stroke="#b3b3b3" stroke-linecap="round" stroke-linejoin="round"/><line x1="136.5" y1="306.5" x2="136.5" y2="272.5" fill="none" stroke="#b3b3b3" stroke-linecap="round" stroke-linejoin="round"/><line x1="544.5" y1="68.5" x2="544.5" y2="34.5" fill="none" stroke="#b3b3b3" stroke-linecap="round" stroke-linejoin="round"/><line x1="544.5" y1="34.5" x2="476.5" y2="0.5" fill="none" stroke="#b3b3b3" stroke-linecap="round" stroke-linejoin="round"/></g></g></svg>