<svg xmlns="http://www.w3.org/2000/svg" viewBox="0 0 736.64 681"><g id="Camada_2" data-name="Camada 2"><g id="Camada_1-2" data-name="Camada 1"><line x1="221.19" y1="653.22" x2="0.5" y2="243.23" fill="none" stroke="#b3b3b3" stroke-linecap="round" stroke-linejoin="round"/><line x1="613.53" y1="653.22" x2="263.75" y2="0.5" fill="none" stroke="#b3b3b3" stroke-linecap="round" stroke-linejoin="round"/><line x1="478.67" y1="653.22" x2="128.88" y2="0.5" fill="none" stroke="#b3b3b3" stroke-linecap="round" stroke-linejoin="round"/><line x1="356.06" y1="653.22" x2="6.1" y2="0.5" fill="none" stroke="#b3b3b3" stroke-linecap="round" stroke-linejoin="round"/><line x1="736.14" y1="653.22" x2="386.18" y2="0.5" fill="none" stroke="#b3b3b3" stroke-linecap="round" stroke-linejoin="round"/><line x1="569.39" y1="616.43" x2="239.33" y2="0.5" fill="none" stroke="#b3b3b3" stroke-linecap="round" stroke-linejoin="round"/><line x1="522.8" y1="616.43" x2="192.74" y2="0.5" fill="none" stroke="#b3b3b3" stroke-linecap="round" stroke-linejoin="round"/><line x1="311.92" y1="616.43" x2="0.5" y2="35.2" fill="none" stroke="#b3b3b3" stroke-linecap="round" stroke-linejoin="round"/><line x1="265.33" y1="616.43" x2="0.5" y2="122.14" fill="none" stroke="#b3b3b3" stroke-linecap="round" stroke-linejoin="round"/><polygon points="736.14 680.5 736.14 653.22 613.53 653.22 569.39 616.43 522.8 616.43 478.67 653.22 356.06 653.22 311.92 616.43 265.33 616.43 221.19 653.22 98.58 653.22 54.45 616.43 0.5 616.43 0.5 643.72 49.54 643.72 93.68 680.5 226.1 680.5 270.23 643.72 307.02 643.72 351.15 680.5 483.57 680.5 527.71 643.72 564.49 643.72 608.63 680.5 736.14 680.5" fill="none" stroke="#b3b3b3" stroke-linecap="round" stroke-linejoin="round"/><line x1="54.45" y1="616.43" x2="0.5" y2="515.56" fill="none" stroke="#b3b3b3" stroke-linecap="round" stroke-linejoin="round"/><line x1="98.59" y1="653.22" x2="0.5" y2="472.03" fill="none" stroke="#b3b3b3" stroke-linecap="round" stroke-linejoin="round"/></g></g></svg>