<svg xmlns="http://www.w3.org/2000/svg" viewBox="0 0 681 681"><g id="Camada_2" data-name="Camada 2"><g id="Camada_1-2" data-name="Camada 1"><circle cx="383.25" cy="223.06" r="21.64" fill="none" stroke="#b3b3b3" stroke-linecap="round" stroke-linejoin="round"/><line x1="383.25" y1="183.39" x2="383.25" y2="201.42" fill="none" stroke="#b3b3b3" stroke-linecap="round" stroke-linejoin="round"/><rect x="233.64" y="261.14" width="61.82" height="89.29" fill="none" stroke="#b3b3b3" stroke-linecap="round" stroke-linejoin="round"/><line x1="233.64" y1="327.54" x2="295.46" y2="327.54" fill="none" stroke="#b3b3b3" stroke-linecap="round" stroke-linejoin="round"/><line x1="233.64" y1="312.82" x2="295.46" y2="312.82" fill="none" stroke="#b3b3b3" stroke-linecap="round" stroke-linejoin="round"/><line x1="233.64" y1="274" x2="221.41" y2="274" fill="none" stroke="#b3b3b3" stroke-linecap="round" stroke-linejoin="round"/><line x1="307.7" y1="274.66" x2="295.46" y2="274.66" fill="none" stroke="#b3b3b3" stroke-linecap="round" stroke-linejoin="round"/><path d="M638.8,680.5V47.2C638.8,21.41,617.52.5,591.26.5h0C565,.5,543.73,21.41,543.73,47.2v40" fill="none" stroke="#b3b3b3" stroke-linecap="round" stroke-linejoin="round"/><line x1="495.65" y1="87.04" x2="591.81" y2="87.04" fill="none" stroke="#b3b3b3" stroke-linecap="round" stroke-linejoin="round"/><rect x="2.22" y="96.3" width="199.19" height="254.14" fill="none" stroke="#b3b3b3" stroke-linecap="round" stroke-linejoin="round"/><rect x="22.82" y="116.9" width="157.98" height="212.93" fill="none" stroke="#b3b3b3" stroke-linecap="round" stroke-linejoin="round"/><path d="M314.56,563.73H451.94a0,0,0,0,1,0,0v44.19a3.89,3.89,0,0,1-3.89,3.89H318.46a3.89,3.89,0,0,1-3.89-3.89V563.73A0,0,0,0,1,314.56,563.73Z" fill="none" stroke="#b3b3b3" stroke-linecap="round" stroke-linejoin="round"/><rect x="359.21" y="611.81" width="48.08" height="68.69" fill="none" stroke="#b3b3b3" stroke-linecap="round" stroke-linejoin="round"/><rect x="307.7" y="543.13" width="151.11" height="20.61" fill="none" stroke="#b3b3b3" stroke-linecap="round" stroke-linejoin="round"/><path d="M324.87,440.1H441.64a0,0,0,0,1,0,0v99.14a3.89,3.89,0,0,1-3.89,3.89h-109a3.89,3.89,0,0,1-3.89-3.89V440.1A0,0,0,0,1,324.87,440.1Z" transform="translate(766.5 983.22) rotate(180)" fill="none" stroke="#b3b3b3" stroke-linecap="round" stroke-linejoin="round"/><line x1="369.51" y1="459.2" x2="396.99" y2="459.2" fill="none" stroke="#b3b3b3" stroke-linecap="round" stroke-linejoin="round"/><rect x="491.67" y="140.66" width="188.83" height="539.84" fill="none" stroke="#b3b3b3" stroke-linecap="round" stroke-linejoin="round"/><line x1="524.29" y1="353.43" x2="524.29" y2="466.12" fill="none" stroke="#b3b3b3" stroke-linecap="round" stroke-linejoin="round"/><line x1="230.6" y1="532.37" x2="244.34" y2="532.37" fill="none" stroke="#b3b3b3" stroke-linecap="round" stroke-linejoin="round"/><rect x="203.13" y="511.17" width="68.69" height="42.39" fill="none" stroke="#b3b3b3" stroke-linecap="round" stroke-linejoin="round"/><rect x="203.13" y="595.93" width="68.69" height="84.57" fill="none" stroke="#b3b3b3" stroke-linecap="round" stroke-linejoin="round"/><line x1="230.6" y1="617.12" x2="244.34" y2="617.12" fill="none" stroke="#b3b3b3" stroke-linecap="round" stroke-linejoin="round"/><rect x="203.13" y="553.51" width="68.69" height="42.39" fill="none" stroke="#b3b3b3" stroke-linecap="round" stroke-linejoin="round"/><line x1="230.6" y1="574.71" x2="244.34" y2="574.71" fill="none" stroke="#b3b3b3" stroke-linecap="round" stroke-linejoin="round"/><rect x="0.5" y="474.44" width="101.31" height="206.06" fill="none" stroke="#b3b3b3" stroke-linecap="round" stroke-linejoin="round"/><rect x="101.81" y="474.44" width="101.31" height="206.06" fill="none" stroke="#b3b3b3" stroke-linecap="round" stroke-linejoin="round"/><line x1="77.91" y1="521.13" x2="77.91" y2="633.81" fill="none" stroke="#b3b3b3" stroke-linecap="round" stroke-linejoin="round"/><line x1="125.72" y1="521.13" x2="125.72" y2="633.81" fill="none" stroke="#b3b3b3" stroke-linecap="round" stroke-linejoin="round"/><rect x="33.13" y="446.96" width="137.37" height="27.47" fill="none" stroke="#b3b3b3" stroke-linecap="round" stroke-linejoin="round"/><path d="M77.15,395a24.7,24.7,0,0,1,24.66-24.74h0A24.7,24.7,0,0,1,126.48,395v52" fill="none" stroke="#b3b3b3" stroke-linecap="round" stroke-linejoin="round"/></g></g></svg>