<svg xmlns="http://www.w3.org/2000/svg" viewBox="0 0 681 681"><g id="Camada_2" data-name="Camada 2"><g id="Camada_1-2" data-name="Camada 1"><path d="M539.69,316.55a31,31,0,0,1,30.91-31h0a31,31,0,0,1,30.91,31v65.16" fill="none" stroke="#b3b3b3" stroke-linecap="round" stroke-linejoin="round"/><rect x="220.3" y="405.75" width="240.4" height="274.75" fill="none" stroke="#b3b3b3" stroke-linecap="round" stroke-linejoin="round"/><path d="M440.1,405.75v-10.1a10.66,10.66,0,0,0-10.81-10.5H251.71a10.66,10.66,0,0,0-10.81,10.5v10.1" fill="none" stroke="#b3b3b3" stroke-linecap="round" stroke-linejoin="round"/><line x1="292.1" y1="448.78" x2="292.1" y2="435.04" fill="none" stroke="#b3b3b3" stroke-linecap="round" stroke-linejoin="round"/><line x1="268.53" y1="448.78" x2="268.53" y2="435.04" fill="none" stroke="#b3b3b3" stroke-linecap="round" stroke-linejoin="round"/><line x1="315.66" y1="448.78" x2="315.66" y2="435.04" fill="none" stroke="#b3b3b3" stroke-linecap="round" stroke-linejoin="round"/><circle cx="344.09" cy="547.54" r="75.56" fill="none" stroke="#b3b3b3" stroke-linecap="round" stroke-linejoin="round"/><rect x="363.74" y="431.6" width="55.91" height="20.61" fill="none" stroke="#b3b3b3" stroke-linecap="round" stroke-linejoin="round"/><polyline points="639.29 405.75 680.5 405.75 680.5 680.5 460.7 680.5 460.7 405.75 501.91 405.75" fill="none" stroke="#b3b3b3" stroke-linecap="round" stroke-linejoin="round"/><rect x="501.91" y="381.71" width="137.37" height="48.08" transform="translate(1141.2 811.51) rotate(180)" fill="none" stroke="#b3b3b3" stroke-linecap="round" stroke-linejoin="round"/><line x1="59.4" y1="563.73" x2="161.4" y2="563.73" fill="none" stroke="#b3b3b3" stroke-linecap="round" stroke-linejoin="round"/><rect x="0.5" y="524.81" width="219.8" height="77.85" fill="none" stroke="#b3b3b3" stroke-linecap="round" stroke-linejoin="round"/><line x1="59.4" y1="485.89" x2="161.4" y2="485.89" fill="none" stroke="#b3b3b3" stroke-linecap="round" stroke-linejoin="round"/><rect x="0.5" y="446.96" width="219.8" height="77.85" fill="none" stroke="#b3b3b3" stroke-linecap="round" stroke-linejoin="round"/><line x1="59.4" y1="641.58" x2="161.4" y2="641.58" fill="none" stroke="#b3b3b3" stroke-linecap="round" stroke-linejoin="round"/><rect x="0.5" y="602.65" width="219.8" height="77.85" fill="none" stroke="#b3b3b3" stroke-linecap="round" stroke-linejoin="round"/><rect x="0.5" y="0.5" width="109.9" height="274.75" fill="none" stroke="#b3b3b3" stroke-linecap="round" stroke-linejoin="round"/><rect x="110.4" y="0.5" width="109.9" height="274.75" fill="none" stroke="#b3b3b3" stroke-linecap="round" stroke-linejoin="round"/><rect x="220.3" y="0.5" width="460.2" height="90.52" transform="translate(900.8 91.52) rotate(180)" fill="none" stroke="#b3b3b3" stroke-linecap="round" stroke-linejoin="round"/><line x1="399.4" y1="45.76" x2="501.4" y2="45.76" fill="none" stroke="#b3b3b3" stroke-linecap="round" stroke-linejoin="round"/><line x1="680.5" y1="241.13" x2="220.3" y2="241.13" fill="none" stroke="#b3b3b3" stroke-linecap="round" stroke-linejoin="round"/><line x1="81.64" y1="84.21" x2="81.64" y2="191.54" fill="none" stroke="#b3b3b3" stroke-linecap="round" stroke-linejoin="round"/><line x1="139.16" y1="84.21" x2="139.16" y2="191.54" fill="none" stroke="#b3b3b3" stroke-linecap="round" stroke-linejoin="round"/><rect x="388.16" y="221.09" width="137.37" height="20.1" rx="1.46" fill="none" stroke="#b3b3b3" stroke-linecap="round" stroke-linejoin="round"/><rect x="382.14" y="197.08" width="109.06" height="24" rx="1.75" fill="none" stroke="#b3b3b3" stroke-linecap="round" stroke-linejoin="round"/><rect x="421.54" y="178.07" width="76.43" height="19.01" rx="1.38" fill="none" stroke="#b3b3b3" stroke-linecap="round" stroke-linejoin="round"/><rect x="418.72" y="159.06" width="52.41" height="19.01" rx="1.38" fill="none" stroke="#b3b3b3" stroke-linecap="round" stroke-linejoin="round"/><rect x="550.07" y="138" width="72.94" height="103.18" fill="none" stroke="#b3b3b3" stroke-linecap="round" stroke-linejoin="round"/><rect x="623.01" y="189.59" width="36.47" height="51.59" fill="none" stroke="#b3b3b3" stroke-linecap="round" stroke-linejoin="round"/><polygon points="360.84 168.57 243.96 168.57 257.13 241.13 347.67 241.13 360.84 168.57" fill="none" stroke="#b3b3b3" stroke-linecap="round" stroke-linejoin="round"/><rect x="277.29" y="188.05" width="50.21" height="11.94" rx="0.87" fill="none" stroke="#b3b3b3" stroke-linecap="round" stroke-linejoin="round"/></g></g></svg>