<svg xmlns="http://www.w3.org/2000/svg" viewBox="0 0 681 681"><g id="Camada_2" data-name="Camada 2"><g id="Camada_1-2" data-name="Camada 1"><polygon points="216.86 48.58 216.86 0.5 120.7 0.5 120.7 48.58 24.54 144.74 313.02 144.74 216.86 48.58" fill="none" stroke="#b3b3b3" stroke-linecap="round" stroke-linejoin="round"/><rect x="24.54" y="144.74" width="288.48" height="36.86" fill="none" stroke="#b3b3b3" stroke-linecap="round" stroke-linejoin="round"/><rect x="340.5" y="510.53" width="340" height="169.97" fill="none" stroke="#b3b3b3" stroke-linecap="round" stroke-linejoin="round"/><line x1="383.48" y1="646.51" x2="383.48" y2="544.52" fill="none" stroke="#b3b3b3" stroke-linecap="round" stroke-linejoin="round"/><path d="M479.59,343.39a31,31,0,0,1,30.91-31h0a31,31,0,0,1,30.91,31v65.15" fill="none" stroke="#b3b3b3" stroke-linecap="round" stroke-linejoin="round"/><rect x="340.5" y="408.54" width="340" height="101.98" fill="none" stroke="#b3b3b3" stroke-linecap="round" stroke-linejoin="round"/><line x1="459.5" y1="459.54" x2="561.5" y2="459.54" fill="none" stroke="#b3b3b3" stroke-linecap="round" stroke-linejoin="round"/><rect x="0.5" y="408.54" width="340" height="271.96" fill="none" stroke="#b3b3b3" stroke-linecap="round" stroke-linejoin="round"/><rect x="68.5" y="476.53" width="204" height="135.98" fill="none" stroke="#b3b3b3" stroke-linecap="round" stroke-linejoin="round"/><path d="M291.39,408.54V397.91a11.06,11.06,0,0,0-11.07-11.06H60.68a11.06,11.06,0,0,0-11.07,11.06v10.63" fill="none" stroke="#b3b3b3" stroke-linecap="round" stroke-linejoin="round"/><line x1="238.5" y1="449.35" x2="238.5" y2="435.75" fill="none" stroke="#b3b3b3" stroke-linecap="round" stroke-linejoin="round"/><line x1="204.5" y1="449.35" x2="204.5" y2="435.75" fill="none" stroke="#b3b3b3" stroke-linecap="round" stroke-linejoin="round"/><line x1="170.5" y1="449.35" x2="170.5" y2="435.75" fill="none" stroke="#b3b3b3" stroke-linecap="round" stroke-linejoin="round"/><line x1="136.5" y1="449.35" x2="136.5" y2="435.75" fill="none" stroke="#b3b3b3" stroke-linecap="round" stroke-linejoin="round"/><line x1="102.5" y1="449.35" x2="102.5" y2="435.75" fill="none" stroke="#b3b3b3" stroke-linecap="round" stroke-linejoin="round"/><line x1="68.5" y1="449.35" x2="68.5" y2="435.75" fill="none" stroke="#b3b3b3" stroke-linecap="round" stroke-linejoin="round"/><line x1="272.5" y1="449.35" x2="272.5" y2="435.75" fill="none" stroke="#b3b3b3" stroke-linecap="round" stroke-linejoin="round"/><line x1="680.5" y1="219.4" x2="340.5" y2="219.4" fill="none" stroke="#b3b3b3" stroke-linecap="round" stroke-linejoin="round"/><rect x="550.1" y="116.27" width="72.94" height="103.18" fill="none" stroke="#b3b3b3" stroke-linecap="round" stroke-linejoin="round"/><rect x="623.03" y="167.87" width="36.47" height="51.59" fill="none" stroke="#b3b3b3" stroke-linecap="round" stroke-linejoin="round"/><rect x="374.32" y="185.78" width="68.69" height="33.68" rx="1.46" fill="none" stroke="#b3b3b3" stroke-linecap="round" stroke-linejoin="round"/><rect x="374.33" y="152.11" width="59.23" height="33.68" rx="1.46" fill="none" stroke="#b3b3b3" stroke-linecap="round" stroke-linejoin="round"/><path d="M475.78,131h43a2,2,0,0,1,2,2V219.4a0,0,0,0,1,0,0H473.8a0,0,0,0,1,0,0V133A2,2,0,0,1,475.78,131Z" fill="none" stroke="#b3b3b3" stroke-linecap="round" stroke-linejoin="round"/><path d="M486.78,100.34h21a0,0,0,0,1,0,0v29.58a1.08,1.08,0,0,1-1.08,1.08h-18.8a1.08,1.08,0,0,1-1.08-1.08V100.34a0,0,0,0,1,0,0Z" transform="translate(994.52 231.35) rotate(-180)" fill="none" stroke="#b3b3b3" stroke-linecap="round" stroke-linejoin="round"/><circle cx="652.27" cy="305.2" r="28.23" fill="none" stroke="#b3b3b3" stroke-linecap="round" stroke-linejoin="round"/><line x1="652.27" y1="239.63" x2="652.27" y2="276.98" fill="none" stroke="#b3b3b3" stroke-linecap="round" stroke-linejoin="round"/><circle cx="589.73" cy="295.89" r="18.91" fill="none" stroke="#b3b3b3" stroke-linecap="round" stroke-linejoin="round"/><line x1="589.73" y1="239.63" x2="589.73" y2="276.98" fill="none" stroke="#b3b3b3" stroke-linecap="round" stroke-linejoin="round"/></g></g></svg>